<svg xmlns="http://www.w3.org/2000/svg" xmlns:xlink="http://www.w3.org/1999/xlink" width="93.934" height="93.934" viewBox="0 0 93.934 93.934">
  <defs>
    <filter id="Trazado_982547" x="0" y="0" width="93.934" height="93.934" filterUnits="userSpaceOnUse">
      <feOffset dy="3" input="SourceAlpha"/>
      <feGaussianBlur stdDeviation="3" result="blur"/>
      <feFlood flood-opacity="0.161"/>
      <feComposite operator="in" in2="blur"/>
      <feComposite in="SourceGraphic"/>
    </filter>
  </defs>
  <g id="Grupo_1221980" data-name="Grupo 1221980" transform="translate(-823.066 -1385.533)">
    <g id="Grupo_1219863" data-name="Grupo 1219863" transform="translate(632 342.684)">
      <g id="Grupo_1215981" data-name="Grupo 1215981" transform="translate(-0.229 -2679.151)">
        <g id="Grupo_1214594" data-name="Grupo 1214594" transform="translate(200.295 3728)">
          <g id="Grupo_1214432" data-name="Grupo 1214432" transform="translate(0)">
            <g id="Grupo_1183196" data-name="Grupo 1183196">
              <g id="Grupo_1179610" data-name="Grupo 1179610">
                <g id="Grupo_1175227" data-name="Grupo 1175227">
                  <g id="Grupo_1167337" data-name="Grupo 1167337">
                    <g id="Grupo_1166720" data-name="Grupo 1166720">
                      <g id="Grupo_1164305" data-name="Grupo 1164305">
                        <g id="Grupo_1163948" data-name="Grupo 1163948">
                          <g id="Grupo_1158168" data-name="Grupo 1158168">
                            <g id="Grupo_1152576" data-name="Grupo 1152576">
                              <g id="Grupo_1148633" data-name="Grupo 1148633">
                                <g id="Grupo_1148525" data-name="Grupo 1148525">
                                  <g transform="matrix(1, 0, 0, 1, -9, -6)" filter="url(#Trazado_982547)">
                                    <g id="Trazado_982547-2" data-name="Trazado 982547" transform="translate(9 6)" fill="#eae4dc">
                                      <path d="M 37.966796875 74.43359375 C 33.04315185546875 74.43359375 28.26757431030273 73.46962738037109 23.77274131774902 71.56847381591797 C 19.43047523498535 69.73184967041016 15.53040790557861 67.10224914550781 12.18087482452393 63.75271987915039 C 8.831341743469238 60.4031867980957 6.201741218566895 56.50312042236328 4.365118980407715 52.16086196899414 C 2.463963508605957 47.66601943969727 1.499996900558472 42.89044189453125 1.499996900558472 37.966796875 C 1.499996900558472 33.04315185546875 2.463963508605957 28.26757431030273 4.365118980407715 23.77274131774902 C 6.201741218566895 19.43047523498535 8.831341743469238 15.53040790557861 12.18087482452393 12.18087482452393 C 15.53040790557861 8.831341743469238 19.43047523498535 6.201741218566895 23.77274131774902 4.365118980407715 C 28.26757431030273 2.463963508605957 33.04315185546875 1.499996900558472 37.966796875 1.499996900558472 C 42.89044189453125 1.499996900558472 47.66601943969727 2.463963508605957 52.16086196899414 4.365118980407715 C 56.50312042236328 6.201741218566895 60.4031867980957 8.831341743469238 63.75271987915039 12.18087482452393 C 67.10224914550781 15.53040790557861 69.73184967041016 19.43047523498535 71.56847381591797 23.77274131774902 C 73.46962738037109 28.26757431030273 74.43359375 33.04315185546875 74.43359375 37.966796875 C 74.43359375 42.89044189453125 73.46962738037109 47.66601943969727 71.56847381591797 52.16086196899414 C 69.73184967041016 56.50313186645508 67.10224914550781 60.4031867980957 63.75271987915039 63.75271987915039 C 60.4031867980957 67.10224914550781 56.50313186645508 69.73184967041016 52.16086196899414 71.56847381591797 C 47.66601943969727 73.46962738037109 42.89044189453125 74.43359375 37.966796875 74.43359375 Z" stroke="none"/>
                                      <path d="M 37.966796875 3 C 33.2449836730957 3 28.66600799560547 3.924095153808594 24.35705947875977 5.746635437011719 C 20.19359588623047 7.507637023925781 16.45379638671875 10.02928161621094 13.24153518676758 13.24153518676758 C 10.02927398681641 16.45379638671875 7.507621765136719 20.19359588623047 5.746635437011719 24.35705947875977 C 3.924095153808594 28.66600799560547 3 33.2449836730957 3 37.966796875 C 3 42.6886100769043 3.924095153808594 47.26758575439453 5.746635437011719 51.57653427124023 C 7.507621765136719 55.73999786376953 10.02927398681641 59.47979736328125 13.24153518676758 62.69205856323242 C 16.45379638671875 65.90431976318359 20.19359588623047 68.42597198486328 24.35705947875977 70.18695831298828 C 28.66600799560547 72.00949859619141 33.2449836730957 72.93359375 37.966796875 72.93359375 C 42.6886100769043 72.93359375 47.26758575439453 72.00949859619141 51.57653427124023 70.18695831298828 C 55.73999786376953 68.42597198486328 59.47979736328125 65.90431976318359 62.69205856323242 62.69205856323242 C 65.90431976318359 59.47979736328125 68.42597198486328 55.73999786376953 70.18695831298828 51.57653427124023 C 72.00949859619141 47.26758575439453 72.93359375 42.6886100769043 72.93359375 37.966796875 C 72.93359375 33.2449836730957 72.00949859619141 28.66600799560547 70.18695831298828 24.35705947875977 C 68.42597198486328 20.19359588623047 65.90431976318359 16.45379638671875 62.69205856323242 13.24153518676758 C 59.47979736328125 10.02928161621094 55.73999786376953 7.507637023925781 51.57653427124023 5.746635437011719 C 47.26758575439453 3.924095153808594 42.6886100769043 3 37.966796875 3 M 37.966796875 0 C 58.93528366088867 0 75.93359375 16.99832153320312 75.93359375 37.966796875 C 75.93359375 58.93528366088867 58.93528366088867 75.93359375 37.966796875 75.93359375 C 16.99831008911133 75.93359375 0 58.93528366088867 0 37.966796875 C 0 16.99832153320312 16.99831008911133 0 37.966796875 0 Z" stroke="none" fill="#665b4e"/>
                                    </g>
                                  </g>
                                </g>
                              </g>
                            </g>
                          </g>
                        </g>
                      </g>
                    </g>
                  </g>
                </g>
              </g>
            </g>
          </g>
        </g>
      </g>
    </g>
    <g id="trato_1_" data-name="trato (1)" transform="translate(834.446 1388.064)">
      <g id="Grupo_1221975" data-name="Grupo 1221975" transform="translate(1.091 1.045)">
        <path id="Trazado_1175707" data-name="Trazado 1175707" d="M7.829,242.239h8.842v27.877H7.829Z" transform="translate(-7.829 -209.52)" fill="#fff"/>
        <path id="Trazado_1175708" data-name="Trazado 1175708" d="M51.266,242.239h2.788v27.877H51.266Z" transform="translate(-45.212 -209.52)" fill="#bedaee"/>
        <path id="Trazado_1175709" data-name="Trazado 1175709" d="M440.579,242.239h8.842v27.877h-8.842Z" transform="translate(-380.261 -209.52)" fill="#fff"/>
        <path id="Trazado_1175710" data-name="Trazado 1175710" d="M484.016,242.239H486.8v27.877h-2.788Z" transform="translate(-417.644 -209.52)" fill="#bedaee"/>
        <path id="Trazado_1175711" data-name="Trazado 1175711" d="M115.363,254.376,92.39,231.443l3.813-3.8-5.8.073a4.182,4.182,0,0,0-2.917,1.237L84,232.464H71.266v20.907H84.507l12.164,12.074a2.613,2.613,0,0,0,3.7-3.7l1.535,1.516a2.612,2.612,0,0,0,3.761-3.624l.919.919a2.612,2.612,0,0,0,3.74-3.647l1.412,1.412a2.811,2.811,0,0,0,3.628-.255A2.613,2.613,0,0,0,115.363,254.376Z" transform="translate(-62.424 -196.958)" fill="#ffcfc5"/>
        <path id="Trazado_1175712" data-name="Trazado 1175712" d="M264.76,308.89l-17.936-17.905-1.965,1.937,17.532,17.5a2.612,2.612,0,0,1,.514,2.96,2.781,2.781,0,0,0,1.855-.8A2.614,2.614,0,0,0,264.76,308.89Z" transform="translate(-211.821 -251.472)" fill="#ff9f87"/>
        <g id="Grupo_1221974" data-name="Grupo 1221974" transform="translate(13.203 30.684)">
          <path id="Trazado_1175713" data-name="Trazado 1175713" d="M152.092,359.63l-5.348,5.348a2.613,2.613,0,0,0,0,3.7,2.811,2.811,0,0,0,3.628.255l5.51-5.51a2.68,2.68,0,1,0-3.79-3.789Z" transform="translate(-139.926 -340.558)" fill="#ffcfc5"/>
          <path id="Trazado_1175714" data-name="Trazado 1175714" d="M107.684,355.757l-4.363,4.363a2.613,2.613,0,0,0,0,3.7,2.812,2.812,0,0,0,3.628.255l4.524-4.524a2.68,2.68,0,1,0-3.79-3.789Z" transform="translate(-102.557 -337.225)" fill="#ffcfc5"/>
          <path id="Trazado_1175715" data-name="Trazado 1175715" d="M179.279,386.817l-5.348,5.348a2.613,2.613,0,0,0,0,3.7,2.812,2.812,0,0,0,3.628.255l5.51-5.51a2.68,2.68,0,1,0-3.79-3.789Z" transform="translate(-163.324 -363.956)" fill="#ffcfc5"/>
          <path id="Trazado_1175716" data-name="Trazado 1175716" d="M205.481,421.076l-4.363,4.363a2.613,2.613,0,0,0,0,3.7,2.812,2.812,0,0,0,3.628.255l4.524-4.524a2.68,2.68,0,1,0-3.79-3.789Z" transform="translate(-186.722 -393.439)" fill="#ffcfc5"/>
          <path id="Trazado_1175717" data-name="Trazado 1175717" d="M202.888,232.474l-5.252-3.982a4.181,4.181,0,0,0-2.526-.849h-7.789l-10.18,9.988,1.915,2.1a4.181,4.181,0,0,0,6.006.175l3.482-3.432,17.177,17.153,8.137-.252v-20.9Z" transform="translate(-166.745 -227.643)" fill="#ffcfc5"/>
        </g>
        <path id="Trazado_1175718" data-name="Trazado 1175718" d="M387.029,262.3v20.9l-5.434.169.084.084,8.137-.252V262.3Z" transform="translate(-329.498 -226.787)" fill="#ff9f87"/>
        <path id="Trazado_1175719" data-name="Trazado 1175719" d="M315.923,54h9.321V73.8h-9.321Z" transform="translate(-272.98 -47.519)" fill="#bedaee"/>
        <path id="Trazado_1175720" data-name="Trazado 1175720" d="M362.8,54h2.788V73.8H362.8Z" transform="translate(-313.321 -47.519)" fill="#83a5b9"/>
        <path id="Trazado_1175721" data-name="Trazado 1175721" d="M114.048,54h9.321V73.8h-9.321Z" transform="translate(-99.243 -47.519)" fill="#bedaee"/>
        <path id="Trazado_1175722" data-name="Trazado 1175722" d="M160.923,54h2.788V73.8h-2.788Z" transform="translate(-139.584 -47.519)" fill="#83a5b9"/>
        <path id="Trazado_1175723" data-name="Trazado 1175723" d="M180.923,7.5H199.74V33.782H180.923Z" transform="translate(-156.797 -7.5)" fill="#bedaee"/>
        <path id="Trazado_1175724" data-name="Trazado 1175724" d="M295.923,7.5h2.788V33.782h-2.788Z" transform="translate(-255.768 -7.5)" fill="#83a5b9"/>
        <path id="Trazado_1175725" data-name="Trazado 1175725" d="M218.423,128h8.363v9.487h-8.363Z" transform="translate(-189.07 -111.204)" fill="#fff6bb"/>
        <path id="Trazado_1175726" data-name="Trazado 1175726" d="M258.423,128h2.788v9.487h-2.788Z" transform="translate(-223.495 -111.204)" fill="#ffc472"/>
      </g>
      <g id="Grupo_1221979" data-name="Grupo 1221979">
        <g id="Grupo_1221976" data-name="Grupo 1221976">
          <path id="Trazado_1175727" data-name="Trazado 1175727" fill="none" stroke="#000" stroke-miterlimit="10" stroke-width="15"/>
        </g>
        <g id="Grupo_1221977" data-name="Grupo 1221977">
          <path id="Trazado_1175728" data-name="Trazado 1175728" fill="none" stroke="#000" stroke-miterlimit="10" stroke-width="15"/>
        </g>
        <g id="Grupo_1221978" data-name="Grupo 1221978" transform="translate(0.046)">
          <path id="Trazado_1175729" data-name="Trazado 1175729" d="M60.647,222.177v2.8H51.072L46.1,221.2a5.257,5.257,0,0,0-3.158-1.062H34.726l-.005.005-5.383.068a5.2,5.2,0,0,0-3.646,1.547l-3.175,3.2H19.246v2.091h4.142l3.788-3.821a3.118,3.118,0,0,1,2.188-.928l3.2-.04-9.04,8.87,2.6,2.842a5.227,5.227,0,0,0,7.512.215l2.744-2.7,4.637,4.631,12.565,12.541a1.57,1.57,0,0,1,0,2.218,1.773,1.773,0,0,1-2.2.208l-6.03-5.975-1.47,1.487,4.641,4.587a1.567,1.567,0,0,1-2.248,2.182l-4.8-4.757L40,250.1l3.854,3.81a1.566,1.566,0,0,1-2.267,2.161L38.3,252.829a3.721,3.721,0,0,0-2.324-5.757,3.719,3.719,0,0,0-3.615-4.849c0-.023,0-.045,0-.068A3.725,3.725,0,0,0,26,239.52l-.881.881a3.726,3.726,0,0,0-6.157-1.421L14.6,243.343a3.646,3.646,0,0,0-1.069,2.528H11.262V227.055h5.876v-2.091H11.262v-2.788H.329v29.967H11.262v-4.181h2.887a3.672,3.672,0,0,0,.455.555,3.879,3.879,0,0,0,2.736,1.107,3.641,3.641,0,0,0,2.286-.776l.044-.036.128-.128a3.639,3.639,0,0,0,.858,1.358,3.877,3.877,0,0,0,2.722,1.106,3.648,3.648,0,0,0,1.068,2.683,3.877,3.877,0,0,0,2.72,1.106c0,.032,0,.064,0,.1a3.635,3.635,0,0,0,1.072,2.587,3.878,3.878,0,0,0,2.736,1.107,3.657,3.657,0,0,0,2.191-.706l1.721,1.708a3.658,3.658,0,0,0,6.092-1.54,3.666,3.666,0,0,0,5.3-2.441,3.676,3.676,0,0,0,4.645-2.546,3.913,3.913,0,0,0,4.131-.846,3.662,3.662,0,0,0,.693-4.209l4.9-.152v4.149H71.58V222.177ZM9.171,250.053H2.42V224.267H9.171v25.786Zm6.911-3.014a1.57,1.57,0,0,1,0-2.218l4.363-4.363a1.634,1.634,0,0,1,2.326,2.3l-4.492,4.493A1.773,1.773,0,0,1,16.082,247.039Zm5.593.417a1.557,1.557,0,0,1,.444-1.092L27.483,241a1.634,1.634,0,0,1,2.312,2.311h0l-5.463,5.463a1.773,1.773,0,0,1-2.2-.208,1.558,1.558,0,0,1-.46-1.109Zm3.79,3.79a1.558,1.558,0,0,1,.459-1.108l5.349-5.349a1.634,1.634,0,1,1,2.311,2.311l-.983.983,0,0-2.753,2.753-1.724,1.724a1.772,1.772,0,0,1-2.2-.208,1.557,1.557,0,0,1-.459-1.108Zm4.249,4.9a1.57,1.57,0,0,1,0-2.217l4.363-4.363a1.634,1.634,0,0,1,2.311,2.311l-4.477,4.477A1.773,1.773,0,0,1,29.714,256.143Zm8.865,2.109a1.571,1.571,0,0,1-2.22,0l-1.7-1.688,2.21-2.21,1.711,1.683A1.57,1.57,0,0,1,38.579,258.252Zm30.91-8.2H62.738V235.524H60.647V245.9l-6.668.207-8.541-8.524a5.186,5.186,0,0,0,2.9-1.4l.922-.89-1.452-1.5-.922.89a3.152,3.152,0,0,1-4.394-.037l-6.105-6.1L32.165,232.7a3.136,3.136,0,0,1-4.5-.131l-1.235-1.353,9.155-8.983h7.362a3.154,3.154,0,0,1,1.895.637l5.532,4.194H60.647v6.37h2.091v-9.166h6.751v25.786Z" transform="translate(-0.329 -189.458)"/>
          <path id="Trazado_1175730" data-name="Trazado 1175730" d="M466.141,368.739h2.091v2.091h-2.091Z" transform="translate(-401.215 -317.343)"/>
          <path id="Trazado_1175731" data-name="Trazado 1175731" d="M31.141,368.739h2.091v2.091H31.141Z" transform="translate(-26.846 -317.343)"/>
          <path id="Trazado_1175732" data-name="Trazado 1175732" d="M341.8,83.5h2.108v2.091H341.8Z" transform="translate(-294.203 -71.862)"/>
          <path id="Trazado_1175733" data-name="Trazado 1175733" d="M341.8,113.5h2.108v2.091H341.8Z" transform="translate(-294.203 -97.68)"/>
          <path id="Trazado_1175734" data-name="Trazado 1175734" d="M341.8,143.5h2.108v2.091H341.8Z" transform="translate(-294.203 -123.499)"/>
          <path id="Trazado_1175735" data-name="Trazado 1175735" d="M139.923,83.5h2.108v2.091h-2.108Z" transform="translate(-120.466 -71.862)"/>
          <path id="Trazado_1175736" data-name="Trazado 1175736" d="M139.923,113.5h2.108v2.091h-2.108Z" transform="translate(-120.466 -97.68)"/>
          <path id="Trazado_1175737" data-name="Trazado 1175737" d="M139.923,143.5h2.108v2.091h-2.108Z" transform="translate(-120.466 -123.499)"/>
          <path id="Trazado_1175738" data-name="Trazado 1175738" d="M210.923,30.562h2.108v2.091h-2.108Z" transform="translate(-181.57 -26.302)"/>
          <path id="Trazado_1175739" data-name="Trazado 1175739" d="M240.36,30.562h2.108v2.091H240.36Z" transform="translate(-206.904 -26.302)"/>
          <path id="Trazado_1175740" data-name="Trazado 1175740" d="M270.36,30.562h2.108v2.091H270.36Z" transform="translate(-232.722 -26.302)"/>
          <path id="Trazado_1175741" data-name="Trazado 1175741" d="M210.923,60.562h2.108v2.091h-2.108Z" transform="translate(-181.57 -52.121)"/>
          <path id="Trazado_1175742" data-name="Trazado 1175742" d="M240.36,60.562h2.108v2.091H240.36Z" transform="translate(-206.904 -52.121)"/>
          <path id="Trazado_1175743" data-name="Trazado 1175743" d="M270.36,60.562h2.108v2.091H270.36Z" transform="translate(-232.722 -52.121)"/>
          <path id="Trazado_1175744" data-name="Trazado 1175744" d="M210.923,90.562h2.108v2.091h-2.108Z" transform="translate(-181.57 -77.939)"/>
          <path id="Trazado_1175745" data-name="Trazado 1175745" d="M240.36,90.562h2.108v2.091H240.36Z" transform="translate(-206.904 -77.939)"/>
          <path id="Trazado_1175746" data-name="Trazado 1175746" d="M270.36,90.562h2.108v2.091H270.36Z" transform="translate(-232.722 -77.939)"/>
          <path id="Trazado_1175747" data-name="Trazado 1175747" d="M124.118,28.373V26.282h-4.269V6.481h-9.321V0H89.62V6.481H80.3v19.8H76.048v2.091Zm-27.18-2.091v-7.4h6.272v7.4ZM91.711,2.091h16.726V14.775h2.091v-6.2h7.23v17.71h-7.23V16.912h-2.091v9.371H105.3V16.8H94.847v9.487H91.711ZM82.39,26.282V8.572h7.23v17.71Z" transform="translate(-65.494)"/>
        </g>
      </g>
    </g>
  </g>
</svg>
