<svg xmlns="http://www.w3.org/2000/svg" xmlns:xlink="http://www.w3.org/1999/xlink" width="93.934" height="93.934" viewBox="0 0 93.934 93.934">
  <defs>
    <filter id="Trazado_982547" x="0" y="0" width="93.934" height="93.934" filterUnits="userSpaceOnUse">
      <feOffset dy="3" input="SourceAlpha"/>
      <feGaussianBlur stdDeviation="3" result="blur"/>
      <feFlood flood-opacity="0.161"/>
      <feComposite operator="in" in2="blur"/>
      <feComposite in="SourceGraphic"/>
    </filter>
  </defs>
  <g id="Grupo_1221948" data-name="Grupo 1221948" transform="translate(-193.066 -1258.533)">
    <g id="Grupo_1219857" data-name="Grupo 1219857" transform="translate(2 215.684)">
      <g id="Grupo_1215981" data-name="Grupo 1215981" transform="translate(-0.229 -2679.151)">
        <g id="Grupo_1214594" data-name="Grupo 1214594" transform="translate(200.295 3728)">
          <g id="Grupo_1214432" data-name="Grupo 1214432" transform="translate(0)">
            <g id="Grupo_1183196" data-name="Grupo 1183196">
              <g id="Grupo_1179610" data-name="Grupo 1179610">
                <g id="Grupo_1175227" data-name="Grupo 1175227">
                  <g id="Grupo_1167337" data-name="Grupo 1167337">
                    <g id="Grupo_1166720" data-name="Grupo 1166720">
                      <g id="Grupo_1164305" data-name="Grupo 1164305">
                        <g id="Grupo_1163948" data-name="Grupo 1163948">
                          <g id="Grupo_1158168" data-name="Grupo 1158168">
                            <g id="Grupo_1152576" data-name="Grupo 1152576">
                              <g id="Grupo_1148633" data-name="Grupo 1148633">
                                <g id="Grupo_1148525" data-name="Grupo 1148525">
                                  <g transform="matrix(1, 0, 0, 1, -9, -6)" filter="url(#Trazado_982547)">
                                    <g id="Trazado_982547-2" data-name="Trazado 982547" transform="translate(9 6)" fill="#eae4dc">
                                      <path d="M 37.966796875 74.43359375 C 33.04315185546875 74.43359375 28.26757431030273 73.46962738037109 23.77274131774902 71.56847381591797 C 19.43047523498535 69.73184967041016 15.53040790557861 67.10224914550781 12.18087482452393 63.75271987915039 C 8.831341743469238 60.4031867980957 6.201741218566895 56.50312042236328 4.365118980407715 52.16086196899414 C 2.463963508605957 47.66601943969727 1.499996900558472 42.89044189453125 1.499996900558472 37.966796875 C 1.499996900558472 33.04315185546875 2.463963508605957 28.26757431030273 4.365118980407715 23.77274131774902 C 6.201741218566895 19.43047523498535 8.831341743469238 15.53040790557861 12.18087482452393 12.18087482452393 C 15.53040790557861 8.831341743469238 19.43047523498535 6.201741218566895 23.77274131774902 4.365118980407715 C 28.26757431030273 2.463963508605957 33.04315185546875 1.499996900558472 37.966796875 1.499996900558472 C 42.89044189453125 1.499996900558472 47.66601943969727 2.463963508605957 52.16086196899414 4.365118980407715 C 56.50312042236328 6.201741218566895 60.4031867980957 8.831341743469238 63.75271987915039 12.18087482452393 C 67.10224914550781 15.53040790557861 69.73184967041016 19.43047523498535 71.56847381591797 23.77274131774902 C 73.46962738037109 28.26757431030273 74.43359375 33.04315185546875 74.43359375 37.966796875 C 74.43359375 42.89044189453125 73.46962738037109 47.66601943969727 71.56847381591797 52.16086196899414 C 69.73184967041016 56.50313186645508 67.10224914550781 60.4031867980957 63.75271987915039 63.75271987915039 C 60.4031867980957 67.10224914550781 56.50313186645508 69.73184967041016 52.16086196899414 71.56847381591797 C 47.66601943969727 73.46962738037109 42.89044189453125 74.43359375 37.966796875 74.43359375 Z" stroke="none"/>
                                      <path d="M 37.966796875 3 C 33.2449836730957 3 28.66600799560547 3.924095153808594 24.35705947875977 5.746635437011719 C 20.19359588623047 7.507637023925781 16.45379638671875 10.02928161621094 13.24153518676758 13.24153518676758 C 10.02927398681641 16.45379638671875 7.507621765136719 20.19359588623047 5.746635437011719 24.35705947875977 C 3.924095153808594 28.66600799560547 3 33.2449836730957 3 37.966796875 C 3 42.6886100769043 3.924095153808594 47.26758575439453 5.746635437011719 51.57653427124023 C 7.507621765136719 55.73999786376953 10.02927398681641 59.47979736328125 13.24153518676758 62.69205856323242 C 16.45379638671875 65.90431976318359 20.19359588623047 68.42597198486328 24.35705947875977 70.18695831298828 C 28.66600799560547 72.00949859619141 33.2449836730957 72.93359375 37.966796875 72.93359375 C 42.6886100769043 72.93359375 47.26758575439453 72.00949859619141 51.57653427124023 70.18695831298828 C 55.73999786376953 68.42597198486328 59.47979736328125 65.90431976318359 62.69205856323242 62.69205856323242 C 65.90431976318359 59.47979736328125 68.42597198486328 55.73999786376953 70.18695831298828 51.57653427124023 C 72.00949859619141 47.26758575439453 72.93359375 42.6886100769043 72.93359375 37.966796875 C 72.93359375 33.2449836730957 72.00949859619141 28.66600799560547 70.18695831298828 24.35705947875977 C 68.42597198486328 20.19359588623047 65.90431976318359 16.45379638671875 62.69205856323242 13.24153518676758 C 59.47979736328125 10.02928161621094 55.73999786376953 7.507637023925781 51.57653427124023 5.746635437011719 C 47.26758575439453 3.924095153808594 42.6886100769043 3 37.966796875 3 M 37.966796875 0 C 58.93528366088867 0 75.93359375 16.99832153320312 75.93359375 37.966796875 C 75.93359375 58.93528366088867 58.93528366088867 75.93359375 37.966796875 75.93359375 C 16.99831008911133 75.93359375 0 58.93528366088867 0 37.966796875 C 0 16.99832153320312 16.99831008911133 0 37.966796875 0 Z" stroke="none" fill="#665b4e"/>
                                    </g>
                                  </g>
                                </g>
                              </g>
                            </g>
                          </g>
                        </g>
                      </g>
                    </g>
                  </g>
                </g>
              </g>
            </g>
          </g>
        </g>
      </g>
    </g>
    <g id="metodo-de-pago" transform="translate(208.172 1273.727)">
      <path id="Trazado_1175601" data-name="Trazado 1175601" d="M107.34,372.017v9.868c5.621.248,4,1.241,13.778,5.638a9.255,9.255,0,0,0,7.2-.122l.006,0,19.212-6.879c.625-.288,3.779-2,2.535-5.192-1.454-3.4-5.2-1.983-5.51-1.881l-10.03,2.773" transform="translate(-93.981 -325.696)" fill="#eac092"/>
      <g id="Grupo_1221945" data-name="Grupo 1221945" transform="translate(13.359 39.837)">
        <path id="Trazado_1175602" data-name="Trazado 1175602" d="M118.689,330.533l11.17,3.54a3.67,3.67,0,0,0,4.533-2.526h0a4.026,4.026,0,0,0-2.81-4.808l-9.909-3.363a8.423,8.423,0,0,0-7.153-3.455c-3.181,0-5.923,2.571-7.179,4.821v4.493" transform="translate(-107.341 -319.921)" fill="#fedbab"/>
      </g>
      <path id="Trazado_1175603" data-name="Trazado 1175603" d="M153.995,386.346a1.226,1.226,0,0,1-.243-.025,1.2,1.2,0,0,1-.234-.071,1.254,1.254,0,0,1-.214-.115,1.208,1.208,0,0,1-.344-.344,1.151,1.151,0,0,1-.115-.215,1.17,1.17,0,0,1-.071-.233,1.2,1.2,0,0,1,0-.485,1.206,1.206,0,0,1,.071-.234,1.227,1.227,0,0,1,.458-.558,1.264,1.264,0,0,1,.214-.115,1.207,1.207,0,0,1,.234-.071,1.225,1.225,0,0,1,.485,0,1.169,1.169,0,0,1,.233.071,1.23,1.23,0,0,1,.215.115,1.21,1.21,0,0,1,.344.344,1.263,1.263,0,0,1,.114.214,1.3,1.3,0,0,1,.071.234,1.2,1.2,0,0,1,0,.485,1.257,1.257,0,0,1-.071.233,1.23,1.23,0,0,1-.114.215,1.208,1.208,0,0,1-.344.344,1.227,1.227,0,0,1-.215.115,1.167,1.167,0,0,1-.233.071A1.227,1.227,0,0,1,153.995,386.346Z" transform="translate(-133.739 -336.063)"/>
      <rect id="Rectángulo_420881" data-name="Rectángulo 420881" width="4.715" height="13.372" transform="translate(8.645 44.499)" fill="#eaecf0"/>
      <rect id="Rectángulo_420882" data-name="Rectángulo 420882" width="7.4" height="15.692" transform="translate(1.245 44.499)" fill="#3688c8"/>
      <path id="Trazado_1175604" data-name="Trazado 1175604" d="M57.25,320.508l-.015-.037c-1.146-2.68-3.832-3.671-7.011-2.585l-8.671,2.4a5.684,5.684,0,0,0-3.52-3.466L38,316.806l-9.531-3.235a9.831,9.831,0,0,0-7.931-3.649c-3.251,0-6.128,2.231-7.773,4.662H1.245A1.245,1.245,0,0,0,0,315.828V331.52a1.245,1.245,0,0,0,1.245,1.245h7.4a1.245,1.245,0,0,0,1.245-1.245v-1.075h3.47A1.245,1.245,0,0,0,14.6,329.2v-.358a8.824,8.824,0,0,1,4.546,1.632,75.321,75.321,0,0,0,7.477,3.818l.055.023a11.171,11.171,0,0,0,4,.755,9.92,9.92,0,0,0,4.123-.883l19.165-6.862c.034-.012.068-.026.1-.041C55.907,326.441,58.637,324.066,57.25,320.508ZM7.4,330.275H2.489v-13.2H7.4Zm4.715-2.319H9.889V317.073h2.226ZM53.081,325l-19.157,6.859-.056.022-.05.022a8.067,8.067,0,0,1-6.2.106,72.1,72.1,0,0,1-7.226-3.691,11.2,11.2,0,0,0-5.79-1.969V316.324c1.18-1.934,3.468-3.913,5.934-3.913a7.182,7.182,0,0,1,6.093,2.862,1.245,1.245,0,0,0,.66.527l9.891,3.357a2.792,2.792,0,0,1,2.031,3.295,2.425,2.425,0,0,1-2.98,1.674l-11.151-3.534a1.245,1.245,0,0,0-.752,2.373L35.5,326.5l.036.011a4.885,4.885,0,0,0,3.736-.434,4.881,4.881,0,0,0,2.335-2.949q.043-.151.076-.3l9.345-2.589c1.35-.461,3.121-.627,3.91,1.19C55.754,323.564,53.632,324.737,53.081,325Z" transform="translate(0 -271.329)"/>
      <path id="Trazado_1175605" data-name="Trazado 1175605" d="M64.642,21.077,53.588,10.023,39.729,23.882,63.412,47.565,76.49,34.487" transform="translate(-34.784 -8.755)" fill="#26cfad"/>
      <path id="Trazado_1175606" data-name="Trazado 1175606" d="M148.994,113.959h0l0-.007a5.85,5.85,0,1,0,6.249,5.983" transform="translate(-125.681 -99.749)" fill="#ffd36c"/>
      <path id="Trazado_1175607" data-name="Trazado 1175607" d="M216.264,41.5V31.635c-5.621-.248-4-1.241-13.778-5.638a9.255,9.255,0,0,0-7.2.122l-.006,0-5.8,2.075,5.981,5.981" transform="translate(-165.9 -22.151)" fill="#eac092"/>
      <g id="Grupo_1221946" data-name="Grupo 1221946" transform="translate(4.945 1.268)">
        <path id="Trazado_1175608" data-name="Trazado 1175608" d="M39.729,88.327l4.7-4.7a6.652,6.652,0,0,1,0,9.4Z" transform="translate(-39.729 -74.467)" fill="#00b192"/>
        <path id="Trazado_1175609" data-name="Trazado 1175609" d="M192.264,260.244a6.652,6.652,0,0,1,9.4,0l-4.7,4.7Z" transform="translate(-173.28 -227.401)" fill="#00b192"/>
        <path id="Trazado_1175610" data-name="Trazado 1175610" d="M113.333,14.722l4.7-4.7,4.7,4.7A6.652,6.652,0,0,1,113.333,14.722Z" transform="translate(-104.172 -10.023)" fill="#00b192"/>
        <path id="Trazado_1175611" data-name="Trazado 1175611" d="M288.405,182.048a6.653,6.653,0,0,0,1.545,6.971l3.918-3.918" transform="translate(-257.107 -160.638)" fill="#00b192"/>
      </g>
      <g id="Grupo_1221947" data-name="Grupo 1221947" transform="translate(23.173 11.543)">
        <path id="Trazado_1175612" data-name="Trazado 1175612" d="M202.033,96.266l-11.17-3.54a3.669,3.669,0,0,0-4.533,2.526h0a4.026,4.026,0,0,0,2.81,4.808l9.913,3.364h0a8.423,8.423,0,0,0,7.153,3.455c3.181,0,5.923-2.571,7.179-4.821V97.563" transform="translate(-186.19 -92.585)" fill="#fedbab"/>
      </g>
      <path id="Trazado_1175613" data-name="Trazado 1175613" d="M340.495,125.987a1.226,1.226,0,0,1-.243-.025,1.256,1.256,0,0,1-.233-.071,1.229,1.229,0,0,1-.215-.115,1.209,1.209,0,0,1-.344-.344,1.229,1.229,0,0,1-.114-.215,1.167,1.167,0,0,1-.071-.233,1.2,1.2,0,0,1,0-.485,1.2,1.2,0,0,1,.071-.234,1.262,1.262,0,0,1,.114-.214,1.209,1.209,0,0,1,.344-.344,1.229,1.229,0,0,1,.215-.115,1.169,1.169,0,0,1,.233-.071,1.24,1.24,0,0,1,.719.071,1.264,1.264,0,0,1,.214.115,1.244,1.244,0,0,1,.458.558,1.208,1.208,0,0,1,.072.234,1.257,1.257,0,0,1,0,.485,1.171,1.171,0,0,1-.072.233,1.149,1.149,0,0,1-.114.215,1.209,1.209,0,0,1-.344.344,1.264,1.264,0,0,1-.214.115,1.318,1.318,0,0,1-.233.071A1.248,1.248,0,0,1,340.495,125.987Z" transform="translate(-297.028 -108.107)"/>
      <rect id="Rectángulo_420883" data-name="Rectángulo 420883" width="4.715" height="13.372" transform="translate(50.363 7.803)" fill="#eaecf0"/>
      <rect id="Rectángulo_420884" data-name="Rectángulo 420884" width="7.4" height="15.692" transform="translate(55.078 5.483)" fill="#3688c8"/>
      <path id="Trazado_1175614" data-name="Trazado 1175614" d="M88.473,4.238h-7.4a1.245,1.245,0,0,0-1.245,1.245V6.558h-3.47A1.245,1.245,0,0,0,75.114,7.8V8.16a8.824,8.824,0,0,1-4.546-1.632,75.309,75.309,0,0,0-7.477-3.818l-.055-.023a10.588,10.588,0,0,0-8.127.128L49.9,4.609,45.679.388a1.245,1.245,0,0,0-1.76,0L30.06,14.247a1.234,1.234,0,0,0,0,1.76L53.743,39.69a1.345,1.345,0,0,0,1.76,0L68.156,27.037c.329.028.67.044,1.024.044,3.252,0,6.128-2.231,7.773-4.662h11.52a1.245,1.245,0,0,0,1.245-1.245V5.483A1.245,1.245,0,0,0,88.473,4.238ZM47.956,15.781a5.51,5.51,0,0,0,3.729,4.4l.033.012,2.489.845a4.605,4.605,0,1,1-6.251-5.26Zm2.49-4.86a4.878,4.878,0,0,0-2.028,2.142,7.094,7.094,0,1,0,8.156,8.781l4.2,1.426a7.946,7.946,0,0,0,1.318,6.308l-2.842,2.842a7.909,7.909,0,0,0-9.258,0L37.33,19.757a7.909,7.909,0,0,0,0-9.259l2.84-2.84a7.909,7.909,0,0,0,9.259,0l2.692,2.692A4.912,4.912,0,0,0,50.446,10.921ZM63.888,27.785a5.444,5.444,0,0,1-.8-2.588,9.677,9.677,0,0,0,2.195,1.188ZM44.8,3.028l2.837,2.837a5.426,5.426,0,0,1-5.673,0ZM35.537,12.29a5.426,5.426,0,0,1,0,5.673L32.7,15.127ZM54.623,37.05l-2.836-2.836a5.419,5.419,0,0,1,5.672,0ZM69.18,24.591a9.058,9.058,0,0,1-1.3-.091h0a7.128,7.128,0,0,1-4.61-2.523c-.025-.037-.134-.179-.15-.2a1.24,1.24,0,0,0-.686-.57l-9.9-3.359A2.793,2.793,0,0,1,50.5,14.552v-.006a2.425,2.425,0,0,1,2.978-1.669L64.635,16.41a1.245,1.245,0,1,0,.752-2.373l-8.868-2.81-.077-.077,0,0L51.848,6.556l3.946-1.413.043-.016.013-.005L55.9,5.1a8.066,8.066,0,0,1,6.2-.106,72.094,72.094,0,0,1,7.226,3.691,11.2,11.2,0,0,0,5.79,1.969V20.678C73.934,22.612,71.647,24.591,69.18,24.591ZM77.6,9.047h2.226V19.93H77.6ZM87.229,19.93H82.318V6.728h4.911Z" transform="translate(-25.995)"/>
    </g>
  </g>
</svg>
