<svg xmlns="http://www.w3.org/2000/svg" xmlns:xlink="http://www.w3.org/1999/xlink" width="93.934" height="93.934" viewBox="0 0 93.934 93.934">
  <defs>
    <filter id="Trazado_982547" x="0" y="0" width="93.934" height="93.934" filterUnits="userSpaceOnUse">
      <feOffset dy="3" input="SourceAlpha"/>
      <feGaussianBlur stdDeviation="3" result="blur"/>
      <feFlood flood-opacity="0.161"/>
      <feComposite operator="in" in2="blur"/>
      <feComposite in="SourceGraphic"/>
    </filter>
  </defs>
  <g id="Grupo_1221964" data-name="Grupo 1221964" transform="translate(-508.066 -1258.533)">
    <g id="Grupo_1219858" data-name="Grupo 1219858" transform="translate(317 215.684)">
      <g id="Grupo_1215981" data-name="Grupo 1215981" transform="translate(-0.229 -2679.151)">
        <g id="Grupo_1214594" data-name="Grupo 1214594" transform="translate(200.295 3728)">
          <g id="Grupo_1214432" data-name="Grupo 1214432" transform="translate(0)">
            <g id="Grupo_1183196" data-name="Grupo 1183196">
              <g id="Grupo_1179610" data-name="Grupo 1179610">
                <g id="Grupo_1175227" data-name="Grupo 1175227">
                  <g id="Grupo_1167337" data-name="Grupo 1167337">
                    <g id="Grupo_1166720" data-name="Grupo 1166720">
                      <g id="Grupo_1164305" data-name="Grupo 1164305">
                        <g id="Grupo_1163948" data-name="Grupo 1163948">
                          <g id="Grupo_1158168" data-name="Grupo 1158168">
                            <g id="Grupo_1152576" data-name="Grupo 1152576">
                              <g id="Grupo_1148633" data-name="Grupo 1148633">
                                <g id="Grupo_1148525" data-name="Grupo 1148525">
                                  <g transform="matrix(1, 0, 0, 1, -9, -6)" filter="url(#Trazado_982547)">
                                    <g id="Trazado_982547-2" data-name="Trazado 982547" transform="translate(9 6)" fill="#eae4dc">
                                      <path d="M 37.966796875 74.43359375 C 33.04315185546875 74.43359375 28.26757431030273 73.46962738037109 23.77274131774902 71.56847381591797 C 19.43047523498535 69.73184967041016 15.53040790557861 67.10224914550781 12.18087482452393 63.75271987915039 C 8.831341743469238 60.4031867980957 6.201741218566895 56.50312042236328 4.365118980407715 52.16086196899414 C 2.463963508605957 47.66601943969727 1.499996900558472 42.89044189453125 1.499996900558472 37.966796875 C 1.499996900558472 33.04315185546875 2.463963508605957 28.26757431030273 4.365118980407715 23.77274131774902 C 6.201741218566895 19.43047523498535 8.831341743469238 15.53040790557861 12.18087482452393 12.18087482452393 C 15.53040790557861 8.831341743469238 19.43047523498535 6.201741218566895 23.77274131774902 4.365118980407715 C 28.26757431030273 2.463963508605957 33.04315185546875 1.499996900558472 37.966796875 1.499996900558472 C 42.89044189453125 1.499996900558472 47.66601943969727 2.463963508605957 52.16086196899414 4.365118980407715 C 56.50312042236328 6.201741218566895 60.4031867980957 8.831341743469238 63.75271987915039 12.18087482452393 C 67.10224914550781 15.53040790557861 69.73184967041016 19.43047523498535 71.56847381591797 23.77274131774902 C 73.46962738037109 28.26757431030273 74.43359375 33.04315185546875 74.43359375 37.966796875 C 74.43359375 42.89044189453125 73.46962738037109 47.66601943969727 71.56847381591797 52.16086196899414 C 69.73184967041016 56.50313186645508 67.10224914550781 60.4031867980957 63.75271987915039 63.75271987915039 C 60.4031867980957 67.10224914550781 56.50313186645508 69.73184967041016 52.16086196899414 71.56847381591797 C 47.66601943969727 73.46962738037109 42.89044189453125 74.43359375 37.966796875 74.43359375 Z" stroke="none"/>
                                      <path d="M 37.966796875 3 C 33.2449836730957 3 28.66600799560547 3.924095153808594 24.35705947875977 5.746635437011719 C 20.19359588623047 7.507637023925781 16.45379638671875 10.02928161621094 13.24153518676758 13.24153518676758 C 10.02927398681641 16.45379638671875 7.507621765136719 20.19359588623047 5.746635437011719 24.35705947875977 C 3.924095153808594 28.66600799560547 3 33.2449836730957 3 37.966796875 C 3 42.6886100769043 3.924095153808594 47.26758575439453 5.746635437011719 51.57653427124023 C 7.507621765136719 55.73999786376953 10.02927398681641 59.47979736328125 13.24153518676758 62.69205856323242 C 16.45379638671875 65.90431976318359 20.19359588623047 68.42597198486328 24.35705947875977 70.18695831298828 C 28.66600799560547 72.00949859619141 33.2449836730957 72.93359375 37.966796875 72.93359375 C 42.6886100769043 72.93359375 47.26758575439453 72.00949859619141 51.57653427124023 70.18695831298828 C 55.73999786376953 68.42597198486328 59.47979736328125 65.90431976318359 62.69205856323242 62.69205856323242 C 65.90431976318359 59.47979736328125 68.42597198486328 55.73999786376953 70.18695831298828 51.57653427124023 C 72.00949859619141 47.26758575439453 72.93359375 42.6886100769043 72.93359375 37.966796875 C 72.93359375 33.2449836730957 72.00949859619141 28.66600799560547 70.18695831298828 24.35705947875977 C 68.42597198486328 20.19359588623047 65.90431976318359 16.45379638671875 62.69205856323242 13.24153518676758 C 59.47979736328125 10.02928161621094 55.73999786376953 7.507637023925781 51.57653427124023 5.746635437011719 C 47.26758575439453 3.924095153808594 42.6886100769043 3 37.966796875 3 M 37.966796875 0 C 58.93528366088867 0 75.93359375 16.99832153320312 75.93359375 37.966796875 C 75.93359375 58.93528366088867 58.93528366088867 75.93359375 37.966796875 75.93359375 C 16.99831008911133 75.93359375 0 58.93528366088867 0 37.966796875 C 0 16.99832153320312 16.99831008911133 0 37.966796875 0 Z" stroke="none" fill="#665b4e"/>
                                    </g>
                                  </g>
                                </g>
                              </g>
                            </g>
                          </g>
                        </g>
                      </g>
                    </g>
                  </g>
                </g>
              </g>
            </g>
          </g>
        </g>
      </g>
    </g>
    <g id="lista-de-verificacion_2_" data-name="lista-de-verificacion (2)" transform="translate(533.379 1251.618)">
      <g id="Grupo_1221962" data-name="Grupo 1221962" transform="translate(0.874 23.049)">
        <path id="Trazado_1175615" data-name="Trazado 1175615" d="M219.754,82.385h-35.3a1.047,1.047,0,0,1-1.047-1.047V30.723a1.047,1.047,0,0,1,1.047-1.047h35.3a1.047,1.047,0,0,1,1.047,1.047V81.338A1.047,1.047,0,0,1,219.754,82.385Z" transform="translate(-162.928 -29.676)" fill="#faf7f8"/>
        <path id="Trazado_1175616" data-name="Trazado 1175616" d="M474.313,29.675h-2.794a1.047,1.047,0,0,1,1.047,1.047V81.337a1.047,1.047,0,0,1-1.047,1.047h2.794a1.047,1.047,0,0,0,1.047-1.047V30.722A1.047,1.047,0,0,0,474.313,29.675Z" transform="translate(-417.487 -29.675)" fill="#f0eef0"/>
        <g id="Grupo_1221956" data-name="Grupo 1221956" transform="translate(0 11.194)">
          <path id="Trazado_1175617" data-name="Trazado 1175617" d="M78.039,132.271H73.783V126.11a.3.3,0,0,1,.3-.3h3.65a.3.3,0,0,1,.3.3Z" transform="translate(-66.065 -125.807)" fill="#4f6c77"/>
          <path id="Trazado_1175618" data-name="Trazado 1175618" d="M78.039,141.026l-4.256,1.887v2.805h4.256Z" transform="translate(-66.065 -139.254)" fill="#395a61"/>
          <path id="Trazado_1175619" data-name="Trazado 1175619" d="M79.252,183.362H47.071V157.045l16.09-6.44,16.091,6.44Z" transform="translate(-42.464 -147.717)" fill="#ffba7c"/>
          <path id="Trazado_1175620" data-name="Trazado 1175620" d="M47.071,157.044v4.439l15.437-6.844a1.613,1.613,0,0,1,1.307,0l15.437,6.844v-4.439l-16.09-6.44Z" transform="translate(-42.464 -147.716)" fill="#ffab56"/>
          <g id="Grupo_1221949" data-name="Grupo 1221949" transform="translate(0 0)">
            <path id="Trazado_1175621" data-name="Trazado 1175621" d="M46.786,138.69,28.2,130.452,9.62,138.69a.533.533,0,0,1-.7-.271l-1.366-3.081a.533.533,0,0,1,.271-.7L27.3,126a2.218,2.218,0,0,1,1.8,0l19.482,8.637a.533.533,0,0,1,.271.7l-1.366,3.081A.533.533,0,0,1,46.786,138.69Z" transform="translate(-7.505 -125.808)" fill="#6bb0e6"/>
          </g>
          <g id="Grupo_1221950" data-name="Grupo 1221950" transform="translate(18.385)">
            <path id="Trazado_1175622" data-name="Trazado 1175622" d="M188.081,134.634,168.6,126a2.218,2.218,0,0,0-1.8,0l-1.414.627a2.216,2.216,0,0,1,.712.181l19.482,8.637a.533.533,0,0,1,.271.7l-.872,1.967,1.3.578a.533.533,0,0,0,.7-.271l1.366-3.081A.533.533,0,0,0,188.081,134.634Z" transform="translate(-165.387 -125.807)" fill="#0c90db"/>
          </g>
          <g id="Grupo_1221951" data-name="Grupo 1221951" transform="translate(16.877 27.405)">
            <path id="Trazado_1175623" data-name="Trazado 1175623" d="M160.082,369.389H152.44v-7.135a1.105,1.105,0,0,1,1.105-1.105h5.431a1.105,1.105,0,0,1,1.105,1.105Z" transform="translate(-152.44 -361.149)" fill="#4f6c77"/>
            <path id="Trazado_1175624" data-name="Trazado 1175624" d="M190.155,361.15h-2.427a1.105,1.105,0,0,1,1.105,1.105v7.135h2.427v-7.135A1.105,1.105,0,0,0,190.155,361.15Z" transform="translate(-183.619 -361.15)" fill="#395a61"/>
          </g>
          <g id="Grupo_1221954" data-name="Grupo 1221954" transform="translate(9.846 15.918)">
            <g id="Grupo_1221952" data-name="Grupo 1221952">
              <path id="Trazado_1175625" data-name="Trazado 1175625" d="M97.629,269.837H92.592a.533.533,0,0,1-.534-.534v-4.922a1.878,1.878,0,0,1,1.878-1.878h2.349a1.878,1.878,0,0,1,1.878,1.878V269.3A.534.534,0,0,1,97.629,269.837Z" transform="translate(-92.058 -262.504)" fill="#faf7f8"/>
              <path id="Trazado_1175626" data-name="Trazado 1175626" d="M113.181,262.5h-2a1.878,1.878,0,0,1,1.878,1.878V269.3a.533.533,0,0,1-.534.534h2a.533.533,0,0,0,.534-.534v-4.922a1.878,1.878,0,0,0-1.878-1.878Z" transform="translate(-108.954 -262.504)" fill="#f0eef0"/>
            </g>
            <g id="Grupo_1221953" data-name="Grupo 1221953" transform="translate(15.6)">
              <path id="Trazado_1175627" data-name="Trazado 1175627" d="M231.594,269.837h-5.037a.534.534,0,0,1-.534-.534v-4.922A1.878,1.878,0,0,1,227.9,262.5h2.349a1.878,1.878,0,0,1,1.878,1.878V269.3A.534.534,0,0,1,231.594,269.837Z" transform="translate(-226.023 -262.504)" fill="#faf7f8"/>
              <path id="Trazado_1175628" data-name="Trazado 1175628" d="M247.146,262.5h-2a1.878,1.878,0,0,1,1.878,1.878V269.3a.534.534,0,0,1-.534.534h2a.533.533,0,0,0,.534-.534v-4.922A1.878,1.878,0,0,0,247.146,262.5Z" transform="translate(-242.919 -262.504)" fill="#f0eef0"/>
            </g>
          </g>
          <g id="Grupo_1221955" data-name="Grupo 1221955" transform="translate(1.411 24.419)">
            <path id="Trazado_1175629" data-name="Trazado 1175629" d="M26.336,339.182a2.858,2.858,0,1,0-5.489-.028,1.022,1.022,0,0,1-.213.966,3.972,3.972,0,1,0,5.922,0A.987.987,0,0,1,26.336,339.182Z" transform="translate(-19.623 -335.513)" fill="#6ce79a"/>
            <path id="Trazado_1175630" data-name="Trazado 1175630" d="M47.327,340.117a.986.986,0,0,1-.219-.935,2.858,2.858,0,0,0-3.975-3.388,2.854,2.854,0,0,1,1.514,3.388.987.987,0,0,0,.219.935,3.972,3.972,0,0,1-1.728,6.426,3.9,3.9,0,0,0,.948.186,3.972,3.972,0,0,0,3.241-6.612Z" transform="translate(-40.395 -335.513)" fill="#00d8a2"/>
          </g>
        </g>
        <g id="Grupo_1221961" data-name="Grupo 1221961" transform="translate(45.707 6.817)">
          <g id="Grupo_1221957" data-name="Grupo 1221957">
            <path id="Trazado_1175631" data-name="Trazado 1175631" d="M405.295,93.986h-4.769a.5.5,0,0,1-.5-.5V88.717a.5.5,0,0,1,.5-.5h4.769a.5.5,0,0,1,.5.5v4.769A.5.5,0,0,1,405.295,93.986Z" transform="translate(-400.026 -88.217)" fill="#6ce79a"/>
          </g>
          <g id="Grupo_1221958" data-name="Grupo 1221958" transform="translate(0 11.102)">
            <path id="Trazado_1175632" data-name="Trazado 1175632" d="M405.295,189.328h-4.769a.5.5,0,0,1-.5-.5v-4.769a.5.5,0,0,1,.5-.5h4.769a.5.5,0,0,1,.5.5v4.769A.5.5,0,0,1,405.295,189.328Z" transform="translate(-400.026 -183.559)" fill="#6ce79a"/>
          </g>
          <g id="Grupo_1221959" data-name="Grupo 1221959" transform="translate(0 22.205)">
            <path id="Trazado_1175633" data-name="Trazado 1175633" d="M405.295,284.672h-4.769a.5.5,0,0,1-.5-.5V279.4a.5.5,0,0,1,.5-.5h4.769a.5.5,0,0,1,.5.5v4.769A.5.5,0,0,1,405.295,284.672Z" transform="translate(-400.026 -278.903)" fill="#6ce79a"/>
          </g>
          <g id="Grupo_1221960" data-name="Grupo 1221960" transform="translate(0 33.307)">
            <path id="Trazado_1175634" data-name="Trazado 1175634" d="M405.295,380.015h-4.769a.5.5,0,0,1-.5-.5v-4.769a.5.5,0,0,1,.5-.5h4.769a.5.5,0,0,1,.5.5v4.769A.5.5,0,0,1,405.295,380.015Z" transform="translate(-400.026 -374.246)" fill="#6ce79a"/>
          </g>
        </g>
      </g>
      <g id="Grupo_1221963" data-name="Grupo 1221963" transform="translate(0 22.176)">
        <path id="Trazado_1175635" data-name="Trazado 1175635" d="M58.748,31.38a.873.873,0,0,0,.873-.873V24.1a1.923,1.923,0,0,0-1.92-1.92H22.4a1.923,1.923,0,0,0-1.92,1.92v9.471q-.083.031-.165.068l-6.6,2.925V34.547a1.178,1.178,0,0,0-1.177-1.177H8.9a1.178,1.178,0,0,0-1.177,1.177v4.675L.837,42.272a1.406,1.406,0,0,0-.715,1.855l1.366,3.081a1.4,1.4,0,0,0,1.855.716l1.265-.561v4.776a.873.873,0,1,0,1.747,0v-5.55l15.217-6.746,15.217,6.746V69.015H26.266V62.753a1.981,1.981,0,0,0-1.979-1.978H18.857a1.981,1.981,0,0,0-1.979,1.978v6.262h-6.9a4.844,4.844,0,0,0-.114-6.331.118.118,0,0,1-.032-.1,3.729,3.729,0,0,0,.148-1.246,3.768,3.768,0,0,0-3.5-3.537l-.132-.006V55.516a.873.873,0,0,0-1.747,0v2.655a3.736,3.736,0,0,0-1.939,4.372.155.155,0,0,1-.024.145,4.839,4.839,0,0,0-.109,6.328H.874a.873.873,0,0,0,0,1.747h19.61v3.95a1.923,1.923,0,0,0,1.92,1.92H57.7a1.923,1.923,0,0,0,1.92-1.92V33.884a.873.873,0,0,0-1.747,0V74.712a.174.174,0,0,1-.174.174H22.4a.174.174,0,0,1-.174-.174v-3.95H42.27a.873.873,0,1,0,0-1.747H38.536V47.363l1.265.561a1.408,1.408,0,0,0,1.855-.716l1.366-3.081a1.406,1.406,0,0,0-.715-1.855l-9.2-4.08a.873.873,0,1,0-.708,1.6l8.893,3.942L40.2,46.189l-18.271-8.1a.875.875,0,0,0-.708,0l-18.271,8.1-1.09-2.459,19.17-8.5a1.348,1.348,0,0,1,1.09,0l6.9,3.059a.873.873,0,1,0,.708-1.6l-6.9-3.059a3.084,3.084,0,0,0-.594-.194V24.1a.174.174,0,0,1,.174-.174H57.7a.174.174,0,0,1,.174.174v6.411a.873.873,0,0,0,.873.873ZM3.947,63.852a1.889,1.889,0,0,0,.4-1.788,1.984,1.984,0,1,1,3.812.019h0a1.871,1.871,0,0,0,.406,1.766,3.1,3.1,0,1,1-4.62,0Zm14.678,5.163V62.753a.232.232,0,0,1,.232-.232h5.431a.232.232,0,0,1,.232.232v6.262H18.625Zm-9.159-33.9h2.509v2.218L9.465,38.447Z" transform="translate(0 -22.176)"/>
        <path id="Trazado_1175636" data-name="Trazado 1175636" d="M85.965,264.084H91a1.409,1.409,0,0,0,1.407-1.407v-4.922A2.754,2.754,0,0,0,89.658,255H87.309a2.754,2.754,0,0,0-2.751,2.751v4.922A1.409,1.409,0,0,0,85.965,264.084Zm.34-6.329a1,1,0,0,1,1-1h2.349a1,1,0,0,1,1,1v4.582H86.3Z" transform="translate(-74.712 -227.892)"/>
        <path id="Trazado_1175637" data-name="Trazado 1175637" d="M219.931,264.084h5.037a1.409,1.409,0,0,0,1.407-1.407v-4.922A2.754,2.754,0,0,0,223.624,255h-2.349a2.754,2.754,0,0,0-2.751,2.751v4.922A1.409,1.409,0,0,0,219.931,264.084Zm.34-6.329a1,1,0,0,1,1-1h2.349a1,1,0,0,1,1,1v4.582h-4.357Z" transform="translate(-193.078 -227.892)"/>
        <path id="Trazado_1175638" data-name="Trazado 1175638" d="M170.686,220.35a.873.873,0,0,0,0-1.747h-2.41a.873.873,0,1,0,0,1.747Z" transform="translate(-147.91 -195.73)"/>
        <path id="Trazado_1175639" data-name="Trazado 1175639" d="M401.874,82.346a.874.874,0,0,0-1.182-.359l-.651.348V82.09a1.375,1.375,0,0,0-1.373-1.373H393.9a1.375,1.375,0,0,0-1.373,1.373v4.769a1.375,1.375,0,0,0,1.373,1.373h4.769a1.375,1.375,0,0,0,1.373-1.373V84.314l1.474-.787A.873.873,0,0,0,401.874,82.346Zm-3.58,4.14h-4.022V82.464h4.022v.8l-1.461.78-.392-.577a.873.873,0,0,0-1.444.982l.833,1.225a.873.873,0,0,0,1.134.279l1.331-.711Z" transform="translate(-346.818 -73.9)"/>
        <path id="Trazado_1175640" data-name="Trazado 1175640" d="M401.874,177.689a.873.873,0,0,0-1.182-.359l-.651.348v-.244a1.375,1.375,0,0,0-1.373-1.373H393.9a1.375,1.375,0,0,0-1.373,1.373V182.2a1.375,1.375,0,0,0,1.373,1.373h4.769a1.375,1.375,0,0,0,1.373-1.373v-2.545l1.474-.787a.873.873,0,0,0,.359-1.182Zm-3.579,4.14h-4.022v-4.022h4.022v.8l-1.461.78-.392-.576A.873.873,0,0,0,395,179.8l.833,1.225a.873.873,0,0,0,1.134.279l1.331-.711Z" transform="translate(-346.818 -158.142)"/>
        <path id="Trazado_1175641" data-name="Trazado 1175641" d="M401.874,273.031a.873.873,0,0,0-1.182-.359l-.651.348v-.244a1.375,1.375,0,0,0-1.373-1.373H393.9a1.375,1.375,0,0,0-1.373,1.373v4.769a1.375,1.375,0,0,0,1.373,1.373h4.769a1.375,1.375,0,0,0,1.373-1.373V275l1.474-.787A.873.873,0,0,0,401.874,273.031Zm-3.579,4.14h-4.022V273.15h4.022v.8l-1.461.78-.392-.576a.873.873,0,0,0-1.444.982l.833,1.225a.873.873,0,0,0,1.134.279l1.331-.711Z" transform="translate(-346.818 -242.382)"/>
        <path id="Trazado_1175642" data-name="Trazado 1175642" d="M398.668,366.747H393.9a1.375,1.375,0,0,0-1.373,1.373v4.769a1.375,1.375,0,0,0,1.373,1.373h4.769a1.375,1.375,0,0,0,1.373-1.373v-2.545l1.474-.787a.873.873,0,1,0-.823-1.541l-.651.348v-.244a1.375,1.375,0,0,0-1.373-1.373Zm-.373,5.769h-4.022v-4.022h4.022v.8l-1.461.78-.392-.576a.873.873,0,0,0-1.444.982l.833,1.225a.873.873,0,0,0,1.134.279l1.331-.711Z" transform="translate(-346.818 -326.623)"/>
        <path id="Trazado_1175643" data-name="Trazado 1175643" d="M242.468,57.362h-13.2a.873.873,0,0,0,0,1.747h13.2a.873.873,0,0,0,0-1.747Z" transform="translate(-201.803 -53.265)"/>
        <path id="Trazado_1175644" data-name="Trazado 1175644" d="M242.468,87.835h-13.2a.873.873,0,1,0,0,1.747h13.2a.873.873,0,1,0,0-1.747Z" transform="translate(-201.803 -80.189)"/>
        <path id="Trazado_1175645" data-name="Trazado 1175645" d="M267.466,118.307h-9.9a.873.873,0,0,0,0,1.747h9.9a.873.873,0,1,0,0-1.747Z" transform="translate(-226.801 -107.113)"/>
      </g>
    </g>
  </g>
</svg>
