<svg xmlns="http://www.w3.org/2000/svg" xmlns:xlink="http://www.w3.org/1999/xlink" width="108" height="108" viewBox="0 0 108 108">
  <defs>
    <filter id="Trazado_978624" x="0" y="0" width="108" height="108" filterUnits="userSpaceOnUse">
      <feOffset dy="3" input="SourceAlpha"/>
      <feGaussianBlur stdDeviation="3" result="blur"/>
      <feFlood flood-opacity="0.161"/>
      <feComposite operator="in" in2="blur"/>
      <feComposite in="SourceGraphic"/>
    </filter>
    <filter id="Trazado_1076716" x="0" y="0" width="108" height="108" filterUnits="userSpaceOnUse">
      <feOffset dy="3" input="SourceAlpha"/>
      <feGaussianBlur stdDeviation="3" result="blur-2"/>
      <feFlood flood-opacity="0.161"/>
      <feComposite operator="in" in2="blur-2"/>
      <feComposite in="SourceGraphic"/>
    </filter>
  </defs>
  <g id="Grupo_1222015" data-name="Grupo 1222015" transform="translate(-195 -873)">
    <g id="Grupo_1219865" data-name="Grupo 1219865" transform="translate(204 879)">
      <g id="Grupo_1216084" data-name="Grupo 1216084" transform="translate(0)">
        <g id="Grupo_1208503" data-name="Grupo 1208503">
          <g id="Grupo_1200660" data-name="Grupo 1200660">
            <g id="Grupo_1181203" data-name="Grupo 1181203">
              <g id="Grupo_1172348" data-name="Grupo 1172348">
                <g id="Grupo_1171897" data-name="Grupo 1171897">
                  <g id="Grupo_1171052" data-name="Grupo 1171052">
                    <g id="Grupo_1164581" data-name="Grupo 1164581">
                      <g id="Grupo_1144123" data-name="Grupo 1144123">
                        <g transform="matrix(1, 0, 0, 1, -9, -6)" filter="url(#Trazado_978624)">
                          <g id="Trazado_978624-2" data-name="Trazado 978624" transform="translate(9 6)" fill="#f7f5f3">
                            <path d="M 45 88.5 C 39.12687683105469 88.5 33.43022537231445 87.35007476806641 28.06830024719238 85.08217620849609 C 22.88852500915527 82.89131164550781 18.23629951477051 79.75458526611328 14.2408504486084 75.75914764404297 C 10.24541282653809 71.76370239257812 7.108687400817871 67.11147308349609 4.917825222015381 61.93170166015625 C 2.649924993515015 56.56977462768555 1.5 50.87312316894531 1.5 45 C 1.5 39.12687683105469 2.649924993515015 33.43022537231445 4.917825222015381 28.06830024719238 C 7.108687400817871 22.88852500915527 10.24541282653809 18.23629951477051 14.2408504486084 14.2408504486084 C 18.23629951477051 10.24541282653809 22.88852500915527 7.108687400817871 28.06830024719238 4.917825222015381 C 33.43022537231445 2.649924993515015 39.12687683105469 1.5 45 1.5 C 50.87312316894531 1.5 56.56977462768555 2.649924993515015 61.93170166015625 4.917825222015381 C 67.11147308349609 7.108687400817871 71.76370239257812 10.24541282653809 75.75914764404297 14.2408504486084 C 79.75458526611328 18.23629951477051 82.89131164550781 22.88852500915527 85.08217620849609 28.06830024719238 C 87.35007476806641 33.43022537231445 88.5 39.12687683105469 88.5 45 C 88.5 50.87312316894531 87.35007476806641 56.56977462768555 85.08217620849609 61.93170166015625 C 82.89131164550781 67.11147308349609 79.75458526611328 71.76370239257812 75.75914764404297 75.75914764404297 C 71.76370239257812 79.75458526611328 67.11147308349609 82.89131164550781 61.93170166015625 85.08217620849609 C 56.56977462768555 87.35007476806641 50.87312316894531 88.5 45 88.5 Z" stroke="none"/>
                            <path d="M 45 3 C 39.32871246337891 3 33.82865524291992 4.110054016113281 28.65262985229492 6.299339294433594 C 23.65165710449219 8.414573669433594 19.15968322753906 11.44334411621094 15.301513671875 15.301513671875 C 11.44334411621094 19.15968322753906 8.414573669433594 23.65165710449219 6.299339294433594 28.65262985229492 C 4.110054016113281 33.82865524291992 3 39.32871246337891 3 45 C 3 50.67128753662109 4.110054016113281 56.17134475708008 6.299339294433594 61.34737396240234 C 8.414573669433594 66.34834289550781 11.44334411621094 70.84031677246094 15.301513671875 74.698486328125 C 19.15968322753906 78.55665588378906 23.65165710449219 81.58542633056641 28.65262985229492 83.70066070556641 C 33.82865524291992 85.88994598388672 39.32871246337891 87 45 87 C 50.67128753662109 87 56.17134475708008 85.88994598388672 61.34737396240234 83.70066070556641 C 66.34834289550781 81.58542633056641 70.84031677246094 78.55665588378906 74.698486328125 74.698486328125 C 78.55665588378906 70.84031677246094 81.58542633056641 66.34834289550781 83.70066070556641 61.34737396240234 C 85.88994598388672 56.17134475708008 87 50.67128753662109 87 45 C 87 39.32871246337891 85.88994598388672 33.82865524291992 83.70066070556641 28.65262985229492 C 81.58542633056641 23.65165710449219 78.55665588378906 19.15968322753906 74.698486328125 15.301513671875 C 70.84031677246094 11.44334411621094 66.34834289550781 8.414573669433594 61.34737396240234 6.299339294433594 C 56.17134475708008 4.110054016113281 50.67128753662109 3 45 3 M 45 0 C 69.85281372070312 0 90 20.14718627929688 90 45 C 90 69.85281372070312 69.85281372070312 90 45 90 C 20.14718627929688 90 0 69.85281372070312 0 45 C 0 20.14718627929688 20.14718627929688 0 45 0 Z" stroke="none" fill="#bca78f"/>
                          </g>
                        </g>
                        <g transform="matrix(1, 0, 0, 1, -9, -6)" filter="url(#Trazado_1076716)">
                          <g id="Trazado_1076716-2" data-name="Trazado 1076716" transform="translate(9 6)" fill="#f7f5f3">
                            <path d="M 45 88.5 C 39.12687683105469 88.5 33.43022537231445 87.35007476806641 28.06830024719238 85.08217620849609 C 22.88852500915527 82.89131164550781 18.23629951477051 79.75458526611328 14.2408504486084 75.75914764404297 C 10.24541282653809 71.76370239257812 7.108687400817871 67.11147308349609 4.917825222015381 61.93170166015625 C 2.649924993515015 56.56977462768555 1.5 50.87312316894531 1.5 45 C 1.5 39.12687683105469 2.649924993515015 33.43022537231445 4.917825222015381 28.06830024719238 C 7.108687400817871 22.88852500915527 10.24541282653809 18.23629951477051 14.2408504486084 14.2408504486084 C 18.23629951477051 10.24541282653809 22.88852500915527 7.108687400817871 28.06830024719238 4.917825222015381 C 33.43022537231445 2.649924993515015 39.12687683105469 1.5 45 1.5 C 50.87312316894531 1.5 56.56977462768555 2.649924993515015 61.93170166015625 4.917825222015381 C 67.11147308349609 7.108687400817871 71.76370239257812 10.24541282653809 75.75914764404297 14.2408504486084 C 79.75458526611328 18.23629951477051 82.89131164550781 22.88852500915527 85.08217620849609 28.06830024719238 C 87.35007476806641 33.43022537231445 88.5 39.12687683105469 88.5 45 C 88.5 50.87312316894531 87.35007476806641 56.56977462768555 85.08217620849609 61.93170166015625 C 82.89131164550781 67.11147308349609 79.75458526611328 71.76370239257812 75.75914764404297 75.75914764404297 C 71.76370239257812 79.75458526611328 67.11147308349609 82.89131164550781 61.93170166015625 85.08217620849609 C 56.56977462768555 87.35007476806641 50.87312316894531 88.5 45 88.5 Z" stroke="none"/>
                            <path d="M 45 3 C 39.32871246337891 3 33.82865524291992 4.110054016113281 28.65262985229492 6.299339294433594 C 23.65165710449219 8.414573669433594 19.15968322753906 11.44334411621094 15.301513671875 15.301513671875 C 11.44334411621094 19.15968322753906 8.414573669433594 23.65165710449219 6.299339294433594 28.65262985229492 C 4.110054016113281 33.82865524291992 3 39.32871246337891 3 45 C 3 50.67128753662109 4.110054016113281 56.17134475708008 6.299339294433594 61.34737396240234 C 8.414573669433594 66.34834289550781 11.44334411621094 70.84031677246094 15.301513671875 74.698486328125 C 19.15968322753906 78.55665588378906 23.65165710449219 81.58542633056641 28.65262985229492 83.70066070556641 C 33.82865524291992 85.88994598388672 39.32871246337891 87 45 87 C 50.67128753662109 87 56.17134475708008 85.88994598388672 61.34737396240234 83.70066070556641 C 66.34834289550781 81.58542633056641 70.84031677246094 78.55665588378906 74.698486328125 74.698486328125 C 78.55665588378906 70.84031677246094 81.58542633056641 66.34834289550781 83.70066070556641 61.34737396240234 C 85.88994598388672 56.17134475708008 87 50.67128753662109 87 45 C 87 39.32871246337891 85.88994598388672 33.82865524291992 83.70066070556641 28.65262985229492 C 81.58542633056641 23.65165710449219 78.55665588378906 19.15968322753906 74.698486328125 15.301513671875 C 70.84031677246094 11.44334411621094 66.34834289550781 8.414573669433594 61.34737396240234 6.299339294433594 C 56.17134475708008 4.110054016113281 50.67128753662109 3 45 3 M 45 0 C 69.85281372070312 0 90 20.14718627929688 90 45 C 90 69.85281372070312 69.85281372070312 90 45 90 C 20.14718627929688 90 0 69.85281372070312 0 45 C 0 20.14718627929688 20.14718627929688 0 45 0 Z" stroke="none" fill="#bca78f"/>
                          </g>
                        </g>
                      </g>
                    </g>
                  </g>
                </g>
              </g>
            </g>
          </g>
        </g>
      </g>
    </g>
    <g id="subasta_9_" data-name="subasta (9)" transform="translate(212.985 897.97)">
      <g id="Grupo_1221986" data-name="Grupo 1221986" transform="translate(6.648 2.13)">
        <path id="Trazado_1175773" data-name="Trazado 1175773" d="M55.7,62.994H19.554v2.259a4.518,4.518,0,0,1-9.036,0V6.518A4.518,4.518,0,0,0,6,2H47.792A7.907,7.907,0,0,1,55.7,9.907Z" transform="translate(-6 -2)" fill="#adaba6"/>
      </g>
      <g id="Grupo_1221987" data-name="Grupo 1221987" transform="translate(6.648 2.13)">
        <path id="Trazado_1175774" data-name="Trazado 1175774" d="M10.518,6.518V52.743a25.012,25.012,0,0,0,15.813,5.733c14.972,0,27.109-13.654,27.109-30.5C53.44,16.994,48.276,7.369,40.531,2H6A4.518,4.518,0,0,1,10.518,6.518Z" transform="translate(-6 -2)" fill="#f1efeb"/>
      </g>
      <g id="Grupo_1221989" data-name="Grupo 1221989" transform="translate(15.684 63.124)">
        <g id="Grupo_1221988" data-name="Grupo 1221988">
          <path id="Trazado_1175775" data-name="Trazado 1175775" d="M54.663,56H18.518v2.259A4.518,4.518,0,0,1,14,62.777H54.663a4.518,4.518,0,0,0,4.518-4.518V56Z" transform="translate(-14 -56)" fill="#74726f"/>
        </g>
      </g>
      <g id="Grupo_1221990" data-name="Grupo 1221990" transform="translate(2.13 2.13)">
        <path id="Trazado_1175776" data-name="Trazado 1175776" d="M11.036,15.554H2V6.518a4.518,4.518,0,1,1,9.036,0Z" transform="translate(-2 -2)" fill="#74726f"/>
      </g>
      <g id="Grupo_1221991" data-name="Grupo 1221991" transform="translate(15.684 40.533)">
        <circle id="Elipse_14448" data-name="Elipse 14448" cx="9" cy="9" r="9" transform="translate(0.316 0.497)" fill="#b57769"/>
      </g>
      <g id="Grupo_1221992" data-name="Grupo 1221992" transform="translate(20.202 45.051)">
        <circle id="Elipse_14449" data-name="Elipse 14449" cx="4.5" cy="4.5" r="4.5" transform="translate(-0.202 -0.021)" fill="#f29f8c"/>
      </g>
      <g id="Grupo_1221993" data-name="Grupo 1221993" transform="translate(52.947 41.665)">
        <path id="Trazado_1175777" data-name="Trazado 1175777" d="M0,0H3.994V19.968H0Z" transform="translate(0 2.824) rotate(-45)" fill="#bf8859"/>
      </g>
      <g id="Grupo_1221994" data-name="Grupo 1221994" transform="translate(45.042 33.759)">
        <path id="Trazado_1175778" data-name="Trazado 1175778" d="M0,0H11.181V7.987H0Z" transform="translate(0 7.905) rotate(-45)" fill="#bf8859"/>
      </g>
      <g id="Grupo_1221995" data-name="Grupo 1221995" transform="translate(40.524 40.533)">
        <path id="Trazado_1175779" data-name="Trazado 1175779" d="M0,0H4.793V11.181H0Z" transform="translate(0 3.388) rotate(-45)" fill="#bf8859"/>
      </g>
      <g id="Grupo_1221996" data-name="Grupo 1221996" transform="translate(51.819 29.24)">
        <path id="Trazado_1175780" data-name="Trazado 1175780" d="M0,0H4.793V11.181H0Z" transform="translate(0 3.388) rotate(-45)" fill="#bf8859"/>
      </g>
      <g id="Grupo_1221997" data-name="Grupo 1221997" transform="translate(1 1)">
        <path id="Trazado_1175781" data-name="Trazado 1175781" d="M56.347,71.03H15.684a5.654,5.654,0,0,1-5.648-5.648V16.813H2.13A1.129,1.129,0,0,1,1,15.684V6.648a5.648,5.648,0,1,1,11.3,0V65.383a3.389,3.389,0,1,0,6.777,0V63.124a1.129,1.129,0,0,1,1.13-1.13H60.865a1.129,1.129,0,0,1,1.13,1.13v2.259A5.654,5.654,0,0,1,56.347,71.03ZM20.2,68.771H56.347a3.393,3.393,0,0,0,3.389-3.389v-1.13h-38.4v1.13A5.618,5.618,0,0,1,20.2,68.771ZM3.259,14.554h6.777V6.648a3.389,3.389,0,1,0-6.777,0Z" transform="translate(-1 -1)"/>
      </g>
      <g id="Grupo_1221998" data-name="Grupo 1221998" transform="translate(55.217 47.875)">
        <path id="Trazado_1175782" data-name="Trazado 1175782" d="M49,42.5h2.259V57.749H49Z" transform="translate(-49 -42.5)"/>
      </g>
      <g id="Grupo_1221999" data-name="Grupo 1221999" transform="translate(6.648 1)">
        <path id="Trazado_1175783" data-name="Trazado 1175783" d="M56.829,30.368H54.569V8.907a5.654,5.654,0,0,0-5.648-5.648H6V1H48.922a7.916,7.916,0,0,1,7.907,7.907Z" transform="translate(-6 -1)"/>
      </g>
      <g id="Grupo_1222000" data-name="Grupo 1222000" transform="translate(39.403 39.403)">
        <path id="Trazado_1175784" data-name="Trazado 1175784" d="M44.036,48.554a1.126,1.126,0,0,1-.8-.331l-7.907-7.907a1.128,1.128,0,0,1,0-1.6l3.389-3.389a1.128,1.128,0,0,1,1.6,0l7.907,7.907a1.128,1.128,0,0,1,0,1.6l-3.389,3.389A1.126,1.126,0,0,1,44.036,48.554Zm-6.31-9.036,6.31,6.31,1.791-1.791-6.31-6.31Z" transform="translate(-35 -35)"/>
      </g>
      <g id="Grupo_1222001" data-name="Grupo 1222001" transform="translate(50.699 28.108)">
        <path id="Trazado_1175785" data-name="Trazado 1175785" d="M54.036,38.554a1.126,1.126,0,0,1-.8-.331l-7.907-7.907a1.128,1.128,0,0,1,0-1.6l3.389-3.389a1.128,1.128,0,0,1,1.6,0l7.907,7.907a1.128,1.128,0,0,1,0,1.6l-3.389,3.389A1.126,1.126,0,0,1,54.036,38.554Zm-6.31-9.036,6.31,6.31,1.791-1.791-6.31-6.31Z" transform="translate(-45 -25)"/>
      </g>
      <g id="Grupo_1222002" data-name="Grupo 1222002" transform="translate(44.244 32.96)">
        <path id="Trazado_1175786" data-name="Trazado 1175786" d="M0,0H11.181V2.259H0Z" transform="translate(0 7.905) rotate(-45)"/>
      </g>
      <g id="Grupo_1222003" data-name="Grupo 1222003" transform="translate(49.891 38.608)">
        <path id="Trazado_1175787" data-name="Trazado 1175787" d="M0,0H11.181V2.259H0Z" transform="translate(0 7.905) rotate(-45)"/>
      </g>
      <g id="Grupo_1222004" data-name="Grupo 1222004" transform="translate(52.159 40.864)">
        <path id="Trazado_1175788" data-name="Trazado 1175788" d="M61.211,55.164a1.126,1.126,0,0,1-.8-.331L46.293,40.714l1.6-1.6,13.32,13.32,1.227-1.227L49.117,37.89l1.6-1.6L64.833,50.412a1.128,1.128,0,0,1,0,1.6l-2.824,2.824A1.126,1.126,0,0,1,61.211,55.164Z" transform="translate(-46.293 -36.293)"/>
      </g>
      <g id="Grupo_1222005" data-name="Grupo 1222005" transform="translate(15.684 21.331)">
        <path id="Trazado_1175789" data-name="Trazado 1175789" d="M14,19H51.274v2.259H14Z" transform="translate(-14 -19)"/>
      </g>
      <g id="Grupo_1222006" data-name="Grupo 1222006" transform="translate(15.684 30.368)">
        <path id="Trazado_1175790" data-name="Trazado 1175790" d="M14,27H46.756v2.259H14Z" transform="translate(-14 -27)"/>
      </g>
      <g id="Grupo_1222007" data-name="Grupo 1222007" transform="translate(15.684 25.85)">
        <path id="Trazado_1175791" data-name="Trazado 1175791" d="M14,23H51.274v2.259H14Z" transform="translate(-14 -23)"/>
      </g>
      <g id="Grupo_1222008" data-name="Grupo 1222008" transform="translate(15.684 12.295)">
        <path id="Trazado_1175792" data-name="Trazado 1175792" d="M14,11H51.274v2.259H14Z" transform="translate(-14 -11)"/>
      </g>
      <g id="Grupo_1222009" data-name="Grupo 1222009" transform="translate(15.684 7.777)">
        <path id="Trazado_1175793" data-name="Trazado 1175793" d="M14,7H51.274V9.259H14Z" transform="translate(-14 -7)"/>
      </g>
      <g id="Grupo_1222010" data-name="Grupo 1222010" transform="translate(15.684 16.813)">
        <path id="Trazado_1175794" data-name="Trazado 1175794" d="M14,15H51.274v2.259H14Z" transform="translate(-14 -15)"/>
      </g>
      <g id="Grupo_1222011" data-name="Grupo 1222011" transform="translate(15.684 34.886)">
        <path id="Trazado_1175795" data-name="Trazado 1175795" d="M14,31H44.5v2.259H14Z" transform="translate(-14 -31)"/>
      </g>
      <g id="Grupo_1222012" data-name="Grupo 1222012" transform="translate(14.554 39.404)">
        <path id="Trazado_1175796" data-name="Trazado 1175796" d="M23.166,55.331A10.166,10.166,0,1,1,33.331,45.166,10.177,10.177,0,0,1,23.166,55.331Zm0-18.072a7.907,7.907,0,1,0,7.907,7.907A7.916,7.916,0,0,0,23.166,37.259Z" transform="translate(-13 -35)"/>
      </g>
      <g id="Grupo_1222013" data-name="Grupo 1222013" transform="translate(19.072 43.922)">
        <path id="Trazado_1175797" data-name="Trazado 1175797" d="M22.648,50.3A5.648,5.648,0,1,1,28.3,44.648,5.654,5.654,0,0,1,22.648,50.3Zm0-9.036a3.389,3.389,0,1,0,3.389,3.389A3.393,3.393,0,0,0,22.648,41.259Z" transform="translate(-17 -39)"/>
      </g>
      <g id="Grupo_1222014" data-name="Grupo 1222014" transform="translate(37.145 54.087)">
        <path id="Trazado_1175798" data-name="Trazado 1175798" d="M46.554,53.648H42.036a4.519,4.519,0,0,1-3.827-2.118A7.448,7.448,0,0,1,33,53.648V51.389a5.193,5.193,0,0,0,4.328-2.317l.38-.569a1.13,1.13,0,0,1,2.069.627,2.261,2.261,0,0,0,2.259,2.259h4.518Z" transform="translate(-33 -47.999)"/>
      </g>
    </g>
  </g>
</svg>
