<svg xmlns="http://www.w3.org/2000/svg" xmlns:xlink="http://www.w3.org/1999/xlink" width="607.187" height="384.502" viewBox="0 0 607.187 384.502">
  <defs>
    <filter id="Trazado_1178662" x="66.334" y="186.913" width="28.293" height="42.338" filterUnits="userSpaceOnUse">
      <feOffset dy="3" input="SourceAlpha"/>
      <feGaussianBlur stdDeviation="3" result="blur"/>
      <feFlood flood-opacity="0.161"/>
      <feComposite operator="in" in2="blur"/>
      <feComposite in="SourceGraphic"/>
    </filter>
    <filter id="Trazado_1178663" x="176.193" y="187.046" width="33.871" height="42.205" filterUnits="userSpaceOnUse">
      <feOffset dy="3" input="SourceAlpha"/>
      <feGaussianBlur stdDeviation="3" result="blur-2"/>
      <feFlood flood-opacity="0.161"/>
      <feComposite operator="in" in2="blur-2"/>
      <feComposite in="SourceGraphic"/>
    </filter>
    <filter id="Trazado_1178664" x="286.757" y="187.046" width="33.174" height="42.62" filterUnits="userSpaceOnUse">
      <feOffset dy="3" input="SourceAlpha"/>
      <feGaussianBlur stdDeviation="3" result="blur-3"/>
      <feFlood flood-opacity="0.161"/>
      <feComposite operator="in" in2="blur-3"/>
      <feComposite in="SourceGraphic"/>
    </filter>
    <filter id="Trazado_1178665" x="395.462" y="187.444" width="36.013" height="41.807" filterUnits="userSpaceOnUse">
      <feOffset dy="3" input="SourceAlpha"/>
      <feGaussianBlur stdDeviation="3" result="blur-4"/>
      <feFlood flood-opacity="0.161"/>
      <feComposite operator="in" in2="blur-4"/>
      <feComposite in="SourceGraphic"/>
    </filter>
    <filter id="Trazado_1178666" x="509.172" y="187.444" width="32.958" height="42.222" filterUnits="userSpaceOnUse">
      <feOffset dy="3" input="SourceAlpha"/>
      <feGaussianBlur stdDeviation="3" result="blur-5"/>
      <feFlood flood-opacity="0.161"/>
      <feComposite operator="in" in2="blur-5"/>
      <feComposite in="SourceGraphic"/>
    </filter>
  </defs>
  <g id="Grupo_1221901" data-name="Grupo 1221901" transform="translate(-496.407 -1369.749)">
    <g id="Grupo_1221899" data-name="Grupo 1221899">
      <g id="Grupo_1221889" data-name="Grupo 1221889" transform="translate(2704.027 -5020.742)">
        <g id="artwork" transform="translate(-2207.62 6390.491)">
          <rect id="Rectángulo_420861" data-name="Rectángulo 420861" width="603.234" height="22.718" transform="translate(1.976 130.881)" fill="#363839"/>
          <g id="Grupo_1220542" data-name="Grupo 1220542" transform="translate(0 293.817)">
            <rect id="Rectángulo_420862" data-name="Rectángulo 420862" width="551.849" height="84.704" transform="translate(27.669)" fill="#363839"/>
            <rect id="Rectángulo_420863" data-name="Rectángulo 420863" width="607.187" height="69.219" transform="translate(0 21.467)" fill="#5b5c5e"/>
          </g>
          <g id="Grupo_1220543" data-name="Grupo 1220543" transform="translate(1.976 0)">
            <path id="Trazado_1168835" data-name="Trazado 1168835" d="M769.585,284.491,467.967,389.079v20.572H1071.2V389.079Z" transform="translate(-467.967 -284.491)" fill="#5b5c5e"/>
            <path id="Trazado_1168836" data-name="Trazado 1168836" d="M1235.489,486.9l223.628,74.082H1474.1l-238.614-79.944L996.875,560.98h14.986Z" transform="translate(-933.871 -457.623)" fill="#363839"/>
          </g>
          <path id="Trazado_1168852" data-name="Trazado 1168852" d="M866.65,1734.025a8.289,8.289,0,0,0-7.47,4.692H857.83V1633.069h1.351a8.291,8.291,0,1,0,7.47-11.889h-68.44a8.291,8.291,0,1,0,7.47,11.889h1.351v105.648h-1.351a8.291,8.291,0,1,0-7.47,11.89h68.44a8.291,8.291,0,0,0,0-16.582Z" transform="translate(-749.593 -1461.953)" fill="#899e78"/>
          <path id="Trazado_1168853" data-name="Trazado 1168853" d="M1416.353,1660.33a3.613,3.613,0,0,0-2.395.9,3.627,3.627,0,0,1,3.131,6.275,3.627,3.627,0,0,0-.736-7.179Z" transform="translate(-1299.295 -1496.439)" fill="#4a5641"/>
          <rect id="Rectángulo_420867" data-name="Rectángulo 420867" width="50.798" height="6.361" transform="translate(57.439 171.117)" fill="#4a5641"/>
          <path id="Trazado_1168854" data-name="Trazado 1168854" d="M832.7,1660.33a3.612,3.612,0,0,1,2.395.9,3.627,3.627,0,0,0-3.131,6.275,3.627,3.627,0,0,1,.736-7.179Z" transform="translate(-784.078 -1496.439)" fill="#4a5641"/>
          <path id="Trazado_1168855" data-name="Trazado 1168855" d="M1416.353,2615.463a3.613,3.613,0,0,1-2.395-.9,3.63,3.63,0,0,0,4.363-3.552,3.617,3.617,0,0,0-1.232-2.723,3.627,3.627,0,0,1-.736,7.179Z" transform="translate(-1299.295 -2331.472)" fill="#4a5641"/>
          <rect id="Rectángulo_420868" data-name="Rectángulo 420868" width="50.798" height="6.361" transform="translate(57.439 270.404)" fill="#4a5641"/>
          <path id="Trazado_1168856" data-name="Trazado 1168856" d="M832.7,2615.463a3.612,3.612,0,0,0,2.395-.9,3.63,3.63,0,0,1-4.363-3.552,3.617,3.617,0,0,1,1.232-2.723,3.627,3.627,0,0,0,.736,7.179Z" transform="translate(-784.078 -2331.472)" fill="#4a5641"/>
          <path id="Trazado_1168857" data-name="Trazado 1168857" d="M1793.26,1734.025a8.289,8.289,0,0,0-7.47,4.692h-1.351V1633.069h1.351a8.291,8.291,0,1,0,7.47-11.889h-68.44a8.291,8.291,0,1,0,7.47,11.889h1.351v105.648h-1.351a8.291,8.291,0,1,0-7.47,11.89h68.44a8.291,8.291,0,0,0,0-16.582Z" transform="translate(-1565.824 -1461.953)" fill="#bca78f"/>
          <path id="Trazado_1168858" data-name="Trazado 1168858" d="M2342.962,1660.33a3.612,3.612,0,0,0-2.395.9,3.627,3.627,0,0,1,3.131,6.275,3.627,3.627,0,0,0-.736-7.179Z" transform="translate(-2115.527 -1496.439)" fill="#665b4e"/>
          <rect id="Rectángulo_420869" data-name="Rectángulo 420869" width="50.798" height="6.361" transform="translate(167.817 171.117)" fill="#665b4e"/>
          <path id="Trazado_1168859" data-name="Trazado 1168859" d="M1759.3,1660.33a3.612,3.612,0,0,1,2.395.9,3.627,3.627,0,0,0-3.131,6.275,3.627,3.627,0,0,1,.737-7.179Z" transform="translate(-1600.304 -1496.439)" fill="#665b4e"/>
          <path id="Trazado_1168860" data-name="Trazado 1168860" d="M2342.962,2615.463a3.612,3.612,0,0,1-2.395-.9,3.629,3.629,0,0,0,4.363-3.552,3.616,3.616,0,0,0-1.232-2.723,3.627,3.627,0,0,1-.736,7.179Z" transform="translate(-2115.527 -2331.472)" fill="#665b4e"/>
          <rect id="Rectángulo_420870" data-name="Rectángulo 420870" width="50.798" height="6.361" transform="translate(167.817 270.404)" fill="#665b4e"/>
          <path id="Trazado_1168861" data-name="Trazado 1168861" d="M1759.3,2615.463a3.612,3.612,0,0,0,2.395-.9,3.63,3.63,0,0,1-4.363-3.552,3.617,3.617,0,0,1,1.232-2.723,3.627,3.627,0,0,0,.737,7.179Z" transform="translate(-1600.304 -2331.472)" fill="#665b4e"/>
          <path id="Trazado_1168862" data-name="Trazado 1168862" d="M2719.86,1734.025a8.289,8.289,0,0,0-7.47,4.692h-1.351V1633.069h1.351a8.291,8.291,0,1,0,7.47-11.889h-68.44a8.291,8.291,0,1,0,7.47,11.889h1.351v105.648h-1.351a8.291,8.291,0,1,0-7.47,11.89h68.44a8.291,8.291,0,0,0,0-16.582Z" transform="translate(-2382.047 -1461.953)" fill="#eca675"/>
          <path id="Trazado_1168863" data-name="Trazado 1168863" d="M3269.563,1660.33a3.612,3.612,0,0,0-2.395.9,3.627,3.627,0,0,1,3.131,6.275,3.627,3.627,0,0,0-.737-7.179Z" transform="translate(-2931.75 -1496.439)" fill="#815a3f"/>
          <rect id="Rectángulo_420871" data-name="Rectángulo 420871" width="50.798" height="6.361" transform="translate(278.194 171.117)" fill="#815a3f"/>
          <path id="Trazado_1168864" data-name="Trazado 1168864" d="M2685.909,1660.33a3.613,3.613,0,0,1,2.395.9,3.627,3.627,0,0,0-3.131,6.275,3.627,3.627,0,0,1,.737-7.179Z" transform="translate(-2416.536 -1496.439)" fill="#815a3f"/>
          <path id="Trazado_1168865" data-name="Trazado 1168865" d="M3269.563,2615.463a3.612,3.612,0,0,1-2.395-.9,3.629,3.629,0,0,0,4.363-3.552,3.617,3.617,0,0,0-1.232-2.723,3.627,3.627,0,0,1-.737,7.179Z" transform="translate(-2931.75 -2331.472)" fill="#815a3f"/>
          <rect id="Rectángulo_420872" data-name="Rectángulo 420872" width="50.798" height="6.361" transform="translate(278.194 270.404)" fill="#815a3f"/>
          <path id="Trazado_1168866" data-name="Trazado 1168866" d="M2685.909,2615.463a3.613,3.613,0,0,0,2.395-.9,3.63,3.63,0,0,1-4.364-3.552,3.617,3.617,0,0,1,1.232-2.723,3.627,3.627,0,0,0,.737,7.179Z" transform="translate(-2416.536 -2331.472)" fill="#815a3f"/>
          <path id="Trazado_1168867" data-name="Trazado 1168867" d="M3646.47,1734.025a8.288,8.288,0,0,0-7.47,4.692h-1.351V1633.069H3639a8.291,8.291,0,1,0,7.47-11.889h-68.439a8.291,8.291,0,1,0,7.47,11.889h1.351v105.648H3585.5a8.291,8.291,0,1,0-7.47,11.89h68.439a8.291,8.291,0,1,0,0-16.582Z" transform="translate(-3198.279 -1461.953)" fill="#248abf"/>
          <path id="Trazado_1168868" data-name="Trazado 1168868" d="M4196.172,1660.33a3.613,3.613,0,0,0-2.395.9,3.627,3.627,0,0,1,3.131,6.275,3.627,3.627,0,0,0-.737-7.179Z" transform="translate(-3747.981 -1496.439)" fill="#134b69"/>
          <rect id="Rectángulo_420873" data-name="Rectángulo 420873" width="50.798" height="6.361" transform="translate(388.573 171.117)" fill="#134b69"/>
          <path id="Trazado_1168869" data-name="Trazado 1168869" d="M3612.51,1660.33a3.612,3.612,0,0,1,2.395.9,3.627,3.627,0,0,0-3.131,6.275,3.627,3.627,0,0,1,.736-7.179Z" transform="translate(-3232.759 -1496.439)" fill="#134b69"/>
          <path id="Trazado_1168870" data-name="Trazado 1168870" d="M4196.172,2615.463a3.613,3.613,0,0,1-2.395-.9,3.63,3.63,0,0,0,4.364-3.552,3.618,3.618,0,0,0-1.232-2.723,3.627,3.627,0,0,1-.737,7.179Z" transform="translate(-3747.981 -2331.472)" fill="#134b69"/>
          <rect id="Rectángulo_420874" data-name="Rectángulo 420874" width="50.798" height="6.361" transform="translate(388.573 270.404)" fill="#134b69"/>
          <path id="Trazado_1168871" data-name="Trazado 1168871" d="M3612.51,2615.463a3.612,3.612,0,0,0,2.395-.9,3.629,3.629,0,0,1-4.363-3.552,3.616,3.616,0,0,1,1.232-2.723,3.627,3.627,0,0,0,.736,7.179Z" transform="translate(-3232.759 -2331.472)" fill="#134b69"/>
          <path id="Trazado_1168872" data-name="Trazado 1168872" d="M4573.07,1734.025a8.288,8.288,0,0,0-7.47,4.692h-1.351V1633.069h1.351a8.291,8.291,0,1,0,7.47-11.889h-68.439a8.291,8.291,0,1,0,7.47,11.889h1.351v105.648H4512.1a8.291,8.291,0,1,0-7.47,11.89h68.439a8.291,8.291,0,1,0,0-16.582Z" transform="translate(-4014.501 -1461.953)" fill="#b0c39f"/>
          <path id="Trazado_1168873" data-name="Trazado 1168873" d="M5122.772,1660.33a3.614,3.614,0,0,0-2.395.9,3.627,3.627,0,0,1,3.131,6.275,3.627,3.627,0,0,0-.737-7.179Z" transform="translate(-4564.204 -1496.439)" fill="#899e78"/>
          <rect id="Rectángulo_420875" data-name="Rectángulo 420875" width="50.798" height="6.361" transform="translate(498.95 171.117)" fill="#899e78"/>
          <path id="Trazado_1168874" data-name="Trazado 1168874" d="M4539.119,1660.33a3.612,3.612,0,0,1,2.395.9,3.627,3.627,0,0,0-3.131,6.275,3.627,3.627,0,0,1,.736-7.179Z" transform="translate(-4048.99 -1496.439)" fill="#899e78"/>
          <path id="Trazado_1168875" data-name="Trazado 1168875" d="M5122.772,2615.463a3.614,3.614,0,0,1-2.395-.9,3.664,3.664,0,0,0,.736.075,3.627,3.627,0,0,0,2.4-6.35,3.627,3.627,0,0,1-.737,7.179Z" transform="translate(-4564.204 -2331.472)" fill="#899e78"/>
          <rect id="Rectángulo_420876" data-name="Rectángulo 420876" width="50.798" height="6.361" transform="translate(498.95 270.404)" fill="#899e78"/>
          <path id="Trazado_1168876" data-name="Trazado 1168876" d="M4539.119,2615.463a3.612,3.612,0,0,0,2.395-.9,3.629,3.629,0,0,1-4.363-3.552,3.616,3.616,0,0,1,1.232-2.723,3.627,3.627,0,0,0,.736,7.179Z" transform="translate(-4048.99 -2331.472)" fill="#899e78"/>
        </g>
      </g>
      <g transform="matrix(1, 0, 0, 1, 496.41, 1369.75)" filter="url(#Trazado_1178662)">
        <path id="Trazado_1178662-2" data-name="Trazado 1178662" d="M15.034,12.662V37H9.8V18.572a6.263,6.263,0,0,1-1.021.722,10.54,10.54,0,0,1-1.253.614,11.192,11.192,0,0,1-1.378.465,10.064,10.064,0,0,1-1.411.274V16.231A21.814,21.814,0,0,0,8.593,14.7a21.919,21.919,0,0,0,3.271-2.042Z" transform="translate(70.59 180.25)" fill="#fff"/>
      </g>
      <g transform="matrix(1, 0, 0, 1, 496.41, 1369.75)" filter="url(#Trazado_1178663)">
        <path id="Trazado_1178663-2" data-name="Trazado 1178663" d="M8.344,32.65H18.438V37H2.6V35.207a8.345,8.345,0,0,1,.614-3.279,10.881,10.881,0,0,1,1.544-2.606A13.392,13.392,0,0,1,6.792,27.28q1.1-.888,2.1-1.6,1.046-.747,1.834-1.428A10.453,10.453,0,0,0,12.054,22.9a5.144,5.144,0,0,0,.805-1.361,4.049,4.049,0,0,0,.266-1.469,2.953,2.953,0,0,0-.863-2.308,3.838,3.838,0,0,0-2.64-.78,8.866,8.866,0,0,0-5.877,2.44V14.8a12.616,12.616,0,0,1,7.006-2.009A10.347,10.347,0,0,1,14,13.268a6.867,6.867,0,0,1,2.432,1.353,5.771,5.771,0,0,1,1.519,2.133,7.2,7.2,0,0,1,.523,2.8,7.888,7.888,0,0,1-.506,2.922A8.978,8.978,0,0,1,16.62,24.8a12.2,12.2,0,0,1-1.934,1.917q-1.1.872-2.274,1.685-.8.564-1.536,1.121a14.558,14.558,0,0,0-1.3,1.1,5.948,5.948,0,0,0-.9,1.054A1.82,1.82,0,0,0,8.344,32.65Z" transform="translate(182.59 180.25)" fill="#fff"/>
      </g>
      <g transform="matrix(1, 0, 0, 1, 496.41, 1369.75)" filter="url(#Trazado_1178664)">
        <path id="Trazado_1178664-2" data-name="Trazado 1178664" d="M3.164,36.22V31.654A9.215,9.215,0,0,0,8.742,33.4a5.022,5.022,0,0,0,3.129-.863,2.866,2.866,0,0,0,1.121-2.407,2.736,2.736,0,0,0-1.386-2.457,7.182,7.182,0,0,0-3.81-.863H5.588V22.789H7.63q4.648,0,4.648-3.088,0-2.905-3.569-2.905A8.138,8.138,0,0,0,4.061,18.34V14.057A12.838,12.838,0,0,1,9.9,12.795a8.819,8.819,0,0,1,5.686,1.644,5.231,5.231,0,0,1,2.034,4.267q0,4.665-4.731,5.844v.083a6.432,6.432,0,0,1,3.984,1.834,5.172,5.172,0,0,1,1.461,3.727,6.387,6.387,0,0,1-2.44,5.279,10.552,10.552,0,0,1-6.74,1.942A13.027,13.027,0,0,1,3.164,36.22Z" transform="translate(292.59 180.25)" fill="#fff"/>
      </g>
      <g transform="matrix(1, 0, 0, 1, 496.41, 1369.75)" filter="url(#Trazado_1178665)">
        <path id="Trazado_1178665-2" data-name="Trazado 1178665" d="M17.026,13.193V28.2h2.855v3.918H17.026V37H12.245V32.119H1.869v-4.1q1.378-1.544,2.855-3.378T7.58,20.863q1.378-1.942,2.565-3.91a39.192,39.192,0,0,0,2.017-3.76ZM6.567,28.2h5.678V19.884q-.581,1.079-1.262,2.183T9.556,24.242q-.747,1.071-1.511,2.075T6.567,28.2Z" transform="translate(402.59 180.25)" fill="#fff"/>
      </g>
      <g transform="matrix(1, 0, 0, 1, 496.41, 1369.75)" filter="url(#Trazado_1178666)">
        <path id="Trazado_1178666-2" data-name="Trazado 1178666" d="M3.579,36.386V31.9a9.786,9.786,0,0,0,5.2,1.494,4.881,4.881,0,0,0,3.246-.988,3.325,3.325,0,0,0,1.17-2.681q0-3.536-5-3.536a37,37,0,0,0-4.25.282l.9-13.281h12.6v4.283h-8.6L8.51,22.241q1.278-.1,2.208-.1a8.119,8.119,0,0,1,5.744,1.926,6.725,6.725,0,0,1,2.075,5.18,7.645,7.645,0,0,1-2.474,5.885,9.5,9.5,0,0,1-6.707,2.283A14.352,14.352,0,0,1,3.579,36.386Z" transform="translate(514.59 180.25)" fill="#fff"/>
      </g>
      <g id="contrato_12_" data-name="contrato (12)" transform="translate(540.27 1601.591)">
        <g id="Grupo_1221890" data-name="Grupo 1221890" transform="translate(28.73 0)">
          <path id="Trazado_1175532" data-name="Trazado 1175532" d="M96.507,137.8H82.658a.425.425,0,0,0,0,.851H96.507a.425.425,0,1,0,0-.851Z" transform="translate(-79.211 -130.021)" fill="#fff"/>
          <path id="Trazado_1175533" data-name="Trazado 1175533" d="M82.658,86.408h6.924a.425.425,0,1,0,0-.851H82.658a.425.425,0,1,0,0,.851Z" transform="translate(-79.211 -80.725)" fill="#fff"/>
          <path id="Trazado_1175534" data-name="Trazado 1175534" d="M96.507,184.1H82.658a.425.425,0,0,0,0,.851H96.507a.425.425,0,1,0,0-.851Z" transform="translate(-79.211 -173.698)" fill="#fff"/>
          <path id="Trazado_1175535" data-name="Trazado 1175535" d="M35.332,25.963H30.9a1.321,1.321,0,0,1-1.319-1.319V2.17A1.321,1.321,0,0,1,30.9.851H43.668A.91.91,0,0,1,43.79.86V3.513a2.173,2.173,0,0,0,2.17,2.17h2.653a.9.9,0,0,1,.009.122V13.05a.425.425,0,0,0,.851,0V5.805a1.736,1.736,0,0,0-.512-1.235L44.9.512A1.736,1.736,0,0,0,43.668,0H30.9a2.173,2.173,0,0,0-2.17,2.17V24.643a2.173,2.173,0,0,0,2.17,2.17h4.432a.425.425,0,1,0,0-.851ZM48.021,4.832H45.96a1.321,1.321,0,0,1-1.319-1.319V1.452Z" transform="translate(-28.73 0)" fill="#fff"/>
          <path id="Trazado_1175536" data-name="Trazado 1175536" d="M109.53,259.444l-3.6-6.084a.932.932,0,0,0-1.278-.327l-.877.519a1.666,1.666,0,0,0-.735,1.942,1.3,1.3,0,0,1-.917-.01c-.692-.218-1.219-.656-2.088-.436-1.476.376-1.431.357-1.565.4a2.274,2.274,0,0,0-2.3-.284l-.818.316a1.308,1.308,0,0,1-1.146-.1l-.223-.132a1.662,1.662,0,0,0-.793-1.7h0l-.877-.519a.934.934,0,0,0-1.278.327l-3.6,6.084a.933.933,0,0,0,.327,1.278l.877.519a1.653,1.653,0,0,0,.845.232,1.675,1.675,0,0,0,.909-.268l.183.108-.386.537a1.425,1.425,0,0,0,1.38,2.24,1.424,1.424,0,0,0,1.626,1.168,1.426,1.426,0,0,0,1.968,1.07,1.425,1.425,0,0,0,2.423.4l1.025.607a1.428,1.428,0,0,0,2.145-1.057h0a1.427,1.427,0,0,0,2.15-1.122,1.427,1.427,0,0,0,1.768-1.234,1.427,1.427,0,0,0,1.613-2.247l.565-.33a1.66,1.66,0,0,0,1.481-.106l.877-.519A.932.932,0,0,0,109.53,259.444ZM89.064,260.51l-.877-.519a.082.082,0,0,1-.029-.113l3.6-6.084a.082.082,0,0,1,.113-.029l.877.519a.812.812,0,0,1,.285,1.113l-2.86,4.828A.813.813,0,0,1,89.064,260.51ZM91,263.15a.575.575,0,0,1-.132-.8l.567-.79a.576.576,0,0,1,.935.671l-.567.79A.576.576,0,0,1,91,263.15Zm1.626,1.168a.576.576,0,0,1-.132-.8l.567-.79h0l.626-.872a.572.572,0,0,1,.374-.232.581.581,0,0,1,.094-.008.576.576,0,0,1,.466.911l-1.193,1.662A.575.575,0,0,1,92.63,264.317Zm1.626,1.168a.576.576,0,0,1-.132-.8h0l1.193-1.662a.576.576,0,1,1,.935.671l-.53.738h0l-.663.923a.576.576,0,0,1-.8.132Zm1.892.8a.576.576,0,0,1-.132-.8l.4-.553a.576.576,0,1,1,.935.671l-.4.552A.576.576,0,0,1,96.149,266.282Zm9.535-3.392a.577.577,0,0,1-.789.2l-3.766-2.231a.425.425,0,1,0-.434.732l2.847,1.687h0a.576.576,0,0,1-.587.991l-2.848-1.687a.425.425,0,1,0-.434.732l2.1,1.243h0a.576.576,0,0,1-.588.991l-1.126-.667h0l-.822-.487a.425.425,0,1,0-.434.732l.822.487h0a.576.576,0,1,1-.587.991l-.959-.568a1.426,1.426,0,0,0-.958-2.181,1.425,1.425,0,0,0-1.556-1.908,1.426,1.426,0,0,0-2.42-.762,1.425,1.425,0,0,0-1.983-.509l-.195-.115,2.676-4.516.127.075a2.154,2.154,0,0,0,1.885.157l.818-.316a1.255,1.255,0,0,1,1.189.026,1.9,1.9,0,0,0-.483,1.268v1.886a.91.91,0,0,0,.908.909h0a1.884,1.884,0,0,0,1.781-1.273l5.614,3.324a.576.576,0,0,1,.2.789Zm3.085-2.9-.877.519a.813.813,0,0,1-1.113-.285l-1.341-2.263a.425.425,0,1,0-.732.434l1.341,2.263c.025.043.053.083.081.123l-.373.218a2.158,2.158,0,0,0-.217.147l-5.779-3.422a.426.426,0,0,0-.642.366,1.086,1.086,0,0,1-.3.808,1.024,1.024,0,0,1-.728.3h0a.058.058,0,0,1-.058-.058v-1.886a1.058,1.058,0,0,1,.8-1.024l1.413-.358c.513-.13.8.144,1.57.4a2.151,2.151,0,0,0,1.627-.026l.257.433a.425.425,0,1,0,.732-.434l-.506-.854a.812.812,0,0,1,.285-1.113l.877-.519a.082.082,0,0,1,.113.029l3.6,6.084A.082.082,0,0,1,108.77,259.99Z" transform="translate(-83.988 -238.618)" fill="#fff"/>
        </g>
      </g>
      <g id="subasta_8_" data-name="subasta (8)" transform="translate(785.541 1601.59)">
        <g id="Grupo_1221892" data-name="Grupo 1221892" transform="translate(5.688 9.683)">
          <g id="Grupo_1221891" data-name="Grupo 1221891">
            <path id="Trazado_1175537" data-name="Trazado 1175537" d="M101.669,171.585a.565.565,0,1,0,0,.8A.565.565,0,0,0,101.669,171.585Z" transform="translate(-100.704 -171.42)" fill="#fff"/>
          </g>
        </g>
        <g id="Grupo_1221894" data-name="Grupo 1221894" transform="translate(0 22.141)">
          <g id="Grupo_1221893" data-name="Grupo 1221893">
            <path id="Trazado_1175538" data-name="Trazado 1175538" d="M14.3,395.135a1.977,1.977,0,0,0-1.593-3.148h-9.6a1.976,1.976,0,0,0-1.592,3.147A2.826,2.826,0,0,0,0,397.635v.565a.565.565,0,0,0,.565.565H15.25a.565.565,0,0,0,.565-.565v-.565A2.826,2.826,0,0,0,14.3,395.135Zm-11.794-1.77a.841.841,0,0,1,.6-.248h9.6a.847.847,0,1,1,0,1.694h-9.6a.847.847,0,0,1-.6-1.446Zm-1.378,4.27a1.7,1.7,0,0,1,1.694-1.694H12.99a1.7,1.7,0,0,1,1.694,1.694Z" transform="translate(0 -391.987)" fill="#fff"/>
          </g>
        </g>
        <g id="Grupo_1221896" data-name="Grupo 1221896" transform="translate(0.001 0.001)">
          <g id="Grupo_1221895" data-name="Grupo 1221895" transform="translate(0 0)">
            <path id="Trazado_1175539" data-name="Trazado 1175539" d="M28.413,23.73a3.557,3.557,0,0,0-.68-.781l-2.639-2.3a.561.561,0,0,0-.225-.2l-1.6-1.392-7.387-6.444a1.691,1.691,0,0,0-.5-2.7l.683-.683a2.261,2.261,0,0,0,2.181-.584,2.259,2.259,0,0,0,0-3.2L13.461.663A2.258,2.258,0,0,0,9.682,2.844L2.864,9.663a2.273,2.273,0,0,0-.585-.077,2.259,2.259,0,0,0-1.6,3.857l4.792,4.792a2.258,2.258,0,0,0,3.779-2.181l.682-.682a1.695,1.695,0,0,0,2.7.5l7.868,9.04a.567.567,0,0,0,.077.1l.032.028,2.345,2.694c.058.069.121.136.185.2a3.359,3.359,0,0,0,2.387.993A3.467,3.467,0,0,0,26,28.887a3.418,3.418,0,0,0,2.522-1.746A3.342,3.342,0,0,0,28.413,23.73ZM11.065,1.462a1.129,1.129,0,0,1,1.6,0l4.792,4.792a1.13,1.13,0,0,1-1.6,1.6L11.065,3.059h0A1.131,1.131,0,0,1,11.065,1.462ZM7.87,17.436a1.131,1.131,0,0,1-1.6,0L1.48,12.644a1.13,1.13,0,0,1,1.6-1.6L7.87,15.839A1.13,1.13,0,0,1,7.87,17.436Zm2.378-3.975L8.669,15.04,3.876,10.248l6.39-6.39L15.059,8.65l-1.582,1.582-.016.015-3.193,3.193Zm2.017,1.178,0,0-.4.4a.565.565,0,0,1-.806-.792l3.208-3.208a.565.565,0,0,1,.958.406.56.56,0,0,1-.166.4l-.4.4-.008.008Zm1.17.428,1.651-1.651,6.989,6.1-2.55,2.55Zm6.833,7.85,2.66-2.66.853.744-2.77,2.77Zm7.271,3.672a2.3,2.3,0,0,1-1.691,1.179,2.244,2.244,0,0,1-1.909-.64c-.043-.043-.085-.089-.124-.134l-.005-.006-2.055-2.361,2.88-2.88L26.993,23.8l.005,0a2.431,2.431,0,0,1,.466.536A2.23,2.23,0,0,1,27.539,26.589Z" transform="translate(-0.021 -0.001)" fill="#fff"/>
          </g>
        </g>
        <g id="Grupo_1221898" data-name="Grupo 1221898" transform="translate(7.285 5.689)">
          <g id="Grupo_1221897" data-name="Grupo 1221897">
            <path id="Trazado_1175540" data-name="Trazado 1175540" d="M132.346,100.873a.565.565,0,0,0-.8,0l-2.4,2.4a.565.565,0,0,0,.8.8l2.4-2.4A.565.565,0,0,0,132.346,100.873Z" transform="translate(-128.985 -100.707)" fill="#fff"/>
          </g>
        </g>
      </g>
      <g id="aprobado_2_" data-name="aprobado (2)" transform="translate(653.894 1579.403)">
        <path id="Trazado_1175541" data-name="Trazado 1175541" d="M40.05,51.112H23.474A.474.474,0,0,1,23,50.638V24.054a.474.474,0,0,1,.474-.474H39.495a.474.474,0,0,1,0,.948H23.948V50.164h16.1a.474.474,0,1,1,0,.948Z" transform="translate(0 -0.006)" fill="#fff"/>
        <path id="Trazado_1175542" data-name="Trazado 1175542" d="M381.534,118.425a.474.474,0,0,1-.474-.474v-6.337a.474.474,0,0,1,.948,0v6.337A.474.474,0,0,1,381.534,118.425Z" transform="translate(-336.852 -82.38)" fill="#fff"/>
        <path id="Trazado_1175543" data-name="Trazado 1175543" d="M299.151,29.708h-5.187a.474.474,0,0,1-.474-.474V24.048a.474.474,0,0,1,.809-.335l5.186,5.187a.474.474,0,0,1-.335.808Zm-4.713-.948h3.569l-3.569-3.569Z" transform="translate(-254.469 0)" fill="#fff"/>
        <path id="Trazado_1175544" data-name="Trazado 1175544" d="M73.341,68.308H63.754a.474.474,0,1,1,0-.948h9.587a.474.474,0,0,1,0,.948Z" transform="translate(-37.894 -41.193)" fill="#fff"/>
        <path id="Trazado_1175545" data-name="Trazado 1175545" d="M73.341,112.088H63.754a.474.474,0,0,1,0-.948h9.587a.474.474,0,0,1,0,.948Z" transform="translate(-37.894 -82.38)" fill="#fff"/>
        <path id="Trazado_1175546" data-name="Trazado 1175546" d="M80.19,155.868H63.754a.474.474,0,0,1,0-.948H80.19a.474.474,0,1,1,0,.948Z" transform="translate(-37.894 -123.567)" fill="#fff"/>
        <path id="Trazado_1175547" data-name="Trazado 1175547" d="M80.19,199.648H63.754a.474.474,0,0,1,0-.948H80.19a.474.474,0,1,1,0,.948Z" transform="translate(-37.894 -164.754)" fill="#fff"/>
        <path id="Trazado_1175548" data-name="Trazado 1175548" d="M126.451,267.792a5.091,5.091,0,1,1,5.091-5.091A5.091,5.091,0,0,1,126.451,267.792Zm0-9.234a4.143,4.143,0,1,0,4.143,4.143A4.143,4.143,0,0,0,126.451,258.558Z" transform="translate(-92.534 -220.175)" fill="#fff"/>
        <path id="Trazado_1175549" data-name="Trazado 1175549" d="M163.909,310.143a.474.474,0,0,1-.335-.139l-.787-.787a.474.474,0,1,1,.67-.67l.452.451,3.2-3.206a.474.474,0,1,1,.67.67L164.244,310A.474.474,0,0,1,163.909,310.143Z" transform="translate(-131.369 -265.373)" fill="#fff"/>
        <path id="Trazado_1175550" data-name="Trazado 1175550" d="M336.11,227.914a.485.485,0,0,1-.152-.025.474.474,0,0,1-.3-.6,7.908,7.908,0,0,0,.22-3.192,4.022,4.022,0,0,0-.4-1.31,3.194,3.194,0,1,1,5.721-.014,4.057,4.057,0,0,0-.4,1.266,7.88,7.88,0,0,0,.217,3.252.474.474,0,0,1-.9.3,8.876,8.876,0,0,1-.258-3.672,5,5,0,0,1,.49-1.564,2.247,2.247,0,1,0-4.025.01,4.97,4.97,0,0,1,.495,1.618,8.925,8.925,0,0,1-.263,3.613A.474.474,0,0,1,336.11,227.914Z" transform="translate(-293.656 -183.066)" fill="#fff"/>
        <path id="Trazado_1175551" data-name="Trazado 1175551" d="M312.615,370.048h-9.261a.474.474,0,0,1-.474-.474v-.948a1.836,1.836,0,0,1,1.836-1.836h6.535a1.836,1.836,0,0,1,1.836,1.836v.948A.474.474,0,0,1,312.615,370.048Zm-8.787-.948h8.313v-.474a.888.888,0,0,0-.888-.888h-6.535a.888.888,0,0,0-.888.888Z" transform="translate(-263.303 -322.888)" fill="#fff"/>
        <path id="Trazado_1175552" data-name="Trazado 1175552" d="M300.485,408.858H289.594a.474.474,0,0,1-.474-.474v-2.12a.474.474,0,0,1,.474-.474h10.891a.474.474,0,0,1,.474.474v2.12A.474.474,0,0,1,300.485,408.858Zm-10.417-.948h9.943v-1.173h-9.943Z" transform="translate(-250.358 -359.578)" fill="#fff"/>
        <path id="Trazado_1175553" data-name="Trazado 1175553" d="M312.615,444.364h-9.261a.474.474,0,0,1-.474-.474v-1.826a.474.474,0,0,1,.474-.474h9.261a.474.474,0,0,1,.474.474v1.826A.474.474,0,0,1,312.615,444.364Zm-8.787-.948h8.313v-.878h-8.313Z" transform="translate(-263.303 -393.258)" fill="#fff"/>
      </g>
      <g id="corte_3_" data-name="corte (3)" transform="translate(897.994 1603.508)">
        <path id="Trazado_1175554" data-name="Trazado 1175554" d="M.863,27h11.72a.4.4,0,0,0,0-.791H.863A.066.066,0,0,1,.8,26.144V25.17A.066.066,0,0,1,.863,25.1H26.149a.066.066,0,0,1,.066.066v.974a.066.066,0,0,1-.066.066H14.429a.4.4,0,1,0,0,.791h11.72a.858.858,0,0,0,.857-.857V25.17a.858.858,0,0,0-.857-.857h-1v-1.04a.858.858,0,0,0-.857-.857h-.646V17.709a.4.4,0,0,0-.791,0v4.707H20.9V11.156h1.95v4.707a.4.4,0,0,0,.791,0V11.156h.646a.858.858,0,0,0,.857-.857V9.259h1a.858.858,0,0,0,.857-.857V7.428a.858.858,0,0,0-.857-.857H24.863L14.722.346a2.315,2.315,0,0,0-2.433,0L2.149,6.57H.863a.858.858,0,0,0-.857.857V8.4a.858.858,0,0,0,.857.857h1V10.3a.858.858,0,0,0,.857.857h.619v11.26H2.722a.858.858,0,0,0-.857.857v1.04h-1a.858.858,0,0,0-.857.857v.974A.858.858,0,0,0,.863,27ZM12.7,1.02a1.527,1.527,0,0,1,1.605,0l9.043,5.55H19.512l-4.79-2.94a2.315,2.315,0,0,0-2.433,0L7.5,6.57H3.661ZM18,6.57H9.012L12.7,4.3h0a1.527,1.527,0,0,1,1.605,0ZM.863,8.468A.066.066,0,0,1,.8,8.4V7.428a.066.066,0,0,1,.066-.066H26.149a.066.066,0,0,1,.066.066V8.4a.066.066,0,0,1-.066.066Zm1.859,1.9a.066.066,0,0,1-.066-.066V9.259h21.7V10.3a.066.066,0,0,1-.066.066H2.722Zm17.39.791v11.26H18.054V11.156Zm-2.849,0v11.26h-1.95V11.156Zm-2.741,0v11.26H12.463V11.156Zm-2.849,0v11.26H9.722V11.156Zm-2.741,0v11.26H6.873V11.156Zm-2.849,0v11.26H4.132V11.156ZM2.656,23.273a.066.066,0,0,1,.066-.066H24.29a.066.066,0,0,1,.066.066v1.04H2.656Z" transform="translate(0)" fill="#fff"/>
      </g>
      <g id="leyes_6_" data-name="leyes (6)" transform="translate(1007.685 1601.995)">
        <path id="Trazado_1175555" data-name="Trazado 1175555" d="M111.613,432.125h5.7v.95h-5.7Zm0,0" transform="translate(-104.926 -406.462)" fill="#fff"/>
        <path id="Trazado_1175556" data-name="Trazado 1175556" d="M111.613,368.125h5.7v.95h-5.7Zm0,0" transform="translate(-104.926 -346.263)" fill="#fff"/>
        <path id="Trazado_1175557" data-name="Trazado 1175557" d="M28.479,11.134,24.047,4.929a2.169,2.169,0,0,0,.505-.366l.076-.076-.672-.672-.076.076a1.242,1.242,0,0,1-1.434.233,7.563,7.563,0,0,0-5.9-.339,6.38,6.38,0,0,1-.808.229V3.158a1.9,1.9,0,1,0-2.851,0v.855a6.362,6.362,0,0,1-.8-.229,7.557,7.557,0,0,0-5.9.338A1.267,1.267,0,0,1,4.75,3.89l-.076-.076L4,4.486l.076.076a2.164,2.164,0,0,0,.506.365L.151,11.134l.007,0a.463.463,0,0,0-.1.271,3.33,3.33,0,0,0,3.326,3.326h3.8a3.33,3.33,0,0,0,3.326-3.326.465.465,0,0,0-.095-.271l.006,0L6.144,5.142A2.3,2.3,0,0,0,6.6,4.975a6.6,6.6,0,0,1,5.152-.3,7.444,7.444,0,0,0,1.133.3V17.112H11.465a3.329,3.329,0,0,0-3.288,2.851H3.361a.475.475,0,0,0-.425.263,4.742,4.742,0,0,0-.091,4.013,4.742,4.742,0,0,0,.091,4.013.475.475,0,0,0,.425.263h22.33a.475.475,0,0,0,.425-.687,3.794,3.794,0,0,1,0-3.376.329.329,0,0,0,.013-.039.367.367,0,0,0,.03-.115.372.372,0,0,0,0-.118.43.43,0,0,0-.01-.059.425.425,0,0,0-.019-.055.315.315,0,0,0-.013-.039,3.794,3.794,0,0,1,0-3.376.475.475,0,0,0-.425-.688H20.453a3.329,3.329,0,0,0-3.288-2.851H15.74V4.98a7.51,7.51,0,0,0,1.134-.3,6.6,6.6,0,0,1,5.15.3,2.2,2.2,0,0,0,.461.167L18.2,11.134l.007,0a.463.463,0,0,0-.1.271,3.33,3.33,0,0,0,3.326,3.326h3.8a3.33,3.33,0,0,0,3.326-3.326.465.465,0,0,0-.095-.271ZM5.288,5.577l3.828,5.359H1.46Zm1.9,8.209h-3.8a2.379,2.379,0,0,1-2.328-1.9H9.517a2.379,2.379,0,0,1-2.328,1.9ZM24.8,22.813a4.734,4.734,0,0,0,.19.95H16.976c-.011-.028-.025-.055-.035-.082-.018-.048-.034-.1-.05-.142-.028-.083-.052-.167-.074-.251-.012-.048-.025-.095-.036-.142-.019-.091-.035-.183-.048-.276,0-.018-.005-.035-.007-.052Zm0,2.851h-8.07a.4.4,0,0,1,.007-.052c.013-.092.028-.184.048-.276.01-.048.023-.095.036-.142.022-.084.048-.168.074-.251.016-.047.032-.095.05-.142.011-.028.024-.055.035-.082h8.011a4.727,4.727,0,0,0-.191.946ZM15.87,21.245l0,.012a4.774,4.774,0,0,0-.083.475c-.005.041-.01.081-.014.122-.016.158-.027.316-.027.475v.013c0,.159.012.317.027.475,0,.041.009.081.014.121a4.644,4.644,0,0,0,.083.475l0,.012q.04.169.091.333H15.05a3.79,3.79,0,0,1,0-2.851h.911q-.052.171-.091.34Zm-10.3,3.468h8.469a4.75,4.75,0,0,0,0,2.851H5.573A3.788,3.788,0,0,1,5.573,24.713Zm8.468-.95H5.573a3.788,3.788,0,0,1,0-2.851h8.469a4.75,4.75,0,0,0,0,2.851ZM3.668,20.912h.9a4.75,4.75,0,0,0,0,2.851h-.9a3.8,3.8,0,0,1,0-2.851Zm0,3.8h.9a4.75,4.75,0,0,0,0,2.851h-.9a3.8,3.8,0,0,1,0-2.851ZM15.05,27.564a3.79,3.79,0,0,1,0-2.851h.911q-.051.166-.091.333l0,.012a4.774,4.774,0,0,0-.083.475c-.005.041-.01.081-.014.122-.016.158-.027.316-.027.475v.013c0,.159.012.317.027.475,0,.041.009.081.014.121a4.643,4.643,0,0,0,.083.475l0,.012q.04.169.091.333Zm1.926,0c-.011-.028-.025-.055-.035-.082-.018-.048-.034-.1-.05-.142-.028-.083-.052-.167-.074-.251-.012-.048-.025-.095-.036-.142-.019-.091-.035-.183-.048-.276,0-.018-.005-.035-.007-.052H24.8a4.741,4.741,0,0,0,.19.95Zm7.82-5.7h-8.07a.4.4,0,0,1,.007-.052c.013-.092.028-.184.048-.276.01-.048.023-.095.036-.142.022-.084.048-.168.074-.251.016-.047.032-.095.05-.142.011-.028.024-.055.035-.082h8.011a4.727,4.727,0,0,0-.191.946Zm-5.3-1.9H9.137a2.379,2.379,0,0,1,2.328-1.9h5.7a2.379,2.379,0,0,1,2.328,1.9ZM13.84,17.111V2.964a.475.475,0,0,0-.157-.353.938.938,0,0,1-.318-.7.95.95,0,1,1,1.9,0,.938.938,0,0,1-.318.7.475.475,0,0,0-.157.353V17.111Zm13.33-6.176H19.514l3.828-5.359Zm-1.928,2.851h-3.8a2.379,2.379,0,0,1-2.328-1.9H27.57a2.379,2.379,0,0,1-2.328,1.9Zm0,0" fill="#fff"/>
      </g>
    </g>
  </g>
</svg>
