<svg xmlns="http://www.w3.org/2000/svg" xmlns:xlink="http://www.w3.org/1999/xlink" width="113" height="113" viewBox="0 0 113 113">
  <defs>
    <filter id="Trazado_982547" x="0" y="0" width="113" height="113" filterUnits="userSpaceOnUse">
      <feOffset dy="3" input="SourceAlpha"/>
      <feGaussianBlur stdDeviation="3" result="blur"/>
      <feFlood flood-opacity="0.161"/>
      <feComposite operator="in" in2="blur"/>
      <feComposite in="SourceGraphic"/>
    </filter>
  </defs>
  <g id="Grupo_1223045" data-name="Grupo 1223045" transform="translate(-1215.999 -2105)">
    <g id="Grupo_1220513" data-name="Grupo 1220513" transform="translate(0.5 -688.839)">
      <g id="Grupo_1215875" data-name="Grupo 1215875" transform="translate(0 -6681.075)">
        <g id="Grupo_1214722" data-name="Grupo 1214722" transform="translate(1224.499 9480.914)">
          <g id="Grupo_1209935" data-name="Grupo 1209935">
            <g id="Grupo_1208705" data-name="Grupo 1208705">
              <g id="Grupo_1148633" data-name="Grupo 1148633">
                <g id="Grupo_1148525" data-name="Grupo 1148525">
                  <g transform="matrix(1, 0, 0, 1, -9, -6)" filter="url(#Trazado_982547)">
                    <g id="Trazado_982547-2" data-name="Trazado 982547" transform="translate(9 6)" fill="#f9e3d4">
                      <path d="M 47.5 93.5 C 41.28937149047852 93.5 35.26533508300781 92.28397369384766 29.59518623352051 89.88570404052734 C 24.11771965026855 87.56893157958984 19.19813346862793 84.25196075439453 14.97309303283691 80.02691650390625 C 10.74804019927979 75.80186462402344 7.431066513061523 70.88229370117188 5.114293098449707 65.40481567382812 C 2.716026782989502 59.73468017578125 1.5 53.71062850952148 1.5 47.5 C 1.5 41.28937149047852 2.716026782989502 35.26533508300781 5.114293098449707 29.59518623352051 C 7.431066513061523 24.11771965026855 10.74804019927979 19.19813346862793 14.97309303283691 14.97309303283691 C 19.19813346862793 10.74804019927979 24.11771965026855 7.431066513061523 29.59518623352051 5.114293098449707 C 35.26533508300781 2.716026782989502 41.28937149047852 1.5 47.5 1.5 C 53.71062850952148 1.5 59.73468017578125 2.716026782989502 65.40481567382812 5.114293098449707 C 70.88229370117188 7.431066513061523 75.80186462402344 10.74804019927979 80.02691650390625 14.97309303283691 C 84.25196075439453 19.19813346862793 87.56893157958984 24.11771965026855 89.88570404052734 29.59518623352051 C 92.28397369384766 35.26533508300781 93.5 41.28937149047852 93.5 47.5 C 93.5 53.71062850952148 92.28397369384766 59.73468017578125 89.88570404052734 65.40481567382812 C 87.56893157958984 70.88229370117188 84.25196075439453 75.80186462402344 80.02691650390625 80.02691650390625 C 75.80186462402344 84.25196075439453 70.88229370117188 87.56893157958984 65.40481567382812 89.88570404052734 C 59.73468017578125 92.28397369384766 53.71062850952148 93.5 47.5 93.5 Z" stroke="none"/>
                      <path d="M 47.5 3 C 41.49121475219727 3 35.66376876831055 4.176155090332031 30.17950439453125 6.495796203613281 C 24.88084411621094 8.736953735351562 20.12152099609375 11.94598388671875 16.03375244140625 16.03375244140625 C 11.94598388671875 20.12152099609375 8.736953735351562 24.88084411621094 6.495796203613281 30.17950439453125 C 4.176155090332031 35.66376876831055 3 41.49121475219727 3 47.5 C 3 53.50878524780273 4.176155090332031 59.33623123168945 6.495796203613281 64.82049560546875 C 8.736953735351562 70.11915588378906 11.94598388671875 74.87847900390625 16.03375244140625 78.96624755859375 C 20.12152099609375 83.05401611328125 24.88084411621094 86.26304626464844 30.17950439453125 88.50419616699219 C 35.66376876831055 90.82384490966797 41.49121475219727 92 47.5 92 C 53.50878524780273 92 59.33623123168945 90.82384490966797 64.82049560546875 88.50419616699219 C 70.11915588378906 86.26304626464844 74.87847900390625 83.05401611328125 78.96624755859375 78.96624755859375 C 83.05401611328125 74.87847900390625 86.26304626464844 70.11915588378906 88.50419616699219 64.82049560546875 C 90.82384490966797 59.33623123168945 92 53.50878524780273 92 47.5 C 92 41.49121475219727 90.82384490966797 35.66376876831055 88.50419616699219 30.17950439453125 C 86.26304626464844 24.88084411621094 83.05401611328125 20.12152099609375 78.96624755859375 16.03375244140625 C 74.87847900390625 11.94598388671875 70.11915588378906 8.736953735351562 64.82049560546875 6.495796203613281 C 59.33623123168945 4.176155090332031 53.50878524780273 3 47.5 3 M 47.5 0 C 73.7335205078125 0 95 21.2664794921875 95 47.5 C 95 73.7335205078125 73.7335205078125 95 47.5 95 C 21.2664794921875 95 0 73.7335205078125 0 47.5 C 0 21.2664794921875 21.2664794921875 0 47.5 0 Z" stroke="none" fill="#eca675"/>
                    </g>
                  </g>
                </g>
              </g>
            </g>
          </g>
        </g>
      </g>
    </g>
    <g id="short_term" data-name="short term" transform="translate(1235.698 2122.026)">
      <path id="Trazado_1177035" data-name="Trazado 1177035" d="M40.87,60.66a13.8,13.8,0,0,0,2.481,3.027C3.335,74.952-15.724,19.31,22.758,3.643a1.793,1.793,0,1,1,1.216,3.375c-33.336,13.4-18.1,61.83,16.9,53.643Z" transform="translate(0.699 3.54)" fill="#868eaf"/>
      <path id="Trazado_1177036" data-name="Trazado 1177036" d="M47.927,36.363a31.738,31.738,0,0,1-.868,7.394,15.33,15.33,0,0,0-3.2-2.283A28.254,28.254,0,0,0,20.833,8.6a1.8,1.8,0,0,1-2.779,2.233L15.027,7.78A1.784,1.784,0,0,1,14.9,5.125l3.151-3.151a1.828,1.828,0,1,1,2.183,2.9,31.757,31.757,0,0,1,27.69,31.486Z" transform="translate(18.057 0.693)" fill="#868eaf"/>
      <path id="Trazado_1177037" data-name="Trazado 1177037" d="M33.687,67.061A32.9,32.9,0,0,1,23.008,3.223a3.009,3.009,0,0,1,3.768,4.07,2.942,2.942,0,0,1-1.718,1.533A26.621,26.621,0,0,0,8.642,42.287c3.74,11.837,15.283,21.971,32.656,17.9a1.2,1.2,0,0,1,1.292.549A12.565,12.565,0,0,0,44.858,63.5c2.823,3.122-9.956,3.53-11.171,3.566ZM24.077,5.405C-12.388,20.167,3.995,71.94,41.8,63.719q-.415-.5-.779-1.033C4.844,69.815-10.089,20.832,24.228,6.6A.606.606,0,0,0,24.077,5.4Z" transform="translate(0 2.857)"/>
      <path id="Trazado_1177038" data-name="Trazado 1177038" d="M47.738,45.642c-1.409-.379-2.378-1.912-3.761-2.423a1.194,1.194,0,0,1-.608-1.282c2.957-13.406-6.983-28.479-20.414-31.163a3.055,3.055,0,0,1-5.046,1.612L14.86,9.314a3.011,3.011,0,0,1-.048-4.405l3.078-3.082A3,3,0,0,1,22.9,4.673a32.968,32.968,0,0,1,26,40.055,1.2,1.2,0,0,1-1.158.914Zm-1.879-4.094q.567.345,1.109.735a30.642,30.642,0,0,0-26.2-35.531,1.2,1.2,0,0,1-.56-2.14.707.707,0,0,0-.037-1.275c-.408-.4-2.866,2.576-3.747,3.321a.629.629,0,0,0-.04.835l3.195,3.191a.589.589,0,0,0,.814-.021.494.494,0,0,0,.123-.721,1.2,1.2,0,0,1,1.177-1.828c15.169,1.978,27,18.374,24.166,33.433Z" transform="translate(17.378 0)"/>
      <path id="Trazado_1177039" data-name="Trazado 1177039" d="M47.627,28.009a20.658,20.658,0,0,1-.273,3.3A15.586,15.586,0,0,0,32,47.982,20.647,20.647,0,0,1,6.489,28.009C7.557.691,46.561.7,47.627,28.009Z" transform="translate(7.167 9.048)" fill="#a0c8ff"/>
      <path id="Trazado_1177040" data-name="Trazado 1177040" d="M27.667,50.5C-2.441,48.6.1,7.209,27.689,7.023A21.6,21.6,0,0,1,49.16,32.19a1.189,1.189,0,0,1-1.193,1A14.4,14.4,0,0,0,33.811,48.564a1.192,1.192,0,0,1-.887,1.263,21,21,0,0,1-5.257.67ZM27.69,9.4C10.979,8.795.334,31.325,15.728,43.891A19.041,19.041,0,0,0,31.38,47.741a16.959,16.959,0,0,1,15.564-16.91A19.216,19.216,0,0,0,27.69,9.4Z" transform="translate(6.537 8.357)"/>
      <path id="Trazado_1177041" data-name="Trazado 1177041" d="M40.766,25.479a15.4,15.4,0,0,1-.521,4.02,15.448,15.448,0,0,0-10.4,11.289A16.294,16.294,0,0,1,8.312,25.478c.783-21.5,31.673-21.5,32.453,0Z" transform="translate(9.686 11.578)" fill="#d8ced3"/>
      <path id="Trazado_1177042" data-name="Trazado 1177042" d="M25.27,43.587C1.092,42.162,3.038,8.969,25.18,8.856A17.025,17.025,0,0,1,42.6,26.129c-.161,1.516.122,4.449-1.352,5.2a14.272,14.272,0,0,0-9.592,10.415,1.192,1.192,0,0,1-.754.856,16.4,16.4,0,0,1-5.629.988Zm-.09-32.349A14.731,14.731,0,0,0,10.143,26.217C9.659,35.707,20.56,43.7,29.491,40.561A16.677,16.677,0,0,1,39.885,29.273a14.914,14.914,0,0,0-14.7-18.035Z" transform="translate(9.045 10.885)"/>
      <path id="Trazado_1177043" data-name="Trazado 1177043" d="M15.834,13.661C14.071,13.6,14.777,11.184,14.643,10a1.19,1.19,0,0,1,1.191-1.191c1.762.056,1.056,2.477,1.191,3.663a1.19,1.19,0,0,1-1.191,1.191Z" transform="translate(18.392 10.823)"/>
      <path id="Trazado_1177044" data-name="Trazado 1177044" d="M15.834,26.247c-1.762-.056-1.056-2.477-1.191-3.663a1.19,1.19,0,0,1,1.191-1.191c1.762.056,1.056,2.477,1.191,3.663a1.19,1.19,0,0,1-1.191,1.191Z" transform="translate(18.392 28.213)"/>
      <path id="Trazado_1177045" data-name="Trazado 1177045" d="M19.893,14.938a1.2,1.2,0,0,1-.842-2.033L20.8,11.156c1.076-1.108,2.793.607,1.684,1.684-.518.4-1.835,2.208-2.59,2.1Z" transform="translate(24.058 13.574)"/>
      <path id="Trazado_1177046" data-name="Trazado 1177046" d="M10.993,23.838a1.2,1.2,0,0,1-.842-2.033L11.9,20.056c1.076-1.108,2.793.607,1.684,1.684-.518.4-1.835,2.208-2.59,2.1Z" transform="translate(11.76 25.871)"/>
      <path id="Trazado_1177047" data-name="Trazado 1177047" d="M24.062,18H21.59a1.191,1.191,0,1,1,0-2.382h2.472a1.191,1.191,0,1,1,0,2.382Z" transform="translate(26.387 20.234)"/>
      <path id="Trazado_1177048" data-name="Trazado 1177048" d="M11.476,18H9a1.191,1.191,0,1,1,0-2.382h2.472a1.191,1.191,0,1,1,0,2.382Z" transform="translate(8.997 20.234)"/>
      <path id="Trazado_1177049" data-name="Trazado 1177049" d="M12.753,14.938c-.747.115-2.08-1.706-2.59-2.1-1.108-1.076.607-2.793,1.684-1.684l1.748,1.749a1.2,1.2,0,0,1-.842,2.033Z" transform="translate(11.748 13.574)"/>
      <path id="Trazado_1177050" data-name="Trazado 1177050" d="M19.676,22.246H13.023a1.191,1.191,0,1,1,0-2.382h5.462V13.305a1.191,1.191,0,1,1,2.382,0v7.75a1.19,1.19,0,0,1-1.191,1.191Z" transform="translate(14.549 15.393)"/>
      <path id="Trazado_1177051" data-name="Trazado 1177051" d="M48.159,33A15.524,15.524,0,0,1,32.627,48.536c-17.677-.274-21.345-24.8-4.689-30.32A15.61,15.61,0,0,1,48.159,33Z" transform="translate(21.993 22.86)" fill="#ffce62"/>
      <path id="Trazado_1177052" data-name="Trazado 1177052" d="M33.342,50.475A16.368,16.368,0,0,1,16.947,36.292,16.356,16.356,0,0,1,28.278,17.836c10.044-3.72,22.3,5.2,21.787,15.931A16.74,16.74,0,0,1,33.342,50.475ZM33.253,19.41A14.275,14.275,0,0,0,19.3,35.929C21.79,52.7,46.992,52,47.683,33.754A14.558,14.558,0,0,0,33.253,19.41Z" transform="translate(21.279 22.111)"/>
      <path id="Trazado_1177053" data-name="Trazado 1177053" d="M42.224,30.786a11.726,11.726,0,1,1-18.079-9.844.016.016,0,0,1,.016-.016,11.788,11.788,0,0,1,18.063,9.86Z" transform="translate(24.137 25.069)" fill="#ffc135"/>
      <path id="Trazado_1177054" data-name="Trazado 1177054" d="M31.219,44.482c-12.694.212-17.865-17.127-7.07-23.811h0c7.9-5.7,20.46,1.1,19.924,10.853A13.068,13.068,0,0,1,31.219,44.482ZM25.55,22.6C13.523,30.8,25.681,48.437,37.6,39.855,48.064,31.37,36.817,15.872,25.55,22.6Z" transform="translate(23.48 24.341)"/>
      <path id="Trazado_1177055" data-name="Trazado 1177055" d="M23.323,33.961a1.191,1.191,0,1,1,0-2.382h2.551a1.361,1.361,0,1,0-.021-2.721,3.743,3.743,0,1,1,0-7.485h2.572a1.191,1.191,0,1,1,0,2.382H25.875a1.361,1.361,0,1,0,.02,2.722,3.743,3.743,0,1,1,0,7.485Z" transform="translate(28.754 28.186)"/>
      <path id="Trazado_1177056" data-name="Trazado 1177056" d="M24.392,29.78c-1.542-.014-1.151-1.932-1.191-2.931a1.19,1.19,0,0,1,1.191-1.191c1.542.014,1.151,1.932,1.191,2.931a1.19,1.19,0,0,1-1.191,1.191Z" transform="translate(30.236 34.107)"/>
      <path id="Trazado_1177057" data-name="Trazado 1177057" d="M24.392,24.778c-1.542-.014-1.151-1.932-1.191-2.931a1.19,1.19,0,0,1,1.191-1.191c1.542.014,1.151,1.932,1.191,2.931a1.19,1.19,0,0,1-1.191,1.191Z" transform="translate(30.236 27.196)"/>
    </g>
  </g>
</svg>
