<svg xmlns="http://www.w3.org/2000/svg" xmlns:xlink="http://www.w3.org/1999/xlink" width="93.934" height="93.934" viewBox="0 0 93.934 93.934">
  <defs>
    <filter id="Trazado_982547" x="0" y="0" width="93.934" height="93.934" filterUnits="userSpaceOnUse">
      <feOffset dy="3" input="SourceAlpha"/>
      <feGaussianBlur stdDeviation="3" result="blur"/>
      <feFlood flood-opacity="0.161"/>
      <feComposite operator="in" in2="blur"/>
      <feComposite in="SourceGraphic"/>
    </filter>
  </defs>
  <g id="Grupo_1222998" data-name="Grupo 1222998" transform="translate(-823.066 -931.68)">
    <g id="Grupo_1220384" data-name="Grupo 1220384" transform="translate(632 -111.168)">
      <g id="Grupo_1215981" data-name="Grupo 1215981" transform="translate(-0.229 -2679.151)">
        <g id="Grupo_1214594" data-name="Grupo 1214594" transform="translate(200.295 3728)">
          <g id="Grupo_1214432" data-name="Grupo 1214432" transform="translate(0)">
            <g id="Grupo_1183196" data-name="Grupo 1183196">
              <g id="Grupo_1179610" data-name="Grupo 1179610">
                <g id="Grupo_1175227" data-name="Grupo 1175227">
                  <g id="Grupo_1167337" data-name="Grupo 1167337">
                    <g id="Grupo_1166720" data-name="Grupo 1166720">
                      <g id="Grupo_1164305" data-name="Grupo 1164305">
                        <g id="Grupo_1163948" data-name="Grupo 1163948">
                          <g id="Grupo_1158168" data-name="Grupo 1158168">
                            <g id="Grupo_1152576" data-name="Grupo 1152576">
                              <g id="Grupo_1148633" data-name="Grupo 1148633">
                                <g id="Grupo_1148525" data-name="Grupo 1148525">
                                  <g transform="matrix(1, 0, 0, 1, -9, -6)" filter="url(#Trazado_982547)">
                                    <g id="Trazado_982547-2" data-name="Trazado 982547" transform="translate(9 6)" fill="#eae4dc">
                                      <path d="M 37.966796875 74.43359375 C 33.04315185546875 74.43359375 28.26757431030273 73.46962738037109 23.77274131774902 71.56847381591797 C 19.43047523498535 69.73184967041016 15.53040790557861 67.10224914550781 12.18087482452393 63.75271987915039 C 8.831341743469238 60.4031867980957 6.201741218566895 56.50312042236328 4.365118980407715 52.16086196899414 C 2.463963508605957 47.66601943969727 1.499996900558472 42.89044189453125 1.499996900558472 37.966796875 C 1.499996900558472 33.04315185546875 2.463963508605957 28.26757431030273 4.365118980407715 23.77274131774902 C 6.201741218566895 19.43047523498535 8.831341743469238 15.53040790557861 12.18087482452393 12.18087482452393 C 15.53040790557861 8.831341743469238 19.43047523498535 6.201741218566895 23.77274131774902 4.365118980407715 C 28.26757431030273 2.463963508605957 33.04315185546875 1.499996900558472 37.966796875 1.499996900558472 C 42.89044189453125 1.499996900558472 47.66601943969727 2.463963508605957 52.16086196899414 4.365118980407715 C 56.50312042236328 6.201741218566895 60.4031867980957 8.831341743469238 63.75271987915039 12.18087482452393 C 67.10224914550781 15.53040790557861 69.73184967041016 19.43047523498535 71.56847381591797 23.77274131774902 C 73.46962738037109 28.26757431030273 74.43359375 33.04315185546875 74.43359375 37.966796875 C 74.43359375 42.89044189453125 73.46962738037109 47.66601943969727 71.56847381591797 52.16086196899414 C 69.73184967041016 56.50313186645508 67.10224914550781 60.4031867980957 63.75271987915039 63.75271987915039 C 60.4031867980957 67.10224914550781 56.50313186645508 69.73184967041016 52.16086196899414 71.56847381591797 C 47.66601943969727 73.46962738037109 42.89044189453125 74.43359375 37.966796875 74.43359375 Z" stroke="none"/>
                                      <path d="M 37.966796875 3 C 33.2449836730957 3 28.66600799560547 3.924095153808594 24.35705947875977 5.746635437011719 C 20.19359588623047 7.507637023925781 16.45379638671875 10.02928161621094 13.24153518676758 13.24153518676758 C 10.02927398681641 16.45379638671875 7.507621765136719 20.19359588623047 5.746635437011719 24.35705947875977 C 3.924095153808594 28.66600799560547 3 33.2449836730957 3 37.966796875 C 3 42.6886100769043 3.924095153808594 47.26758575439453 5.746635437011719 51.57653427124023 C 7.507621765136719 55.73999786376953 10.02927398681641 59.47979736328125 13.24153518676758 62.69205856323242 C 16.45379638671875 65.90431976318359 20.19359588623047 68.42597198486328 24.35705947875977 70.18695831298828 C 28.66600799560547 72.00949859619141 33.2449836730957 72.93359375 37.966796875 72.93359375 C 42.6886100769043 72.93359375 47.26758575439453 72.00949859619141 51.57653427124023 70.18695831298828 C 55.73999786376953 68.42597198486328 59.47979736328125 65.90431976318359 62.69205856323242 62.69205856323242 C 65.90431976318359 59.47979736328125 68.42597198486328 55.73999786376953 70.18695831298828 51.57653427124023 C 72.00949859619141 47.26758575439453 72.93359375 42.6886100769043 72.93359375 37.966796875 C 72.93359375 33.2449836730957 72.00949859619141 28.66600799560547 70.18695831298828 24.35705947875977 C 68.42597198486328 20.19359588623047 65.90431976318359 16.45379638671875 62.69205856323242 13.24153518676758 C 59.47979736328125 10.02928161621094 55.73999786376953 7.507637023925781 51.57653427124023 5.746635437011719 C 47.26758575439453 3.924095153808594 42.6886100769043 3 37.966796875 3 M 37.966796875 0 C 58.93528366088867 0 75.93359375 16.99832153320312 75.93359375 37.966796875 C 75.93359375 58.93528366088867 58.93528366088867 75.93359375 37.966796875 75.93359375 C 16.99831008911133 75.93359375 0 58.93528366088867 0 37.966796875 C 0 16.99832153320312 16.99831008911133 0 37.966796875 0 Z" stroke="none" fill="#665b4e"/>
                                    </g>
                                  </g>
                                </g>
                              </g>
                            </g>
                          </g>
                        </g>
                      </g>
                    </g>
                  </g>
                </g>
              </g>
            </g>
          </g>
        </g>
      </g>
    </g>
    <g id="Fill_out_line" data-name="Fill out line" transform="translate(824.868 937.351)">
      <path id="Trazado_1176901" data-name="Trazado 1176901" d="M370.546,32.035a2.511,2.511,0,0,0,2.511-2.511V28.018A4.018,4.018,0,0,0,369.039,24H360v8.035Z" transform="translate(-300.811 -6.996)" fill="#f0bca1"/>
      <path id="Trazado_1176902" data-name="Trazado 1176902" d="M122.149,82.254H88V28.018A4.018,4.018,0,0,1,92.018,24h38.167a4.018,4.018,0,0,0-4.018,4.018V78.237A4.018,4.018,0,0,1,122.149,82.254Z" transform="translate(-62.961 -6.996)" fill="#ffd9b5"/>
      <path id="Trazado_1176903" data-name="Trazado 1176903" d="M306.511,424a2.511,2.511,0,0,1,2.511,2.511v1.507H304V424Z" transform="translate(-251.842 -356.776)" fill="#f5c9aa"/>
      <path id="Trazado_1176904" data-name="Trazado 1176904" d="M59.153,429.524a2.511,2.511,0,0,0,2.511,2.511H26.511A2.511,2.511,0,0,1,24,429.524v-3.013A2.511,2.511,0,0,1,26.511,424H61.664a2.511,2.511,0,0,0-2.511,2.511Z" transform="translate(-6.996 -356.776)" fill="#ffe3cd"/>
      <path id="Trazado_1176905" data-name="Trazado 1176905" d="M392,56h4.018v1.507a2.511,2.511,0,0,0,2.511,2.511H392Z" transform="translate(-328.794 -34.978)" fill="#f5c9aa"/>
      <path id="Trazado_1176906" data-name="Trazado 1176906" d="M220.018,114.044H216L217,104h2.009Z" transform="translate(-174.89 -76.952)" fill="#ba8b5d"/>
      <path id="Trazado_1176907" data-name="Trazado 1176907" d="M132.018,142.026A4.022,4.022,0,0,1,128,138.009v-1a1,1,0,0,1,1-1h6.026a1,1,0,0,1,1,1v1A4.022,4.022,0,0,1,132.018,142.026Z" transform="translate(-97.939 -104.934)" fill="#fab53f"/>
      <path id="Trazado_1176908" data-name="Trazado 1176908" d="M276.018,142.026A4.022,4.022,0,0,1,272,138.009v-1a1,1,0,0,1,1-1h6.026a1,1,0,0,1,1,1v1A4.022,4.022,0,0,1,276.018,142.026Z" transform="translate(-223.86 -104.934)" fill="#fab53f"/>
      <rect id="Rectángulo_421563" data-name="Rectángulo 421563" width="9.854" height="3.79" rx="1.895" transform="translate(37.983 37.225)" fill="#9f764a"/>
      <path id="Trazado_1176909" data-name="Trazado 1176909" d="M160.105,62.418a2.009,2.009,0,0,0-2.009-2.009h-1a5.682,5.682,0,0,0-8.035,0h-2.009a5.682,5.682,0,0,0-8.035,0h-1a2.009,2.009,0,1,0,0,4.018h1a5.682,5.682,0,0,1,8.035,0h2.009a5.682,5.682,0,0,1,8.035,0h1A2.009,2.009,0,0,0,160.105,62.418Z" transform="translate(-104.934 -37.379)" fill="#9f764a"/>
      <path id="Trazado_1176910" data-name="Trazado 1176910" d="M369.074,146.009l-1.559,3.119-.9,1.8-9.594,19.189L352,175.136l.7-4.934.3-2.1,9.594-19.19.9-1.8L365.057,144Z" transform="translate(-293.816 -111.93)" fill="#529ddf"/>
      <path id="Trazado_1176911" data-name="Trazado 1176911" d="M361.928,338.009l-1.5,1.5-2.82-1.41.3-2.1Z" transform="translate(-298.721 -279.825)" fill="#4384c3"/>
      <path id="Trazado_1176912" data-name="Trazado 1176912" d="M355.524,354.11,352,357.634l.7-4.934Z" transform="translate(-293.816 -294.428)" fill="#68737f"/>
      <path id="Trazado_1176913" data-name="Trazado 1176913" d="M362.527,138.113,358.51,136.1a1,1,0,0,0-1.348.449l-1.56,3.119-.975-.488a3.264,3.264,0,0,0-4.46,1.634l-2.069,4.828,1.846.791,2.069-4.828a1.255,1.255,0,0,1,1.715-.628l.976.488-9.595,19.189a1,1,0,0,0-.1.307l-1,7.031a1,1,0,0,0,1.7.852l5.022-5.022a1.006,1.006,0,0,0,.188-.261l12.053-24.105a1,1,0,0,0-.449-1.347ZM349.2,162.522l-2.776,2.776.555-3.886,9.522-19.044,2.221,1.11Zm10.42-20.84-2.221-1.11,1.11-2.221,2.221,1.11Z" transform="translate(-286.819 -104.933)"/>
      <path id="Trazado_1176914" data-name="Trazado 1176914" d="M82.009,21.022a3.017,3.017,0,0,1,3.013-3.013h34.151a5,5,0,0,0-1.007,3.013V33.075h2.009V21.022a3.017,3.017,0,0,1,3.013-3.013h1a3.017,3.017,0,0,1,3.013,3.013v1.507a1.507,1.507,0,1,1-3.013,0V21.022a1,1,0,0,0-1-1H121.18v2.009h1v.5a3.494,3.494,0,0,0,.339,1.507H121.18v2.009h4.52a3.519,3.519,0,0,0,3.515-3.515V21.022A5.028,5.028,0,0,0,124.193,16H85.022A5.028,5.028,0,0,0,80,21.022V64.21h2.009Z" transform="translate(-55.965)"/>
      <path id="Trazado_1176915" data-name="Trazado 1176915" d="M62.2,393.039a3.017,3.017,0,0,1-3.013,3.013h-4.52a1.508,1.508,0,0,1-1.507-1.507v-3.013a1.507,1.507,0,1,1,3.013,0v.5H54.167v2.009H57.18a1,1,0,0,0,1-1v-1.507a3.519,3.519,0,0,0-3.515-3.515H19.515A3.519,3.519,0,0,0,16,391.533v3.013a3.519,3.519,0,0,0,3.515,3.515H59.189a5.028,5.028,0,0,0,5.022-5.022V384H62.2Zm-10.709,3.013H19.515a1.508,1.508,0,0,1-1.507-1.507v-3.013a1.508,1.508,0,0,1,1.507-1.507H51.493a3.494,3.494,0,0,0-.339,1.507v3.013A3.494,3.494,0,0,0,51.493,396.053Z" transform="translate(0 -321.798)"/>
      <path id="Trazado_1176916" data-name="Trazado 1176916" d="M128,61.057a4.018,4.018,0,0,0,8.035,0v-1a1,1,0,0,0-.144-.516h0l-2.576-4.293a4.678,4.678,0,0,1,5.687.19l-.864,8.637h-.1a3.013,3.013,0,0,0,0,6.026h6.026a3.013,3.013,0,1,0,0-6.026h-.1l-.864-8.637a4.678,4.678,0,0,1,5.687-.19l-2.576,4.293h0a1,1,0,0,0-.144.516v1a4.018,4.018,0,0,0,8.035,0v-1a1,1,0,0,0-.144-.516h0l-2.153-3.588a3.013,3.013,0,0,0-.717-5.939h-.607a6.686,6.686,0,0,0-8.432-.322V48h-2.009v1.687a6.686,6.686,0,0,0-8.432.322h-.607a3.013,3.013,0,0,0-.717,5.939l-2.153,3.588h0a1,1,0,0,0-.144.516Zm4.018,2.009a2.011,2.011,0,0,1-2.009-2.009h4.018A2.011,2.011,0,0,1,132.016,63.066Zm1.239-4.018h-2.478l1.239-2.065Zm11.818,8.035a1.006,1.006,0,0,1-1,1h-6.026a1,1,0,0,1,0-2.009h6.026A1.006,1.006,0,0,1,145.073,67.083Zm-4.917-3.013.8-8.035h.191l.8,8.035Zm11.178-5.022h-2.478l1.239-2.065Zm-1.239,4.018a2.011,2.011,0,0,1-2.009-2.009H152.1A2.011,2.011,0,0,1,150.095,63.066ZM131.012,52.018h1a1,1,0,0,0,.71-.294,4.677,4.677,0,0,1,6.615,0,1,1,0,0,0,.71.294h2.009a1,1,0,0,0,.71-.294,4.677,4.677,0,0,1,6.615,0,1,1,0,0,0,.71.294h1a1,1,0,0,1,0,2.009h-.607a6.687,6.687,0,0,0-8.829,0h-1.215a6.687,6.687,0,0,0-8.829,0h-.607a1,1,0,0,1,0-2.009Z" transform="translate(-97.937 -27.982)"/>
      <path id="Trazado_1176917" data-name="Trazado 1176917" d="M112,224h6.026v2.009H112Z" transform="translate(-83.947 -181.886)"/>
      <path id="Trazado_1176918" data-name="Trazado 1176918" d="M112,256h8.035v2.009H112Z" transform="translate(-83.947 -209.868)"/>
      <path id="Trazado_1176919" data-name="Trazado 1176919" d="M192,256h8.035v2.009H192Z" transform="translate(-153.904 -209.868)"/>
      <path id="Trazado_1176920" data-name="Trazado 1176920" d="M272,256h12.053v2.009H272Z" transform="translate(-223.86 -209.868)"/>
      <path id="Trazado_1176921" data-name="Trazado 1176921" d="M112,384h8.035v2.009H112Z" transform="translate(-83.947 -321.798)"/>
      <path id="Trazado_1176922" data-name="Trazado 1176922" d="M192,384h12.053v2.009H192Z" transform="translate(-153.904 -321.798)"/>
      <path id="Trazado_1176923" data-name="Trazado 1176923" d="M112,288h4.018v2.009H112Z" transform="translate(-83.947 -237.851)"/>
      <path id="Trazado_1176924" data-name="Trazado 1176924" d="M160,288h10.044v2.009H160Z" transform="translate(-125.921 -237.851)"/>
      <path id="Trazado_1176925" data-name="Trazado 1176925" d="M256,288h12.053v2.009H256Z" transform="translate(-209.868 -237.851)"/>
      <path id="Trazado_1176926" data-name="Trazado 1176926" d="M112,352h4.018v2.009H112Z" transform="translate(-83.947 -293.816)"/>
      <path id="Trazado_1176927" data-name="Trazado 1176927" d="M160,352h10.044v2.009H160Z" transform="translate(-125.921 -293.816)"/>
      <path id="Trazado_1176928" data-name="Trazado 1176928" d="M256,352h9.039v2.009H256Z" transform="translate(-209.868 -293.816)"/>
      <path id="Trazado_1176929" data-name="Trazado 1176929" d="M112,320h17.075v2.009H112Z" transform="translate(-83.947 -265.833)"/>
    </g>
  </g>
</svg>
