<svg xmlns="http://www.w3.org/2000/svg" xmlns:xlink="http://www.w3.org/1999/xlink" width="113" height="113" viewBox="0 0 113 113">
  <defs>
    <filter id="Trazado_982547" x="0" y="0" width="113" height="113" filterUnits="userSpaceOnUse">
      <feOffset dy="3" input="SourceAlpha"/>
      <feGaussianBlur stdDeviation="3" result="blur"/>
      <feFlood flood-opacity="0.161"/>
      <feComposite operator="in" in2="blur"/>
      <feComposite in="SourceGraphic"/>
    </filter>
  </defs>
  <g id="Grupo_1223004" data-name="Grupo 1223004" transform="translate(-272 -2105.033)">
    <g id="Grupo_1220495" data-name="Grupo 1220495" transform="translate(0 -688.806)">
      <g id="Grupo_1215811" data-name="Grupo 1215811" transform="translate(1.001 -6681.075)">
        <g id="Grupo_1210956" data-name="Grupo 1210956" transform="translate(279.999 9480.914)">
          <g id="Grupo_1209935" data-name="Grupo 1209935">
            <g id="Grupo_1208705" data-name="Grupo 1208705">
              <g id="Grupo_1148633" data-name="Grupo 1148633">
                <g id="Grupo_1148525" data-name="Grupo 1148525">
                  <g transform="matrix(1, 0, 0, 1, -9, -6)" filter="url(#Trazado_982547)">
                    <g id="Trazado_982547-2" data-name="Trazado 982547" transform="translate(9 6)" fill="#f9e3d4">
                      <path d="M 47.5 93.5 C 41.28937149047852 93.5 35.26533508300781 92.28397369384766 29.59518623352051 89.88570404052734 C 24.11771965026855 87.56893157958984 19.19813346862793 84.25196075439453 14.97309303283691 80.02691650390625 C 10.74804019927979 75.80186462402344 7.431066513061523 70.88229370117188 5.114293098449707 65.40481567382812 C 2.716026782989502 59.73468017578125 1.5 53.71062850952148 1.5 47.5 C 1.5 41.28937149047852 2.716026782989502 35.26533508300781 5.114293098449707 29.59518623352051 C 7.431066513061523 24.11771965026855 10.74804019927979 19.19813346862793 14.97309303283691 14.97309303283691 C 19.19813346862793 10.74804019927979 24.11771965026855 7.431066513061523 29.59518623352051 5.114293098449707 C 35.26533508300781 2.716026782989502 41.28937149047852 1.5 47.5 1.5 C 53.71062850952148 1.5 59.73468017578125 2.716026782989502 65.40481567382812 5.114293098449707 C 70.88229370117188 7.431066513061523 75.80186462402344 10.74804019927979 80.02691650390625 14.97309303283691 C 84.25196075439453 19.19813346862793 87.56893157958984 24.11771965026855 89.88570404052734 29.59518623352051 C 92.28397369384766 35.26533508300781 93.5 41.28937149047852 93.5 47.5 C 93.5 53.71062850952148 92.28397369384766 59.73468017578125 89.88570404052734 65.40481567382812 C 87.56893157958984 70.88229370117188 84.25196075439453 75.80186462402344 80.02691650390625 80.02691650390625 C 75.80186462402344 84.25196075439453 70.88229370117188 87.56893157958984 65.40481567382812 89.88570404052734 C 59.73468017578125 92.28397369384766 53.71062850952148 93.5 47.5 93.5 Z" stroke="none"/>
                      <path d="M 47.5 3 C 41.49121475219727 3 35.66376876831055 4.176155090332031 30.17950439453125 6.495796203613281 C 24.88084411621094 8.736953735351562 20.12152099609375 11.94598388671875 16.03375244140625 16.03375244140625 C 11.94598388671875 20.12152099609375 8.736953735351562 24.88084411621094 6.495796203613281 30.17950439453125 C 4.176155090332031 35.66376876831055 3 41.49121475219727 3 47.5 C 3 53.50878524780273 4.176155090332031 59.33623123168945 6.495796203613281 64.82049560546875 C 8.736953735351562 70.11915588378906 11.94598388671875 74.87847900390625 16.03375244140625 78.96624755859375 C 20.12152099609375 83.05401611328125 24.88084411621094 86.26304626464844 30.17950439453125 88.50419616699219 C 35.66376876831055 90.82384490966797 41.49121475219727 92 47.5 92 C 53.50878524780273 92 59.33623123168945 90.82384490966797 64.82049560546875 88.50419616699219 C 70.11915588378906 86.26304626464844 74.87847900390625 83.05401611328125 78.96624755859375 78.96624755859375 C 83.05401611328125 74.87847900390625 86.26304626464844 70.11915588378906 88.50419616699219 64.82049560546875 C 90.82384490966797 59.33623123168945 92 53.50878524780273 92 47.5 C 92 41.49121475219727 90.82384490966797 35.66376876831055 88.50419616699219 30.17950439453125 C 86.26304626464844 24.88084411621094 83.05401611328125 20.12152099609375 78.96624755859375 16.03375244140625 C 74.87847900390625 11.94598388671875 70.11915588378906 8.736953735351562 64.82049560546875 6.495796203613281 C 59.33623123168945 4.176155090332031 53.50878524780273 3 47.5 3 M 47.5 0 C 73.7335205078125 0 95 21.2664794921875 95 47.5 C 95 73.7335205078125 73.7335205078125 95 47.5 95 C 21.2664794921875 95 0 73.7335205078125 0 47.5 C 0 21.2664794921875 21.2664794921875 0 47.5 0 Z" stroke="none" fill="#eca675"/>
                    </g>
                  </g>
                </g>
              </g>
            </g>
          </g>
        </g>
      </g>
    </g>
    <g id="_6._Signature" data-name="6. Signature" transform="translate(304.612 2133.645)">
      <rect id="Rectángulo_421566" data-name="Rectángulo 421566" width="48.983" height="69.102" rx="16" transform="translate(0.875 0.875)" fill="#f6f6f6"/>
      <path id="Trazado_1176965" data-name="Trazado 1176965" d="M54.848,466.231H10.231A2.231,2.231,0,0,1,8,464v3.346a2.231,2.231,0,0,0,2.231,2.231H54.848a2.231,2.231,0,0,0,2.231-2.231V464A2.231,2.231,0,0,1,54.848,466.231Z" transform="translate(-6.885 -399.305)" fill="#dcdcdc"/>
      <path id="Trazado_1176966" data-name="Trazado 1176966" d="M47.964,71.388H3.346A3.346,3.346,0,0,1,0,68.042V3.346A3.346,3.346,0,0,1,3.346,0H47.964A3.346,3.346,0,0,1,51.31,3.346v14.5a1.115,1.115,0,1,1-2.231,0V3.346a1.115,1.115,0,0,0-1.115-1.115H3.346A1.115,1.115,0,0,0,2.231,3.346v64.7a1.115,1.115,0,0,0,1.115,1.115H47.964a1.115,1.115,0,0,0,1.115-1.115V59.118a1.115,1.115,0,0,1,2.231,0v8.923A3.346,3.346,0,0,1,47.964,71.388Z" transform="translate(0 0)"/>
      <path id="Trazado_1176967" data-name="Trazado 1176967" d="M353.115,199.232A1.115,1.115,0,0,1,352,198.117v-29a1.115,1.115,0,1,1,2.231,0v29A1.115,1.115,0,0,1,353.115,199.232Z" transform="translate(-302.921 -144.576)"/>
      <path id="Trazado_1176968" data-name="Trazado 1176968" d="M84.809,194.231H49.115a1.115,1.115,0,0,1,0-2.231H84.809a1.115,1.115,0,1,1,0,2.231Z" transform="translate(-41.307 -165.23)"/>
      <path id="Trazado_1176969" data-name="Trazado 1176969" d="M84.809,234.231H49.115a1.115,1.115,0,0,1,0-2.231H84.809a1.115,1.115,0,0,1,0,2.231Z" transform="translate(-41.307 -199.652)"/>
      <path id="Trazado_1176970" data-name="Trazado 1176970" d="M84.809,274.231H49.115a1.115,1.115,0,1,1,0-2.231H84.809a1.115,1.115,0,1,1,0,2.231Z" transform="translate(-41.307 -234.075)"/>
      <path id="Trazado_1176971" data-name="Trazado 1176971" d="M84.809,314.231H49.115a1.115,1.115,0,1,1,0-2.231H84.809a1.115,1.115,0,1,1,0,2.231Z" transform="translate(-41.307 -268.498)"/>
      <path id="Trazado_1176972" data-name="Trazado 1176972" d="M84.809,354.231H49.115a1.115,1.115,0,1,1,0-2.231H84.809a1.115,1.115,0,1,1,0,2.231Z" transform="translate(-41.307 -302.921)"/>
      <path id="Trazado_1176973" data-name="Trazado 1176973" d="M464,256h5.577v18.962H464Z" transform="translate(-399.305 -220.306)" fill="#a8edfd"/>
      <path id="Trazado_1176974" data-name="Trazado 1176974" d="M464,368h5.577v3.346H464Z" transform="translate(-399.305 -316.69)" fill="#8bd4de"/>
      <path id="Trazado_1176975" data-name="Trazado 1176975" d="M462.693,269.193h-5.577A1.115,1.115,0,0,1,456,268.078V249.115A1.115,1.115,0,0,1,457.115,248h5.577a1.115,1.115,0,0,1,1.115,1.115v18.962A1.115,1.115,0,0,1,462.693,269.193Zm-4.462-2.231h3.346V250.231h-3.346Z" transform="translate(-392.42 -213.421)"/>
      <path id="Trazado_1176976" data-name="Trazado 1176976" d="M214.005,243.862c-6.16,13.2-5.991,12.869-6.005,12.869a4.728,4.728,0,0,0,5.369-1.775l2.586-3.695a10.763,10.763,0,0,1,8.776-4.569,3.346,3.346,0,1,1,0,6.693H220.27a5.577,5.577,0,0,0-5.577,5.577h10.693a3.809,3.809,0,0,1,2.692,1.115,3.809,3.809,0,0,0,2.693,1.116h7.563a3.826,3.826,0,0,0,1.7-.4l3.657-1.829v-14.5h-1.306A7.618,7.618,0,0,1,237,242.231,7.617,7.617,0,0,0,231.615,240H220.07a6.693,6.693,0,0,0-6.065,3.863Z" transform="translate(-178.999 -206.537)" fill="#e0c3aa"/>
      <path id="Trazado_1176977" data-name="Trazado 1176977" d="M200.753,250.905a1.115,1.115,0,0,1-.658-1.534L206.1,236.5a7.837,7.837,0,0,1,7.076-4.5h11.545a8.675,8.675,0,0,1,6.175,2.557,6.454,6.454,0,0,0,4.6,1.9h1.3a1.115,1.115,0,0,1,1.115,1.115v6.693a1.115,1.115,0,0,1-2.231,0v-5.577h-.191a8.675,8.675,0,0,1-6.175-2.557,6.454,6.454,0,0,0-4.6-1.9H213.172a5.6,5.6,0,0,0-5.054,3.218l-5.371,11.52a3.634,3.634,0,0,0,2.814-1.534l2.588-3.7a11.839,11.839,0,0,1,9.689-5.046,4.462,4.462,0,0,1,4.462,4.462,1.115,1.115,0,1,1-2.231,0,2.231,2.231,0,0,0-2.231-2.231,9.6,9.6,0,0,0-7.86,4.092l-2.589,3.7A5.88,5.88,0,0,1,200.753,250.905Z" transform="translate(-172.104 -199.652)"/>
      <path id="Trazado_1176978" data-name="Trazado 1176978" d="M0,0H6.693V33.463H0Z" transform="matrix(0.857, 0.516, -0.516, 0.857, 46.898, 26.283)" fill="#6fc3e2"/>
      <path id="Trazado_1176979" data-name="Trazado 1176979" d="M210.892,214.57l-5.735-3.451a1.115,1.115,0,0,1-.381-1.534l17.254-28.668a1.115,1.115,0,0,1,1.534-.381l5.735,3.451a1.115,1.115,0,0,1,.381,1.534l-17.259,28.668A1.115,1.115,0,0,1,210.892,214.57Zm-3.625-4.787,3.816,2.3,16.1-26.761-3.823-2.3Z" transform="translate(-176.086 -155.226)"/>
      <path id="Trazado_1176980" data-name="Trazado 1176980" d="M209.023,394.01l-.583,7.461,6.318-4.01Z" transform="translate(-179.377 -339.073)" fill="#a6806f"/>
      <path id="Trazado_1176981" data-name="Trazado 1176981" d="M200.439,394.5l.584-7.459a1.115,1.115,0,0,1,1.687-.869l5.735,3.451a1.115,1.115,0,0,1,.022,1.9l-6.319,4.009a1.115,1.115,0,0,1-1.709-1.029Zm2.667-5.487-.269,3.437,2.91-1.839Z" transform="translate(-172.489 -332.193)"/>
      <path id="Trazado_1176982" data-name="Trazado 1176982" d="M269.385,312a3.346,3.346,0,0,1-3.346,3.346h-4.462A5.577,5.577,0,0,0,256,320.923h10.693a3.809,3.809,0,0,1,2.692,1.115,3.809,3.809,0,0,0,2.693,1.116h7.563a3.826,3.826,0,0,0,1.7-.4L285,320.923v-7.808" transform="translate(-220.306 -268.498)" fill="#e0c3aa"/>
      <path id="Trazado_1176983" data-name="Trazado 1176983" d="M279.64,354.231h-7.563a3.809,3.809,0,0,1-2.692-1.115A3.809,3.809,0,0,0,266.693,352h-9.577A5.558,5.558,0,0,0,256,355.346h10.693a3.809,3.809,0,0,1,2.692,1.115,3.809,3.809,0,0,0,2.693,1.116h7.563a3.826,3.826,0,0,0,1.7-.4L285,355.346V352l-3.657,1.829A3.826,3.826,0,0,1,279.64,354.231Z" transform="translate(-220.306 -302.921)" fill="#d0a37f"/>
      <path id="Trazado_1176984" data-name="Trazado 1176984" d="M272.756,317.385h-7.563a4.891,4.891,0,0,1-3.486-1.442,2.67,2.67,0,0,0-1.9-.789H249.115A1.115,1.115,0,0,1,248,314.039a6.7,6.7,0,0,1,6.693-6.693h4.462a2.231,2.231,0,0,0,2.231-2.231,1.115,1.115,0,1,1,2.231,0,4.462,4.462,0,0,1-4.462,4.462h-4.462a4.47,4.47,0,0,0-4.322,3.346h9.437a4.891,4.891,0,0,1,3.486,1.442,2.67,2.67,0,0,0,1.9.789h7.563a2.717,2.717,0,0,0,1.2-.279L277,313.35v-7.119a1.115,1.115,0,0,1,2.231,0v7.808a1.115,1.115,0,0,1-.616,1l-3.659,1.828A4.94,4.94,0,0,1,272.756,317.385Z" transform="translate(-213.421 -261.613)"/>
      <path id="Trazado_1176985" data-name="Trazado 1176985" d="M342.113,163.519a3.346,3.346,0,0,0-4.593,1.142l-1.15,1.912,5.735,3.451,1.15-1.912A3.346,3.346,0,0,0,342.113,163.519Z" transform="translate(-289.47 -140.307)" fill="#5f79a5"/>
      <path id="Trazado_1176986" data-name="Trazado 1176986" d="M334.642,164.091l-5.735-3.451a1.115,1.115,0,0,1-.381-1.534l1.15-1.912a4.462,4.462,0,1,1,7.646,4.6l-1.15,1.912A1.115,1.115,0,0,1,334.642,164.091Zm-3.625-4.787,3.823,2.3.576-.955a2.235,2.235,0,1,0-3.829-2.306Z" transform="translate(-282.582 -133.417)"/>
      <path id="Trazado_1176987" data-name="Trazado 1176987" d="M113.124,444.45a1.115,1.115,0,0,1-.891-1.785l.924-1.233a3.611,3.611,0,0,1,5.781,0,3.625,3.625,0,0,1,4.833.786h15.008a1.115,1.115,0,1,1,0,2.231H123.163a1.115,1.115,0,0,1-1-.616,1.376,1.376,0,0,0-2.465,0,1.115,1.115,0,0,1-2,0l-.425-.852a1.378,1.378,0,0,0-2.341-.2l-.924,1.233A1.115,1.115,0,0,1,113.124,444.45Z" transform="translate(-96.392 -378.64)"/>
      <path id="Trazado_1176988" data-name="Trazado 1176988" d="M56,56H91.694v8.923H56Z" transform="translate(-48.192 -48.192)" fill="#ead590"/>
      <path id="Trazado_1176989" data-name="Trazado 1176989" d="M56,96H91.694v3.346H56Z" transform="translate(-48.192 -82.615)" fill="#f1cb66"/>
      <path id="Trazado_1176990" data-name="Trazado 1176990" d="M84.809,59.154H49.115A1.115,1.115,0,0,1,48,58.039V49.115A1.115,1.115,0,0,1,49.115,48H84.809a1.115,1.115,0,0,1,1.115,1.115v8.923A1.115,1.115,0,0,1,84.809,59.154ZM50.231,56.923H83.694V50.231H50.231Z" transform="translate(-41.307 -41.307)"/>
      <path id="Trazado_1176991" data-name="Trazado 1176991" d="M64.732,154.231H49.115a1.115,1.115,0,0,1,0-2.231H64.732a1.115,1.115,0,0,1,0,2.231Z" transform="translate(-41.307 -130.807)"/>
    </g>
  </g>
</svg>
