<svg xmlns="http://www.w3.org/2000/svg" xmlns:xlink="http://www.w3.org/1999/xlink" width="100.531" height="100.531" viewBox="0 0 100.531 100.531">
  <defs>
    <filter id="Trazado_978624" x="0" y="0" width="100.531" height="100.531" filterUnits="userSpaceOnUse">
      <feOffset dy="3" input="SourceAlpha"/>
      <feGaussianBlur stdDeviation="3" result="blur"/>
      <feFlood flood-opacity="0.161"/>
      <feComposite operator="in" in2="blur"/>
      <feComposite in="SourceGraphic"/>
    </filter>
  </defs>
  <g id="Grupo_1222889" data-name="Grupo 1222889" transform="translate(-171.75 -2288.235)">
    <g id="Grupo_1220376" data-name="Grupo 1220376" transform="translate(11.786 1390.893)">
      <g id="Grupo_1215987" data-name="Grupo 1215987" transform="translate(168.964 903.342)">
        <g id="Grupo_1210476" data-name="Grupo 1210476" transform="translate(0 0)">
          <g id="Grupo_1210475" data-name="Grupo 1210475" transform="translate(0)">
            <g id="Grupo_1209741" data-name="Grupo 1209741" transform="translate(0 0)">
              <g id="Grupo_1178144" data-name="Grupo 1178144">
                <g id="Grupo_1177896" data-name="Grupo 1177896">
                  <g id="Grupo_1176881" data-name="Grupo 1176881">
                    <g id="Grupo_1175148" data-name="Grupo 1175148">
                      <g id="Grupo_1173798" data-name="Grupo 1173798">
                        <g id="Grupo_1171925" data-name="Grupo 1171925">
                          <g id="Grupo_1164524" data-name="Grupo 1164524">
                            <g id="Grupo_1144123" data-name="Grupo 1144123">
                              <g transform="matrix(1, 0, 0, 1, -9, -6)" filter="url(#Trazado_978624)">
                                <g id="Trazado_978624-2" data-name="Trazado 978624" transform="translate(9 6)" fill="#cfd7c8">
                                  <path d="M 41.26534271240234 81.03068542480469 C 35.89638900756836 81.03068542480469 30.6888370513916 79.97950744628906 25.78733062744141 77.90634155273438 C 21.05228424072266 75.90358734130859 16.79945945739746 73.03615570068359 13.14700126647949 69.38368225097656 C 9.49453067779541 65.73122406005859 6.627095699310303 61.47840118408203 4.624342918395996 56.74335479736328 C 2.551177978515625 51.84185028076172 1.500001549720764 46.63429641723633 1.500001549720764 41.26534271240234 C 1.500001549720764 35.89638900756836 2.551177978515625 30.6888370513916 4.624342918395996 25.78733062744141 C 6.627095699310303 21.05228424072266 9.49453067779541 16.79945945739746 13.14700126647949 13.14700126647949 C 16.79945945739746 9.49453067779541 21.05228424072266 6.627095699310303 25.78733062744141 4.624342918395996 C 30.6888370513916 2.551177978515625 35.89638900756836 1.500001549720764 41.26534271240234 1.500001549720764 C 46.63429641723633 1.500001549720764 51.84185028076172 2.551177978515625 56.74335479736328 4.624342918395996 C 61.47840118408203 6.627095699310303 65.73122406005859 9.49453067779541 69.38368225097656 13.14700126647949 C 73.03615570068359 16.79945945739746 75.90358734130859 21.05228424072266 77.90634155273438 25.78733062744141 C 79.97950744628906 30.6888370513916 81.03068542480469 35.89638900756836 81.03068542480469 41.26534271240234 C 81.03068542480469 46.63429641723633 79.97950744628906 51.84185028076172 77.90634155273438 56.74335479736328 C 75.90358734130859 61.47840118408203 73.03615570068359 65.73122406005859 69.38368225097656 69.38368225097656 C 65.73122406005859 73.03615570068359 61.47840118408203 75.90358734130859 56.74335479736328 77.90634155273438 C 51.84185028076172 79.97950744628906 46.63429641723633 81.03068542480469 41.26534271240234 81.03068542480469 Z" stroke="none"/>
                                  <path d="M 41.26534271240234 2.999992370605469 C 36.09823608398438 2.999992370605469 31.08727645874023 4.011314392089844 26.37166213989258 6.005851745605469 C 21.81541061401367 7.9329833984375 17.72284698486328 10.69245910644531 14.20764923095703 14.20764923095703 C 10.69245910644531 17.72284698486328 7.9329833984375 21.81541061401367 6.005851745605469 26.37166213989258 C 4.011314392089844 31.08727645874023 2.999992370605469 36.09823608398438 2.999992370605469 41.26534271240234 C 2.999992370605469 46.43244934082031 4.011314392089844 51.44340896606445 6.005851745605469 56.15902328491211 C 7.9329833984375 60.71527862548828 10.69245910644531 64.80783843994141 14.20764923095703 68.32303619384766 C 17.72284698486328 71.83822631835938 21.81541061401367 74.59770202636719 26.37166213989258 76.52483367919922 C 31.08727645874023 78.51937103271484 36.09823608398438 79.53069305419922 41.26534271240234 79.53069305419922 C 46.43244934082031 79.53069305419922 51.44340896606445 78.51937103271484 56.15902328491211 76.52483367919922 C 60.71527862548828 74.59770202636719 64.80783843994141 71.83822631835938 68.32303619384766 68.32303619384766 C 71.83822631835938 64.80783843994141 74.59770202636719 60.71527862548828 76.52483367919922 56.15902328491211 C 78.51937103271484 51.44340896606445 79.53069305419922 46.43244934082031 79.53069305419922 41.26534271240234 C 79.53069305419922 36.09823608398438 78.51937103271484 31.08727645874023 76.52483367919922 26.37166213989258 C 74.59770202636719 21.81541061401367 71.83822631835938 17.72284698486328 68.32303619384766 14.20764923095703 C 64.80783843994141 10.69245910644531 60.71527862548828 7.9329833984375 56.15902328491211 6.005851745605469 C 51.44340896606445 4.011314392089844 46.43244934082031 2.999992370605469 41.26534271240234 2.999992370605469 M 41.26534271240234 -7.62939453125e-06 C 64.05557250976562 -7.62939453125e-06 82.53069305419922 18.47511291503906 82.53069305419922 41.26534271240234 C 82.53069305419922 64.05557250976562 64.05557250976562 82.53069305419922 41.26534271240234 82.53069305419922 C 18.47511291503906 82.53069305419922 -7.62939453125e-06 64.05557250976562 -7.62939453125e-06 41.26534271240234 C -7.62939453125e-06 18.47511291503906 18.47511291503906 -7.62939453125e-06 41.26534271240234 -7.62939453125e-06 Z" stroke="none" fill="#899e78"/>
                                </g>
                              </g>
                            </g>
                          </g>
                        </g>
                      </g>
                    </g>
                  </g>
                </g>
              </g>
            </g>
          </g>
        </g>
      </g>
    </g>
    <g id="ley_20_" data-name="ley (20)" transform="translate(180 2289.916)">
      <g id="Grupo_1222887" data-name="Grupo 1222887" transform="translate(1.377 17.703)">
        <path id="Trazado_1176467" data-name="Trazado 1176467" d="M334.2,356.131c-5.09-.569-13.382-3.983-23.273-6.453H308.9l-4.957,4.867-2.632,5.2-.891,4.787.8-.481h32.5l.7-.468.918-5.973A1.293,1.293,0,0,0,334.2,356.131Z" transform="translate(-255.645 -299.801)" fill="#fef0db"/>
        <path id="Trazado_1176468" data-name="Trazado 1176468" d="M93.385,345.446c-5.682,1.3-10.893,2.99-15.35,4.385l-.931.558v1.01l1.314,9.07h21.989l3.351,1.212,2.662-5.646,1.7-.964.472-.871c-2.155-4.1-6.976-10.643-15.206-8.754Z" transform="translate(-64.324 -296.073)" fill="#fef0db"/>
        <path id="Trazado_1176469" data-name="Trazado 1176469" d="M342.258,158.274l1.035,3.9,1.423,2.72,2.043,1.108h.915a4.218,4.218,0,0,0,2.472-1.426,9.789,9.789,0,0,0,2.291-6.307H342.258Z" transform="translate(-287.622 -139.848)" fill="#ffd500"/>
        <g id="Grupo_1222884" data-name="Grupo 1222884" transform="translate(41.264 49.038)">
          <path id="Trazado_1176470" data-name="Trazado 1176470" d="M280.712,345.95q-1.039-.259-2.1-.5c-8.23-1.889-13.05,4.652-15.205,8.754v.963l5.344,6.518,1.833-1.1C271.667,355.9,274.32,348.919,280.712,345.95Z" transform="translate(-263.407 -345.111)" fill="#fee6c1"/>
        </g>
        <g id="Grupo_1222885" data-name="Grupo 1222885" transform="translate(2.539 53.758)">
          <path id="Trazado_1176471" data-name="Trazado 1176471" d="M33.233,381.2,31.9,372.5a1.88,1.88,0,0,1,.6-1.687,60.506,60.506,0,0,1-10.022,2.572,1.293,1.293,0,0,0-1.135,1.482l.918,5.973,1.352.611H33.786Z" transform="translate(-21.326 -370.816)" fill="#fee6c1"/>
        </g>
        <path id="Trazado_1176472" data-name="Trazado 1176472" d="M316.27,164.582a9.789,9.789,0,0,1-2.291-6.307h-7.161a9.789,9.789,0,0,0,2.291,6.307,4.27,4.27,0,0,0,3.28,1.5h5.545a4.426,4.426,0,0,0,.808-.076A4.219,4.219,0,0,1,316.27,164.582Z" transform="translate(-258.1 -139.85)" fill="#fbc700"/>
        <path id="Trazado_1176473" data-name="Trazado 1176473" d="M255.623,398.759h-1l-2.846,3.078-.337,2.768.914,5.786H255.4l3.579-4.774v-1.349A6.732,6.732,0,0,0,255.623,398.759Z" transform="translate(-211.468 -339.871)" fill="#fcd79b"/>
        <path id="Trazado_1176474" data-name="Trazado 1176474" d="M226.106,400.646a6.725,6.725,0,0,1,3.433-5.9,6.651,6.651,0,0,0-3.348-.9,6.732,6.732,0,0,0-6.7,6.409v1.35l3.449,4.774h6.38l.034-.046a6.721,6.721,0,0,1-3.245-5.688Z" transform="translate(-184.883 -335.861)" fill="#fccc80"/>
        <path id="Trazado_1176475" data-name="Trazado 1176475" d="M352.219,58.3h-.747l-1.043,1.418-.411,1.65.411,2.114,1.3.876.495.078a3.549,3.549,0,0,0,0-6.136Z" transform="translate(-293.618 -56.873)" fill="#8bcaff"/>
        <path id="Trazado_1176476" data-name="Trazado 1176476" d="M336.473,59.2a3.551,3.551,0,0,1,1.765-3.068,3.555,3.555,0,1,0,0,6.136A3.551,3.551,0,0,1,336.473,59.2Z" transform="translate(-279.411 -54.707)" fill="#60b9fe"/>
        <path id="Trazado_1176477" data-name="Trazado 1176477" d="M149.743,158.274l1.035,3.9,1.423,2.72,2.043,1.108h.915a4.218,4.218,0,0,0,2.472-1.426,9.789,9.789,0,0,0,2.291-6.307H149.743Z" transform="translate(-126.527 -139.848)" fill="#ffd500"/>
        <path id="Trazado_1176478" data-name="Trazado 1176478" d="M123.754,164.582a9.789,9.789,0,0,1-2.291-6.307H114.3a9.789,9.789,0,0,0,2.291,6.307,4.27,4.27,0,0,0,3.28,1.5h5.545a4.426,4.426,0,0,0,.808-.076A4.22,4.22,0,0,1,123.754,164.582Z" transform="translate(-96.919 -139.85)" fill="#fbc700"/>
        <path id="Trazado_1176479" data-name="Trazado 1176479" d="M159.7,58.3h-.747l-1.043,1.418-.411,1.65.411,2.114,1.3.876.495.078a3.549,3.549,0,0,0,0-6.136Z" transform="translate(-132.803 -56.873)" fill="#8bcaff"/>
        <path id="Trazado_1176480" data-name="Trazado 1176480" d="M143.958,59.2a3.55,3.55,0,0,1,1.765-3.068,3.555,3.555,0,1,0,0,6.136A3.551,3.551,0,0,1,143.958,59.2Z" transform="translate(-118.538 -54.707)" fill="#60b9fe"/>
        <path id="Trazado_1176481" data-name="Trazado 1176481" d="M258.649,50.749h-.682l-1.572,1.374v5.887l1.094,1.346.715.23.445.047a2.576,2.576,0,0,0,2.152-2.54v-3.8A2.576,2.576,0,0,0,258.649,50.749Z" transform="translate(-215.435 -50.711)" fill="#ffd500"/>
        <path id="Trazado_1176482" data-name="Trazado 1176482" d="M236.256,56.923v-3.8a2.576,2.576,0,0,1,2.152-2.54,2.6,2.6,0,0,0-.425-.038h-3.8a2.578,2.578,0,0,0-2.578,2.578v3.8a2.578,2.578,0,0,0,2.578,2.578h3.8a2.576,2.576,0,0,0,.425-.038A2.576,2.576,0,0,1,236.256,56.923Z" transform="translate(-194.843 -50.541)" fill="#fbc700"/>
        <path id="Trazado_1176483" data-name="Trazado 1176483" d="M257.078,255.055h-7.626l-.391.089-.838.654-.39,1.056v3.729s.6.8.614.821.614.339.614.339l.556.153h7.461a2.029,2.029,0,0,0,2.029-2.029v-2.782a2.03,2.03,0,0,0-2.029-2.029Z" transform="translate(-208.675 -220.045)" fill="#ffd500"/>
        <path id="Trazado_1176484" data-name="Trazado 1176484" d="M211.177,259.866v-2.782a2.029,2.029,0,0,1,2.029-2.029h-8.414a2.029,2.029,0,0,0-2.029,2.029v2.782a2.029,2.029,0,0,0,2.029,2.029h8.414A2.029,2.029,0,0,1,211.177,259.866Z" transform="translate(-170.907 -220.045)" fill="#fbc700"/>
        <path id="Trazado_1176485" data-name="Trazado 1176485" d="M143.328,425.427H112.892a6.228,6.228,0,0,0-5.672,4.076,3.018,3.018,0,0,1-3.54,1.951,3.365,3.365,0,0,1-2.131-2.036,6.217,6.217,0,0,0-5.637-3.991H76.027l-.3.113-.773.746V430.9l.544.7.652.328H95.911a.469.469,0,0,1,.433.272,8.473,8.473,0,0,0,16.114,0,.468.468,0,0,1,.433-.272h30.436a1.593,1.593,0,0,0,1.489-1.681v-3.139a1.593,1.593,0,0,0-1.489-1.681Z" transform="translate(-62.571 -361.642)" fill="#ff7f87"/>
        <g id="Grupo_1222886" data-name="Grupo 1222886" transform="translate(0 63.785)">
          <path id="Trazado_1176486" data-name="Trazado 1176486" d="M19.986,430.246v-3.139a1.681,1.681,0,0,1,1.681-1.681H9.181A1.681,1.681,0,0,0,7.5,427.107v3.139a1.681,1.681,0,0,0,1.681,1.681H21.666A1.681,1.681,0,0,1,19.986,430.246Z" transform="translate(-7.5 -425.426)" fill="#ff636e"/>
        </g>
      </g>
      <g id="Grupo_1222888" data-name="Grupo 1222888" transform="translate(0 10.317)">
        <path id="Trazado_1176487" data-name="Trazado 1176487" d="M132.379,36.107a1.282,1.282,0,0,0-1.158,1.377,1.349,1.349,0,0,0,.89,1.339,12.365,12.365,0,0,0,2.128,5.853,4.467,4.467,0,0,0,3.647,1.994h4.664a4.467,4.467,0,0,0,3.647-1.994,12.367,12.367,0,0,0,2.128-5.853,1.349,1.349,0,0,0,.891-1.339,1.282,1.282,0,0,0-1.158-1.377h-.046L143.136,25.7a5.414,5.414,0,0,0,1.231-3.5c0-2.72-1.861-4.932-4.149-4.932a4.327,4.327,0,0,0-3.981,3.543h-5.961V20.28c0-2.181-1.492-3.955-3.327-3.955h-.442V11.694a1.176,1.176,0,1,0-2.317,0v4.632h-.442c-1.834,0-3.327,1.774-3.327,3.955v.525h-5.961a4.327,4.327,0,0,0-3.981-3.543c-2.288,0-4.149,2.213-4.149,4.932a5.413,5.413,0,0,0,1.231,3.5l-4.876,10.409h-.046a1.282,1.282,0,0,0-1.158,1.377,1.349,1.349,0,0,0,.891,1.339,12.363,12.363,0,0,0,2.128,5.853,4.467,4.467,0,0,0,3.647,1.994h4.664a4.467,4.467,0,0,0,3.647-1.994,12.366,12.366,0,0,0,2.128-5.853,1.349,1.349,0,0,0,.891-1.339,1.282,1.282,0,0,0-1.158-1.377h-.046L113.4,25.7a5.19,5.19,0,0,0,1.069-2.138h5.955v.525c0,2.181,1.492,3.955,3.327,3.955h.442V53.876h-5.357a3.175,3.175,0,0,0-2.866,3.406v2.782a3.175,3.175,0,0,0,2.866,3.406h3.813a1.4,1.4,0,0,0,0-2.754h-3.813a.608.608,0,0,1-.549-.652V57.283a.608.608,0,0,1,.549-.652h13.031a.608.608,0,0,1,.549.652v2.782a.608.608,0,0,1-.549.652h-3.813a1.4,1.4,0,0,0,0,2.754h3.813a3.175,3.175,0,0,0,2.866-3.406V57.283a3.175,3.175,0,0,0-2.866-3.406h-5.357V28.039h.442c1.835,0,3.327-1.774,3.327-3.955v-.525h5.954A5.192,5.192,0,0,0,137.3,25.7l-4.876,10.409Zm-21.9-16.09a2.03,2.03,0,0,1,1.832,2.178,1.86,1.86,0,1,1-3.665,0A2.03,2.03,0,0,1,110.482,20.017Zm4.2,22.89a2.283,2.283,0,0,1-1.871,1.008H108.15a2.283,2.283,0,0,1-1.871-1.008,9.259,9.259,0,0,1-1.561-4.046h11.529A9.262,9.262,0,0,1,114.686,42.907Zm.939-6.8H105.341l4.259-9.093a3.488,3.488,0,0,0,1.765,0Zm12.336-12.022a1.119,1.119,0,0,1-1.01,1.2h-3.2a1.119,1.119,0,0,1-1.01-1.2v-3.8a1.119,1.119,0,0,1,1.01-1.2h3.2a1.119,1.119,0,0,1,1.01,1.2Zm12.258-4.068a2.03,2.03,0,0,1,1.832,2.178,1.86,1.86,0,1,1-3.665,0A2.03,2.03,0,0,1,140.219,20.017Zm-.883,7a3.489,3.489,0,0,0,1.765,0l4.259,9.093H135.077Zm6.647,11.847a9.261,9.261,0,0,1-1.561,4.046,2.282,2.282,0,0,1-1.871,1.008h-4.664a2.283,2.283,0,0,1-1.871-1.008,9.262,9.262,0,0,1-1.561-4.046Z" transform="translate(-82.851 -10.317)"/>
        <path id="Trazado_1176488" data-name="Trazado 1176488" d="M2.765,361.6H33.378a10.236,10.236,0,0,0,9.122,6.123,10.236,10.236,0,0,0,9.122-6.123H62.468a1.384,1.384,0,0,0,0-2.754h-11.3a1.709,1.709,0,0,0-1.575,1.077,7.811,7.811,0,0,1-7.092,5.046,7.81,7.81,0,0,1-7.092-5.045,1.71,1.71,0,0,0-1.575-1.078H2.765a.291.291,0,0,1-.275-.3V355.4a.291.291,0,0,1,.275-.3H33.833a5.126,5.126,0,0,1,4.629,3.2h0a4.249,4.249,0,0,0,8.047.068,5.119,5.119,0,0,1,4.657-3.27H82.235a.291.291,0,0,1,.274.3v3.139a.291.291,0,0,1-.274.3H68.279a1.384,1.384,0,0,0,0,2.754H82.235A2.926,2.926,0,0,0,85,358.538V355.4a2.926,2.926,0,0,0-2.765-3.058h-.169l.61-4.387a2.9,2.9,0,0,0-.469-2.029,2.382,2.382,0,0,0-1.649-1.03c-4.731-.585-13.03-4.45-22.8-6.931a10.669,10.669,0,0,0-9.968,2.378,20.641,20.641,0,0,0-4.738,6.225,6.12,6.12,0,0,0-1.1,0,20.638,20.638,0,0,0-4.738-6.225,10.669,10.669,0,0,0-9.968-2.378c-9.772,2.481-18.07,6.346-22.8,6.931a2.383,2.383,0,0,0-1.65,1.03,2.9,2.9,0,0,0-.469,2.03l.61,4.387H2.765A2.926,2.926,0,0,0,0,355.4v3.139A2.926,2.926,0,0,0,2.765,361.6ZM57.2,340.649c9.717,2.466,17.892,6.313,23,6.973l-.656,4.719H51.167a6.964,6.964,0,0,0-1.6.188l0-.011a7.912,7.912,0,0,0-4-5.238C47.828,343.164,51.549,339.214,57.2,340.649Zm-9.979,12.9a8.1,8.1,0,0,0-2.977,3.672,1.894,1.894,0,0,1-2.025,1.218,2.061,2.061,0,0,1-1.5-1.32,8.169,8.169,0,0,0-2.935-3.57,5.106,5.106,0,0,1,3.745-4.141A4.854,4.854,0,0,1,47.221,353.551ZM27.8,340.649c5.651-1.434,9.372,2.515,11.64,6.631a7.911,7.911,0,0,0-4,5.25,6.929,6.929,0,0,0-1.6-.189H5.453L4.8,347.622C9.908,346.961,18.084,343.115,27.8,340.649Z" transform="translate(0 -282.548)"/>
      </g>
    </g>
  </g>
</svg>
