<svg xmlns="http://www.w3.org/2000/svg" xmlns:xlink="http://www.w3.org/1999/xlink" width="93.934" height="93.934" viewBox="0 0 93.934 93.934">
  <defs>
    <filter id="Trazado_982547" x="0" y="0" width="93.934" height="93.934" filterUnits="userSpaceOnUse">
      <feOffset dy="3" input="SourceAlpha"/>
      <feGaussianBlur stdDeviation="3" result="blur"/>
      <feFlood flood-opacity="0.161"/>
      <feComposite operator="in" in2="blur"/>
      <feComposite in="SourceGraphic"/>
    </filter>
  </defs>
  <g id="Grupo_1221981" data-name="Grupo 1221981" transform="translate(-1136.066 -1385.533)">
    <g id="Grupo_1219864" data-name="Grupo 1219864" transform="translate(945 342.684)">
      <g id="Grupo_1215981" data-name="Grupo 1215981" transform="translate(-0.229 -2679.151)">
        <g id="Grupo_1214594" data-name="Grupo 1214594" transform="translate(200.295 3728)">
          <g id="Grupo_1214432" data-name="Grupo 1214432" transform="translate(0)">
            <g id="Grupo_1183196" data-name="Grupo 1183196">
              <g id="Grupo_1179610" data-name="Grupo 1179610">
                <g id="Grupo_1175227" data-name="Grupo 1175227">
                  <g id="Grupo_1167337" data-name="Grupo 1167337">
                    <g id="Grupo_1166720" data-name="Grupo 1166720">
                      <g id="Grupo_1164305" data-name="Grupo 1164305">
                        <g id="Grupo_1163948" data-name="Grupo 1163948">
                          <g id="Grupo_1158168" data-name="Grupo 1158168">
                            <g id="Grupo_1152576" data-name="Grupo 1152576">
                              <g id="Grupo_1148633" data-name="Grupo 1148633">
                                <g id="Grupo_1148525" data-name="Grupo 1148525">
                                  <g transform="matrix(1, 0, 0, 1, -9, -6)" filter="url(#Trazado_982547)">
                                    <g id="Trazado_982547-2" data-name="Trazado 982547" transform="translate(9 6)" fill="#eae4dc">
                                      <path d="M 37.966796875 74.43359375 C 33.04315185546875 74.43359375 28.26757431030273 73.46962738037109 23.77274131774902 71.56847381591797 C 19.43047523498535 69.73184967041016 15.53040790557861 67.10224914550781 12.18087482452393 63.75271987915039 C 8.831341743469238 60.4031867980957 6.201741218566895 56.50312042236328 4.365118980407715 52.16086196899414 C 2.463963508605957 47.66601943969727 1.499996900558472 42.89044189453125 1.499996900558472 37.966796875 C 1.499996900558472 33.04315185546875 2.463963508605957 28.26757431030273 4.365118980407715 23.77274131774902 C 6.201741218566895 19.43047523498535 8.831341743469238 15.53040790557861 12.18087482452393 12.18087482452393 C 15.53040790557861 8.831341743469238 19.43047523498535 6.201741218566895 23.77274131774902 4.365118980407715 C 28.26757431030273 2.463963508605957 33.04315185546875 1.499996900558472 37.966796875 1.499996900558472 C 42.89044189453125 1.499996900558472 47.66601943969727 2.463963508605957 52.16086196899414 4.365118980407715 C 56.50312042236328 6.201741218566895 60.4031867980957 8.831341743469238 63.75271987915039 12.18087482452393 C 67.10224914550781 15.53040790557861 69.73184967041016 19.43047523498535 71.56847381591797 23.77274131774902 C 73.46962738037109 28.26757431030273 74.43359375 33.04315185546875 74.43359375 37.966796875 C 74.43359375 42.89044189453125 73.46962738037109 47.66601943969727 71.56847381591797 52.16086196899414 C 69.73184967041016 56.50313186645508 67.10224914550781 60.4031867980957 63.75271987915039 63.75271987915039 C 60.4031867980957 67.10224914550781 56.50313186645508 69.73184967041016 52.16086196899414 71.56847381591797 C 47.66601943969727 73.46962738037109 42.89044189453125 74.43359375 37.966796875 74.43359375 Z" stroke="none"/>
                                      <path d="M 37.966796875 3 C 33.2449836730957 3 28.66600799560547 3.924095153808594 24.35705947875977 5.746635437011719 C 20.19359588623047 7.507637023925781 16.45379638671875 10.02928161621094 13.24153518676758 13.24153518676758 C 10.02927398681641 16.45379638671875 7.507621765136719 20.19359588623047 5.746635437011719 24.35705947875977 C 3.924095153808594 28.66600799560547 3 33.2449836730957 3 37.966796875 C 3 42.6886100769043 3.924095153808594 47.26758575439453 5.746635437011719 51.57653427124023 C 7.507621765136719 55.73999786376953 10.02927398681641 59.47979736328125 13.24153518676758 62.69205856323242 C 16.45379638671875 65.90431976318359 20.19359588623047 68.42597198486328 24.35705947875977 70.18695831298828 C 28.66600799560547 72.00949859619141 33.2449836730957 72.93359375 37.966796875 72.93359375 C 42.6886100769043 72.93359375 47.26758575439453 72.00949859619141 51.57653427124023 70.18695831298828 C 55.73999786376953 68.42597198486328 59.47979736328125 65.90431976318359 62.69205856323242 62.69205856323242 C 65.90431976318359 59.47979736328125 68.42597198486328 55.73999786376953 70.18695831298828 51.57653427124023 C 72.00949859619141 47.26758575439453 72.93359375 42.6886100769043 72.93359375 37.966796875 C 72.93359375 33.2449836730957 72.00949859619141 28.66600799560547 70.18695831298828 24.35705947875977 C 68.42597198486328 20.19359588623047 65.90431976318359 16.45379638671875 62.69205856323242 13.24153518676758 C 59.47979736328125 10.02928161621094 55.73999786376953 7.507637023925781 51.57653427124023 5.746635437011719 C 47.26758575439453 3.924095153808594 42.6886100769043 3 37.966796875 3 M 37.966796875 0 C 58.93528366088867 0 75.93359375 16.99832153320312 75.93359375 37.966796875 C 75.93359375 58.93528366088867 58.93528366088867 75.93359375 37.966796875 75.93359375 C 16.99831008911133 75.93359375 0 58.93528366088867 0 37.966796875 C 0 16.99832153320312 16.99831008911133 0 37.966796875 0 Z" stroke="none" fill="#665b4e"/>
                                    </g>
                                  </g>
                                </g>
                              </g>
                            </g>
                          </g>
                        </g>
                      </g>
                    </g>
                  </g>
                </g>
              </g>
            </g>
          </g>
        </g>
      </g>
    </g>
    <g id="mano_1_" data-name="mano (1)" transform="translate(1148.495 1403.75)">
      <path id="Trazado_1175748" data-name="Trazado 1175748" d="M130.343,223.874a3.5,3.5,0,0,0-4.932.415l-8.013,8.235h.008a3.582,3.582,0,0,0-3.438-2.577H100.7a14.012,14.012,0,0,0-5.626-1.171c-5.544,0-10.337,2.687-12.626,7.78l10.593,10.539.02-.016,1.824-1.759A4.683,4.683,0,0,1,98.135,244h15.613a9.332,9.332,0,0,0,6.509-2.644l10.5-12.555a3.5,3.5,0,0,0-.415-4.932Zm0,0" transform="translate(-72.342 -196.912)" fill="#fed2a4"/>
      <path id="Trazado_1175749" data-name="Trazado 1175749" d="M221.625,21.711A11.715,11.715,0,1,1,209.91,10,11.714,11.714,0,0,1,221.625,21.711Zm0,0" transform="translate(-174.529 -8.825)" fill="#ffe781"/>
      <path id="Trazado_1175750" data-name="Trazado 1175750" d="M29.073,349.281,23.4,354.87,10.246,341.616l5.573-5.589a2.344,2.344,0,0,1,3.314,0l9.94,9.94a2.344,2.344,0,0,1,0,3.314Zm0,0" transform="translate(-8.603 -296.046)" fill="#e87288"/>
      <path id="Trazado_1175751" data-name="Trazado 1175751" d="M220.725,332.194a1.172,1.172,0,1,0-1.657,0A1.173,1.173,0,0,0,220.725,332.194Zm0,0" transform="translate(-192.652 -291.502)"/>
      <path id="Trazado_1175752" data-name="Trazado 1175752" d="M188.449,12.886A12.886,12.886,0,1,0,201.335,0,12.9,12.9,0,0,0,188.449,12.886Zm23.429,0A10.543,10.543,0,1,1,201.335,2.343,10.555,10.555,0,0,1,211.878,12.886Zm0,0" transform="translate(-165.924 0)"/>
      <path id="Trazado_1175753" data-name="Trazado 1175753" d="M13.994,247.089a1.171,1.171,0,0,0,1.653.01l5.679-5.6a3.54,3.54,0,0,0,.834-3.635l1.222-1.178a3.493,3.493,0,0,1,2.439-.985H41.4a10.488,10.488,0,0,0,7.354-2.988c.081-.079-.618.745,10.624-12.692a4.686,4.686,0,0,0-7.13-6.082l-6.913,7.1a4.708,4.708,0,0,0-3.642-1.744H28.625a15.113,15.113,0,0,0-5.866-1.171c-5.641,0-10.567,2.605-13.21,7.49a3.5,3.5,0,0,0-3.133.971L.843,232.183a1.172,1.172,0,0,0,0,1.652Zm8.764-26.614a12.788,12.788,0,0,1,5.157,1.073,1.17,1.17,0,0,0,.47.1h13.3a2.343,2.343,0,1,1,0,4.686H32.13a1.171,1.171,0,1,0,0,2.343h9.558a4.679,4.679,0,0,0,4.645-5.3c6.687-6.874,7.63-7.84,7.67-7.888a2.343,2.343,0,1,1,3.578,3.027L47.073,231.078a8.157,8.157,0,0,1-5.678,2.284H25.822A5.824,5.824,0,0,0,21.756,235l-1,.961-9.177-9.177c2.145-4.024,6.17-6.313,11.176-6.313ZM8.074,228.249a1.169,1.169,0,0,1,1.451-.165c.2.124-.379-.406,10.146,10.1a1.174,1.174,0,0,1,.006,1.651l-4.842,4.77-11.51-11.6Zm0,0" transform="translate(0 -187.44)"/>
      <path id="Trazado_1175754" data-name="Trazado 1175754" d="M267.956,41.2v1.337a3.514,3.514,0,0,0,1.15,6.827,1.192,1.192,0,0,1,1.185,1.036,1.173,1.173,0,0,1-1.164,1.307,2.1,2.1,0,0,1-1.5-.865,1.194,1.194,0,0,0-1.507-.278,1.173,1.173,0,0,0-.3,1.765,4.859,4.859,0,0,0,2.143,1.526v1.331a1.2,1.2,0,0,0,1,1.2,1.172,1.172,0,0,0,1.345-1.159V53.846a3.514,3.514,0,0,0-1.15-6.827,1.192,1.192,0,0,1-1.185-1.036,1.173,1.173,0,0,1,1.164-1.307,1.857,1.857,0,0,1,1.239.586,1.2,1.2,0,0,0,1.533.131,1.172,1.172,0,0,0,.124-1.789,4.526,4.526,0,0,0-1.725-1.078V41.162A1.172,1.172,0,0,0,268.953,40,1.2,1.2,0,0,0,267.956,41.2Zm0,0" transform="translate(-233.98 -35.304)"/>
    </g>
  </g>
</svg>
