<svg xmlns="http://www.w3.org/2000/svg" xmlns:xlink="http://www.w3.org/1999/xlink" width="113" height="113" viewBox="0 0 113 113">
  <defs>
    <filter id="Trazado_982547" x="0" y="0" width="113" height="113" filterUnits="userSpaceOnUse">
      <feOffset dy="3" input="SourceAlpha"/>
      <feGaussianBlur stdDeviation="3" result="blur"/>
      <feFlood flood-opacity="0.161"/>
      <feComposite operator="in" in2="blur"/>
      <feComposite in="SourceGraphic"/>
    </filter>
  </defs>
  <g id="Grupo_1223014" data-name="Grupo 1223014" transform="translate(-585 -2105.033)">
    <g id="Grupo_1220496" data-name="Grupo 1220496" transform="translate(0 -688.806)">
      <g id="Grupo_1215864" data-name="Grupo 1215864" transform="translate(0 -6681.075)">
        <g id="Grupo_1214720" data-name="Grupo 1214720" transform="translate(594 9480.914)">
          <g id="Grupo_1209935" data-name="Grupo 1209935">
            <g id="Grupo_1208705" data-name="Grupo 1208705">
              <g id="Grupo_1148633" data-name="Grupo 1148633">
                <g id="Grupo_1148525" data-name="Grupo 1148525">
                  <g transform="matrix(1, 0, 0, 1, -9, -6)" filter="url(#Trazado_982547)">
                    <g id="Trazado_982547-2" data-name="Trazado 982547" transform="translate(9 6)" fill="#f9e3d4">
                      <path d="M 47.5 93.5 C 41.28937149047852 93.5 35.26533508300781 92.28397369384766 29.59518623352051 89.88570404052734 C 24.11771965026855 87.56893157958984 19.19813346862793 84.25196075439453 14.97309303283691 80.02691650390625 C 10.74804019927979 75.80186462402344 7.431066513061523 70.88229370117188 5.114293098449707 65.40481567382812 C 2.716026782989502 59.73468017578125 1.5 53.71062850952148 1.5 47.5 C 1.5 41.28937149047852 2.716026782989502 35.26533508300781 5.114293098449707 29.59518623352051 C 7.431066513061523 24.11771965026855 10.74804019927979 19.19813346862793 14.97309303283691 14.97309303283691 C 19.19813346862793 10.74804019927979 24.11771965026855 7.431066513061523 29.59518623352051 5.114293098449707 C 35.26533508300781 2.716026782989502 41.28937149047852 1.5 47.5 1.5 C 53.71062850952148 1.5 59.73468017578125 2.716026782989502 65.40481567382812 5.114293098449707 C 70.88229370117188 7.431066513061523 75.80186462402344 10.74804019927979 80.02691650390625 14.97309303283691 C 84.25196075439453 19.19813346862793 87.56893157958984 24.11771965026855 89.88570404052734 29.59518623352051 C 92.28397369384766 35.26533508300781 93.5 41.28937149047852 93.5 47.5 C 93.5 53.71062850952148 92.28397369384766 59.73468017578125 89.88570404052734 65.40481567382812 C 87.56893157958984 70.88229370117188 84.25196075439453 75.80186462402344 80.02691650390625 80.02691650390625 C 75.80186462402344 84.25196075439453 70.88229370117188 87.56893157958984 65.40481567382812 89.88570404052734 C 59.73468017578125 92.28397369384766 53.71062850952148 93.5 47.5 93.5 Z" stroke="none"/>
                      <path d="M 47.5 3 C 41.49121475219727 3 35.66376876831055 4.176155090332031 30.17950439453125 6.495796203613281 C 24.88084411621094 8.736953735351562 20.12152099609375 11.94598388671875 16.03375244140625 16.03375244140625 C 11.94598388671875 20.12152099609375 8.736953735351562 24.88084411621094 6.495796203613281 30.17950439453125 C 4.176155090332031 35.66376876831055 3 41.49121475219727 3 47.5 C 3 53.50878524780273 4.176155090332031 59.33623123168945 6.495796203613281 64.82049560546875 C 8.736953735351562 70.11915588378906 11.94598388671875 74.87847900390625 16.03375244140625 78.96624755859375 C 20.12152099609375 83.05401611328125 24.88084411621094 86.26304626464844 30.17950439453125 88.50419616699219 C 35.66376876831055 90.82384490966797 41.49121475219727 92 47.5 92 C 53.50878524780273 92 59.33623123168945 90.82384490966797 64.82049560546875 88.50419616699219 C 70.11915588378906 86.26304626464844 74.87847900390625 83.05401611328125 78.96624755859375 78.96624755859375 C 83.05401611328125 74.87847900390625 86.26304626464844 70.11915588378906 88.50419616699219 64.82049560546875 C 90.82384490966797 59.33623123168945 92 53.50878524780273 92 47.5 C 92 41.49121475219727 90.82384490966797 35.66376876831055 88.50419616699219 30.17950439453125 C 86.26304626464844 24.88084411621094 83.05401611328125 20.12152099609375 78.96624755859375 16.03375244140625 C 74.87847900390625 11.94598388671875 70.11915588378906 8.736953735351562 64.82049560546875 6.495796203613281 C 59.33623123168945 4.176155090332031 53.50878524780273 3 47.5 3 M 47.5 0 C 73.7335205078125 0 95 21.2664794921875 95 47.5 C 95 73.7335205078125 73.7335205078125 95 47.5 95 C 21.2664794921875 95 0 73.7335205078125 0 47.5 C 0 21.2664794921875 21.2664794921875 0 47.5 0 Z" stroke="none" fill="#eca675"/>
                    </g>
                  </g>
                </g>
              </g>
            </g>
          </g>
        </g>
      </g>
    </g>
    <g id="contacto_1_" data-name="contacto (1)" transform="translate(601.241 2127.334)">
      <g id="Grupo_1223012" data-name="Grupo 1223012" transform="translate(1.152 1.152)">
        <g id="Grupo_1223005" data-name="Grupo 1223005" transform="translate(9.216 4.608)">
          <path id="Trazado_1176992" data-name="Trazado 1176992" d="M11.938,37.256A2.95,2.95,0,0,0,9,40.194V14.688a1.127,1.127,0,0,1,.1-.472h6.808v3.456a1.155,1.155,0,0,0,1.152,1.152H40.1a1.155,1.155,0,0,0,1.152-1.152V13.064A1.155,1.155,0,0,0,40.1,11.912H18.216V5.1a1.127,1.127,0,0,1,.472-.1H48l-.392.392.288.288a2.3,2.3,0,0,1-1.636,3.928h-.392v4.608h.392a2.3,2.3,0,0,1,1.636,3.928l-.288.288,3.26,3.26.288-.288a2.3,2.3,0,0,1,3.928,1.636v.392h2.3v40.32A1.155,1.155,0,0,1,56.233,64.9H20.52V63.753A1.155,1.155,0,0,0,19.368,62.6l.461-1.855a22.907,22.907,0,0,0,.691-5.587A22.975,22.975,0,0,0,17.237,43.3l-2.776-4.62a2.934,2.934,0,0,0-2.523-1.429Z" transform="translate(-9 -5)" fill="#e6e9ed"/>
        </g>
        <g id="Grupo_1223006" data-name="Grupo 1223006" transform="translate(4.608 62.209)">
          <path id="Trazado_1176993" data-name="Trazado 1176993" d="M21.128,57.3v4.608H5v-5.76A1.155,1.155,0,0,1,6.152,55H19.976a1.155,1.155,0,0,1,1.152,1.152Z" transform="translate(-5 -55)" fill="#ff826e"/>
        </g>
        <g id="Grupo_1223007" data-name="Grupo 1223007" transform="translate(0 24.192)">
          <path id="Trazado_1176994" data-name="Trazado 1176994" d="M10.216,37.61a2.95,2.95,0,0,1,2.938-2.938A2.934,2.934,0,0,1,15.677,36.1l2.776,4.62a22.975,22.975,0,0,1,3.283,11.854,22.907,22.907,0,0,1-.691,5.587l-.461,1.855H6.76L1.979,45.674A19.145,19.145,0,0,1,2.244,32.84a18.936,18.936,0,0,1,3.583-5.9L10.216,22Z" transform="translate(-1 -22)" fill="#f0d0b4"/>
        </g>
        <g id="Grupo_1223008" data-name="Grupo 1223008" transform="translate(16.128 11.52)">
          <path id="Trazado_1176995" data-name="Trazado 1176995" d="M40.344,12.152V16.76a1.155,1.155,0,0,1-1.152,1.152H16.152A1.155,1.155,0,0,1,15,16.76V13.3h2.3V11H39.192A1.155,1.155,0,0,1,40.344,12.152Z" transform="translate(-15 -11)" fill="#ff826e"/>
        </g>
        <g id="Grupo_1223009" data-name="Grupo 1223009" transform="translate(9.331 4.723)">
          <path id="Trazado_1176996" data-name="Trazado 1176996" d="M15.9,14.2H9.1a.936.936,0,0,1,.219-.334l8.548-8.548A.936.936,0,0,1,18.2,5.1v9.1Z" transform="translate(-9.1 -5.1)" fill="#b4dd7f"/>
        </g>
        <g id="Grupo_1223010" data-name="Grupo 1223010" transform="translate(46.081)">
          <path id="Trazado_1176997" data-name="Trazado 1176997" d="M50.216,23.649a2.3,2.3,0,0,0-3.928-1.636L46,22.3l-3.26-3.26.288-.288a2.3,2.3,0,0,0-1.636-3.928H41V10.216h.392a2.3,2.3,0,0,0,1.636-3.928L42.74,6l.392-.392h.012L46,2.74l.288.288a2.3,2.3,0,0,0,3.928-1.636V1h4.608v.392a2.3,2.3,0,0,0,3.928,1.636l.288-.288L62.3,6l-.288.288a2.3,2.3,0,0,0,1.636,3.928h.392v4.608h-.392a2.3,2.3,0,0,0-1.636,3.928l.288.288-3.26,3.26-.288-.288a2.3,2.3,0,0,0-3.928,1.636v.392H50.216ZM45.608,12.52A6.912,6.912,0,1,0,52.52,5.608,6.918,6.918,0,0,0,45.608,12.52Z" transform="translate(-41 -1)" fill="#ffc729"/>
        </g>
        <g id="Grupo_1223011" data-name="Grupo 1223011" transform="translate(50.689 4.608)">
          <path id="Trazado_1176998" data-name="Trazado 1176998" d="M51.912,5A6.912,6.912,0,1,1,45,11.912,6.918,6.918,0,0,1,51.912,5Zm2.3,6.912a2.3,2.3,0,1,0-2.3,2.3A2.311,2.311,0,0,0,54.216,11.912Z" transform="translate(-45 -5)" fill="#fcd770"/>
        </g>
      </g>
      <g id="Grupo_1223013" data-name="Grupo 1223013" transform="translate(0 0)">
        <path id="Trazado_1176999" data-name="Trazado 1176999" d="M51.456,8a3.456,3.456,0,1,0,3.456,3.456A3.46,3.46,0,0,0,51.456,8Zm0,4.608a1.152,1.152,0,1,1,1.152-1.152A1.154,1.154,0,0,1,51.456,12.608Z" transform="translate(7.297 1.216)"/>
        <path id="Trazado_1177000" data-name="Trazado 1177000" d="M69.878,16.128h1.547V9.216H69.878a1.152,1.152,0,0,1-.814-1.966l1.094-1.094L65.27,1.267,64.175,2.362a1.152,1.152,0,0,1-1.966-.814V0H55.3V1.547a1.152,1.152,0,0,1-1.966.814L52.236,1.267,48.9,4.608H20.061a2.288,2.288,0,0,0-1.629.675L9.891,13.824a2.288,2.288,0,0,0-.675,1.629v9.452l-4.1,4.61A20.265,20.265,0,0,0,1.04,49.388L5.484,62.719a2.294,2.294,0,0,0-.876,1.794v6.912H23.04V66.817H57.6a2.306,2.306,0,0,0,2.3-2.3V25.344h2.3V23.8a1.152,1.152,0,0,1,1.966-.814l1.094,1.094,4.888-4.888-1.094-1.094a1.152,1.152,0,0,1,.814-1.966Zm-56.729-2.3,5.283-5.283v5.283Zm5.283,2.3h2.3v-2.3H41.472v4.608H18.432ZM2.3,42.979A17.936,17.936,0,0,1,6.841,31.048l2.375-2.674V40.959a10.305,10.305,0,0,0,.658,3.63l2.871,7.656,2.158-.809L12.032,43.78a8,8,0,0,1-.511-2.821,1.791,1.791,0,0,1,3.326-.922l2.772,4.621a21.889,21.889,0,0,1,3.118,11.26,21.931,21.931,0,0,1-.653,5.307l-.247.984H7.743L3.226,48.659A17.929,17.929,0,0,1,2.3,42.979ZM20.736,69.121H6.912V64.513H20.736ZM57.6,64.513H23.04a2.3,2.3,0,0,0-.942-1.849l.22-.88a24.221,24.221,0,0,0,.722-5.866,24.193,24.193,0,0,0-3.447-12.444l-2.772-4.622a4.118,4.118,0,0,0-3.511-1.987,4.049,4.049,0,0,0-1.79.43V16.128h4.608v2.3a2.306,2.306,0,0,0,2.3,2.3h23.04a2.306,2.306,0,0,0,2.3-2.3V13.824a2.306,2.306,0,0,0-2.3-2.3H20.736V6.912H48.1l.338.338a1.152,1.152,0,0,1-.814,1.966H46.081v6.912h1.547a1.152,1.152,0,0,1,.814,1.966l-1.094,1.094,4.888,4.888,1.094-1.094A1.152,1.152,0,0,1,55.3,23.8v1.547h2.3Zm9.084-48.555a3.392,3.392,0,0,0,.271,3.175l-1.742,1.742a3.466,3.466,0,0,0-5.229,2.166H57.52a3.466,3.466,0,0,0-5.229-2.166l-1.742-1.742A3.466,3.466,0,0,0,48.383,13.9V11.441a3.466,3.466,0,0,0,2.166-5.229L52.291,4.47a3.4,3.4,0,0,0,3.175.271A3.394,3.394,0,0,0,57.521,2.3h2.464a3.4,3.4,0,0,0,2.054,2.437,3.389,3.389,0,0,0,3.175-.271l1.742,1.742a3.466,3.466,0,0,0,2.165,5.229V13.9A3.391,3.391,0,0,0,66.684,15.958Z" transform="translate(0 0)"/>
        <path id="Trazado_1177001" data-name="Trazado 1177001" d="M52.064,4a8.064,8.064,0,1,0,8.064,8.064A8.073,8.073,0,0,0,52.064,4Zm0,13.824a5.76,5.76,0,1,1,5.76-5.76A5.767,5.767,0,0,1,52.064,17.824Z" transform="translate(6.689 0.608)"/>
        <path id="Trazado_1177002" data-name="Trazado 1177002" d="M14,20h4.608v2.3H14Z" transform="translate(2.128 3.04)"/>
        <path id="Trazado_1177003" data-name="Trazado 1177003" d="M20,20H40.736v2.3H20Z" transform="translate(3.04 3.04)"/>
        <path id="Trazado_1177004" data-name="Trazado 1177004" d="M14,24H41.648v2.3H14Z" transform="translate(2.128 3.648)"/>
        <path id="Trazado_1177005" data-name="Trazado 1177005" d="M14,28H32.432v2.3H14Z" transform="translate(2.128 4.256)"/>
        <path id="Trazado_1177006" data-name="Trazado 1177006" d="M32,28h6.912v2.3H32Z" transform="translate(4.864 4.256)"/>
        <path id="Trazado_1177007" data-name="Trazado 1177007" d="M20,32h2.3v2.3H20Z" transform="translate(3.04 4.864)"/>
        <path id="Trazado_1177008" data-name="Trazado 1177008" d="M24,32h2.3v2.3H24Z" transform="translate(3.648 4.864)"/>
        <path id="Trazado_1177009" data-name="Trazado 1177009" d="M28,32h2.3v2.3H28Z" transform="translate(4.256 4.864)"/>
        <path id="Trazado_1177010" data-name="Trazado 1177010" d="M48.449,40.2a2.289,2.289,0,0,0-1.327,1.809l-.507,4.055L45.374,44a2.863,2.863,0,0,0-5.232.78l-.073.29-1.621-3.241a2.753,2.753,0,0,0-5.163.691L32.9,44.425,28.45,39.476A4.472,4.472,0,0,0,25.135,38,3.139,3.139,0,0,0,22,41.135a3.027,3.027,0,0,0,.145.941l2.2,7.759,2.216-.629L24.347,41.4a.853.853,0,0,1-.043-.263.831.831,0,0,1,.831-.831,2.16,2.16,0,0,1,1.6.714l5.6,6.225-.524,2.621a3.565,3.565,0,0,0,3.5,4.264,2.817,2.817,0,0,0,2.093-4.7l-2.579-2.866.719-3.591a.468.468,0,0,1,.844-.113L38.01,46.1a2.3,2.3,0,0,0,4.3-.472l.073-.289a.582.582,0,0,1,1.021-.152l1.241,2.068a2.3,2.3,0,0,0,4.261-.9l.507-4.055,1.905,1.271,1.278-1.917-1.905-1.272a2.293,2.293,0,0,0-2.236-.177ZM35.693,50.968a.513.513,0,0,1-.381.856,1.26,1.26,0,0,1-1.237-1.507l.188-.938Z" transform="translate(3.344 5.776)"/>
      </g>
    </g>
  </g>
</svg>
