<svg xmlns="http://www.w3.org/2000/svg" xmlns:xlink="http://www.w3.org/1999/xlink" width="113" height="113" viewBox="0 0 113 113">
  <defs>
    <filter id="Trazado_982547" x="0" y="0" width="113" height="113" filterUnits="userSpaceOnUse">
      <feOffset dy="3" input="SourceAlpha"/>
      <feGaussianBlur stdDeviation="3" result="blur"/>
      <feFlood flood-opacity="0.161"/>
      <feComposite operator="in" in2="blur"/>
      <feComposite in="SourceGraphic"/>
    </filter>
  </defs>
  <g id="Grupo_1223044" data-name="Grupo 1223044" transform="translate(-900 -2105.033)">
    <g id="Grupo_1220497" data-name="Grupo 1220497" transform="translate(0 -688.806)">
      <g id="Grupo_1215867" data-name="Grupo 1215867" transform="translate(0 -6681.075)">
        <g id="Grupo_1214721" data-name="Grupo 1214721" transform="translate(909 9480.914)">
          <g id="Grupo_1209935" data-name="Grupo 1209935">
            <g id="Grupo_1208705" data-name="Grupo 1208705">
              <g id="Grupo_1148633" data-name="Grupo 1148633">
                <g id="Grupo_1148525" data-name="Grupo 1148525">
                  <g transform="matrix(1, 0, 0, 1, -9, -6)" filter="url(#Trazado_982547)">
                    <g id="Trazado_982547-2" data-name="Trazado 982547" transform="translate(9 6)" fill="#f9e3d4">
                      <path d="M 47.5 93.5 C 41.28937149047852 93.5 35.26533508300781 92.28397369384766 29.59518623352051 89.88570404052734 C 24.11771965026855 87.56893157958984 19.19813346862793 84.25196075439453 14.97309303283691 80.02691650390625 C 10.74804019927979 75.80186462402344 7.431066513061523 70.88229370117188 5.114293098449707 65.40481567382812 C 2.716026782989502 59.73468017578125 1.5 53.71062850952148 1.5 47.5 C 1.5 41.28937149047852 2.716026782989502 35.26533508300781 5.114293098449707 29.59518623352051 C 7.431066513061523 24.11771965026855 10.74804019927979 19.19813346862793 14.97309303283691 14.97309303283691 C 19.19813346862793 10.74804019927979 24.11771965026855 7.431066513061523 29.59518623352051 5.114293098449707 C 35.26533508300781 2.716026782989502 41.28937149047852 1.5 47.5 1.5 C 53.71062850952148 1.5 59.73468017578125 2.716026782989502 65.40481567382812 5.114293098449707 C 70.88229370117188 7.431066513061523 75.80186462402344 10.74804019927979 80.02691650390625 14.97309303283691 C 84.25196075439453 19.19813346862793 87.56893157958984 24.11771965026855 89.88570404052734 29.59518623352051 C 92.28397369384766 35.26533508300781 93.5 41.28937149047852 93.5 47.5 C 93.5 53.71062850952148 92.28397369384766 59.73468017578125 89.88570404052734 65.40481567382812 C 87.56893157958984 70.88229370117188 84.25196075439453 75.80186462402344 80.02691650390625 80.02691650390625 C 75.80186462402344 84.25196075439453 70.88229370117188 87.56893157958984 65.40481567382812 89.88570404052734 C 59.73468017578125 92.28397369384766 53.71062850952148 93.5 47.5 93.5 Z" stroke="none"/>
                      <path d="M 47.5 3 C 41.49121475219727 3 35.66376876831055 4.176155090332031 30.17950439453125 6.495796203613281 C 24.88084411621094 8.736953735351562 20.12152099609375 11.94598388671875 16.03375244140625 16.03375244140625 C 11.94598388671875 20.12152099609375 8.736953735351562 24.88084411621094 6.495796203613281 30.17950439453125 C 4.176155090332031 35.66376876831055 3 41.49121475219727 3 47.5 C 3 53.50878524780273 4.176155090332031 59.33623123168945 6.495796203613281 64.82049560546875 C 8.736953735351562 70.11915588378906 11.94598388671875 74.87847900390625 16.03375244140625 78.96624755859375 C 20.12152099609375 83.05401611328125 24.88084411621094 86.26304626464844 30.17950439453125 88.50419616699219 C 35.66376876831055 90.82384490966797 41.49121475219727 92 47.5 92 C 53.50878524780273 92 59.33623123168945 90.82384490966797 64.82049560546875 88.50419616699219 C 70.11915588378906 86.26304626464844 74.87847900390625 83.05401611328125 78.96624755859375 78.96624755859375 C 83.05401611328125 74.87847900390625 86.26304626464844 70.11915588378906 88.50419616699219 64.82049560546875 C 90.82384490966797 59.33623123168945 92 53.50878524780273 92 47.5 C 92 41.49121475219727 90.82384490966797 35.66376876831055 88.50419616699219 30.17950439453125 C 86.26304626464844 24.88084411621094 83.05401611328125 20.12152099609375 78.96624755859375 16.03375244140625 C 74.87847900390625 11.94598388671875 70.11915588378906 8.736953735351562 64.82049560546875 6.495796203613281 C 59.33623123168945 4.176155090332031 53.50878524780273 3 47.5 3 M 47.5 0 C 73.7335205078125 0 95 21.2664794921875 95 47.5 C 95 73.7335205078125 73.7335205078125 95 47.5 95 C 21.2664794921875 95 0 73.7335205078125 0 47.5 C 0 21.2664794921875 21.2664794921875 0 47.5 0 Z" stroke="none" fill="#eca675"/>
                    </g>
                  </g>
                </g>
              </g>
            </g>
          </g>
        </g>
      </g>
    </g>
    <g id="autorizacion" transform="translate(917.537 2126.627)">
      <g id="Grupo_1223030" data-name="Grupo 1223030" transform="translate(6.533 1.204)">
        <path id="Trazado_1177011" data-name="Trazado 1177011" d="M139.4,7.5H126.448a11.281,11.281,0,0,0-11.281,11.281V27.99a4.652,4.652,0,0,1,2.463-.7h1.418V25.647a5.222,5.222,0,0,1,5.222-5.222h.338a6.757,6.757,0,0,1,3.377.945,6.137,6.137,0,0,0,3.081.824h3.719a6.135,6.135,0,0,0,3.081-.824,6.756,6.756,0,0,1,3.377-.945h.338a5.222,5.222,0,0,1,5.222,5.222v1.641h1.417a4.651,4.651,0,0,1,2.463.7V18.781A11.281,11.281,0,0,0,139.4,7.5Z" transform="translate(-102.558 -7.5)" fill="#596c76"/>
        <path id="Trazado_1177012" data-name="Trazado 1177012" d="M223.827,7.5h-8.09a11.281,11.281,0,0,1,11.281,11.281v1.743a5.223,5.223,0,0,1,4.209,5.123v1.641h1.417a4.65,4.65,0,0,1,2.463.7V18.781A11.281,11.281,0,0,0,223.827,7.5Z" transform="translate(-186.981 -7.5)" fill="#465a61"/>
        <path id="Trazado_1177013" data-name="Trazado 1177013" d="M43.28,305.666a11.2,11.2,0,0,1,8.012,19.019H87.271c-6.962-4.713-11.4-11.07-11.4-20.8,0-.031,0-.065,0-.1v0l-7.525-6.658-.82.752a.775.775,0,0,1-1.047,0l-.821-.752L57.443,304.4a.775.775,0,0,1-1.288-.58v-9.5L42.163,298.9a8.028,8.028,0,0,0-5.529,7.629v1.323A11.147,11.147,0,0,1,43.28,305.666Z" transform="translate(-36.634 -248.267)" fill="#26a6fe"/>
        <path id="Trazado_1177014" data-name="Trazado 1177014" d="M198.866,306.243a.775.775,0,0,0-1.027,0l-4.732,4.187,4.524,9.232a.8.8,0,0,0,1.442,0l4.524-9.232Z" transform="translate(-167.984 -258.114)" fill="#dff6fd"/>
        <g id="Grupo_1223029" data-name="Grupo 1223029" transform="translate(10.223 12.925)">
          <g id="Grupo_1223028" data-name="Grupo 1223028">
            <g id="Grupo_1223027" data-name="Grupo 1223027">
              <g id="Grupo_1223026" data-name="Grupo 1223026">
                <g id="Grupo_1223025" data-name="Grupo 1223025">
                  <g id="Grupo_1223017" data-name="Grupo 1223017" transform="translate(0 6.695)">
                    <g id="Grupo_1223015" data-name="Grupo 1223015">
                      <path id="Trazado_1177015" data-name="Trazado 1177015" d="M106.574,139.825V129.7h-1.418a4.849,4.849,0,0,0-4.849,4.848v1.46a4.849,4.849,0,0,0,4.849,4.849h1.468C106.592,140.517,106.574,140.174,106.574,139.825Z" transform="translate(-100.308 -129.7)" fill="#ffcebf"/>
                    </g>
                    <g id="Grupo_1223016" data-name="Grupo 1223016" transform="translate(33.973)">
                      <path id="Trazado_1177016" data-name="Trazado 1177016" d="M313.371,129.7h-1.418v10.125c0,.348-.018.692-.051,1.032h1.468a4.849,4.849,0,0,0,4.849-4.849v-1.46A4.849,4.849,0,0,0,313.371,129.7Z" transform="translate(-311.903 -129.7)" fill="#ffb09e"/>
                    </g>
                  </g>
                  <g id="Grupo_1223024" data-name="Grupo 1223024" transform="translate(6.266)">
                    <g id="Grupo_1223023" data-name="Grupo 1223023">
                      <path id="Trazado_1177017" data-name="Trazado 1177017" d="M178.361,261.379a2.4,2.4,0,0,1,1.3-1.88l.25-.128v-1.98a.775.775,0,0,0-.319-.626l-3.677-2.679a10.446,10.446,0,0,1-3.637.651H165.85a10.446,10.446,0,0,1-3.637-.651l-2.9,2.113a2.664,2.664,0,0,0-1.1,2.153v11.695a.775.775,0,0,0,1.288.58l9.045-8a.775.775,0,0,1,1.027,0l8.356,7.393C177.939,268.195,178.085,263.916,178.361,261.379Z" transform="translate(-155.186 -227.42)" fill="#fff"/>
                      <g id="Grupo_1223018" data-name="Grupo 1223018" transform="translate(7.286 26.769)">
                        <path id="Trazado_1177018" data-name="Trazado 1177018" d="M194.525,255.289H188.1a10.461,10.461,0,0,1-3.377-.56v4.019a.775.775,0,0,0,.251.571l5.818,5.331a.775.775,0,0,0,1.047,0l5.817-5.331a.775.775,0,0,0,.251-.571v-4.018A10.46,10.46,0,0,1,194.525,255.289Z" transform="translate(-184.718 -254.729)" fill="#ffcebf"/>
                      </g>
                      <g id="Grupo_1223019" data-name="Grupo 1223019" transform="translate(10.728 26.77)">
                        <path id="Trazado_1177019" data-name="Trazado 1177019" d="M212.521,255.29h-1.394v2.057a.775.775,0,0,1-.251.571l-4.72,4.325,2.627,2.407a.775.775,0,0,0,1.047,0l5.817-5.331a.775.775,0,0,0,.251-.571V254.73A10.462,10.462,0,0,1,212.521,255.29Z" transform="translate(-206.156 -254.73)" fill="#ffb09e"/>
                      </g>
                      <g id="Grupo_1223020" data-name="Grupo 1223020">
                        <path id="Trazado_1177020" data-name="Trazado 1177020" d="M161.533,88a6.757,6.757,0,0,0-3.377.945,6.136,6.136,0,0,1-3.081.824h-3.719a6.134,6.134,0,0,1-3.081-.824A6.757,6.757,0,0,0,144.9,88h-.338a5.222,5.222,0,0,0-5.222,5.222v11.6A10.664,10.664,0,0,0,150,115.485h6.43a10.664,10.664,0,0,0,10.664-10.664v-11.6A5.222,5.222,0,0,0,161.871,88Z" transform="translate(-139.336 -88)" fill="#ffdfcf"/>
                      </g>
                      <g id="Grupo_1223022" data-name="Grupo 1223022" transform="translate(11.278)">
                        <g id="Grupo_1223021" data-name="Grupo 1223021">
                          <path id="Trazado_1177021" data-name="Trazado 1177021" d="M220.839,88H220.5a6.628,6.628,0,0,0-2.888.688,5.219,5.219,0,0,1,2.633,4.535v11.6a10.664,10.664,0,0,1-10.664,10.664H215.4a10.664,10.664,0,0,0,10.664-10.664v-11.6A5.222,5.222,0,0,0,220.839,88Z" transform="translate(-209.582 -88)" fill="#ffcebf"/>
                        </g>
                      </g>
                    </g>
                  </g>
                </g>
              </g>
            </g>
          </g>
        </g>
      </g>
      <g id="Grupo_1223038" data-name="Grupo 1223038" transform="translate(45.77 38.278)">
        <g id="Grupo_1223032" data-name="Grupo 1223032">
          <g id="Grupo_1223031" data-name="Grupo 1223031">
            <path id="Trazado_1177022" data-name="Trazado 1177022" d="M282.744,246.337a2.4,2.4,0,0,0-1.3,1.88c-.281,2.582-.427,6.969-.427,8.734,0,12.059,6.816,18.938,16.805,23.926a2.4,2.4,0,0,0,2.147,0c9.989-4.988,16.805-11.867,16.805-23.926,0-1.765-.146-6.152-.427-8.734a2.4,2.4,0,0,0-1.3-1.88l-15.058-7.668a2.408,2.408,0,0,0-2.186,0Z" transform="translate(-281.016 -238.407)" fill="#fff3de"/>
          </g>
        </g>
        <g id="Grupo_1223033" data-name="Grupo 1223033" transform="translate(4.392 4.732)">
          <path id="Trazado_1177023" data-name="Trazado 1177023" d="M322.233,301.033a.8.8,0,0,1-.756,0,28.818,28.818,0,0,1-9.1-7.071,18.816,18.816,0,0,1-4.008-12.272c0-1.65.11-4.571.268-6.745a.8.8,0,0,1,.436-.656l12.419-6.324a.8.8,0,0,1,.729,0l12.419,6.324a.8.8,0,0,1,.436.656c.157,2.174.268,5.1.268,6.745a18.816,18.816,0,0,1-4.009,12.272,28.822,28.822,0,0,1-9.1,7.071Z" transform="translate(-308.368 -267.877)" fill="#ffe177"/>
        </g>
        <g id="Grupo_1223034" data-name="Grupo 1223034" transform="translate(13.164 8.679)">
          <path id="Trazado_1177024" data-name="Trazado 1177024" d="M380.939,295.583a.8.8,0,0,0-.436-.656l-4.839-2.464a.806.806,0,0,1,.074.282c.159,2.2.271,5.156.271,6.826a19.04,19.04,0,0,1-4.056,12.418A28.863,28.863,0,0,1,363.005,319a39.12,39.12,0,0,0,4.337,2.67.8.8,0,0,0,.756,0,28.82,28.82,0,0,0,9.1-7.071,18.816,18.816,0,0,0,4.009-12.272C381.207,300.678,381.1,297.757,380.939,295.583Z" transform="translate(-363.005 -292.463)" fill="#ffd15b"/>
        </g>
        <g id="Grupo_1223037" data-name="Grupo 1223037" transform="translate(12.968 13.515)">
          <g id="Grupo_1223035" data-name="Grupo 1223035" transform="translate(0 0)">
            <circle id="Elipse_14487" data-name="Elipse 14487" cx="3.659" cy="3.659" r="3.659" transform="translate(0 6.594) rotate(-64.332)" fill="#7a8c98"/>
          </g>
          <g id="Grupo_1223036" data-name="Grupo 1223036" transform="translate(3.372 1.214)">
            <path id="Trazado_1177025" data-name="Trazado 1177025" d="M384.327,330.142a3.644,3.644,0,0,0-1.538.339,3.659,3.659,0,0,1,0,6.641,3.659,3.659,0,1,0,1.538-6.98Z" transform="translate(-382.789 -330.142)" fill="#596c76"/>
          </g>
        </g>
      </g>
      <g id="Grupo_1223042" data-name="Grupo 1223042" transform="translate(1.98 58.603)">
        <g id="Grupo_1223041" data-name="Grupo 1223041" transform="translate(0)">
          <g id="Grupo_1223039" data-name="Grupo 1223039">
            <circle id="Elipse_14488" data-name="Elipse 14488" cx="11.199" cy="11.199" r="11.199" fill="#6cf5c2"/>
          </g>
          <g id="Grupo_1223040" data-name="Grupo 1223040" transform="translate(7.805)">
            <path id="Trazado_1177026" data-name="Trazado 1177026" d="M60.282,365a11.187,11.187,0,0,0-3.394.525,11.2,11.2,0,0,1,0,21.348A11.2,11.2,0,1,0,60.282,365Z" transform="translate(-56.888 -365)" fill="#00f2a6"/>
          </g>
        </g>
      </g>
      <g id="Grupo_1223043" data-name="Grupo 1223043" transform="translate(0.776 0)">
        <path id="Trazado_1177027" data-name="Trazado 1177027" d="M193.291,197.646a5.394,5.394,0,0,0,5.388-5.388,1.2,1.2,0,0,0-2.408,0,2.983,2.983,0,0,1-2.98,2.98H191.25a2.983,2.983,0,0,1-2.98-2.98,1.2,1.2,0,0,0-2.408,0,5.394,5.394,0,0,0,5.388,5.388Z" transform="translate(-156.145 -160.379)"/>
        <path id="Trazado_1177028" data-name="Trazado 1177028" d="M176.384,129.49v-2.6a1.2,1.2,0,1,0-2.408,0v2.6a1.2,1.2,0,1,0,2.408,0Z" transform="translate(-146.168 -105.505)"/>
        <path id="Trazado_1177029" data-name="Trazado 1177029" d="M263.782,130.695a1.2,1.2,0,0,0,1.2-1.2v-2.6a1.2,1.2,0,1,0-2.408,0v2.6A1.2,1.2,0,0,0,263.782,130.695Z" transform="translate(-220.544 -105.505)"/>
        <path id="Trazado_1177030" data-name="Trazado 1177030" d="M209.05,143.816a1.2,1.2,0,1,0,0-2.408.791.791,0,0,1,0-1.582,1.2,1.2,0,1,0,0-2.408,3.2,3.2,0,0,0,0,6.4Z" transform="translate(-172.925 -115.355)"/>
        <path id="Trazado_1177031" data-name="Trazado 1177031" d="M82.3,47.958a3.6,3.6,0,0,0-1.952-2.823L65.288,37.467a3.624,3.624,0,0,0-3.279,0L48.953,44.116V44.1a1.985,1.985,0,0,0-.814-1.6l-1.9-1.387a11.9,11.9,0,0,0,5.534-7.929H52.2a6.06,6.06,0,0,0,6.053-6.053v-1.46a6.046,6.046,0,0,0-2.385-4.811V12.485A12.5,12.5,0,0,0,43.379,0H30.423A12.5,12.5,0,0,0,17.938,12.485v.2a1.2,1.2,0,1,0,2.408,0v-.2A10.088,10.088,0,0,1,30.423,2.408H43.379A10.088,10.088,0,0,1,53.456,12.485v7.267A6.049,6.049,0,0,0,52.2,19.62h-.213v-.269a6.434,6.434,0,0,0-6.426-6.426h-.338a7.988,7.988,0,0,0-3.98,1.106,4.955,4.955,0,0,1-2.478.663H35.042a4.957,4.957,0,0,1-2.478-.662,7.987,7.987,0,0,0-3.98-1.107h-.338a6.434,6.434,0,0,0-6.426,6.426v.269H21.6a6.048,6.048,0,0,0-1.259.133V18.3a1.2,1.2,0,0,0-2.408,0v2.558a6.046,6.046,0,0,0-2.385,4.811v1.46a6.06,6.06,0,0,0,6.053,6.053h.427a11.9,11.9,0,0,0,5.534,7.929l-1.127.821a3.88,3.88,0,0,0-1.59,3.126v1.321l-13.162,4.31a9.212,9.212,0,0,0-6.359,8.774v.742A12.4,12.4,0,1,0,21.674,78.827h6.433a1.2,1.2,0,0,0,0-2.408H23.662A12.4,12.4,0,0,0,7.788,58.633a6.807,6.807,0,0,1,4.649-5.652L24.85,48.916v7.84a1.957,1.957,0,0,0,1.166,1.8,1.994,1.994,0,0,0,.82.178,1.962,1.962,0,0,0,1.3-.5l3.13-2.769L35.1,63.282a2.007,2.007,0,0,0,3.6,0l3.829-7.813,2.037,1.8a24.124,24.124,0,0,0,4.9,14.9,27.138,27.138,0,0,0,4.108,4.249H33.726a1.2,1.2,0,1,0,0,2.408H56.814a49.1,49.1,0,0,0,5.224,3,3.624,3.624,0,0,0,3.223,0c5.629-2.811,9.739-5.969,12.566-9.656a24.265,24.265,0,0,0,4.905-15.347c0-1.748-.145-6.2-.434-8.864ZM52.2,22.028a3.649,3.649,0,0,1,3.644,3.644v1.46A3.649,3.649,0,0,1,52.2,30.777h-.213V22.028Zm-34.237,5.1v-1.46a3.649,3.649,0,0,1,3.644-3.644h.213v8.749h-.213A3.649,3.649,0,0,1,17.961,27.133ZM23.174,69.8a9.995,9.995,0,1,1-9.995-9.995A10.006,10.006,0,0,1,23.174,69.8ZM24.227,30.95v-11.6a4.023,4.023,0,0,1,4.018-4.018h.338a5.581,5.581,0,0,1,2.775.783,7.366,7.366,0,0,0,3.684.986h3.719a7.366,7.366,0,0,0,3.684-.986,5.581,5.581,0,0,1,2.775-.783h.338a4.023,4.023,0,0,1,4.018,4.018v11.6a9.47,9.47,0,0,1-9.46,9.46h-6.43a9.471,9.471,0,0,1-9.46-9.46Zm9.46,11.868h6.43a11.882,11.882,0,0,0,2.173-.2v2.113L36.9,49.666l-5.388-4.938V42.615a11.887,11.887,0,0,0,2.173.2ZM27.258,55.8V45.061a1.464,1.464,0,0,1,.6-1.18l1.246-.908v1.944a1.984,1.984,0,0,0,.642,1.459l4.011,3.676ZM36.9,61.486l-3.76-7.673,2.4-2.126.021.019a1.968,1.968,0,0,0,2.674,0l.021-.019,2.4,2.125ZM45,47.958c-.185,1.705-.311,4.149-.378,6.144l-4.577-4.05,4.011-3.676a1.984,1.984,0,0,0,.642-1.459V42.973l1.846,1.345v1.059A3.591,3.591,0,0,0,45,47.958ZM64.184,79.671a1.2,1.2,0,0,1-1.071,0C51.952,74.1,46.975,67.05,46.975,56.822c0-1.7.14-6.031.42-8.6a1.2,1.2,0,0,1,.65-.937L63.1,39.613a1.207,1.207,0,0,1,1.093,0l15.058,7.668a1.2,1.2,0,0,1,.65.937c.28,2.572.42,6.9.42,8.6C80.323,67.05,75.346,74.1,64.184,79.671Z" transform="translate(-0.776 0)"/>
        <path id="Trazado_1177032" data-name="Trazado 1177032" d="M328.888,266.923,316.469,260.6a2.013,2.013,0,0,0-1.822,0l-3.973,2.023a1.2,1.2,0,1,0,1.093,2.146l3.791-1.931,12.035,6.128c.141,2.035.248,4.809.248,6.431a17.658,17.658,0,0,1-3.744,11.518,27.358,27.358,0,0,1-8.54,6.66,27.354,27.354,0,0,1-8.54-6.66,17.66,17.66,0,0,1-3.744-11.518c0-1.622.108-4.4.248-6.431l3.235-1.648a1.2,1.2,0,0,0-1.093-2.146l-3.438,1.751a2.017,2.017,0,0,0-1.09,1.642c-.154,2.134-.271,5.071-.271,6.832a19.973,19.973,0,0,0,4.274,13.025,29.91,29.91,0,0,0,9.472,7.379,2,2,0,0,0,1.891,0,29.914,29.914,0,0,0,9.472-7.379A19.973,19.973,0,0,0,330.25,275.4c0-1.761-.116-4.7-.271-6.832A2.016,2.016,0,0,0,328.888,266.923Z" transform="translate(-252.685 -218.575)"/>
        <path id="Trazado_1177033" data-name="Trazado 1177033" d="M366.942,337.932a1.2,1.2,0,0,0,1.2-1.2v-4.509a4.864,4.864,0,1,0-2.408,0v4.509A1.2,1.2,0,0,0,366.942,337.932Zm-2.455-10.426a2.455,2.455,0,1,1,2.455,2.455A2.458,2.458,0,0,1,364.486,327.506Z" transform="translate(-304.069 -270.84)"/>
        <path id="Trazado_1177034" data-name="Trazado 1177034" d="M40.026,412.326a1.2,1.2,0,0,0,.851.353c.035,0,.07,0,.105,0a1.2,1.2,0,0,0,.881-.509l6.069-8.67a1.2,1.2,0,1,0-1.973-1.381l-5.246,7.494-3.681-3.682a1.2,1.2,0,0,0-1.7,1.7Z" transform="translate(-29.486 -337.121)"/>
      </g>
    </g>
  </g>
</svg>
