<svg xmlns="http://www.w3.org/2000/svg" width="81.227" height="90" viewBox="0 0 81.227 90">
  <g id="Grupo_1222899" data-name="Grupo 1222899" transform="translate(-624.273 -3050.717)">
    <rect id="Rectángulo_421295" data-name="Rectángulo 421295" width="50" height="90" transform="translate(655.5 3050.717)" fill="#bca78f"/>
    <g id="plazo-del-proyecto" transform="translate(624.273 3057.592)">
      <g id="Grupo_1222898" data-name="Grupo 1222898" transform="translate(1.193 1.192)">
        <g id="Grupo_1222890" data-name="Grupo 1222890" transform="translate(0 0)">
          <path id="Trazado_1176489" data-name="Trazado 1176489" d="M58.879,21.926a30.524,30.524,0,0,1,8.936,3.7l5.807-2.579L80.467,29.9,77.889,35.7a30.524,30.524,0,0,1,3.705,8.939l5.924,2.28V56.6l-5.926,2.281a30.521,30.521,0,0,1-3.7,8.936l2.579,5.807-6.844,6.844-5.805-2.578a30.525,30.525,0,0,1-8.939,3.705L56.6,87.519H46.92l-2.281-5.926a30.522,30.522,0,0,1-8.936-3.7L29.9,80.467l-6.844-6.844,2.578-5.805a30.525,30.525,0,0,1-3.705-8.939L16,56.6V46.92l5.925-2.281a30.513,30.513,0,0,1,3.7-8.937L23.051,29.9,29.9,23.051,35.7,25.63a30.524,30.524,0,0,1,8.936-3.7L46.92,16H56.6Z" transform="translate(-16 -16)" fill="#ffe177" fill-rule="evenodd"/>
          <path id="Trazado_1176490" data-name="Trazado 1176490" d="M109.935,77.888l-5.807,2.579-.9-.9,5.442-2.417Q109.295,77.535,109.935,77.888Zm23.177-55.962a30.519,30.519,0,0,1,8.824,3.636c.036.024.073.048.112.069l-1.659.737a40.309,40.309,0,0,0-10.2-4.442L127.908,16h2.922ZM103.229,23.95l.9-.9,5.807,2.579q-.64.353-1.263.737Zm42.6,0,2.024-.9L154.7,29.9,152.121,35.7a30.523,30.523,0,0,1,3.705,8.939l5.924,2.28V56.6l-5.926,2.281a30.522,30.522,0,0,1-3.7,8.936l2.579,5.807-6.844,6.844-2.024-.9,5.945-5.945L149.2,67.816a30.518,30.518,0,0,0,3.7-8.936l5.926-2.281V46.92l-5.924-2.28A30.524,30.524,0,0,0,149.2,35.7l2.578-5.805Zm-3.894,54.007a30.523,30.523,0,0,1-8.826,3.636l-2.28,5.925h-2.922l2.28-5.925a40.3,40.3,0,0,0,10.2-4.442l1.659.737Q141.993,77.92,141.937,77.958Z" transform="translate(-90.232 -16)" fill="#ffd064" fill-rule="evenodd"/>
          <circle id="Elipse_14473" data-name="Elipse 14473" cx="23.268" cy="23.268" r="23.268" transform="translate(2.85 35.759) rotate(-45)" fill="#eceff1"/>
          <path id="Trazado_1176491" data-name="Trazado 1176491" d="M123.1,99.833c.55,0,1.095.02,1.635.058a23.268,23.268,0,0,0,0,46.42c-.54.038-1.085.058-1.635.058a23.268,23.268,0,1,1,0-46.536Z" transform="translate(-87.343 -87.342)" fill="#d1d1d6" fill-rule="evenodd"/>
        </g>
        <g id="Grupo_1222891" data-name="Grupo 1222891" transform="translate(19.517 26.9)">
          <path id="Trazado_1176492" data-name="Trazado 1176492" d="M186.3,248.447v12.695a2.384,2.384,0,0,1-2.377,2.377H159.086a2.384,2.384,0,0,1-2.377-2.377V248.447Z" transform="translate(-155.261 -240.714)" fill="#ecba78" fill-rule="evenodd"/>
          <path id="Trazado_1176493" data-name="Trazado 1176493" d="M330.938,248.447v12.695a2.384,2.384,0,0,1-2.377,2.377h-1.887a2.384,2.384,0,0,0,2.377-2.377V248.447Z" transform="translate(-299.902 -240.714)" fill="#e3a76f" fill-rule="evenodd"/>
          <path id="Trazado_1176494" data-name="Trazado 1176494" d="M149.18,206.818a7.408,7.408,0,0,1-.74-.53,3.475,3.475,0,0,1-1.448-2.729v-5.8a1.22,1.22,0,0,1,1.218-1.218h30.048a1.221,1.221,0,0,1,1.218,1.218v5.8a3.476,3.476,0,0,1-1.448,2.729,7.411,7.411,0,0,1-.74.53C172.342,209.947,154.089,209.924,149.18,206.818Z" transform="translate(-146.992 -196.545)" fill="#e3a76f" fill-rule="evenodd"/>
          <path id="Trazado_1176495" data-name="Trazado 1176495" d="M216.039,196.544H199.076V200.5a1.532,1.532,0,0,0,1.527,1.527h13.909a1.532,1.532,0,0,0,1.527-1.527v-3.961Z" transform="translate(-191.316 -196.544)" fill="#c48958" fill-rule="evenodd"/>
          <path id="Trazado_1176496" data-name="Trazado 1176496" d="M342.629,196.544h2.117a1.221,1.221,0,0,1,1.218,1.218v5.8a3.476,3.476,0,0,1-1.448,2.729,7.409,7.409,0,0,1-.74.53,7.486,7.486,0,0,1-1.147.578V196.544Z" transform="translate(-313.48 -196.544)" fill="#c48958" fill-rule="evenodd"/>
          <path id="Trazado_1176497" data-name="Trazado 1176497" d="M241.9,266.665a2.994,2.994,0,1,1-2.994-2.994A2.994,2.994,0,0,1,241.9,266.665Z" transform="translate(-222.66 -253.669)" fill="#837683" fill-rule="evenodd"/>
          <path id="Trazado_1176498" data-name="Trazado 1176498" d="M256.3,266.665a3,3,0,0,1-3.466,2.957,2.994,2.994,0,0,0,0-5.913,3,3,0,0,1,3.466,2.957Z" transform="translate(-237.063 -253.669)" fill="#685e68" fill-rule="evenodd"/>
        </g>
        <g id="Grupo_1222897" data-name="Grupo 1222897" transform="translate(44.113 39.654)">
          <path id="Trazado_1176499" data-name="Trazado 1176499" d="M392.869,284.418a1.192,1.192,0,0,1,2.384,0v6.2a1.192,1.192,0,1,1-2.384,0Z" transform="translate(-380.83 -283.064)" fill="#b1b1b5" fill-rule="evenodd"/>
          <g id="Grupo_1222892" data-name="Grupo 1222892" transform="translate(19.858 6.639)">
            <path id="Trazado_1176500" data-name="Trazado 1176500" d="M449.262,326.888l1.585,1.585a.661.661,0,0,1,0,.933l-2.98,2.98-2.518-2.518,2.98-2.98A.661.661,0,0,1,449.262,326.888Z" transform="translate(-445.349 -326.695)" fill="#9facba" fill-rule="evenodd"/>
            <path id="Trazado_1176501" data-name="Trazado 1176501" d="M459.39,326.888l1.585,1.585a.661.661,0,0,1,0,.933l-2.98,2.98-.745-.745,2.235-2.235a.661.661,0,0,0,0-.933l-1.307-1.307.279-.279A.661.661,0,0,1,459.39,326.888Z" transform="translate(-455.478 -326.695)" fill="#8d9ca8" fill-rule="evenodd"/>
          </g>
          <g id="Grupo_1222893" data-name="Grupo 1222893" transform="translate(0.913 6.639)">
            <path id="Trazado_1176502" data-name="Trazado 1176502" d="M318.389,328.472l1.585-1.585a.661.661,0,0,1,.933,0l2.98,2.98-2.518,2.518-2.98-2.98A.661.661,0,0,1,318.389,328.472Z" transform="translate(-318.196 -326.694)" fill="#9facba" fill-rule="evenodd"/>
            <path id="Trazado_1176503" data-name="Trazado 1176503" d="M328.26,327.165l.278-.279a.661.661,0,0,1,.933,0l2.98,2.98-2.518,2.518-.745-.745,1.773-1.773Z" transform="translate(-326.761 -326.694)" fill="#8d9ca8" fill-rule="evenodd"/>
          </g>
          <g id="Grupo_1222894" data-name="Grupo 1222894" transform="translate(0 5.696)">
            <ellipse id="Elipse_14474" data-name="Elipse 14474" cx="12.908" cy="12.908" rx="12.908" ry="12.908" transform="translate(0 0.723) rotate(-1.604)" fill="#8ac9fe"/>
            <path id="Trazado_1176504" data-name="Trazado 1176504" d="M396.614,322.737a12.908,12.908,0,1,1,0,25.816c-.25,0-.5-.008-.745-.022a12.907,12.907,0,0,0,0-25.772C396.116,322.745,396.364,322.737,396.614,322.737Z" transform="translate(-383.383 -322.384)" fill="#60b7ff" fill-rule="evenodd"/>
          </g>
          <g id="Grupo_1222895" data-name="Grupo 1222895" transform="translate(3.377 9.039)">
            <circle id="Elipse_14475" data-name="Elipse 14475" cx="9.362" cy="9.362" r="9.362" transform="translate(0 18.706) rotate(-86.849)" fill="#eceff1"/>
            <path id="Trazado_1176505" data-name="Trazado 1176505" d="M347.4,346.533q.376,0,.745.03a9.363,9.363,0,0,0,0,18.666q-.369.029-.745.03a9.362,9.362,0,0,1,0-18.725Z" transform="translate(-337.542 -345.977)" fill="#d1d1d6" fill-rule="evenodd"/>
          </g>
          <path id="Trazado_1176506" data-name="Trazado 1176506" d="M389.972,367.763a2.117,2.117,0,1,1-2.384,0v-4.037a1.192,1.192,0,1,1,2.384,0Z" transform="translate(-375.549 -350.555)" fill="#a79ba7" fill-rule="evenodd"/>
          <g id="Grupo_1222896" data-name="Grupo 1222896" transform="translate(9.827)">
            <path id="Trazado_1176507" data-name="Trazado 1176507" d="M378.84,282.137h5.179a.816.816,0,0,1,.814.814v1.457a.817.817,0,0,1-.814.814H378.84a.816.816,0,0,1-.814-.814v-1.457A.816.816,0,0,1,378.84,282.137Z" transform="translate(-378.026 -282.137)" fill="#9facba" fill-rule="evenodd"/>
            <path id="Trazado_1176508" data-name="Trazado 1176508" d="M383.343,282.137h.676a.816.816,0,0,1,.814.814v1.457a.817.817,0,0,1-.814.814H378.84a.816.816,0,0,1-.814-.814v-.676h4.5a.816.816,0,0,0,.814-.814Z" transform="translate(-378.026 -282.137)" fill="#8d9ca8" fill-rule="evenodd"/>
          </g>
        </g>
      </g>
      <path id="Trazado_1176509" data-name="Trazado 1176509" d="M66.532,68.727a.924.924,0,1,1,.926-.924A.929.929,0,0,1,66.532,68.727Zm1.192-4.01v-2.7a1.192,1.192,0,0,0-2.385,0v2.7a3.31,3.31,0,1,0,2.385,0ZM66.532,75.974a8.171,8.171,0,1,0-8.17-8.171A8.177,8.177,0,0,0,66.532,75.974Zm0-18.726A10.555,10.555,0,1,0,77.087,67.8,10.566,10.566,0,0,0,66.532,57.248Zm12.981-8.275V40.93l-5.162-1.986a1.2,1.2,0,0,1-.729-.836,29.248,29.248,0,0,0-3.563-8.59,1.2,1.2,0,0,1-.07-1.11l2.244-5.057-5.688-5.686L61.49,19.912a1.193,1.193,0,0,1-1.108-.074,29.3,29.3,0,0,0-8.591-3.561,1.193,1.193,0,0,1-.835-.73l-1.985-5.162H40.928l-1.985,5.162a1.19,1.19,0,0,1-.842.73,29.338,29.338,0,0,0-8.584,3.561,1.193,1.193,0,0,1-1.108.074l-5.064-2.247-5.681,5.687,2.244,5.057a1.177,1.177,0,0,1-.077,1.11,29.244,29.244,0,0,0-3.556,8.587,1.189,1.189,0,0,1-.736.837L10.379,40.93v8.043l5.162,1.986a1.181,1.181,0,0,1,.729.836,29.416,29.416,0,0,0,3.563,8.59,1.178,1.178,0,0,1,.077,1.11l-2.244,5.057,5.681,5.686,5.064-2.247a1.193,1.193,0,0,1,1.108.075A29.331,29.331,0,0,0,38.1,73.626a1.19,1.19,0,0,1,.842.73l1.985,5.163h8.044l1.985-5.161a1.192,1.192,0,0,1,.835-.73c.568-.136,1.136-.292,1.7-.462a14.051,14.051,0,0,1-1.045-4.71,24.669,24.669,0,1,1,17.168-23.5,25.41,25.41,0,0,1-.154,2.734,2,2,0,0,1,1.662,1.974v1.457a2.008,2.008,0,0,1-2.006,2.007h-1.4v.63a13.939,13.939,0,0,1,4.9,1.335,28.668,28.668,0,0,0,1-3.293,1.2,1.2,0,0,1,.729-.838ZM76.61,56.9l.828.833-.533.533c-.267-.289-.54-.566-.835-.833ZM66.532,79.519A11.716,11.716,0,1,0,54.821,67.8,11.732,11.732,0,0,0,66.532,79.519ZM56.16,58.263l-.533-.533.835-.833.533.533C56.707,57.7,56.427,57.974,56.16,58.263Zm-9.412-9.184a1.8,1.8,0,1,1-1.8-1.8A1.8,1.8,0,0,1,46.748,49.078Zm-8.759-6.317H51.9a2.722,2.722,0,0,0,2.721-2.719v-2.77h5.351A.03.03,0,0,1,60,37.3v5.8a2.244,2.244,0,0,1-1.01,1.809c-1.627,1.333-5.064,2.168-10.218,2.481a4.183,4.183,0,0,0-7.651,0c-5.155-.31-8.584-1.144-10.218-2.482a2.244,2.244,0,0,1-1.01-1.809V37.3a.03.03,0,0,1,.028-.027h5.351v2.77a2.721,2.721,0,0,0,2.714,2.719Zm12.6-7.873H39.314v-1.1A1.583,1.583,0,0,1,40.892,32.2H49a1.585,1.585,0,0,1,1.585,1.584ZM37.66,37.272H52.24v2.77a.34.34,0,0,1-.337.335H37.989a.334.334,0,0,1-.33-.335ZM32.526,57.7a1.188,1.188,0,0,1-1.185-1.186v-8.6a28.436,28.436,0,0,0,9.475,1.842,4.186,4.186,0,0,0,8.262,0,28.536,28.536,0,0,0,9.475-1.839v7.7l-.786-.785a1.85,1.85,0,0,0-2.616,0L53.565,56.42a1.83,1.83,0,0,0-.54,1.28h-20.5Zm31.8-6.959v-.7h4.418v.7ZM44.946,67.234A22.171,22.171,0,0,0,52.562,65.9a14.13,14.13,0,0,1,2.125-5.735l-.077-.079H32.526a3.577,3.577,0,0,1-3.57-3.57V46.356a4.456,4.456,0,0,1-1.445-3.261V37.3a2.413,2.413,0,0,1,2.413-2.411H36.93v-1.1a3.972,3.972,0,0,1,3.962-3.968H49a3.974,3.974,0,0,1,3.969,3.968v1.1h7.006A2.413,2.413,0,0,1,62.388,37.3v5.8a4.464,4.464,0,0,1-1.452,3.261v8.506a14.07,14.07,0,0,1,4.4-1.109v-.63h-1.4a2.008,2.008,0,0,1-2.006-2.007V49.659a2.007,2.007,0,0,1,2.006-2.005h3.121a21.746,21.746,0,0,0,.168-2.7A22.284,22.284,0,1,0,44.946,67.234ZM81.134,39,75.79,36.941a31.524,31.524,0,0,0-3.373-8.132l2.328-5.237a1.184,1.184,0,0,0-.245-1.328L67.655,15.4a1.189,1.189,0,0,0-1.325-.246L61.09,17.481a31.615,31.615,0,0,0-8.135-3.37L50.9,8.764A1.19,1.19,0,0,0,49.785,8H40.107A1.187,1.187,0,0,0,39,8.764l-2.062,5.346a31.666,31.666,0,0,0-8.128,3.37L23.57,15.155a1.185,1.185,0,0,0-1.325.246L15.4,22.246a1.2,1.2,0,0,0-.253,1.326l2.328,5.239a31.736,31.736,0,0,0-3.366,8.131L8.758,39a1.2,1.2,0,0,0-.764,1.113v9.679A1.2,1.2,0,0,0,8.758,50.9l5.351,2.058a31.7,31.7,0,0,0,3.366,8.132l-2.328,5.237a1.2,1.2,0,0,0,.253,1.328L22.245,74.5a1.185,1.185,0,0,0,1.325.246l5.239-2.326a31.681,31.681,0,0,0,8.128,3.37L39,81.14a1.188,1.188,0,0,0,1.108.763h9.678A1.19,1.19,0,0,0,50.9,81.14l2.055-5.346c.554-.145,1.108-.3,1.655-.478A14.094,14.094,0,1,0,78.377,60.163L79.5,59.039a1.841,1.841,0,0,0,0-2.619l-1.585-1.585a1.852,1.852,0,0,0-2.616,0l-.091.086c.217-.646.407-1.3.582-1.959L81.133,50.9a1.19,1.19,0,0,0,.765-1.113V40.112A1.189,1.189,0,0,0,81.134,39Z" transform="translate(-7.994 -8)" fill="#242222" fill-rule="evenodd"/>
    </g>
  </g>
</svg>
