<svg xmlns="http://www.w3.org/2000/svg" xmlns:xlink="http://www.w3.org/1999/xlink" width="100.531" height="100.531" viewBox="0 0 100.531 100.531">
  <defs>
    <filter id="Trazado_978624" x="0" y="0" width="100.531" height="100.531" filterUnits="userSpaceOnUse">
      <feOffset dy="3" input="SourceAlpha"/>
      <feGaussianBlur stdDeviation="3" result="blur"/>
      <feFlood flood-opacity="0.161"/>
      <feComposite operator="in" in2="blur"/>
      <feComposite in="SourceGraphic"/>
    </filter>
  </defs>
  <g id="Grupo_1223046" data-name="Grupo 1223046" transform="translate(-171.75 -4001.235)">
    <g id="Grupo_1220517" data-name="Grupo 1220517" transform="translate(11.786 3103.893)">
      <g id="Grupo_1215987" data-name="Grupo 1215987" transform="translate(168.964 903.342)">
        <g id="Grupo_1210476" data-name="Grupo 1210476" transform="translate(0 0)">
          <g id="Grupo_1210475" data-name="Grupo 1210475" transform="translate(0)">
            <g id="Grupo_1209741" data-name="Grupo 1209741" transform="translate(0 0)">
              <g id="Grupo_1178144" data-name="Grupo 1178144">
                <g id="Grupo_1177896" data-name="Grupo 1177896">
                  <g id="Grupo_1176881" data-name="Grupo 1176881">
                    <g id="Grupo_1175148" data-name="Grupo 1175148">
                      <g id="Grupo_1173798" data-name="Grupo 1173798">
                        <g id="Grupo_1171925" data-name="Grupo 1171925">
                          <g id="Grupo_1164524" data-name="Grupo 1164524">
                            <g id="Grupo_1144123" data-name="Grupo 1144123">
                              <g transform="matrix(1, 0, 0, 1, -9, -6)" filter="url(#Trazado_978624)">
                                <g id="Trazado_978624-2" data-name="Trazado 978624" transform="translate(9 6)" fill="#cfd7c8">
                                  <path d="M 41.26534271240234 81.03068542480469 C 35.89638900756836 81.03068542480469 30.6888370513916 79.97950744628906 25.78733062744141 77.90634155273438 C 21.05228424072266 75.90358734130859 16.79945945739746 73.03615570068359 13.14700126647949 69.38368225097656 C 9.49453067779541 65.73122406005859 6.627095699310303 61.47840118408203 4.624342918395996 56.74335479736328 C 2.551177978515625 51.84185028076172 1.500001549720764 46.63429641723633 1.500001549720764 41.26534271240234 C 1.500001549720764 35.89638900756836 2.551177978515625 30.6888370513916 4.624342918395996 25.78733062744141 C 6.627095699310303 21.05228424072266 9.49453067779541 16.79945945739746 13.14700126647949 13.14700126647949 C 16.79945945739746 9.49453067779541 21.05228424072266 6.627095699310303 25.78733062744141 4.624342918395996 C 30.6888370513916 2.551177978515625 35.89638900756836 1.500001549720764 41.26534271240234 1.500001549720764 C 46.63429641723633 1.500001549720764 51.84185028076172 2.551177978515625 56.74335479736328 4.624342918395996 C 61.47840118408203 6.627095699310303 65.73122406005859 9.49453067779541 69.38368225097656 13.14700126647949 C 73.03615570068359 16.79945945739746 75.90358734130859 21.05228424072266 77.90634155273438 25.78733062744141 C 79.97950744628906 30.6888370513916 81.03068542480469 35.89638900756836 81.03068542480469 41.26534271240234 C 81.03068542480469 46.63429641723633 79.97950744628906 51.84185028076172 77.90634155273438 56.74335479736328 C 75.90358734130859 61.47840118408203 73.03615570068359 65.73122406005859 69.38368225097656 69.38368225097656 C 65.73122406005859 73.03615570068359 61.47840118408203 75.90358734130859 56.74335479736328 77.90634155273438 C 51.84185028076172 79.97950744628906 46.63429641723633 81.03068542480469 41.26534271240234 81.03068542480469 Z" stroke="none"/>
                                  <path d="M 41.26534271240234 2.999992370605469 C 36.09823608398438 2.999992370605469 31.08727645874023 4.011314392089844 26.37166213989258 6.005851745605469 C 21.81541061401367 7.9329833984375 17.72284698486328 10.69245910644531 14.20764923095703 14.20764923095703 C 10.69245910644531 17.72284698486328 7.9329833984375 21.81541061401367 6.005851745605469 26.37166213989258 C 4.011314392089844 31.08727645874023 2.999992370605469 36.09823608398438 2.999992370605469 41.26534271240234 C 2.999992370605469 46.43244934082031 4.011314392089844 51.44340896606445 6.005851745605469 56.15902328491211 C 7.9329833984375 60.71527862548828 10.69245910644531 64.80783843994141 14.20764923095703 68.32303619384766 C 17.72284698486328 71.83822631835938 21.81541061401367 74.59770202636719 26.37166213989258 76.52483367919922 C 31.08727645874023 78.51937103271484 36.09823608398438 79.53069305419922 41.26534271240234 79.53069305419922 C 46.43244934082031 79.53069305419922 51.44340896606445 78.51937103271484 56.15902328491211 76.52483367919922 C 60.71527862548828 74.59770202636719 64.80783843994141 71.83822631835938 68.32303619384766 68.32303619384766 C 71.83822631835938 64.80783843994141 74.59770202636719 60.71527862548828 76.52483367919922 56.15902328491211 C 78.51937103271484 51.44340896606445 79.53069305419922 46.43244934082031 79.53069305419922 41.26534271240234 C 79.53069305419922 36.09823608398438 78.51937103271484 31.08727645874023 76.52483367919922 26.37166213989258 C 74.59770202636719 21.81541061401367 71.83822631835938 17.72284698486328 68.32303619384766 14.20764923095703 C 64.80783843994141 10.69245910644531 60.71527862548828 7.9329833984375 56.15902328491211 6.005851745605469 C 51.44340896606445 4.011314392089844 46.43244934082031 2.999992370605469 41.26534271240234 2.999992370605469 M 41.26534271240234 -7.62939453125e-06 C 64.05557250976562 -7.62939453125e-06 82.53069305419922 18.47511291503906 82.53069305419922 41.26534271240234 C 82.53069305419922 64.05557250976562 64.05557250976562 82.53069305419922 41.26534271240234 82.53069305419922 C 18.47511291503906 82.53069305419922 -7.62939453125e-06 64.05557250976562 -7.62939453125e-06 41.26534271240234 C -7.62939453125e-06 18.47511291503906 18.47511291503906 -7.62939453125e-06 41.26534271240234 -7.62939453125e-06 Z" stroke="none" fill="#899e78"/>
                                </g>
                              </g>
                            </g>
                          </g>
                        </g>
                      </g>
                    </g>
                  </g>
                </g>
              </g>
            </g>
          </g>
        </g>
      </g>
    </g>
    <g id="palacio-de-justicia_4_" data-name="palacio-de-justicia (4)" transform="translate(187.027 4021.023)">
      <path id="Trazado_1177058" data-name="Trazado 1177058" d="M46.964,41A5.482,5.482,0,0,1,36,41Z" transform="translate(3.374 3.856)" fill="#976949"/>
      <path id="Trazado_1177059" data-name="Trazado 1177059" d="M28.964,41A5.482,5.482,0,0,1,18,41Z" transform="translate(1.639 3.856)" fill="#976949"/>
      <path id="Trazado_1177060" data-name="Trazado 1177060" d="M34.892,2,2,23.928H67.784Z" transform="translate(0.096 0.096)" fill="#cecece"/>
      <path id="Trazado_1177061" data-name="Trazado 1177061" d="M35.677,3,11.539,19.093a1.389,1.389,0,0,0,.767,2.546H63.635Z" transform="translate(0.956 0.193)" fill="#e1e1e1"/>
      <path id="Trazado_1177062" data-name="Trazado 1177062" d="M4,22H65.4v4.386H4Z" transform="translate(0.289 2.025)" fill="#afafaf"/>
      <path id="Trazado_1177063" data-name="Trazado 1177063" d="M4,56H65.4v6.578H4Z" transform="translate(0.289 5.302)" fill="#cecece"/>
      <path id="Trazado_1177064" data-name="Trazado 1177064" d="M6,57.1a3.289,3.289,0,0,0,3.289,3.289H65.206V56H6Z" transform="translate(0.482 5.302)" fill="#e1e1e1"/>
      <path id="Trazado_1177065" data-name="Trazado 1177065" d="M6,52H63.013v4.386H6Z" transform="translate(0.482 4.917)" fill="#afafaf"/>
      <path id="Trazado_1177066" data-name="Trazado 1177066" d="M7,53.1a2.193,2.193,0,0,0,2.193,2.193H62.917V52H7Z" transform="translate(0.578 4.917)" fill="#bfbfbf"/>
      <path id="Trazado_1177067" data-name="Trazado 1177067" d="M8,26h8.771v4.386H8Z" transform="translate(0.675 2.41)" fill="#f5b95b"/>
      <path id="Trazado_1177068" data-name="Trazado 1177068" d="M48,26h8.771v4.386H48Z" transform="translate(4.531 2.41)" fill="#f5b95b"/>
      <path id="Trazado_1177069" data-name="Trazado 1177069" d="M9,27.1a2.193,2.193,0,0,0,2.193,2.193h5.482V26H9Z" transform="translate(0.771 2.41)" fill="#f9d18f"/>
      <path id="Trazado_1177070" data-name="Trazado 1177070" d="M49,27.1a2.193,2.193,0,0,0,2.193,2.193h5.482V26H49Z" transform="translate(4.627 2.41)" fill="#f9d18f"/>
      <path id="Trazado_1177071" data-name="Trazado 1177071" d="M10,30h4.386V54.121H10Z" transform="translate(0.868 2.796)" fill="#cecece"/>
      <path id="Trazado_1177072" data-name="Trazado 1177072" d="M11,50.832a2.193,2.193,0,0,0,2.193,2.193h1.1V30H11Z" transform="translate(0.964 2.796)" fill="#e1e1e1"/>
      <path id="Trazado_1177073" data-name="Trazado 1177073" d="M50,30h4.386V54.121H50Z" transform="translate(4.724 2.796)" fill="#cecece"/>
      <ellipse id="Elipse_14489" data-name="Elipse 14489" cx="5" cy="5.5" rx="5" ry="5.5" transform="translate(29.977 8.977)" fill="#f5b95b"/>
      <path id="Trazado_1177074" data-name="Trazado 1177074" d="M32.386,8A5.437,5.437,0,0,0,29.11,9.11a5.459,5.459,0,0,0,7.649,7.649A5.459,5.459,0,0,0,32.386,8Z" transform="translate(2.603 0.675)" fill="#f9d18f"/>
      <circle id="Elipse_14490" data-name="Elipse 14490" cx="2" cy="2" r="2" transform="translate(32.977 31.977)" fill="#976949"/>
      <ellipse id="Elipse_14491" data-name="Elipse 14491" cx="1.645" cy="2.115" rx="1.645" ry="2.115" transform="translate(33.892 31.777)" fill="#c18e5c"/>
      <path id="Trazado_1177075" data-name="Trazado 1177075" d="M51,50.832a2.193,2.193,0,0,0,2.193,2.193h1.1V30H51Z" transform="translate(4.82 2.796)" fill="#e1e1e1"/>
      <path id="Trazado_1177076" data-name="Trazado 1177076" d="M68.489,23.112,35.6,1.184a1.1,1.1,0,0,0-1.217,0L1.488,23.112A1.1,1.1,0,0,0,2.1,25.121h1.1V28.41a1.1,1.1,0,0,0,1.1,1.1H7.578V32.8a1.1,1.1,0,0,0,1.1,1.1h1.1V55.82H6.482a1.1,1.1,0,0,0-1.1,1.1v3.289h-1.1a1.1,1.1,0,0,0-1.1,1.1v6.578a1.1,1.1,0,0,0,1.1,1.1h61.4a1.1,1.1,0,0,0,1.1-1.1V61.3a1.1,1.1,0,0,0-1.1-1.1h-1.1V56.917a1.1,1.1,0,0,0-1.1-1.1H60.206V33.892h1.1a1.1,1.1,0,0,0,1.1-1.1V29.507h3.289a1.1,1.1,0,0,0,1.1-1.1V25.121h1.1a1.1,1.1,0,0,0,.609-2.009Zm-33.5-19.7L64.263,22.928H5.715ZM64.592,62.4v4.386H5.386V62.4ZM62.4,58.013v2.193H7.578V58.013ZM52.531,33.892h1.1V55.82H16.35V33.892h1.1a1.1,1.1,0,0,0,1.1-1.1V29.507H51.435V32.8A1.1,1.1,0,0,0,52.531,33.892ZM16.35,31.7H9.771V29.507H16.35Zm-2.193,2.193V55.82H11.964V33.892ZM55.82,55.82V33.892h2.193V55.82ZM60.206,31.7H53.627V29.507h6.578Zm4.386-4.386H5.386V25.121H64.592Z" transform="translate(0 0)"/>
      <path id="Trazado_1177077" data-name="Trazado 1177077" d="M32.578,7a6.578,6.578,0,1,0,6.578,6.578A6.578,6.578,0,0,0,32.578,7Zm0,10.964a4.386,4.386,0,1,1,4.386-4.386A4.386,4.386,0,0,1,32.578,17.964Z" transform="translate(2.41 0.578)"/>
      <path id="Trazado_1177078" data-name="Trazado 1177078" d="M44.245,32.9a1.1,1.1,0,0,0-.931-.518h-6.78a3.252,3.252,0,0,0,.2-1.1,3.289,3.289,0,0,0-6.578,0,3.252,3.252,0,0,0,.2,1.1h-6.78a1.1,1.1,0,0,0-.93.515l-5.482,8.771a1.1,1.1,0,0,0-.167.581,6.578,6.578,0,0,0,13.157,0,1.1,1.1,0,0,0-.167-.581l-4.438-7.094h6.8V48.832H29.06v2.193h8.771V48.832H34.542V34.578h6.8l-4.434,7.094a1.1,1.1,0,0,0-.171.581,6.578,6.578,0,0,0,13.157,0,1.1,1.1,0,0,0-.167-.581ZM23.578,46.639a4.392,4.392,0,0,1-4.244-3.289h8.488A4.392,4.392,0,0,1,23.578,46.639Zm3.508-5.482H20.081l3.5-5.606Zm6.359-8.771a1.1,1.1,0,1,1,1.1-1.1A1.1,1.1,0,0,1,33.446,32.386Zm9.868,3.165,3.508,5.606H39.816Zm0,11.088A4.392,4.392,0,0,1,39.07,43.35h8.488a4.392,4.392,0,0,1-4.244,3.289Z" transform="translate(1.543 2.603)"/>
    </g>
  </g>
</svg>
