<svg xmlns="http://www.w3.org/2000/svg" xmlns:xlink="http://www.w3.org/1999/xlink" width="100.531" height="100.531" viewBox="0 0 100.531 100.531">
  <defs>
    <filter id="Trazado_978624" x="0" y="0" width="100.531" height="100.531" filterUnits="userSpaceOnUse">
      <feOffset dy="3" input="SourceAlpha"/>
      <feGaussianBlur stdDeviation="3" result="blur"/>
      <feFlood flood-opacity="0.161"/>
      <feComposite operator="in" in2="blur"/>
      <feComposite in="SourceGraphic"/>
    </filter>
  </defs>
  <g id="Grupo_1222979" data-name="Grupo 1222979" transform="translate(-171.875 -4615.735)">
    <g id="Grupo_1220380" data-name="Grupo 1220380" transform="translate(11.911 3718.393)">
      <g id="Grupo_1215987" data-name="Grupo 1215987" transform="translate(168.964 903.342)">
        <g id="Grupo_1210476" data-name="Grupo 1210476" transform="translate(0 0)">
          <g id="Grupo_1210475" data-name="Grupo 1210475" transform="translate(0)">
            <g id="Grupo_1209741" data-name="Grupo 1209741" transform="translate(0 0)">
              <g id="Grupo_1178144" data-name="Grupo 1178144">
                <g id="Grupo_1177896" data-name="Grupo 1177896">
                  <g id="Grupo_1176881" data-name="Grupo 1176881">
                    <g id="Grupo_1175148" data-name="Grupo 1175148">
                      <g id="Grupo_1173798" data-name="Grupo 1173798">
                        <g id="Grupo_1171925" data-name="Grupo 1171925">
                          <g id="Grupo_1164524" data-name="Grupo 1164524">
                            <g id="Grupo_1144123" data-name="Grupo 1144123">
                              <g transform="matrix(1, 0, 0, 1, -9, -6)" filter="url(#Trazado_978624)">
                                <g id="Trazado_978624-2" data-name="Trazado 978624" transform="translate(9 6)" fill="#cfd7c8">
                                  <path d="M 41.26534271240234 81.03068542480469 C 35.89638900756836 81.03068542480469 30.6888370513916 79.97950744628906 25.78733062744141 77.90634155273438 C 21.05228424072266 75.90358734130859 16.79945945739746 73.03615570068359 13.14700126647949 69.38368225097656 C 9.49453067779541 65.73122406005859 6.627095699310303 61.47840118408203 4.624342918395996 56.74335479736328 C 2.551177978515625 51.84185028076172 1.500001549720764 46.63429641723633 1.500001549720764 41.26534271240234 C 1.500001549720764 35.89638900756836 2.551177978515625 30.6888370513916 4.624342918395996 25.78733062744141 C 6.627095699310303 21.05228424072266 9.49453067779541 16.79945945739746 13.14700126647949 13.14700126647949 C 16.79945945739746 9.49453067779541 21.05228424072266 6.627095699310303 25.78733062744141 4.624342918395996 C 30.6888370513916 2.551177978515625 35.89638900756836 1.500001549720764 41.26534271240234 1.500001549720764 C 46.63429641723633 1.500001549720764 51.84185028076172 2.551177978515625 56.74335479736328 4.624342918395996 C 61.47840118408203 6.627095699310303 65.73122406005859 9.49453067779541 69.38368225097656 13.14700126647949 C 73.03615570068359 16.79945945739746 75.90358734130859 21.05228424072266 77.90634155273438 25.78733062744141 C 79.97950744628906 30.6888370513916 81.03068542480469 35.89638900756836 81.03068542480469 41.26534271240234 C 81.03068542480469 46.63429641723633 79.97950744628906 51.84185028076172 77.90634155273438 56.74335479736328 C 75.90358734130859 61.47840118408203 73.03615570068359 65.73122406005859 69.38368225097656 69.38368225097656 C 65.73122406005859 73.03615570068359 61.47840118408203 75.90358734130859 56.74335479736328 77.90634155273438 C 51.84185028076172 79.97950744628906 46.63429641723633 81.03068542480469 41.26534271240234 81.03068542480469 Z" stroke="none"/>
                                  <path d="M 41.26534271240234 2.999992370605469 C 36.09823608398438 2.999992370605469 31.08727645874023 4.011314392089844 26.37166213989258 6.005851745605469 C 21.81541061401367 7.9329833984375 17.72284698486328 10.69245910644531 14.20764923095703 14.20764923095703 C 10.69245910644531 17.72284698486328 7.9329833984375 21.81541061401367 6.005851745605469 26.37166213989258 C 4.011314392089844 31.08727645874023 2.999992370605469 36.09823608398438 2.999992370605469 41.26534271240234 C 2.999992370605469 46.43244934082031 4.011314392089844 51.44340896606445 6.005851745605469 56.15902328491211 C 7.9329833984375 60.71527862548828 10.69245910644531 64.80783843994141 14.20764923095703 68.32303619384766 C 17.72284698486328 71.83822631835938 21.81541061401367 74.59770202636719 26.37166213989258 76.52483367919922 C 31.08727645874023 78.51937103271484 36.09823608398438 79.53069305419922 41.26534271240234 79.53069305419922 C 46.43244934082031 79.53069305419922 51.44340896606445 78.51937103271484 56.15902328491211 76.52483367919922 C 60.71527862548828 74.59770202636719 64.80783843994141 71.83822631835938 68.32303619384766 68.32303619384766 C 71.83822631835938 64.80783843994141 74.59770202636719 60.71527862548828 76.52483367919922 56.15902328491211 C 78.51937103271484 51.44340896606445 79.53069305419922 46.43244934082031 79.53069305419922 41.26534271240234 C 79.53069305419922 36.09823608398438 78.51937103271484 31.08727645874023 76.52483367919922 26.37166213989258 C 74.59770202636719 21.81541061401367 71.83822631835938 17.72284698486328 68.32303619384766 14.20764923095703 C 64.80783843994141 10.69245910644531 60.71527862548828 7.9329833984375 56.15902328491211 6.005851745605469 C 51.44340896606445 4.011314392089844 46.43244934082031 2.999992370605469 41.26534271240234 2.999992370605469 M 41.26534271240234 -7.62939453125e-06 C 64.05557250976562 -7.62939453125e-06 82.53069305419922 18.47511291503906 82.53069305419922 41.26534271240234 C 82.53069305419922 64.05557250976562 64.05557250976562 82.53069305419922 41.26534271240234 82.53069305419922 C 18.47511291503906 82.53069305419922 -7.62939453125e-06 64.05557250976562 -7.62939453125e-06 41.26534271240234 C -7.62939453125e-06 18.47511291503906 18.47511291503906 -7.62939453125e-06 41.26534271240234 -7.62939453125e-06 Z" stroke="none" fill="#899e78"/>
                                </g>
                              </g>
                            </g>
                          </g>
                        </g>
                      </g>
                    </g>
                  </g>
                </g>
              </g>
            </g>
          </g>
        </g>
      </g>
    </g>
    <g id="responsabilidad_5_" data-name="responsabilidad (5)" transform="translate(190 4633)">
      <path id="Trazado_1176819" data-name="Trazado 1176819" d="M23.382,27h-.146a3.693,3.693,0,0,1-.461-.029,3.23,3.23,0,0,1-2.648-2.461,4.857,4.857,0,0,1-4.254,0,3.228,3.228,0,0,1-2.648,2.461,3.534,3.534,0,0,1-.461.03h-.146A3.618,3.618,0,0,0,9,30.618V36H27V30.618A3.618,3.618,0,0,0,23.382,27Z" fill="#efbe9c"/>
      <path id="Trazado_1176820" data-name="Trazado 1176820" d="M23.382,27h-.146a3.693,3.693,0,0,1-.461-.029,2.988,2.988,0,0,1-.6-.144l-.759.759a4.828,4.828,0,0,1-6.828,0l-.759-.759a2.972,2.972,0,0,1-.6.144,3.717,3.717,0,0,1-.461.029h-.146A3.618,3.618,0,0,0,9,30.618V36H27V30.618A3.618,3.618,0,0,0,23.382,27Z" fill="#4472b0"/>
      <path id="Trazado_1176821" data-name="Trazado 1176821" d="M23.236,27a3.693,3.693,0,0,1-.461-.029,2.988,2.988,0,0,1-.6-.144l-.759.759a4.828,4.828,0,0,1-6.828,0l-.759-.759a2.972,2.972,0,0,1-.6.144,3.717,3.717,0,0,1-.461.029h-.146A3.618,3.618,0,0,0,9,30.618v3.339c.333.015.662.043,1,.043a18.934,18.934,0,0,0,14.813-6.7,3.592,3.592,0,0,0-1.431-.3Z" fill="#698ec0"/>
      <path id="Trazado_1176822" data-name="Trazado 1176822" d="M18,25a5,5,0,0,1-5-5V18a5,5,0,0,1,10,0v2A5,5,0,0,1,18,25Z" fill="#efbe9c"/>
      <path id="Trazado_1176823" data-name="Trazado 1176823" d="M51.382,27h-.146a3.693,3.693,0,0,1-.461-.029,3.23,3.23,0,0,1-2.648-2.461,4.857,4.857,0,0,1-4.254,0,3.228,3.228,0,0,1-2.648,2.461,3.534,3.534,0,0,1-.461.03h-.146A3.618,3.618,0,0,0,37,30.618V36H55V30.618A3.618,3.618,0,0,0,51.382,27Z" fill="#efbe9c"/>
      <path id="Trazado_1176824" data-name="Trazado 1176824" d="M51.382,27h-.146a3.693,3.693,0,0,1-.461-.029,2.988,2.988,0,0,1-.6-.144l-.759.759a4.828,4.828,0,0,1-6.828,0l-.759-.759a2.972,2.972,0,0,1-.6.144,3.717,3.717,0,0,1-.461.029h-.146A3.618,3.618,0,0,0,37,30.618V36H55V30.618A3.618,3.618,0,0,0,51.382,27Z" fill="#4472b0"/>
      <path id="Trazado_1176825" data-name="Trazado 1176825" d="M51.236,27a3.693,3.693,0,0,1-.461-.029,2.988,2.988,0,0,1-.6-.144l-.759.759a4.828,4.828,0,0,1-6.828,0l-.759-.759a2.972,2.972,0,0,1-.6.144,3.717,3.717,0,0,1-.461.029h-.146A3.618,3.618,0,0,0,37,30.618v3.339c.333.015.662.043,1,.043a18.934,18.934,0,0,0,14.813-6.7,3.592,3.592,0,0,0-1.431-.3Z" fill="#698ec0"/>
      <path id="Trazado_1176826" data-name="Trazado 1176826" d="M46,25a5,5,0,0,1-5-5V18a5,5,0,0,1,10,0v2A5,5,0,0,1,46,25Z" fill="#efbe9c"/>
      <path id="Trazado_1176827" data-name="Trazado 1176827" d="M37.382,24h-.146a3.693,3.693,0,0,1-.461-.029,3.23,3.23,0,0,1-2.648-2.461,4.857,4.857,0,0,1-4.254,0,3.228,3.228,0,0,1-2.648,2.461,3.534,3.534,0,0,1-.461.03h-.146A3.618,3.618,0,0,0,23,27.618V32H41V27.618A3.618,3.618,0,0,0,37.382,24Z" fill="#efbe9c"/>
      <path id="Trazado_1176828" data-name="Trazado 1176828" d="M37.382,24h-.146a3.693,3.693,0,0,1-.461-.029,2.988,2.988,0,0,1-.6-.144l-.759.759a4.828,4.828,0,0,1-6.828,0l-.759-.759a2.972,2.972,0,0,1-.6.144,3.717,3.717,0,0,1-.461.029h-.146A3.618,3.618,0,0,0,23,27.618V32H41V27.618A3.618,3.618,0,0,0,37.382,24Z" fill="#4472b0"/>
      <path id="Trazado_1176829" data-name="Trazado 1176829" d="M37.236,24a3.693,3.693,0,0,1-.461-.029,2.988,2.988,0,0,1-.6-.144l-.759.759a4.828,4.828,0,0,1-6.828,0l-.759-.759a2.972,2.972,0,0,1-.6.144,3.717,3.717,0,0,1-.461.029h-.146A3.618,3.618,0,0,0,23,27.618v3.339c.333.015.662.043,1,.043a18.934,18.934,0,0,0,14.813-6.7,3.592,3.592,0,0,0-1.431-.3Z" fill="#698ec0"/>
      <path id="Trazado_1176830" data-name="Trazado 1176830" d="M32,22a5,5,0,0,1-5-5V15a5,5,0,0,1,10,0v2A5,5,0,0,1,32,22Z" fill="#efbe9c"/>
      <path id="Trazado_1176831" data-name="Trazado 1176831" d="M36,50l20.957-5.716A3.86,3.86,0,0,1,62,48v1L30,60l-6-2H16V42H28Z" fill="#efbe9c"/>
      <path id="Trazado_1176832" data-name="Trazado 1176832" d="M2,40h8V62H2Z" fill="#4472b0"/>
      <path id="Trazado_1176833" data-name="Trazado 1176833" d="M10,40h6V60H10Z" fill="#698ec0"/>
      <g id="Grupo_1222978" data-name="Grupo 1222978">
        <path id="Trazado_1176834" data-name="Trazado 1176834" d="M12,18v2a5.993,5.993,0,0,0,2.767,5.046,2.588,2.588,0,0,1-2,.954h-.146A4.623,4.623,0,0,0,8,30.618V36a1,1,0,0,0,1,1H27a1,1,0,0,0,1-1V33h8v3a1,1,0,0,0,1,1H55a1,1,0,0,0,1-1V30.618A4.623,4.623,0,0,0,51.382,26h-.146a2.586,2.586,0,0,1-2-.954A5.994,5.994,0,0,0,52,20V18a6,6,0,0,0-12,0v2a5.993,5.993,0,0,0,2.767,5.046,2.565,2.565,0,0,1-1.127.786A4.625,4.625,0,0,0,37.382,23h-.146a2.586,2.586,0,0,1-2-.954A5.994,5.994,0,0,0,38,17V15a6,6,0,1,0-12,0v2a5.993,5.993,0,0,0,2.767,5.046,2.588,2.588,0,0,1-2,.954h-.146a4.624,4.624,0,0,0-4.258,2.833,2.565,2.565,0,0,1-1.127-.786A6,6,0,0,0,24,20V18a6,6,0,0,0-12,0ZM26,35H10V30.618A2.621,2.621,0,0,1,12.618,28h.146a4.71,4.71,0,0,0,.755-.067l.36.36A5.818,5.818,0,0,0,22,28.4V32a1,1,0,0,0,1,1h3Zm25.382-7A2.621,2.621,0,0,1,54,30.618V35H38V33h3a1,1,0,0,0,1-1V28.4a5.818,5.818,0,0,0,8.121-.11l.36-.36a4.709,4.709,0,0,0,.755.067ZM42,18a4,4,0,0,1,8,0v2a4,4,0,0,1-8,0Zm4,8a5.984,5.984,0,0,0,1.34-.156,4.6,4.6,0,0,0,1.128,1.228,3.917,3.917,0,0,1-4.936,0,4.585,4.585,0,0,0,1.128-1.228A5.984,5.984,0,0,0,46,26ZM28,15a4,4,0,0,1,8,0v2a4,4,0,0,1-8,0Zm4,8a5.984,5.984,0,0,0,1.34-.156,4.6,4.6,0,0,0,1.128,1.228,3.917,3.917,0,0,1-4.936,0,4.585,4.585,0,0,0,1.128-1.228A5.984,5.984,0,0,0,32,23Zm-8,4.618A2.621,2.621,0,0,1,26.618,25h.146a4.71,4.71,0,0,0,.755-.067l.36.36a5.828,5.828,0,0,0,8.242,0l.36-.36a4.709,4.709,0,0,0,.755.067h.146A2.621,2.621,0,0,1,40,27.618V31H24Zm-3.532-.547a3.917,3.917,0,0,1-4.936,0,4.585,4.585,0,0,0,1.128-1.228,5.815,5.815,0,0,0,2.68,0,4.566,4.566,0,0,0,1.128,1.227ZM22,18v2a4,4,0,0,1-8,0V18a4,4,0,0,1,8,0Z"/>
        <path id="Trazado_1176835" data-name="Trazado 1176835" d="M56.694,43.319,36.205,48.907a3.844,3.844,0,0,0-.5-.615l-7-7A1,1,0,0,0,28,41H17V40a1,1,0,0,0-1-1H2a1,1,0,0,0-1,1V62a1,1,0,0,0,1,1h8a1,1,0,0,0,1-1V61h5a1,1,0,0,0,1-1V59h6.838l5.846,1.948a.987.987,0,0,0,.641,0l32-11A1,1,0,0,0,63,49V48a4.859,4.859,0,0,0-6.306-4.681ZM9,61H3V41H9V61Zm6-2H11V41h4ZM61,48.286,30,58.944l-5.679-1.893A1.03,1.03,0,0,0,24,57H17V43H27.586l6.707,6.707a1.829,1.829,0,0,1-2.586,2.586l-5-5-1.414,1.414,5,5a3.814,3.814,0,0,0,6.516-2.891L57.22,45.249A2.862,2.862,0,0,1,61,48Z"/>
        <path id="Trazado_1176836" data-name="Trazado 1176836" d="M41.162,2.376q-.972-.3-1.969-.537l-.464,1.945q.935.222,1.843.5Z"/>
        <path id="Trazado_1176837" data-name="Trazado 1176837" d="M61,32c0,.45-.01.9-.031,1.344l2,.092Q63,32.722,63,32q0-.3-.006-.6l-2,.039c0,.189.006.378.006.566Z"/>
        <path id="Trazado_1176838" data-name="Trazado 1176838" d="M37.193,1.433c-.659-.111-1.339-.2-2.023-.273l-.2,1.99q.956.1,1.892.256Z"/>
        <path id="Trazado_1176839" data-name="Trazado 1176839" d="M60.326,25.752l1.953-.43c-.146-.664-.315-1.329-.5-1.978l-1.921.557q.264.915.471,1.851Z"/>
        <path id="Trazado_1176840" data-name="Trazado 1176840" d="M44.979,3.839c-.62-.286-1.254-.553-1.884-.794L42.38,4.912q.9.344,1.761.743Z"/>
        <path id="Trazado_1176841" data-name="Trazado 1176841" d="M60.9,29.526l1.993-.17q-.087-1.023-.239-2.026l-1.978.3q.144.939.224,1.9Z"/>
        <path id="Trazado_1176842" data-name="Trazado 1176842" d="M55.74,15.342l1.636-1.15q-.586-.836-1.227-1.63L54.59,13.816q.6.744,1.15,1.526Z"/>
        <path id="Trazado_1176843" data-name="Trazado 1176843" d="M59.262,22.087l1.88-.684c-.233-.64-.489-1.276-.76-1.892l-1.83.807q.383.87.71,1.769Z"/>
        <path id="Trazado_1176844" data-name="Trazado 1176844" d="M54.817,11.015c-.455-.495-.937-.985-1.431-1.456l-1.38,1.447q.69.659,1.338,1.362Z"/>
        <path id="Trazado_1176845" data-name="Trazado 1176845" d="M48.566,5.793C48,5.432,47.4,5.083,46.8,4.757l-.955,1.758q.84.457,1.646.968Z"/>
        <path id="Trazado_1176846" data-name="Trazado 1176846" d="M59.627,40.845l1.9.609c.208-.65.4-1.312.557-1.966l-1.941-.48q-.231.931-.521,1.837Z"/>
        <path id="Trazado_1176847" data-name="Trazado 1176847" d="M62.808,35.471,60.82,35.25q-.106.954-.274,1.889l1.969.354c.119-.666.217-1.346.293-2.022Z"/>
        <path id="Trazado_1176848" data-name="Trazado 1176848" d="M51.864,8.2c-.522-.435-1.064-.859-1.609-1.257L49.076,8.557q.772.564,1.505,1.177Z"/>
        <path id="Trazado_1176849" data-name="Trazado 1176849" d="M57.724,18.6l1.773-.926c-.313-.6-.65-1.2-1-1.775l-1.708,1.039Q57.283,17.751,57.724,18.6Z"/>
        <path id="Trazado_1176850" data-name="Trazado 1176850" d="M4.206,23.695l-1.917-.572c-.194.653-.369,1.317-.518,1.976l1.95.443Q3.934,24.606,4.206,23.695Z"/>
        <path id="Trazado_1176851" data-name="Trazado 1176851" d="M5.538,20.118,3.715,19.3c-.277.614-.538,1.251-.776,1.891l1.874.7q.333-.9.725-1.768Z"/>
        <path id="Trazado_1176852" data-name="Trazado 1176852" d="M7.333,16.744l-1.7-1.055c-.357.576-.7,1.172-1.019,1.771l1.765.94Q6.83,17.556,7.333,16.744Z"/>
        <path id="Trazado_1176853" data-name="Trazado 1176853" d="M9.554,13.636,8.006,12.37q-.646.789-1.241,1.62l1.626,1.164Q8.949,14.377,9.554,13.636Z"/>
        <path id="Trazado_1176854" data-name="Trazado 1176854" d="M3.022,33.13C3.007,32.755,3,32.377,3,32c0-.262,0-.521.01-.78l-2-.055C1,31.441,1,31.721,1,32q0,.6.023,1.205Z"/>
        <path id="Trazado_1176855" data-name="Trazado 1176855" d="M3.36,27.417,1.384,27.1c-.106.67-.191,1.351-.253,2.024l1.991.184Q3.211,28.354,3.36,27.417Z"/>
        <path id="Trazado_1176856" data-name="Trazado 1176856" d="M1.167,35.243q.106,1.023.278,2.022l1.972-.338q-.161-.936-.26-1.892Z"/>
        <path id="Trazado_1176857" data-name="Trazado 1176857" d="M15.111,8.421,13.943,6.8q-.828.6-1.617,1.243L13.6,9.586Q14.334,8.98,15.111,8.421Z"/>
        <path id="Trazado_1176858" data-name="Trazado 1176858" d="M21.822,4.837l-.7-1.873c-.637.239-1.271.5-1.884.778l.824,1.822q.867-.392,1.762-.727Z"/>
        <path id="Trazado_1176859" data-name="Trazado 1176859" d="M25.475,3.736l-.446-1.949c-.66.151-1.325.327-1.975.523l.578,1.914C24.238,4.042,24.858,3.878,25.475,3.736Z"/>
        <path id="Trazado_1176860" data-name="Trazado 1176860" d="M29.243,3.13l-.186-1.992c-.67.062-1.352.149-2.026.259l.319,1.975c.625-.1,1.256-.184,1.893-.242Z"/>
        <path id="Trazado_1176861" data-name="Trazado 1176861" d="M18.349,6.407l-.942-1.764c-.6.32-1.194.663-1.767,1.021l1.059,1.7Q17.5,6.857,18.349,6.407Z"/>
        <path id="Trazado_1176862" data-name="Trazado 1176862" d="M31.914,3c.38,0,.768.006,1.149.019l.069-2C32.757,1.007,32.379,1,32,1c-.306,0-.609,0-.912.012l.061,2C31.4,3,31.657,3,31.914,3Z"/>
        <path id="Trazado_1176863" data-name="Trazado 1176863" d="M12.161,10.85,10.8,9.389c-.489.457-.974.943-1.443,1.445L10.814,12.2c.437-.47.891-.924,1.347-1.349Z"/>
      </g>
    </g>
  </g>
</svg>
