<svg xmlns="http://www.w3.org/2000/svg" xmlns:xlink="http://www.w3.org/1999/xlink" width="108" height="108" viewBox="0 0 108 108">
  <defs>
    <filter id="Trazado_904820" x="0" y="0" width="108" height="108" filterUnits="userSpaceOnUse">
      <feOffset dy="3" input="SourceAlpha"/>
      <feGaussianBlur stdDeviation="3" result="blur"/>
      <feFlood flood-opacity="0.161"/>
      <feComposite operator="in" in2="blur"/>
      <feComposite in="SourceGraphic"/>
    </filter>
  </defs>
  <g id="Grupo_1221985" data-name="Grupo 1221985" transform="translate(-617 -566.671)">
    <g id="Grupo_1220071" data-name="Grupo 1220071" transform="translate(0 -5059.329)">
      <g id="Grupo_1209015" data-name="Grupo 1209015" transform="translate(626 5632)">
        <g id="Grupo_1207774" data-name="Grupo 1207774" transform="translate(0 0)">
          <g id="Grupo_1206630" data-name="Grupo 1206630" transform="translate(0 0)">
            <g id="Grupo_1185091" data-name="Grupo 1185091">
              <g id="Grupo_1179560" data-name="Grupo 1179560">
                <g id="Grupo_1173787" data-name="Grupo 1173787">
                  <g id="Grupo_1171910" data-name="Grupo 1171910">
                    <g id="Grupo_1167341" data-name="Grupo 1167341">
                      <g id="Grupo_1166792" data-name="Grupo 1166792">
                        <g transform="matrix(1, 0, 0, 1, -9, -6)" filter="url(#Trazado_904820)">
                          <g id="Trazado_904820-2" data-name="Trazado 904820" transform="translate(9 6)" fill="#e7f2f8">
                            <path d="M 44.99996948242188 88.50005340576172 C 39.12684631347656 88.50005340576172 33.43020629882812 87.35012817382812 28.06828117370605 85.08221435546875 C 22.88851928710938 82.89136505126953 18.23629379272461 79.754638671875 14.2408447265625 75.75918579101562 C 10.24540710449219 71.76374053955078 7.108694553375244 67.11151123046875 4.917831897735596 61.93173980712891 C 2.649931907653809 56.56980133056641 1.500007033348083 50.87314987182617 1.500007033348083 45.00002670288086 C 1.500007033348083 39.12690353393555 2.649931907653809 33.43025207519531 4.917831897735596 28.06831359863281 C 7.108694553375244 22.8885383605957 10.24540710449219 18.23631477355957 14.2408447265625 14.24086380004883 C 18.23629379272461 10.2454137802124 22.88851928710938 7.108689308166504 28.06828117370605 4.917839050292969 C 33.43020629882812 2.649926662445068 39.12684631347656 1.500001668930054 44.99996948242188 1.500001668930054 C 50.87309265136719 1.500001668930054 56.56973266601562 2.649926662445068 61.93165588378906 4.917839050292969 C 67.11143493652344 7.108689308166504 71.76364135742188 10.2454137802124 75.75909423828125 14.24086380004883 C 79.75454711914062 18.23631477355957 82.89125823974609 22.8885383605957 85.08212280273438 28.06831359863281 C 87.35002136230469 33.43025207519531 88.49994659423828 39.12690353393555 88.49994659423828 45.00002670288086 C 88.49994659423828 50.87314987182617 87.35002136230469 56.56980133056641 85.08212280273438 61.93173980712891 C 82.89125823974609 67.11151123046875 79.75454711914062 71.76374053955078 75.75909423828125 75.75918579101562 C 71.76364135742188 79.754638671875 67.11143493652344 82.89136505126953 61.93165588378906 85.08221435546875 C 56.56973266601562 87.35012817382812 50.87309265136719 88.50005340576172 44.99996948242188 88.50005340576172 Z" stroke="none"/>
                            <path d="M 44.99996948242188 3 C 39.32868194580078 3 33.82863998413086 4.110054016113281 28.65261077880859 6.299339294433594 C 23.65164184570312 8.414566040039062 19.15968322753906 11.44334411621094 15.301513671875 15.30152893066406 C 11.44332885742188 19.15969848632812 8.414566040039062 23.65167236328125 6.299324035644531 28.65264129638672 C 4.110054016113281 33.82868194580078 3 39.32873916625977 3 45.00002670288086 C 3 50.67131423950195 4.110054016113281 56.17137145996094 6.299324035644531 61.347412109375 C 8.414566040039062 66.34838104248047 11.44332885742188 70.84035491943359 15.301513671875 74.69852447509766 C 19.15968322753906 78.55670928955078 23.65164184570312 81.58547973632812 28.65261077880859 83.70071411132812 C 33.82863998413086 85.88999938964844 39.32868194580078 87.00005340576172 44.99996948242188 87.00005340576172 C 50.67125701904297 87.00005340576172 56.17129898071289 85.88999938964844 61.34732818603516 83.70071411132812 C 66.34829711914062 81.58547973632812 70.84025573730469 78.55670928955078 74.69842529296875 74.69852447509766 C 78.55661010742188 70.84035491943359 81.58537292480469 66.34838104248047 83.70061492919922 61.347412109375 C 85.88988494873047 56.17137145996094 86.99993896484375 50.67131423950195 86.99993896484375 45.00002670288086 C 86.99993896484375 39.32873916625977 85.88988494873047 33.82868194580078 83.70061492919922 28.65264129638672 C 81.58537292480469 23.65167236328125 78.55661010742188 19.15969848632812 74.69842529296875 15.30152893066406 C 70.84025573730469 11.44334411621094 66.34829711914062 8.414566040039062 61.34732818603516 6.299339294433594 C 56.17129898071289 4.110054016113281 50.67125701904297 3 44.99996948242188 3 M 44.99996948242188 0 C 69.85276794433594 0 89.99993896484375 20.14720153808594 89.99993896484375 45.00002670288086 C 89.99993896484375 69.85285949707031 69.85276794433594 90.00005340576172 44.99996948242188 90.00005340576172 C 20.14717102050781 90.00005340576172 0 69.85285949707031 0 45.00002670288086 C 0 20.14720153808594 20.14717102050781 0 44.99996948242188 0 Z" stroke="none" fill="#248abf"/>
                          </g>
                        </g>
                      </g>
                    </g>
                  </g>
                </g>
              </g>
            </g>
          </g>
        </g>
      </g>
    </g>
    <g id="sistema-legal" transform="translate(611.173 591.689)">
      <g id="Grupo_1221984" data-name="Grupo 1221984" transform="translate(30.229 1.14)">
        <g id="Grupo_1221982" data-name="Grupo 1221982" transform="translate(0)">
          <path id="Trazado_1175756" data-name="Trazado 1175756" d="M90.725,8l44.718.234a1.394,1.394,0,0,1,1.384,1.391V68.167a1.394,1.394,0,0,1-1.391,1.391H90.717a1.394,1.394,0,0,1-1.391-1.391V9.391A1.391,1.391,0,0,1,90.725,8Z" transform="translate(-81.878 -8)" fill="#d1d1d6" fill-rule="evenodd"/>
          <path id="Trazado_1175757" data-name="Trazado 1175757" d="M90.725,8l2.674.014V69.558H90.717a1.394,1.394,0,0,1-1.391-1.391V9.391A1.391,1.391,0,0,1,90.725,8Z" transform="translate(-81.878 -8)" fill="#a0a0a3" fill-rule="evenodd"/>
          <path id="Trazado_1175758" data-name="Trazado 1175758" d="M38.476,60.249l44.718.234a1.394,1.394,0,0,1,1.384,1.391v58.542a1.394,1.394,0,0,1-1.391,1.391H38.468a1.394,1.394,0,0,1-1.391-1.391V61.64a1.391,1.391,0,0,1,1.4-1.391Z" transform="translate(-37.077 -52.801)" fill="#eceff1" fill-rule="evenodd"/>
          <path id="Trazado_1175759" data-name="Trazado 1175759" d="M38.476,60.249l2.674.014v61.544H38.468a1.394,1.394,0,0,1-1.391-1.391V61.64a1.391,1.391,0,0,1,1.4-1.391Z" transform="translate(-37.077 -52.801)" fill="#d1d1d6" fill-rule="evenodd"/>
          <path id="Trazado_1175760" data-name="Trazado 1175760" d="M262.778,60.2h8.981V70.409a.417.417,0,0,1-.651.346l-3.421-2.306a.41.41,0,0,0-.456-.007l-3.812,2.409a.417.417,0,0,1-.64-.353V60.2Z" transform="translate(-230.606 -52.758)" fill="#ffd064" fill-rule="evenodd"/>
          <path id="Trazado_1175761" data-name="Trazado 1175761" d="M316.021,60.4v9.85l.741.5a.417.417,0,0,0,.651-.346V60.2h-1.392Z" transform="translate(-276.259 -52.757)" fill="#ffc338" fill-rule="evenodd"/>
        </g>
        <g id="Grupo_1221983" data-name="Grupo 1221983" transform="translate(20.944 33.06)">
          <path id="Trazado_1175762" data-name="Trazado 1175762" d="M201.118,462.648l-.908-4.033a1.151,1.151,0,0,0-1.154-.864H186.071a1.151,1.151,0,0,0-1.154.864l-.908,4.033Z" transform="translate(-184.009 -426.702)" fill="#837683" fill-rule="evenodd"/>
          <path id="Trazado_1175763" data-name="Trazado 1175763" d="M283.263,462.648l-.908-4.033a1.151,1.151,0,0,0-1.154-.864h-1.391a1.15,1.15,0,0,1,1.154.864l.908,4.033Z" transform="translate(-266.153 -426.702)" fill="#685e68" fill-rule="evenodd"/>
          <path id="Trazado_1175764" data-name="Trazado 1175764" d="M305.531,331.281l-3.328,3.328,19.763,20.734a1.717,1.717,0,0,0,1.178.555,1.445,1.445,0,0,0,1.149-.425l2.1-2.1a1.445,1.445,0,0,0,.425-1.149,1.717,1.717,0,0,0-.555-1.178Z" transform="translate(-285.355 -318.259)" fill="#e3a76f" fill-rule="evenodd"/>
          <path id="Trazado_1175765" data-name="Trazado 1175765" d="M319.63,331.28l-.984.984,20.734,19.763a1.717,1.717,0,0,1,.555,1.178,1.445,1.445,0,0,1-.425,1.149l.984-.984a1.445,1.445,0,0,0,.425-1.149,1.717,1.717,0,0,0-.555-1.178Z" transform="translate(-299.454 -318.258)" fill="#c48958" fill-rule="evenodd"/>
          <path id="Trazado_1175766" data-name="Trazado 1175766" d="M248.874,274.583c1.2-1.021,2.659-2.128,4.69-3.638l-7.1-7.1c-4.636,6.231-5.465,7.06-11.7,11.7l7.1,7.1c1.511-2.031,2.617-3.488,3.638-4.69A27.7,27.7,0,0,1,248.874,274.583Z" transform="translate(-227.535 -260.438)" fill="#c48958" fill-rule="evenodd"/>
          <path id="Trazado_1175767" data-name="Trazado 1175767" d="M247.451,264.832l-.984-.984c-4.635,6.231-5.465,7.06-11.7,11.7l.984.984C241.986,271.892,242.815,271.063,247.451,264.832Z" transform="translate(-227.535 -260.438)" fill="#ab7448" fill-rule="evenodd"/>
          <path id="Trazado_1175768" data-name="Trazado 1175768" d="M306.921,240.273l-1.682,1.682a1.193,1.193,0,0,0,0,1.682l8.15,8.15a1.193,1.193,0,0,0,1.682,0l1.682-1.682a1.193,1.193,0,0,0,0-1.682l-8.15-8.15a1.192,1.192,0,0,0-1.681,0Z" transform="translate(-287.661 -239.926)" fill="#e3a76f" fill-rule="evenodd"/>
          <path id="Trazado_1175769" data-name="Trazado 1175769" d="M313.206,240.273l-.984.984a1.192,1.192,0,0,1,1.681,0l8.15,8.15a1.193,1.193,0,0,1,0,1.682l.984-.984a1.193,1.193,0,0,0,0-1.682l-8.15-8.15A1.192,1.192,0,0,0,313.206,240.273Z" transform="translate(-293.946 -239.926)" fill="#c48958" fill-rule="evenodd"/>
          <path id="Trazado_1175770" data-name="Trazado 1175770" d="M212.879,334.315,211.2,336a1.193,1.193,0,0,0,0,1.681l8.15,8.15a1.192,1.192,0,0,0,1.682,0l1.682-1.682a1.193,1.193,0,0,0,0-1.682l-8.15-8.15A1.193,1.193,0,0,0,212.879,334.315Z" transform="translate(-207.024 -320.563)" fill="#e3a76f" fill-rule="evenodd"/>
          <path id="Trazado_1175771" data-name="Trazado 1175771" d="M221.028,352.112l.984-.984a1.192,1.192,0,0,1-1.681,0l-8.15-8.15a1.193,1.193,0,0,1,0-1.682l-.984.984a1.193,1.193,0,0,0,0,1.682l8.15,8.15A1.192,1.192,0,0,0,221.028,352.112Z" transform="translate(-207.024 -326.847)" fill="#c48958" fill-rule="evenodd"/>
        </g>
      </g>
      <path id="Trazado_1175772" data-name="Trazado 1175772" d="M91.5,68.227a.618.618,0,0,0-.2-.416L72.523,49.936c-.627.582-1.217,1.172-1.8,1.8L88.605,70.5a.578.578,0,0,0,.417.2.3.3,0,0,0,.276-.093l2.1-2.1a.313.313,0,0,0,.094-.278Zm-14.91-7.033v7.813H69.192l-.707-3.143a2.28,2.28,0,0,0-2.266-1.753H53.235a2.283,2.283,0,0,0-2.267,1.753l-.707,3.143H31.371V9.734l29.888.156v9.754a1.141,1.141,0,0,0,1.749.965l4.055-2.561,3.679,2.48a1.141,1.141,0,0,0,1.779-.945V9.948l4.065.022V37.412l-3.668-3.668a2.331,2.331,0,0,0-3.294,0l-1.682,1.682a2.331,2.331,0,0,0-.051,3.237A34.144,34.144,0,0,1,59.457,47.1a2.331,2.331,0,0,0-3.237.051l-1.682,1.682a2.332,2.332,0,0,0,0,3.294l8.149,8.149a2.332,2.332,0,0,0,3.295,0l1.682-1.682a2.331,2.331,0,0,0,.053-3.236c.522-.686,1.017-1.311,1.5-1.893Zm-9.731,7.813L66.267,66.4a.137.137,0,0,0-.048-.007H53.235a.137.137,0,0,0-.048.007L52.6,69.007ZM63.54,17.574l2.932-1.853a1.144,1.144,0,0,1,1.247.018l2.52,1.7v-7.5L63.54,9.9ZM74.248,48.429c.586-.485,1.213-.981,1.9-1.507a2.356,2.356,0,0,0,.436.321v3.412ZM71.305,35.356a.046.046,0,0,0-.035-.013.048.048,0,0,0-.034.013l-1.681,1.682a.053.053,0,0,0,0,.068L77.7,45.256a.052.052,0,0,0,.069,0l1.68-1.682a.051.051,0,0,0,0-.068Zm-13.4,13.4a.053.053,0,0,0-.069,0l-1.682,1.681a.054.054,0,0,0,0,.068L64.3,58.659a.052.052,0,0,0,.069,0l1.682-1.681a.055.055,0,0,0,0-.07ZM74.52,45.3a40.449,40.449,0,0,0-8.428,8.429l-5-5a35.5,35.5,0,0,0,8.427-8.427ZM38.818,7.492V2.281H84.033V57.749l-5.167-4.92V47.258a2.273,2.273,0,0,0,.519-.389l1.682-1.68a2.333,2.333,0,0,0,0-3.294l-2.2-2.2V8.836A1.139,1.139,0,0,0,77.734,7.7Zm54.2,62.627-2.1,2.1a2.551,2.551,0,0,1-1.849.763c-.054,0-.114,0-.168,0a2.858,2.858,0,0,1-1.94-.908l-8.087-8.484v6.561a1.141,1.141,0,0,1-1.14,1.14h-47.5a1.14,1.14,0,0,1-1.14-1.14V8.587a1.141,1.141,0,0,1,1.14-1.14h.006l6.3.033V1.14A1.14,1.14,0,0,1,37.677,0h47.5a1.139,1.139,0,0,1,1.14,1.14V59.921l6.547,6.238a2.871,2.871,0,0,1,.914,1.941,2.594,2.594,0,0,1-.76,2.019ZM39.924,20.493H51.443a1.14,1.14,0,0,0,0-2.281H39.924a1.14,1.14,0,0,0,0,2.281ZM51.443,59.634H39.924a1.14,1.14,0,1,0,0,2.281H51.443a1.14,1.14,0,1,0,0-2.281Zm0-8.283H39.924a1.14,1.14,0,0,0,0,2.281H51.443a1.14,1.14,0,0,0,0-2.281Zm0-8.285H39.924a1.14,1.14,0,0,0,0,2.281H51.443a1.14,1.14,0,0,0,0-2.281Zm10.792-7.144a1.14,1.14,0,0,0-1.14-1.14H39.924a1.14,1.14,0,0,0,0,2.281h21.17a1.14,1.14,0,0,0,1.14-1.14ZM38.784,27.638a1.14,1.14,0,0,0,1.14,1.14H68.035a1.14,1.14,0,0,0,0-2.281H39.924A1.14,1.14,0,0,0,38.784,27.638Z" transform="translate(0)" fill-rule="evenodd"/>
    </g>
  </g>
</svg>
