<svg xmlns="http://www.w3.org/2000/svg" xmlns:xlink="http://www.w3.org/1999/xlink" width="108" height="108" viewBox="0 0 108 108">
  <defs>
    <filter id="Trazado_978624" x="0" y="0" width="108" height="108" filterUnits="userSpaceOnUse">
      <feOffset dy="3" input="SourceAlpha"/>
      <feGaussianBlur stdDeviation="3" result="blur"/>
      <feFlood flood-opacity="0.161"/>
      <feComposite operator="in" in2="blur"/>
      <feComposite in="SourceGraphic"/>
    </filter>
    <filter id="Trazado_1076716" x="0" y="0" width="108" height="108" filterUnits="userSpaceOnUse">
      <feOffset dy="3" input="SourceAlpha"/>
      <feGaussianBlur stdDeviation="3" result="blur-2"/>
      <feFlood flood-opacity="0.161"/>
      <feComposite operator="in" in2="blur-2"/>
      <feComposite in="SourceGraphic"/>
    </filter>
  </defs>
  <g id="Grupo_1221943" data-name="Grupo 1221943" transform="translate(-616 -498)">
    <g id="Grupo_1219855" data-name="Grupo 1219855" transform="translate(625 504)">
      <g id="Grupo_1215980" data-name="Grupo 1215980" transform="translate(0)">
        <g id="Grupo_1208503" data-name="Grupo 1208503">
          <g id="Grupo_1200660" data-name="Grupo 1200660">
            <g id="Grupo_1181203" data-name="Grupo 1181203">
              <g id="Grupo_1172348" data-name="Grupo 1172348">
                <g id="Grupo_1171897" data-name="Grupo 1171897">
                  <g id="Grupo_1171052" data-name="Grupo 1171052">
                    <g id="Grupo_1164581" data-name="Grupo 1164581">
                      <g id="Grupo_1144123" data-name="Grupo 1144123">
                        <g transform="matrix(1, 0, 0, 1, -9, -6)" filter="url(#Trazado_978624)">
                          <g id="Trazado_978624-2" data-name="Trazado 978624" transform="translate(9 6)" fill="#f7f5f3">
                            <path d="M 45 88.5 C 39.12687683105469 88.5 33.43022537231445 87.35007476806641 28.06830024719238 85.08217620849609 C 22.88852500915527 82.89131164550781 18.23629951477051 79.75458526611328 14.2408504486084 75.75914764404297 C 10.24541282653809 71.76370239257812 7.108687400817871 67.11147308349609 4.917825222015381 61.93170166015625 C 2.649924993515015 56.56977462768555 1.5 50.87312316894531 1.5 45 C 1.5 39.12687683105469 2.649924993515015 33.43022537231445 4.917825222015381 28.06830024719238 C 7.108687400817871 22.88852500915527 10.24541282653809 18.23629951477051 14.2408504486084 14.2408504486084 C 18.23629951477051 10.24541282653809 22.88852500915527 7.108687400817871 28.06830024719238 4.917825222015381 C 33.43022537231445 2.649924993515015 39.12687683105469 1.5 45 1.5 C 50.87312316894531 1.5 56.56977462768555 2.649924993515015 61.93170166015625 4.917825222015381 C 67.11147308349609 7.108687400817871 71.76370239257812 10.24541282653809 75.75914764404297 14.2408504486084 C 79.75458526611328 18.23629951477051 82.89131164550781 22.88852500915527 85.08217620849609 28.06830024719238 C 87.35007476806641 33.43022537231445 88.5 39.12687683105469 88.5 45 C 88.5 50.87312316894531 87.35007476806641 56.56977462768555 85.08217620849609 61.93170166015625 C 82.89131164550781 67.11147308349609 79.75458526611328 71.76370239257812 75.75914764404297 75.75914764404297 C 71.76370239257812 79.75458526611328 67.11147308349609 82.89131164550781 61.93170166015625 85.08217620849609 C 56.56977462768555 87.35007476806641 50.87312316894531 88.5 45 88.5 Z" stroke="none"/>
                            <path d="M 45 3 C 39.32871246337891 3 33.82865524291992 4.110054016113281 28.65262985229492 6.299339294433594 C 23.65165710449219 8.414573669433594 19.15968322753906 11.44334411621094 15.301513671875 15.301513671875 C 11.44334411621094 19.15968322753906 8.414573669433594 23.65165710449219 6.299339294433594 28.65262985229492 C 4.110054016113281 33.82865524291992 3 39.32871246337891 3 45 C 3 50.67128753662109 4.110054016113281 56.17134475708008 6.299339294433594 61.34737396240234 C 8.414573669433594 66.34834289550781 11.44334411621094 70.84031677246094 15.301513671875 74.698486328125 C 19.15968322753906 78.55665588378906 23.65165710449219 81.58542633056641 28.65262985229492 83.70066070556641 C 33.82865524291992 85.88994598388672 39.32871246337891 87 45 87 C 50.67128753662109 87 56.17134475708008 85.88994598388672 61.34737396240234 83.70066070556641 C 66.34834289550781 81.58542633056641 70.84031677246094 78.55665588378906 74.698486328125 74.698486328125 C 78.55665588378906 70.84031677246094 81.58542633056641 66.34834289550781 83.70066070556641 61.34737396240234 C 85.88994598388672 56.17134475708008 87 50.67128753662109 87 45 C 87 39.32871246337891 85.88994598388672 33.82865524291992 83.70066070556641 28.65262985229492 C 81.58542633056641 23.65165710449219 78.55665588378906 19.15968322753906 74.698486328125 15.301513671875 C 70.84031677246094 11.44334411621094 66.34834289550781 8.414573669433594 61.34737396240234 6.299339294433594 C 56.17134475708008 4.110054016113281 50.67128753662109 3 45 3 M 45 0 C 69.85281372070312 0 90 20.14718627929688 90 45 C 90 69.85281372070312 69.85281372070312 90 45 90 C 20.14718627929688 90 0 69.85281372070312 0 45 C 0 20.14718627929688 20.14718627929688 0 45 0 Z" stroke="none" fill="#bca78f"/>
                          </g>
                        </g>
                        <g transform="matrix(1, 0, 0, 1, -9, -6)" filter="url(#Trazado_1076716)">
                          <g id="Trazado_1076716-2" data-name="Trazado 1076716" transform="translate(9 6)" fill="#f7f5f3">
                            <path d="M 45 88.5 C 39.12687683105469 88.5 33.43022537231445 87.35007476806641 28.06830024719238 85.08217620849609 C 22.88852500915527 82.89131164550781 18.23629951477051 79.75458526611328 14.2408504486084 75.75914764404297 C 10.24541282653809 71.76370239257812 7.108687400817871 67.11147308349609 4.917825222015381 61.93170166015625 C 2.649924993515015 56.56977462768555 1.5 50.87312316894531 1.5 45 C 1.5 39.12687683105469 2.649924993515015 33.43022537231445 4.917825222015381 28.06830024719238 C 7.108687400817871 22.88852500915527 10.24541282653809 18.23629951477051 14.2408504486084 14.2408504486084 C 18.23629951477051 10.24541282653809 22.88852500915527 7.108687400817871 28.06830024719238 4.917825222015381 C 33.43022537231445 2.649924993515015 39.12687683105469 1.5 45 1.5 C 50.87312316894531 1.5 56.56977462768555 2.649924993515015 61.93170166015625 4.917825222015381 C 67.11147308349609 7.108687400817871 71.76370239257812 10.24541282653809 75.75914764404297 14.2408504486084 C 79.75458526611328 18.23629951477051 82.89131164550781 22.88852500915527 85.08217620849609 28.06830024719238 C 87.35007476806641 33.43022537231445 88.5 39.12687683105469 88.5 45 C 88.5 50.87312316894531 87.35007476806641 56.56977462768555 85.08217620849609 61.93170166015625 C 82.89131164550781 67.11147308349609 79.75458526611328 71.76370239257812 75.75914764404297 75.75914764404297 C 71.76370239257812 79.75458526611328 67.11147308349609 82.89131164550781 61.93170166015625 85.08217620849609 C 56.56977462768555 87.35007476806641 50.87312316894531 88.5 45 88.5 Z" stroke="none"/>
                            <path d="M 45 3 C 39.32871246337891 3 33.82865524291992 4.110054016113281 28.65262985229492 6.299339294433594 C 23.65165710449219 8.414573669433594 19.15968322753906 11.44334411621094 15.301513671875 15.301513671875 C 11.44334411621094 19.15968322753906 8.414573669433594 23.65165710449219 6.299339294433594 28.65262985229492 C 4.110054016113281 33.82865524291992 3 39.32871246337891 3 45 C 3 50.67128753662109 4.110054016113281 56.17134475708008 6.299339294433594 61.34737396240234 C 8.414573669433594 66.34834289550781 11.44334411621094 70.84031677246094 15.301513671875 74.698486328125 C 19.15968322753906 78.55665588378906 23.65165710449219 81.58542633056641 28.65262985229492 83.70066070556641 C 33.82865524291992 85.88994598388672 39.32871246337891 87 45 87 C 50.67128753662109 87 56.17134475708008 85.88994598388672 61.34737396240234 83.70066070556641 C 66.34834289550781 81.58542633056641 70.84031677246094 78.55665588378906 74.698486328125 74.698486328125 C 78.55665588378906 70.84031677246094 81.58542633056641 66.34834289550781 83.70066070556641 61.34737396240234 C 85.88994598388672 56.17134475708008 87 50.67128753662109 87 45 C 87 39.32871246337891 85.88994598388672 33.82865524291992 83.70066070556641 28.65262985229492 C 81.58542633056641 23.65165710449219 78.55665588378906 19.15968322753906 74.698486328125 15.301513671875 C 70.84031677246094 11.44334411621094 66.34834289550781 8.414573669433594 61.34737396240234 6.299339294433594 C 56.17134475708008 4.110054016113281 50.67128753662109 3 45 3 M 45 0 C 69.85281372070312 0 90 20.14718627929688 90 45 C 90 69.85281372070312 69.85281372070312 90 45 90 C 20.14718627929688 90 0 69.85281372070312 0 45 C 0 20.14718627929688 20.14718627929688 0 45 0 Z" stroke="none" fill="#bca78f"/>
                          </g>
                        </g>
                      </g>
                    </g>
                  </g>
                </g>
              </g>
            </g>
          </g>
        </g>
      </g>
    </g>
    <g id="abogado_7_" data-name="abogado (7)" transform="translate(616.876 516.863)">
      <g id="Grupo_1221941" data-name="Grupo 1221941" transform="translate(14.436 1.13)">
        <g id="Grupo_1221907" data-name="Grupo 1221907" transform="translate(17.142 11.238)">
          <g id="Grupo_1221906" data-name="Grupo 1221906">
            <path id="Trazado_1175558" data-name="Trazado 1175558" d="M147.815,108.4l-.21-.248a14.064,14.064,0,0,1-3.333-9.088V91.352a6.11,6.11,0,0,1,6.1-6.1v-.3h-4.641a6.965,6.965,0,0,1-5.621-2.855v7.294a1.521,1.521,0,0,1-1,1.419,6.965,6.965,0,0,0-3.043,10.82,6.963,6.963,0,0,0-1.027,6.772Z" transform="translate(-134.585 -82.093)" fill="#685e68"/>
          </g>
        </g>
        <g id="Grupo_1221908" data-name="Grupo 1221908" transform="translate(21.168)">
          <path id="Trazado_1175559" data-name="Trazado 1175559" d="M204.776,33.977a6.968,6.968,0,0,0-4.525-6.526,1.521,1.521,0,0,1-1-1.419V24a16.5,16.5,0,0,0-16.5-16.5H168.434a7.122,7.122,0,1,0,0,14.243h4.641v.151h15.911a6.11,6.11,0,0,1,6.1,6.1v7.709a14.008,14.008,0,0,1-3.844,9.649v4.176h6.563a6.965,6.965,0,0,0,5.484-11.261A6.934,6.934,0,0,0,204.776,33.977Z" transform="translate(-161.312 -7.5)" fill="#554e56"/>
        </g>
        <g id="Grupo_1221909" data-name="Grupo 1221909" transform="translate(34.723)">
          <path id="Trazado_1175560" data-name="Trazado 1175560" d="M281.189,33.977a6.968,6.968,0,0,0-4.525-6.526,1.521,1.521,0,0,1-1-1.419V24a16.5,16.5,0,0,0-16.5-16.5H251.28a16.5,16.5,0,0,1,16.4,14.674A6.254,6.254,0,0,1,271.653,28v7.709a14.161,14.161,0,0,1-3.989,9.87l-.006,3.955h6.563a6.965,6.965,0,0,0,5.484-11.261A6.934,6.934,0,0,0,281.189,33.977Z" transform="translate(-251.28 -7.5)" fill="#433f43"/>
        </g>
        <g id="Grupo_1221911" data-name="Grupo 1221911" transform="translate(46.533 43.937)">
          <g id="Grupo_1221910" data-name="Grupo 1221910">
            <path id="Trazado_1175561" data-name="Trazado 1175561" d="M348.347,304.44l-13.157-5.306,6.093,10.845a.6.6,0,0,1-.525.9h-7.917l6.659,4.162a.6.6,0,0,1,.172.859l-10,14.128v.048h22.075a2.26,2.26,0,0,0,2.26-2.26V312.823A9.039,9.039,0,0,0,348.347,304.44Z" transform="translate(-329.671 -299.134)" fill="#0055a3"/>
          </g>
        </g>
        <g id="Grupo_1221913" data-name="Grupo 1221913" transform="translate(52.052 43.937)">
          <g id="Grupo_1221912" data-name="Grupo 1221912">
            <path id="Trazado_1175562" data-name="Trazado 1175562" d="M379.462,304.44l-13.157-5.306,2.526,4.5,5.931,2.392a9.039,9.039,0,0,1,5.659,8.384V329.4a2.255,2.255,0,0,1-.1.678h2.544a2.26,2.26,0,0,0,2.26-2.26V312.823A9.039,9.039,0,0,0,379.462,304.44Z" transform="translate(-366.305 -299.134)" fill="#004281"/>
          </g>
        </g>
        <g id="Grupo_1221917" data-name="Grupo 1221917" transform="translate(34.753 54.091)">
          <g id="Grupo_1221914" data-name="Grupo 1221914" transform="translate(6.134)">
            <path id="Trazado_1175563" data-name="Trazado 1175563" d="M307.749,372.154l-9-5.623L292.3,386.5l-.106.818h5.8l9.973-14.089A.753.753,0,0,0,307.749,372.154Z" transform="translate(-292.195 -366.531)" fill="#0573ce"/>
          </g>
          <g id="Grupo_1221915" data-name="Grupo 1221915" transform="translate(8.956)">
            <path id="Trazado_1175564" data-name="Trazado 1175564" d="M323.658,372.154l-9-5.623-.938,2.9,6.16,3.85a.753.753,0,0,1,.216,1.074l-9.173,12.959H313.9l9.973-14.089A.753.753,0,0,0,323.658,372.154Z" transform="translate(-310.926 -366.531)" fill="#0067c5"/>
          </g>
          <g id="Grupo_1221916" data-name="Grupo 1221916" transform="translate(0 3.186)">
            <path id="Trazado_1175565" data-name="Trazado 1175565" d="M252.082,404.523a.6.6,0,0,1-.6.6v.151h6.134l-.03-.527-5.5-17.073Z" transform="translate(-251.479 -387.676)" fill="#0067c5"/>
          </g>
        </g>
        <g id="Grupo_1221918" data-name="Grupo 1221918" transform="translate(46.882 41.67)">
          <path id="Trazado_1175566" data-name="Trazado 1175566" d="M343.382,297.123l-7.325-13.039v7.507a.593.593,0,0,1-.185.435.618.618,0,0,1-.421.169h0a.6.6,0,0,1-.345-.112l-.751-.531a.15.15,0,0,0-.23.077l-2.138,6.616h10.738a.753.753,0,0,0,.657-1.122Z" transform="translate(-331.987 -284.084)" fill="#0573ce"/>
        </g>
        <g id="Grupo_1221919" data-name="Grupo 1221919" transform="translate(50.951 41.67)">
          <path id="Trazado_1175567" data-name="Trazado 1175567" d="M366.322,297.123,359,284.084v5.628l4.164,7.411a.753.753,0,0,1-.657,1.122h3.162A.753.753,0,0,0,366.322,297.123Z" transform="translate(-358.997 -284.084)" fill="#0067c5"/>
        </g>
        <g id="Grupo_1221920" data-name="Grupo 1221920" transform="translate(35.355 45.536)">
          <path id="Trazado_1175568" data-name="Trazado 1175568" d="M264.279,309.751l-3,6.243a.3.3,0,0,1-.543,0l-3-6.243-2.262,1.6v10.618l5.532,17.123,8.324-25.767Z" transform="translate(-255.478 -309.751)" fill="#fff"/>
        </g>
        <g id="Grupo_1221922" data-name="Grupo 1221922" transform="translate(39.594 45.537)">
          <g id="Grupo_1221921" data-name="Grupo 1221921">
            <path id="Trazado_1175569" data-name="Trazado 1175569" d="M288.174,309.752l-1.336,2.781,2.4,1.7a1.507,1.507,0,0,1,.564,1.693l-6.192,19.166,1.293,4,8.324-25.767Z" transform="translate(-283.611 -309.752)" fill="#f9f3f1"/>
          </g>
        </g>
        <g id="Grupo_1221923" data-name="Grupo 1221923" transform="translate(35.355 41.175)">
          <path id="Trazado_1175570" data-name="Trazado 1175570" d="M255.479,280.8v6.146l2.2-1.558Z" transform="translate(-255.479 -280.8)" fill="#f9f3f1"/>
        </g>
        <g id="Grupo_1221924" data-name="Grupo 1221924" transform="translate(44.12 37.855)">
          <path id="Trazado_1175571" data-name="Trazado 1175571" d="M315.937,262.046l-.2.133-2.086,4.344.1.149,5.7,4.029a.753.753,0,0,0,1.188-.615V258.765A14.122,14.122,0,0,1,315.937,262.046Z" transform="translate(-313.654 -258.765)" fill="#f9f3f1"/>
        </g>
        <g id="Grupo_1221925" data-name="Grupo 1221925" transform="translate(44.12 37.855)">
          <path id="Trazado_1175572" data-name="Trazado 1175572" d="M318.188,260.823v5.269a.753.753,0,0,1-1.188.615l-2.564-1.813-.782,1.629.1.149,5.7,4.029a.753.753,0,0,0,1.188-.615V258.765A14.151,14.151,0,0,1,318.188,260.823Z" transform="translate(-313.654 -258.765)" fill="#f3eae6"/>
        </g>
        <g id="Grupo_1221926" data-name="Grupo 1221926" transform="translate(35.355 41.118)">
          <path id="Trazado_1175573" data-name="Trazado 1175573" d="M261.01,281.57a13.981,13.981,0,0,1-5.532-1.135v.045l5.124,10.67a.452.452,0,0,0,.815,0l5.151-10.727A13.977,13.977,0,0,1,261.01,281.57Z" transform="translate(-255.478 -280.423)" fill="#a44f3e"/>
        </g>
        <g id="Grupo_1221929" data-name="Grupo 1221929" transform="translate(21.085 21.713)">
          <g id="Grupo_1221927" data-name="Grupo 1221927">
            <path id="Trazado_1175574" data-name="Trazado 1175574" d="M166.5,158.115v-6.493h-.825a4.919,4.919,0,0,0,0,9.837H166.9A14.032,14.032,0,0,1,166.5,158.115Z" transform="translate(-160.758 -151.622)" fill="#bb5d4c"/>
          </g>
          <g id="Grupo_1221928" data-name="Grupo 1221928" transform="translate(33.458)">
            <path id="Trazado_1175575" data-name="Trazado 1175575" d="M384.1,151.622h-.858v6.493a14.041,14.041,0,0,1-.4,3.344H384.1a4.919,4.919,0,0,0,0-9.837Z" transform="translate(-382.836 -151.622)" fill="#a44f3e"/>
          </g>
        </g>
        <path id="Trazado_1175576" data-name="Trazado 1175576" d="M220.045,102.041H204.134a6.254,6.254,0,0,0-6.254,6.254V116a14.154,14.154,0,0,0,3.5,9.336h4.577a.6.6,0,0,1,.6.6V129.1A14.217,14.217,0,0,0,226.3,116v-7.709A6.254,6.254,0,0,0,220.045,102.041Z" transform="translate(-171.202 -87.798)" fill="#c96e59"/>
        <g id="Grupo_1221930" data-name="Grupo 1221930" transform="translate(39.201 14.243)">
          <path id="Trazado_1175577" data-name="Trazado 1175577" d="M290.647,102.041h-2.939a6.356,6.356,0,0,1,4.673,6.128V116a14.442,14.442,0,0,1-11.376,14.111A14.212,14.212,0,0,0,296.9,116v-7.709A6.254,6.254,0,0,0,290.647,102.041Z" transform="translate(-281.006 -102.041)" fill="#bb5d4c"/>
        </g>
        <g id="Grupo_1221938" data-name="Grupo 1221938" transform="translate(0 37.392)">
          <path id="Trazado_1175578" data-name="Trazado 1175578" d="M84.86,255.69h-28.8a.753.753,0,0,0-.753.753v19.934h2.371a2.349,2.349,0,0,1,2.369,2.239,2.309,2.309,0,0,1-1.206,2.1,2.31,2.31,0,0,1,0,4.059,2.31,2.31,0,0,1,0,4.059,2.309,2.309,0,0,1,1.206,2.1,2.349,2.349,0,0,1-2.369,2.239H84.86a.753.753,0,0,0,.753-.753V256.443A.753.753,0,0,0,84.86,255.69Z" transform="translate(-50.107 -255.69)" fill="#f9f3f1"/>
          <g id="Grupo_1221931" data-name="Grupo 1221931" transform="translate(30.036 0)">
            <path id="Trazado_1175579" data-name="Trazado 1175579" d="M224.89,255.69h-4.716a.753.753,0,0,1,.753.753v35.979a.753.753,0,0,1-.753.753h4.716a.753.753,0,0,0,.753-.753V256.443A.753.753,0,0,0,224.89,255.69Z" transform="translate(-220.174 -255.69)" fill="#f3eae6"/>
          </g>
          <g id="Grupo_1221934" data-name="Grupo 1221934" transform="translate(0 20.688)">
            <g id="Grupo_1221933" data-name="Grupo 1221933">
              <g id="Grupo_1221932" data-name="Grupo 1221932">
                <path id="Trazado_1175580" data-name="Trazado 1175580" d="M30.744,403.434a2.309,2.309,0,0,1-1.207,2.03,2.309,2.309,0,0,1,1.206,2.1,2.349,2.349,0,0,1-2.369,2.239h-3.7a3.866,3.866,0,0,1-3.866-3.866v-9.066a3.866,3.866,0,0,1,3.866-3.866h3.7a2.349,2.349,0,0,1,2.369,2.239,2.309,2.309,0,0,1-1.206,2.1,2.31,2.31,0,0,1,0,4.059A2.309,2.309,0,0,1,30.744,403.434Z" transform="translate(-20.805 -393.005)" fill="#c96e59"/>
              </g>
            </g>
          </g>
          <g id="Grupo_1221935" data-name="Grupo 1221935" transform="translate(4.19 20.688)">
            <path id="Trazado_1175581" data-name="Trazado 1175581" d="M54.365,403.434a2.309,2.309,0,0,0-1.207-2.03,2.31,2.31,0,0,0,0-4.059,2.309,2.309,0,0,0,1.206-2.1,2.349,2.349,0,0,0-2.369-2.239H48.616a4.157,4.157,0,0,1,1.943,3.52v9.758a4.157,4.157,0,0,1-1.943,3.52h3.379a2.349,2.349,0,0,0,2.369-2.239,2.309,2.309,0,0,0-1.206-2.1A2.31,2.31,0,0,0,54.365,403.434Z" transform="translate(-48.616 -393.006)" fill="#bb5d4c"/>
          </g>
          <g id="Grupo_1221936" data-name="Grupo 1221936" transform="translate(23.799 26.206)">
            <circle id="Elipse_14442" data-name="Elipse 14442" cx="2.898" cy="2.898" r="2.898" fill="#d8aa5e"/>
          </g>
          <g id="Grupo_1221937" data-name="Grupo 1221937" transform="translate(25.585 26.206)">
            <path id="Trazado_1175582" data-name="Trazado 1175582" d="M191.738,429.635a2.886,2.886,0,0,0-1.113.222,2.9,2.9,0,0,1,0,5.352,2.9,2.9,0,1,0,1.113-5.574Z" transform="translate(-190.625 -429.635)" fill="#c99c56"/>
          </g>
        </g>
        <g id="Grupo_1221939" data-name="Grupo 1221939" transform="translate(57.591 64.265)">
          <path id="Trazado_1175583" data-name="Trazado 1175583" d="M406.022,434.148l-2.767,2.011a.452.452,0,0,0-.164.505l1.057,3.253a.452.452,0,0,0,.43.312H408a.452.452,0,0,0,.43-.312l1.057-3.253a.452.452,0,0,0-.164-.505l-2.767-2.011A.452.452,0,0,0,406.022,434.148Z" transform="translate(-403.068 -434.062)" fill="#d8aa5e"/>
        </g>
        <g id="Grupo_1221940" data-name="Grupo 1221940" transform="translate(59.695 64.265)">
          <path id="Trazado_1175584" data-name="Trazado 1175584" d="M421.182,436.159l-2.767-2.011a.452.452,0,0,0-.531,0l-.85.617,1.918,1.393a.452.452,0,0,1,.164.505l-1.057,3.253a.452.452,0,0,1-.43.312h2.23a.452.452,0,0,0,.43-.312l1.057-3.253A.452.452,0,0,0,421.182,436.159Z" transform="translate(-417.034 -434.062)" fill="#c99c56"/>
        </g>
      </g>
      <g id="Grupo_1221942" data-name="Grupo 1221942" transform="translate(13.306 0)">
        <path id="Trazado_1175585" data-name="Trazado 1175585" d="M80.067,49.325,67.586,44.291H72.1a8.106,8.106,0,0,0,8.1-8.1A8,8,0,0,0,78.965,31.9,8,8,0,0,0,80.2,27.607a8.134,8.134,0,0,0-5.259-7.584.392.392,0,0,1-.268-.361V17.631A17.651,17.651,0,0,0,57.04,0H42.726a8.247,8.247,0,0,0-6.751,12.99v6.672a.392.392,0,0,1-.268.361,8.125,8.125,0,0,0-3.348,2.361,1.13,1.13,0,1,0,1.726,1.459,5.861,5.861,0,0,1,2.414-1.7,2.666,2.666,0,0,0,1.736-2.477v-4.5a8.2,8.2,0,0,0,3.85,1.31,7.355,7.355,0,0,0-2.1,5.151v.105a6.048,6.048,0,0,0,.456,12.078h.215a15.389,15.389,0,0,0,1.617,3.582H32.833A5.816,5.816,0,0,1,33.949,32.6a1.13,1.13,0,0,0,0-1.394,5.8,5.8,0,0,1-1.224-3.157,1.13,1.13,0,0,0-2.254.168A8.043,8.043,0,0,0,31.68,31.9a8.057,8.057,0,0,0-1.142,5.492H20.387A1.885,1.885,0,0,0,18.5,39.275v6.977a1.13,1.13,0,0,0,2.26,0v-6.6H48.812V74.877H25.288A3.318,3.318,0,0,0,25.5,73.8a3.433,3.433,0,0,0-.66-2.136,3.441,3.441,0,0,0,0-4.058,3.441,3.441,0,0,0,0-4.058,3.432,3.432,0,0,0,.66-2.136,3.3,3.3,0,0,0-.035-.388H44.793a1.13,1.13,0,1,0,0-2.26H24.782a1.124,1.124,0,0,0-.527.131A3.517,3.517,0,0,0,22,58.079H20.764V51.525a1.13,1.13,0,1,0-2.26,0v6.554h-.2a5,5,0,0,0-5,5v9.066a5,5,0,0,0,5,5H72.77a1.13,1.13,0,0,0,0-2.26H63.3l8.711-12.306a1.883,1.883,0,0,0-.539-2.685l-2.872-1.8h3.452A1.883,1.883,0,0,0,73.7,55.285l-4.425-7.877,9.95,4.013a7.875,7.875,0,0,1,4.951,7.336V73.747a1.131,1.131,0,0,1-1.13,1.13h-5a1.13,1.13,0,1,0,0,2.26h5a3.394,3.394,0,0,0,3.39-3.39V58.756a10.125,10.125,0,0,0-6.366-9.431ZM36.651,27.762A3.794,3.794,0,0,1,39.984,24v5.336A15.323,15.323,0,0,0,40.14,31.5c0,.013,0,.025,0,.038A3.793,3.793,0,0,1,36.651,27.762ZM22.627,68.6a1.18,1.18,0,0,1,0,2.075,1.13,1.13,0,0,0,0,1.985,1.178,1.178,0,0,1,.617,1.074A1.22,1.22,0,0,1,22,74.877H18.3a2.739,2.739,0,0,1-2.736-2.736V63.075A2.739,2.739,0,0,1,18.3,60.339H22a1.22,1.22,0,0,1,1.239,1.143,1.177,1.177,0,0,1-.617,1.074,1.13,1.13,0,0,0,0,1.985,1.18,1.18,0,0,1,0,2.075,1.13,1.13,0,0,0,0,1.985ZM36.734,8.252A6,6,0,0,1,42.726,2.26H57.04A15.389,15.389,0,0,1,72.411,17.631v2.031a2.666,2.666,0,0,0,1.736,2.477,5.864,5.864,0,0,1,3.791,5.468A5.777,5.777,0,0,1,76.7,31.2a1.13,1.13,0,0,0,0,1.394,5.776,5.776,0,0,1,1.242,3.6A5.844,5.844,0,0,1,72.1,42.032H66.668V39.646A15.348,15.348,0,0,0,70,33.81h.245a6.048,6.048,0,0,0,.423-12.08v-.1a7.392,7.392,0,0,0-7.384-7.384H58.21a6,6,0,0,1-5.992-5.992,1.13,1.13,0,1,0-2.26,0,8.227,8.227,0,0,0,2.587,5.992H51.008a6,6,0,0,1-5.992-5.992,1.13,1.13,0,1,0-2.26,0,8.222,8.222,0,0,0,2.59,5.992h-2.62a6,6,0,0,1-5.992-5.992ZM70.5,31.54a15.389,15.389,0,0,0,.158-2.2V24A3.788,3.788,0,0,1,70.5,31.54Zm-9.823,2.727a1.129,1.129,0,0,0-1.238,1.01,1.762,1.762,0,0,1-1.737,1.569H52.94A1.762,1.762,0,0,1,51.2,35.277a1.13,1.13,0,0,0-2.248.229,4,4,0,0,0,.749,1.96,1.873,1.873,0,0,0-.515-.074H45.021a13.084,13.084,0,0,1-2.778-8.056V21.627A5.13,5.13,0,0,1,47.367,16.5H63.278A5.129,5.129,0,0,1,68.4,21.627v7.709a13.081,13.081,0,0,1-17.33,12.37V39.275a1.869,1.869,0,0,0-.138-.7,4,4,0,0,0,2.006.536h4.765a3.994,3.994,0,0,0,3.985-3.6,1.13,1.13,0,0,0-1.01-1.238Zm3.727,7.421v7.891l-4.325-3.058,1.536-3.2A15.337,15.337,0,0,0,64.408,41.688Zm-5.772,2.626-3.313,6.9-3.312-6.9a15.418,15.418,0,0,0,6.625,0ZM51.072,74.877V66.524l2.7,8.353Zm0-15.7V47.581L53.9,53.464a1.582,1.582,0,0,0,2.852,0l2.342-4.876,3.177,2.246-6.945,21.5ZM69.94,61.591l-9.4,13.286h-3.66L62.3,58.09H64.34Zm1.472-5.76H63.028l1.2-3.724a1.884,1.884,0,0,0,2.436-1.8V47.386Z" transform="translate(-13.306 0)"/>
        <path id="Trazado_1175586" data-name="Trazado 1175586" d="M271.973,161.313a1.13,1.13,0,0,0-1.13,1.13v.877a3.587,3.587,0,0,0,1.13,6.992,1.13,1.13,0,1,0,0-2.26,1.327,1.327,0,0,1-.285-2.623,1.782,1.782,0,0,0,1.415-1.748v-1.238A1.13,1.13,0,0,0,271.973,161.313Z" transform="translate(-229.956 -137.01)"/>
        <path id="Trazado_1175587" data-name="Trazado 1175587" d="M244.449,151.867a1.13,1.13,0,0,0-1.13,1.13v2.221a1.13,1.13,0,1,0,2.26,0V153A1.13,1.13,0,0,0,244.449,151.867Z" transform="translate(-208.666 -128.987)"/>
        <path id="Trazado_1175588" data-name="Trazado 1175588" d="M328.331,155.218V153a1.13,1.13,0,1,0-2.26,0v2.221a1.13,1.13,0,1,0,2.26,0Z" transform="translate(-278.951 -128.987)"/>
        <path id="Trazado_1175589" data-name="Trazado 1175589" d="M231.485,131.081a1.13,1.13,0,0,0-.494-1.52,7.789,7.789,0,0,0-7.05,0,1.13,1.13,0,1,0,1.026,2.014,5.521,5.521,0,0,1,5,0A1.13,1.13,0,0,0,231.485,131.081Z" transform="translate(-191.683 -109.325)"/>
        <path id="Trazado_1175590" data-name="Trazado 1175590" d="M312.717,131.574a1.13,1.13,0,0,0,1.026-2.014,7.787,7.787,0,0,0-7.05,0,1.13,1.13,0,0,0,1.026,2.014,5.52,5.52,0,0,1,5,0Z" transform="translate(-261.968 -109.324)"/>
        <path id="Trazado_1175591" data-name="Trazado 1175591" d="M120.719,292.478a1.13,1.13,0,1,0,0-2.26H108.3a1.13,1.13,0,1,0,0,2.26Z" transform="translate(-93.027 -246.494)"/>
        <path id="Trazado_1175592" data-name="Trazado 1175592" d="M81.979,324.63a1.13,1.13,0,0,0,1.13,1.13H103.12a1.13,1.13,0,1,0,0-2.26H83.109A1.13,1.13,0,0,0,81.979,324.63Z" transform="translate(-71.633 -274.762)"/>
        <path id="Trazado_1175593" data-name="Trazado 1175593" d="M83.109,359.042H103.12a1.13,1.13,0,1,0,0-2.26H83.109a1.13,1.13,0,1,0,0,2.26Z" transform="translate(-71.633 -303.03)"/>
        <path id="Trazado_1175594" data-name="Trazado 1175594" d="M114.119,423.347H108.3a1.13,1.13,0,0,0,0,2.26h5.821a1.13,1.13,0,0,0,0-2.26Z" transform="translate(-93.027 -359.566)"/>
        <path id="Trazado_1175595" data-name="Trazado 1175595" d="M114.119,456.629H108.3a1.13,1.13,0,1,0,0,2.26h5.821a1.13,1.13,0,1,0,0-2.26Z" transform="translate(-93.027 -387.834)"/>
        <path id="Trazado_1175596" data-name="Trazado 1175596" d="M175.3,422.135a4.028,4.028,0,1,0,4.028,4.028A4.033,4.033,0,0,0,175.3,422.135Zm0,5.8a1.768,1.768,0,1,1,1.768-1.768A1.77,1.77,0,0,1,175.3,427.932Z" transform="translate(-147.475 -358.537)"/>
        <path id="Trazado_1175597" data-name="Trazado 1175597" d="M285.825,375.874A1.13,1.13,0,0,0,284.7,377v.452a1.13,1.13,0,0,0,2.26,0V377A1.13,1.13,0,0,0,285.825,375.874Z" transform="translate(-243.808 -319.246)"/>
        <path id="Trazado_1175598" data-name="Trazado 1175598" d="M285.825,416.5a1.13,1.13,0,0,0-1.13,1.13v.452a1.13,1.13,0,0,0,2.26,0v-.452A1.13,1.13,0,0,0,285.825,416.5Z" transform="translate(-243.808 -353.751)"/>
        <path id="Trazado_1175599" data-name="Trazado 1175599" d="M403.129,433.891l1.057-3.253a1.578,1.578,0,0,0-.575-1.768l-2.768-2.011a1.578,1.578,0,0,0-1.859,0h0l-2.767,2.01a1.578,1.578,0,0,0-.575,1.769l1.057,3.253a1.578,1.578,0,0,0,1.5,1.093h3.421A1.578,1.578,0,0,0,403.129,433.891Zm-2-1.167H398.7l-.753-2.316,1.97-1.432,1.97,1.432Z" transform="translate(-337.975 -362.292)"/>
      </g>
    </g>
  </g>
</svg>
