<svg xmlns="http://www.w3.org/2000/svg" xmlns:xlink="http://www.w3.org/1999/xlink" width="108" height="108" viewBox="0 0 108 108">
  <defs>
    <filter id="Trazado_978624" x="0" y="0" width="108" height="108" filterUnits="userSpaceOnUse">
      <feOffset dy="3" input="SourceAlpha"/>
      <feGaussianBlur stdDeviation="3" result="blur"/>
      <feFlood flood-opacity="0.161"/>
      <feComposite operator="in" in2="blur"/>
      <feComposite in="SourceGraphic"/>
    </filter>
    <filter id="Trazado_1076716" x="0" y="0" width="108" height="108" filterUnits="userSpaceOnUse">
      <feOffset dy="3" input="SourceAlpha"/>
      <feGaussianBlur stdDeviation="3" result="blur-2"/>
      <feFlood flood-opacity="0.161"/>
      <feComposite operator="in" in2="blur-2"/>
      <feComposite in="SourceGraphic"/>
    </filter>
  </defs>
  <g id="Grupo_1222981" data-name="Grupo 1222981" transform="translate(-620 -298)">
    <g id="Grupo_1220381" data-name="Grupo 1220381" transform="translate(4 -3)">
      <g id="Grupo_1216087" data-name="Grupo 1216087" transform="translate(625 307)">
        <g id="Grupo_1208503" data-name="Grupo 1208503" transform="translate(0)">
          <g id="Grupo_1200660" data-name="Grupo 1200660">
            <g id="Grupo_1181203" data-name="Grupo 1181203">
              <g id="Grupo_1172348" data-name="Grupo 1172348">
                <g id="Grupo_1171897" data-name="Grupo 1171897">
                  <g id="Grupo_1171052" data-name="Grupo 1171052">
                    <g id="Grupo_1164581" data-name="Grupo 1164581">
                      <g id="Grupo_1144123" data-name="Grupo 1144123">
                        <g transform="matrix(1, 0, 0, 1, -9, -6)" filter="url(#Trazado_978624)">
                          <g id="Trazado_978624-2" data-name="Trazado 978624" transform="translate(9 6)" fill="#e7f2f8">
                            <path d="M 45 88.5 C 39.12687683105469 88.5 33.43022537231445 87.35007476806641 28.06830024719238 85.08217620849609 C 22.88852500915527 82.89131164550781 18.23629951477051 79.75458526611328 14.2408504486084 75.75914764404297 C 10.24541282653809 71.76370239257812 7.108687400817871 67.11147308349609 4.917825222015381 61.93170166015625 C 2.649924993515015 56.56977462768555 1.5 50.87312316894531 1.5 45 C 1.5 39.12687683105469 2.649924993515015 33.43022537231445 4.917825222015381 28.06830024719238 C 7.108687400817871 22.88852500915527 10.24541282653809 18.23629951477051 14.2408504486084 14.2408504486084 C 18.23629951477051 10.24541282653809 22.88852500915527 7.108687400817871 28.06830024719238 4.917825222015381 C 33.43022537231445 2.649924993515015 39.12687683105469 1.5 45 1.5 C 50.87312316894531 1.5 56.56977462768555 2.649924993515015 61.93170166015625 4.917825222015381 C 67.11147308349609 7.108687400817871 71.76370239257812 10.24541282653809 75.75914764404297 14.2408504486084 C 79.75458526611328 18.23629951477051 82.89131164550781 22.88852500915527 85.08217620849609 28.06830024719238 C 87.35007476806641 33.43022537231445 88.5 39.12687683105469 88.5 45 C 88.5 50.87312316894531 87.35007476806641 56.56977462768555 85.08217620849609 61.93170166015625 C 82.89131164550781 67.11147308349609 79.75458526611328 71.76370239257812 75.75914764404297 75.75914764404297 C 71.76370239257812 79.75458526611328 67.11147308349609 82.89131164550781 61.93170166015625 85.08217620849609 C 56.56977462768555 87.35007476806641 50.87312316894531 88.5 45 88.5 Z" stroke="none"/>
                            <path d="M 45 3 C 39.32871246337891 3 33.82865524291992 4.110054016113281 28.65262985229492 6.299339294433594 C 23.65165710449219 8.414573669433594 19.15968322753906 11.44334411621094 15.301513671875 15.301513671875 C 11.44334411621094 19.15968322753906 8.414573669433594 23.65165710449219 6.299339294433594 28.65262985229492 C 4.110054016113281 33.82865524291992 3 39.32871246337891 3 45 C 3 50.67128753662109 4.110054016113281 56.17134475708008 6.299339294433594 61.34737396240234 C 8.414573669433594 66.34834289550781 11.44334411621094 70.84031677246094 15.301513671875 74.698486328125 C 19.15968322753906 78.55665588378906 23.65165710449219 81.58542633056641 28.65262985229492 83.70066070556641 C 33.82865524291992 85.88994598388672 39.32871246337891 87 45 87 C 50.67128753662109 87 56.17134475708008 85.88994598388672 61.34737396240234 83.70066070556641 C 66.34834289550781 81.58542633056641 70.84031677246094 78.55665588378906 74.698486328125 74.698486328125 C 78.55665588378906 70.84031677246094 81.58542633056641 66.34834289550781 83.70066070556641 61.34737396240234 C 85.88994598388672 56.17134475708008 87 50.67128753662109 87 45 C 87 39.32871246337891 85.88994598388672 33.82865524291992 83.70066070556641 28.65262985229492 C 81.58542633056641 23.65165710449219 78.55665588378906 19.15968322753906 74.698486328125 15.301513671875 C 70.84031677246094 11.44334411621094 66.34834289550781 8.414573669433594 61.34737396240234 6.299339294433594 C 56.17134475708008 4.110054016113281 50.67128753662109 3 45 3 M 45 0 C 69.85281372070312 0 90 20.14718627929688 90 45 C 90 69.85281372070312 69.85281372070312 90 45 90 C 20.14718627929688 90 0 69.85281372070312 0 45 C 0 20.14718627929688 20.14718627929688 0 45 0 Z" stroke="none" fill="#248abf"/>
                          </g>
                        </g>
                        <g transform="matrix(1, 0, 0, 1, -9, -6)" filter="url(#Trazado_1076716)">
                          <g id="Trazado_1076716-2" data-name="Trazado 1076716" transform="translate(9 6)" fill="#e7f2f8">
                            <path d="M 45 88.5 C 39.12687683105469 88.5 33.43022537231445 87.35007476806641 28.06830024719238 85.08217620849609 C 22.88852500915527 82.89131164550781 18.23629951477051 79.75458526611328 14.2408504486084 75.75914764404297 C 10.24541282653809 71.76370239257812 7.108687400817871 67.11147308349609 4.917825222015381 61.93170166015625 C 2.649924993515015 56.56977462768555 1.5 50.87312316894531 1.5 45 C 1.5 39.12687683105469 2.649924993515015 33.43022537231445 4.917825222015381 28.06830024719238 C 7.108687400817871 22.88852500915527 10.24541282653809 18.23629951477051 14.2408504486084 14.2408504486084 C 18.23629951477051 10.24541282653809 22.88852500915527 7.108687400817871 28.06830024719238 4.917825222015381 C 33.43022537231445 2.649924993515015 39.12687683105469 1.5 45 1.5 C 50.87312316894531 1.5 56.56977462768555 2.649924993515015 61.93170166015625 4.917825222015381 C 67.11147308349609 7.108687400817871 71.76370239257812 10.24541282653809 75.75914764404297 14.2408504486084 C 79.75458526611328 18.23629951477051 82.89131164550781 22.88852500915527 85.08217620849609 28.06830024719238 C 87.35007476806641 33.43022537231445 88.5 39.12687683105469 88.5 45 C 88.5 50.87312316894531 87.35007476806641 56.56977462768555 85.08217620849609 61.93170166015625 C 82.89131164550781 67.11147308349609 79.75458526611328 71.76370239257812 75.75914764404297 75.75914764404297 C 71.76370239257812 79.75458526611328 67.11147308349609 82.89131164550781 61.93170166015625 85.08217620849609 C 56.56977462768555 87.35007476806641 50.87312316894531 88.5 45 88.5 Z" stroke="none"/>
                            <path d="M 45 3 C 39.32871246337891 3 33.82865524291992 4.110054016113281 28.65262985229492 6.299339294433594 C 23.65165710449219 8.414573669433594 19.15968322753906 11.44334411621094 15.301513671875 15.301513671875 C 11.44334411621094 19.15968322753906 8.414573669433594 23.65165710449219 6.299339294433594 28.65262985229492 C 4.110054016113281 33.82865524291992 3 39.32871246337891 3 45 C 3 50.67128753662109 4.110054016113281 56.17134475708008 6.299339294433594 61.34737396240234 C 8.414573669433594 66.34834289550781 11.44334411621094 70.84031677246094 15.301513671875 74.698486328125 C 19.15968322753906 78.55665588378906 23.65165710449219 81.58542633056641 28.65262985229492 83.70066070556641 C 33.82865524291992 85.88994598388672 39.32871246337891 87 45 87 C 50.67128753662109 87 56.17134475708008 85.88994598388672 61.34737396240234 83.70066070556641 C 66.34834289550781 81.58542633056641 70.84031677246094 78.55665588378906 74.698486328125 74.698486328125 C 78.55665588378906 70.84031677246094 81.58542633056641 66.34834289550781 83.70066070556641 61.34737396240234 C 85.88994598388672 56.17134475708008 87 50.67128753662109 87 45 C 87 39.32871246337891 85.88994598388672 33.82865524291992 83.70066070556641 28.65262985229492 C 81.58542633056641 23.65165710449219 78.55665588378906 19.15968322753906 74.698486328125 15.301513671875 C 70.84031677246094 11.44334411621094 66.34834289550781 8.414573669433594 61.34737396240234 6.299339294433594 C 56.17134475708008 4.110054016113281 50.67128753662109 3 45 3 M 45 0 C 69.85281372070312 0 90 20.14718627929688 90 45 C 90 69.85281372070312 69.85281372070312 90 45 90 C 20.14718627929688 90 0 69.85281372070312 0 45 C 0 20.14718627929688 20.14718627929688 0 45 0 Z" stroke="none" fill="#248abf"/>
                          </g>
                        </g>
                      </g>
                    </g>
                  </g>
                </g>
              </g>
            </g>
          </g>
        </g>
      </g>
    </g>
    <g id="derechos-civiles_4_" data-name="derechos-civiles (4)" transform="translate(634.776 304.226)">
      <g id="Grupo_1222980" data-name="Grupo 1222980" transform="translate(1.637 18.61)">
        <path id="Trazado_1176864" data-name="Trazado 1176864" d="M162.992,24.99A4.525,4.525,0,0,1,167.5,29.5V41.183a4.512,4.512,0,1,1-9.024,0V29.5A4.525,4.525,0,0,1,162.992,24.99Z" transform="translate(-135.673 -24.99)" fill="#f4a14e" fill-rule="evenodd"/>
        <path id="Trazado_1176865" data-name="Trazado 1176865" d="M221.643,30.47a4.55,4.55,0,0,1,4.533,4.538V46.746a4.533,4.533,0,0,1-9.066,0V35.006A4.548,4.548,0,0,1,221.643,30.47Z" transform="translate(-185.417 -29.639)" fill="#f4a14e" fill-rule="evenodd"/>
        <path id="Trazado_1176866" data-name="Trazado 1176866" d="M159.465,110.322,176,111.506c.864,9.353-1.881,21.193-4.057,23.193-.293.329-.555.467-.567.888-.021.676-.092,4.162.3,10.829H149.1c.017-10.671.367-11.231-.229-11.514-4.491-3.124-7.176-10.088-8.845-14.433a9.724,9.724,0,0,1,4.6-10.538c3.5-1.319,10.8.662,14.841.391Z" transform="translate(-119.829 -96.669)" fill="#ffd18d" fill-rule="evenodd"/>
        <path id="Trazado_1176867" data-name="Trazado 1176867" d="M27.974,183.75a7.412,7.412,0,0,1-14.824,0Z" transform="translate(-12.369 -159.688)" fill="gray" fill-rule="evenodd"/>
        <path id="Trazado_1176868" data-name="Trazado 1176868" d="M415.839,183.75a7.414,7.414,0,0,1-14.829,0Z" transform="translate(-341.445 -159.688)" fill="gray" fill-rule="evenodd"/>
        <path id="Trazado_1176869" data-name="Trazado 1176869" d="M175.171,343.28h23.878v21.784H170.53V347.921A4.656,4.656,0,0,0,175.171,343.28Z" transform="translate(-145.897 -295.04)" fill="#3c87d0" fill-rule="evenodd"/>
        <path id="Trazado_1176870" data-name="Trazado 1176870" d="M477.634,68.219a2.16,2.16,0,1,0-2.164-2.16A2.166,2.166,0,0,0,477.634,68.219Z" transform="translate(-404.62 -58.003)" fill="#9196aa" fill-rule="evenodd"/>
        <path id="Trazado_1176871" data-name="Trazado 1176871" d="M10.16,68.28A2.16,2.16,0,1,0,8,66.118,2.166,2.166,0,0,0,10.16,68.28Z" transform="translate(-8 -58.054)" fill="#9196aa" fill-rule="evenodd"/>
        <path id="Trazado_1176872" data-name="Trazado 1176872" d="M279.064,36.68a4.464,4.464,0,0,1,4.454,4.454V52.668a4.454,4.454,0,1,1-8.909,0V41.134A4.467,4.467,0,0,1,279.064,36.68Z" transform="translate(-234.202 -34.908)" fill="#f4a14e" fill-rule="evenodd"/>
        <path id="Trazado_1176873" data-name="Trazado 1176873" d="M336.345,48.1a3.88,3.88,0,0,1,3.6,4.091v10.6a3.626,3.626,0,1,1-7.19,0v-10.6A3.88,3.88,0,0,1,336.345,48.1Z" transform="translate(-283.53 -44.597)" fill="#f4a14e" fill-rule="evenodd"/>
      </g>
      <path id="Trazado_1176874" data-name="Trazado 1176874" d="M75.994,41.508H74.215L70,27.873H71.5a3.335,3.335,0,1,0,0-2.349H58.936a4.849,4.849,0,0,0-4.618-4.55,4.393,4.393,0,0,0-3.089,1.3,5.46,5.46,0,0,0-8.951-1.223,5.458,5.458,0,0,0-8.827-.9,5.464,5.464,0,0,0-10.164,2.789v2.592H6.955a3.333,3.333,0,1,0,0,2.349h1.49L4.233,41.508H2.458a1.175,1.175,0,0,0-1.175,1.175,8.579,8.579,0,1,0,17.158,0,1.175,1.175,0,0,0-1.175-1.175H15.489L11.278,27.876h12.01V32.96a10.907,10.907,0,0,0-2.583,9.7,1.113,1.113,0,0,0,.053.18c1.658,4.32,4.426,11.529,9.171,14.9.023.534-.009,1.734-.055,3.509-.035,1.337-.082,3.166-.129,5.561v.024A3.466,3.466,0,0,1,26.284,70.3a1.175,1.175,0,0,0-1.175,1.175V88.6a1.175,1.175,0,0,0,1.175,1.175H54.774A1.175,1.175,0,0,0,55.949,88.6V66.837a1.175,1.175,0,0,0-1.175-1.175h-.189c-.3-5.323-.261-7.249-.242-7.954l.029-.029c.061-.059.133-.132.212-.218,1.71-1.64,2.843-6.607,3.371-9.436A62.84,62.84,0,0,0,58.971,33.44V27.873h8.2L62.966,41.508H61.188a1.175,1.175,0,0,0-1.175,1.175,8.579,8.579,0,1,0,17.158,0,1.179,1.179,0,0,0-1.178-1.175ZM9.86,48.914a6.24,6.24,0,0,1-6.117-5.058H15.982A6.243,6.243,0,0,1,9.86,48.914ZM6.691,41.508,9.86,31.251,13.03,41.508ZM3.837,27.685a.984.984,0,1,1,.984-.984A.986.986,0,0,1,3.837,27.685ZM74.615,25.71a.985.985,0,1,1-.984.987A.986.986,0,0,1,74.615,25.71Zm-22.6.391a2.608,2.608,0,0,1,2.3-2.778,2.609,2.609,0,0,1,2.3,2.778V36.341a2.341,2.341,0,1,1-4.6,0Zm-8.8-1.394a3.116,3.116,0,0,1,6.232,0V35.821a3.116,3.116,0,0,1-6.232,0Zm-5.682-4.054a3.119,3.119,0,0,1,3.116,3.116v7.364a42.586,42.586,0,0,1-5.141-.406q-.543-.064-1.09-.126V23.769A3.118,3.118,0,0,1,37.539,20.653Zm-8.786-.832a3.119,3.119,0,0,1,3.116,3.116v7.419a14.294,14.294,0,0,0-5.837.449,1.142,1.142,0,0,0-.179.086c-.073.042-.144.088-.217.133V22.937a3.12,3.12,0,0,1,3.116-3.116ZM53.6,87.423H27.457V79.059a17.96,17.96,0,0,0,6.166.987,21.137,21.137,0,0,0,7.333-1.232,1.174,1.174,0,0,0-.852-2.189c-3.442,1.34-9.26,1.587-12.646-.121V72.529a5.826,5.826,0,0,0,4.517-4.517H53.6v19.41Zm-.653-31.651c-.029.027-.058.056-.083.085-.052.058-.1.106-.149.153a2.064,2.064,0,0,0-.718,1.488l0,.071c-.018.727-.067,2.577.236,8.089H32.119c.039-1.811.076-3.248.1-4.35.056-2.205.082-3.212.044-3.816a1.73,1.73,0,0,0-.972-1.664c-4.138-2.934-6.741-9.656-8.309-13.739a8.549,8.549,0,0,1,3.971-9.127c1.861-.653,5.271-.256,8.286.094a49.326,49.326,0,0,0,5.083.424,1.239,1.239,0,0,1-.127.764c-.437.793-2.258,1.393-4.157,1.922a1.89,1.89,0,0,0-1.528,1.569A2.5,2.5,0,0,0,35.706,40c1.253.75,1.273,1.325,1.332,3.031a20.779,20.779,0,0,0,.236,2.778,1.175,1.175,0,0,0,2.319-.379,18.746,18.746,0,0,1-.208-2.48c-.059-1.716-.114-3.34-2.063-4.7a13.317,13.317,0,0,0,3.633-1.494,5.463,5.463,0,0,0,9.58,2.56,4.531,4.531,0,0,0,3.786,2.158,4.276,4.276,0,0,0,2.213-.62C55.967,48.163,54.159,54.657,52.945,55.773Zm15.643-24.52,3.169,10.255H65.423Zm0,17.661a6.24,6.24,0,0,1-6.117-5.058H74.709a6.245,6.245,0,0,1-6.122,5.058ZM50.6,71.152v.021a1.175,1.175,0,0,1-2.349,0v-.021a1.175,1.175,0,0,1,2.349,0Z"/>
    </g>
  </g>
</svg>
