<svg xmlns="http://www.w3.org/2000/svg" xmlns:xlink="http://www.w3.org/1999/xlink" width="108" height="108" viewBox="0 0 108 108">
  <defs>
    <filter id="Trazado_978624" x="0" y="0" width="108" height="108" filterUnits="userSpaceOnUse">
      <feOffset dy="3" input="SourceAlpha"/>
      <feGaussianBlur stdDeviation="3" result="blur"/>
      <feFlood flood-opacity="0.161"/>
      <feComposite operator="in" in2="blur"/>
      <feComposite in="SourceGraphic"/>
    </filter>
    <filter id="Trazado_1076716" x="0" y="0" width="108" height="108" filterUnits="userSpaceOnUse">
      <feOffset dy="3" input="SourceAlpha"/>
      <feGaussianBlur stdDeviation="3" result="blur-2"/>
      <feFlood flood-opacity="0.161"/>
      <feComposite operator="in" in2="blur-2"/>
      <feComposite in="SourceGraphic"/>
    </filter>
  </defs>
  <g id="Grupo_1223101" data-name="Grupo 1223101" transform="translate(-197 -969)">
    <g id="Grupo_1220518" data-name="Grupo 1220518" transform="translate(-419 668)">
      <g id="Grupo_1216087" data-name="Grupo 1216087" transform="translate(625 307)">
        <g id="Grupo_1208503" data-name="Grupo 1208503" transform="translate(0)">
          <g id="Grupo_1200660" data-name="Grupo 1200660">
            <g id="Grupo_1181203" data-name="Grupo 1181203">
              <g id="Grupo_1172348" data-name="Grupo 1172348">
                <g id="Grupo_1171897" data-name="Grupo 1171897">
                  <g id="Grupo_1171052" data-name="Grupo 1171052">
                    <g id="Grupo_1164581" data-name="Grupo 1164581">
                      <g id="Grupo_1144123" data-name="Grupo 1144123">
                        <g transform="matrix(1, 0, 0, 1, -9, -6)" filter="url(#Trazado_978624)">
                          <g id="Trazado_978624-2" data-name="Trazado 978624" transform="translate(9 6)" fill="#fcf5f0">
                            <path d="M 45 88.5 C 39.12687683105469 88.5 33.43022537231445 87.35007476806641 28.06830024719238 85.08217620849609 C 22.88852500915527 82.89131164550781 18.23629951477051 79.75458526611328 14.2408504486084 75.75914764404297 C 10.24541282653809 71.76370239257812 7.108687400817871 67.11147308349609 4.917825222015381 61.93170166015625 C 2.649924993515015 56.56977462768555 1.5 50.87312316894531 1.5 45 C 1.5 39.12687683105469 2.649924993515015 33.43022537231445 4.917825222015381 28.06830024719238 C 7.108687400817871 22.88852500915527 10.24541282653809 18.23629951477051 14.2408504486084 14.2408504486084 C 18.23629951477051 10.24541282653809 22.88852500915527 7.108687400817871 28.06830024719238 4.917825222015381 C 33.43022537231445 2.649924993515015 39.12687683105469 1.5 45 1.5 C 50.87312316894531 1.5 56.56977462768555 2.649924993515015 61.93170166015625 4.917825222015381 C 67.11147308349609 7.108687400817871 71.76370239257812 10.24541282653809 75.75914764404297 14.2408504486084 C 79.75458526611328 18.23629951477051 82.89131164550781 22.88852500915527 85.08217620849609 28.06830024719238 C 87.35007476806641 33.43022537231445 88.5 39.12687683105469 88.5 45 C 88.5 50.87312316894531 87.35007476806641 56.56977462768555 85.08217620849609 61.93170166015625 C 82.89131164550781 67.11147308349609 79.75458526611328 71.76370239257812 75.75914764404297 75.75914764404297 C 71.76370239257812 79.75458526611328 67.11147308349609 82.89131164550781 61.93170166015625 85.08217620849609 C 56.56977462768555 87.35007476806641 50.87312316894531 88.5 45 88.5 Z" stroke="none"/>
                            <path d="M 45 3 C 39.32871246337891 3 33.82865524291992 4.110054016113281 28.65262985229492 6.299339294433594 C 23.65165710449219 8.414573669433594 19.15968322753906 11.44334411621094 15.301513671875 15.301513671875 C 11.44334411621094 19.15968322753906 8.414573669433594 23.65165710449219 6.299339294433594 28.65262985229492 C 4.110054016113281 33.82865524291992 3 39.32871246337891 3 45 C 3 50.67128753662109 4.110054016113281 56.17134475708008 6.299339294433594 61.34737396240234 C 8.414573669433594 66.34834289550781 11.44334411621094 70.84031677246094 15.301513671875 74.698486328125 C 19.15968322753906 78.55665588378906 23.65165710449219 81.58542633056641 28.65262985229492 83.70066070556641 C 33.82865524291992 85.88994598388672 39.32871246337891 87 45 87 C 50.67128753662109 87 56.17134475708008 85.88994598388672 61.34737396240234 83.70066070556641 C 66.34834289550781 81.58542633056641 70.84031677246094 78.55665588378906 74.698486328125 74.698486328125 C 78.55665588378906 70.84031677246094 81.58542633056641 66.34834289550781 83.70066070556641 61.34737396240234 C 85.88994598388672 56.17134475708008 87 50.67128753662109 87 45 C 87 39.32871246337891 85.88994598388672 33.82865524291992 83.70066070556641 28.65262985229492 C 81.58542633056641 23.65165710449219 78.55665588378906 19.15968322753906 74.698486328125 15.301513671875 C 70.84031677246094 11.44334411621094 66.34834289550781 8.414573669433594 61.34737396240234 6.299339294433594 C 56.17134475708008 4.110054016113281 50.67128753662109 3 45 3 M 45 0 C 69.85281372070312 0 90 20.14718627929688 90 45 C 90 69.85281372070312 69.85281372070312 90 45 90 C 20.14718627929688 90 0 69.85281372070312 0 45 C 0 20.14718627929688 20.14718627929688 0 45 0 Z" stroke="none" fill="#eca675"/>
                          </g>
                        </g>
                        <g transform="matrix(1, 0, 0, 1, -9, -6)" filter="url(#Trazado_1076716)">
                          <g id="Trazado_1076716-2" data-name="Trazado 1076716" transform="translate(9 6)" fill="#fcf5f0">
                            <path d="M 45 88.5 C 39.12687683105469 88.5 33.43022537231445 87.35007476806641 28.06830024719238 85.08217620849609 C 22.88852500915527 82.89131164550781 18.23629951477051 79.75458526611328 14.2408504486084 75.75914764404297 C 10.24541282653809 71.76370239257812 7.108687400817871 67.11147308349609 4.917825222015381 61.93170166015625 C 2.649924993515015 56.56977462768555 1.5 50.87312316894531 1.5 45 C 1.5 39.12687683105469 2.649924993515015 33.43022537231445 4.917825222015381 28.06830024719238 C 7.108687400817871 22.88852500915527 10.24541282653809 18.23629951477051 14.2408504486084 14.2408504486084 C 18.23629951477051 10.24541282653809 22.88852500915527 7.108687400817871 28.06830024719238 4.917825222015381 C 33.43022537231445 2.649924993515015 39.12687683105469 1.5 45 1.5 C 50.87312316894531 1.5 56.56977462768555 2.649924993515015 61.93170166015625 4.917825222015381 C 67.11147308349609 7.108687400817871 71.76370239257812 10.24541282653809 75.75914764404297 14.2408504486084 C 79.75458526611328 18.23629951477051 82.89131164550781 22.88852500915527 85.08217620849609 28.06830024719238 C 87.35007476806641 33.43022537231445 88.5 39.12687683105469 88.5 45 C 88.5 50.87312316894531 87.35007476806641 56.56977462768555 85.08217620849609 61.93170166015625 C 82.89131164550781 67.11147308349609 79.75458526611328 71.76370239257812 75.75914764404297 75.75914764404297 C 71.76370239257812 79.75458526611328 67.11147308349609 82.89131164550781 61.93170166015625 85.08217620849609 C 56.56977462768555 87.35007476806641 50.87312316894531 88.5 45 88.5 Z" stroke="none"/>
                            <path d="M 45 3 C 39.32871246337891 3 33.82865524291992 4.110054016113281 28.65262985229492 6.299339294433594 C 23.65165710449219 8.414573669433594 19.15968322753906 11.44334411621094 15.301513671875 15.301513671875 C 11.44334411621094 19.15968322753906 8.414573669433594 23.65165710449219 6.299339294433594 28.65262985229492 C 4.110054016113281 33.82865524291992 3 39.32871246337891 3 45 C 3 50.67128753662109 4.110054016113281 56.17134475708008 6.299339294433594 61.34737396240234 C 8.414573669433594 66.34834289550781 11.44334411621094 70.84031677246094 15.301513671875 74.698486328125 C 19.15968322753906 78.55665588378906 23.65165710449219 81.58542633056641 28.65262985229492 83.70066070556641 C 33.82865524291992 85.88994598388672 39.32871246337891 87 45 87 C 50.67128753662109 87 56.17134475708008 85.88994598388672 61.34737396240234 83.70066070556641 C 66.34834289550781 81.58542633056641 70.84031677246094 78.55665588378906 74.698486328125 74.698486328125 C 78.55665588378906 70.84031677246094 81.58542633056641 66.34834289550781 83.70066070556641 61.34737396240234 C 85.88994598388672 56.17134475708008 87 50.67128753662109 87 45 C 87 39.32871246337891 85.88994598388672 33.82865524291992 83.70066070556641 28.65262985229492 C 81.58542633056641 23.65165710449219 78.55665588378906 19.15968322753906 74.698486328125 15.301513671875 C 70.84031677246094 11.44334411621094 66.34834289550781 8.414573669433594 61.34737396240234 6.299339294433594 C 56.17134475708008 4.110054016113281 50.67128753662109 3 45 3 M 45 0 C 69.85281372070312 0 90 20.14718627929688 90 45 C 90 69.85281372070312 69.85281372070312 90 45 90 C 20.14718627929688 90 0 69.85281372070312 0 45 C 0 20.14718627929688 20.14718627929688 0 45 0 Z" stroke="none" fill="#eca675"/>
                          </g>
                        </g>
                      </g>
                    </g>
                  </g>
                </g>
              </g>
            </g>
          </g>
        </g>
      </g>
    </g>
    <g id="obediente_13_" data-name="obediente (13)" transform="translate(206.406 991.125)">
      <g id="Grupo_1223091" data-name="Grupo 1223091" transform="translate(11.19 1.155)">
        <g id="Grupo_1223089" data-name="Grupo 1223089">
          <g id="Grupo_1223086" data-name="Grupo 1223086" transform="translate(0 30.185)">
            <g id="Grupo_1223079" data-name="Grupo 1223079" transform="translate(0 0)">
              <path id="Trazado_1177166" data-name="Trazado 1177166" d="M39.223,204.133,42,208.94a.462.462,0,0,0,.4.231H61.412a.462.462,0,0,0,.4-.231l2.775-4.806a.462.462,0,0,0-.4-.693H39.623A.462.462,0,0,0,39.223,204.133Z" transform="translate(-39.16 -203.44)" fill="#fed402"/>
            </g>
            <g id="Grupo_1223085" data-name="Grupo 1223085">
              <g id="Grupo_1223080" data-name="Grupo 1223080" transform="translate(41.32 0)">
                <path id="Trazado_1177167" data-name="Trazado 1177167" d="M307.444,204.133l2.775,4.806a.462.462,0,0,0,.4.231h19.014a.462.462,0,0,0,.4-.231l2.775-4.806a.462.462,0,0,0-.4-.693H307.845A.462.462,0,0,0,307.444,204.133Z" transform="translate(-307.382 -203.44)" fill="#fed402"/>
              </g>
              <g id="Grupo_1223081" data-name="Grupo 1223081" transform="translate(0 0)">
                <path id="Trazado_1177168" data-name="Trazado 1177168" d="M39.223,204.133,42,208.94a.462.462,0,0,0,.4.231H61.412a.462.462,0,0,0,.4-.231l2.775-4.806a.462.462,0,0,0-.4-.693H39.623A.462.462,0,0,0,39.223,204.133Z" transform="translate(-39.16 -203.44)" fill="#ca6e59"/>
              </g>
              <g id="Grupo_1223082" data-name="Grupo 1223082" transform="translate(0)">
                <path id="Trazado_1177169" data-name="Trazado 1177169" d="M48.527,208.939l-2.775-4.806a.462.462,0,0,1,.4-.693H39.623a.462.462,0,0,0-.4.693L42,208.939a.462.462,0,0,0,.4.231h6.529A.462.462,0,0,1,48.527,208.939Z" transform="translate(-39.161 -203.439)" fill="#bb5d4c"/>
              </g>
              <g id="Grupo_1223083" data-name="Grupo 1223083" transform="translate(41.32 0)">
                <path id="Trazado_1177170" data-name="Trazado 1177170" d="M307.444,204.133l2.775,4.806a.462.462,0,0,0,.4.231h19.014a.462.462,0,0,0,.4-.231l2.775-4.806a.462.462,0,0,0-.4-.693H307.845A.462.462,0,0,0,307.444,204.133Z" transform="translate(-307.382 -203.44)" fill="#ca6e59"/>
              </g>
              <g id="Grupo_1223084" data-name="Grupo 1223084" transform="translate(41.32)">
                <path id="Trazado_1177171" data-name="Trazado 1177171" d="M317.556,208.939l-2.775-4.806a.462.462,0,0,1,.4-.693h-7.336a.462.462,0,0,0-.4.693l2.775,4.806a.462.462,0,0,0,.4.231h7.336A.462.462,0,0,1,317.556,208.939Z" transform="translate(-307.383 -203.439)" fill="#bb5d4c"/>
              </g>
            </g>
          </g>
          <path id="Trazado_1177172" data-name="Trazado 1177172" d="M242.138,132.141V103.893a.77.77,0,0,0-.77-.77h-4.632a.77.77,0,0,0-.77.77v28.248h6.172Z" transform="translate(-205.647 -88.392)" fill="#bb5d4c"/>
          <path id="Trazado_1177173" data-name="Trazado 1177173" d="M238.58,132.141V103.893a.77.77,0,0,1,.77-.77h-2.614a.77.77,0,0,0-.77.77v28.248h2.614Z" transform="translate(-205.647 -88.392)" fill="#a44f3e"/>
          <g id="Grupo_1223087" data-name="Grupo 1223087" transform="translate(29.092 0)">
            <circle id="Elipse_14493" data-name="Elipse 14493" cx="4.313" cy="4.313" r="4.313" fill="#883f2e"/>
          </g>
          <g id="Grupo_1223088" data-name="Grupo 1223088" transform="translate(29.092)">
            <path id="Trazado_1177174" data-name="Trazado 1177174" d="M231.857,11.813a4.312,4.312,0,0,1,2.387-3.859,4.313,4.313,0,1,0,0,7.717,4.312,4.312,0,0,1-2.387-3.859Z" transform="translate(-228.005 -7.5)" fill="#6d3326"/>
          </g>
        </g>
        <g id="Grupo_1223090" data-name="Grupo 1223090" transform="translate(5.938 43.749)">
          <path id="Trazado_1177175" data-name="Trazado 1177175" d="M223.658,298.1v-3.539a3.081,3.081,0,0,0-3.081-3.081h-8.24a3.081,3.081,0,0,0-3.081,3.081V298.1Z" transform="translate(-188.99 -291.485)" fill="#883f2e"/>
          <path id="Trazado_1177176" data-name="Trazado 1177176" d="M214.454,298.1v-3.539a3.081,3.081,0,0,1,3.081-3.081h-5.2a3.081,3.081,0,0,0-3.081,3.081V298.1Z" transform="translate(-188.989 -291.485)" fill="#6d3326"/>
          <path id="Trazado_1177177" data-name="Trazado 1177177" d="M197.308,341.474V337.1a2.64,2.64,0,0,0-2.64-2.64H173.812a2.641,2.641,0,0,0-2.64,2.64v4.376Z" transform="translate(-156.773 -327.837)" fill="#bb5d4c"/>
          <path id="Trazado_1177178" data-name="Trazado 1177178" d="M177.67,341.474V337.1a2.64,2.64,0,0,1,2.64-2.64h-6.5a2.64,2.64,0,0,0-2.64,2.64v4.376Z" transform="translate(-156.774 -327.837)" fill="#a44f3e"/>
          <path id="Trazado_1177179" data-name="Trazado 1177179" d="M81.818,379.006a4.115,4.115,0,0,0-4.115,4.115v7.818a4.115,4.115,0,0,0,4.115,4.115h1.668v-10.9H91.9v10.9h47.116V379.006Z" transform="translate(-77.703 -365.523)" fill="#fff3de"/>
        </g>
      </g>
      <g id="Grupo_1223100" data-name="Grupo 1223100" transform="translate(7.251 58.387)">
        <g id="Grupo_1223095" data-name="Grupo 1223095">
          <g id="Grupo_1223092" data-name="Grupo 1223092">
            <path id="Trazado_1177180" data-name="Trazado 1177180" d="M27.587,395.054a4.115,4.115,0,0,1-4.115-4.115v-7.818a4.115,4.115,0,0,1,4.115-4.115H21.62a8.024,8.024,0,0,0,0,16.048h5.967Z" transform="translate(-13.596 -379.006)" fill="#3675bb"/>
          </g>
          <g id="Grupo_1223093" data-name="Grupo 1223093">
            <path id="Trazado_1177181" data-name="Trazado 1177181" d="M17.494,387.03a8.024,8.024,0,0,1,8.024-8.024h-3.9a8.024,8.024,0,0,0,0,16.048h3.9A8.024,8.024,0,0,1,17.494,387.03Z" transform="translate(-13.596 -379.006)" fill="#2b68b6"/>
          </g>
          <g id="Grupo_1223094" data-name="Grupo 1223094" transform="translate(9.876 0.005)">
            <path id="Trazado_1177182" data-name="Trazado 1177182" d="M83.486,390.575a4.11,4.11,0,0,1-1.886-3.458V379.3c0-.087,0-.172.009-.257a4.115,4.115,0,0,0-3.906,4.11v7.818a4.115,4.115,0,0,0,4.115,4.115h1.668Z" transform="translate(-77.703 -379.041)" fill="#ffe5c2"/>
            <path id="Trazado_1177183" data-name="Trazado 1177183" d="M169.857,458.174h47.116v3.852H169.857Z" transform="translate(-155.66 -445.983)" fill="#ffe5c2"/>
          </g>
        </g>
        <g id="Grupo_1223099" data-name="Grupo 1223099" transform="translate(15.659 5.144)">
          <g id="Grupo_1223096" data-name="Grupo 1223096">
            <path id="Trazado_1177184" data-name="Trazado 1177184" d="M123.654,426.121V412.395H115.24v13.726a.462.462,0,0,0,.725.38l3.482-2.41,3.482,2.41A.462.462,0,0,0,123.654,426.121Z" transform="translate(-115.24 -412.395)" fill="#fb2b3a"/>
          </g>
          <g id="Grupo_1223098" data-name="Grupo 1223098" transform="translate(0)">
            <g id="Grupo_1223097" data-name="Grupo 1223097">
              <path id="Trazado_1177185" data-name="Trazado 1177185" d="M119.113,412.395H115.24v13.726a.462.462,0,0,0,.725.38l3.148-2.179Z" transform="translate(-115.24 -412.395)" fill="#e41f2d"/>
            </g>
          </g>
        </g>
      </g>
      <path id="Trazado_1177186" data-name="Trazado 1177186" d="M81.938,73.28H79.6V59.542h2.342a1.155,1.155,0,1,0,0-2.311H58.818V54.165a3.8,3.8,0,0,0-3.8-3.8H52.951V47.985a4.241,4.241,0,0,0-4.115-4.233V25.111a1.155,1.155,0,0,0-2.311,0V43.749H42.664V17.042h3.861v2.677a1.155,1.155,0,0,0,2.311,0V16.657a1.928,1.928,0,0,0-1.926-1.926H45.75V10.812a5.484,5.484,0,0,0,4.189-4.189H64.1V8.731L52.8,30.2a1.615,1.615,0,0,0-1.23,2.415l2.775,4.806a1.622,1.622,0,0,0,1.4.809H66.624a1.155,1.155,0,1,0,0-2.311H56.148L54.174,32.5H76.336l-1.974,3.42H72.016a1.155,1.155,0,1,0,0,2.311h2.746a1.622,1.622,0,0,0,1.4-.809l2.775-4.807a1.615,1.615,0,0,0-1.23-2.415L66.41,8.731V6.624h4.325a1.155,1.155,0,1,0,0-2.311h-20.8a5.468,5.468,0,0,0-10.688,0h-20.8a1.155,1.155,0,1,0,0,2.311h4.325V8.731L11.482,30.2a1.615,1.615,0,0,0-1.23,2.415h0l2.775,4.807a1.622,1.622,0,0,0,1.4.809H33.441a1.622,1.622,0,0,0,1.4-.809l2.775-4.806a1.615,1.615,0,0,0-1.23-2.415L25.09,8.731V6.624H39.25a5.484,5.484,0,0,0,4.189,4.189v3.919h-1.16a1.928,1.928,0,0,0-1.926,1.926v27.1a4.241,4.241,0,0,0-4.115,4.233v2.384H34.167a3.8,3.8,0,0,0-3.8,3.8v3.067h-15.1a9.179,9.179,0,1,0,0,18.359h6.479v1.666a1.617,1.617,0,0,0,2.538,1.33l2.824-1.955,2.824,1.955a1.618,1.618,0,0,0,2.538-1.33V75.59H81.938a1.155,1.155,0,1,0,0-2.31ZM64.1,30.185h-8.68L64.1,13.692ZM66.41,13.692l8.68,16.493H66.41Zm-43.631,0V30.185H14.1ZM33.041,35.916H14.828L12.853,32.5H35.015Zm.729-5.731H25.09V13.692ZM41.437,5.468a3.157,3.157,0,1,1,3.157,3.157A3.161,3.161,0,0,1,41.437,5.468ZM38.549,47.985a1.928,1.928,0,0,1,1.926-1.926h8.24a1.928,1.928,0,0,1,1.926,1.926v2.384H38.549ZM15.276,73.28a6.869,6.869,0,1,1,0-13.737h1.608a5.24,5.24,0,0,0-.912,2.96V70.32a5.239,5.239,0,0,0,.912,2.96Zm14.893,2.654-2.394-1.657a1.155,1.155,0,0,0-1.315,0l-2.394,1.657V64.686h6.1ZM77.284,62.375H52.31a1.155,1.155,0,1,0,0,2.311H77.285v3.45H52.31a1.155,1.155,0,1,0,0,2.311H77.285V73.28H32.479V64.686h9.749a1.155,1.155,0,1,0,0-2.311H21.242a1.155,1.155,0,1,0,0,2.311h.512V73.28h-.512a2.963,2.963,0,0,1-2.96-2.96V62.5a2.963,2.963,0,0,1,2.96-2.96H39.819a1.155,1.155,0,0,0,0-2.311H32.682V54.165a1.487,1.487,0,0,1,1.485-1.485H55.022a1.487,1.487,0,0,1,1.485,1.485v3.067h-11.3a1.155,1.155,0,0,0,0,2.311H77.284Z"/>
    </g>
  </g>
</svg>
