<svg xmlns="http://www.w3.org/2000/svg" width="74.071" height="79" viewBox="0 0 74.071 79">
  <g id="Grupo_1222437" data-name="Grupo 1222437" transform="translate(-190.929 -797)">
    <rect id="Rectángulo_420924" data-name="Rectángulo 420924" width="51" height="79" transform="translate(213.955 797)" fill="#248abf"/>
    <g id="equilibrar_6_" data-name="equilibrar (6)" transform="translate(190.929 804.98)">
      <path id="Trazado_1175997" data-name="Trazado 1175997" d="M114.4,107.345a1.228,1.228,0,0,1-.685-.207,13.416,13.416,0,0,0-7.463-2.262H78.113a13.416,13.416,0,0,0-7.469,2.262,1.244,1.244,0,0,1-1.234.078l-4.938-2.469,1.1-2.21,4.321,2.158a15.879,15.879,0,0,1,8.217-2.288h28.141a15.884,15.884,0,0,1,8.226,2.288l4.315-2.158,1.1,2.21-4.938,2.469A1.263,1.263,0,0,1,114.4,107.345Z" transform="translate(-55.145 -88.299)" fill="#91562f"/>
      <path id="Trazado_1175998" data-name="Trazado 1175998" d="M171.1,474.272H136.535a4.938,4.938,0,0,1,4.938-4.938h24.69A4.937,4.937,0,0,1,171.1,474.272Z" transform="translate(-116.783 -404.737)" fill="#f9b44d"/>
      <path id="Trazado_1175999" data-name="Trazado 1175999" d="M282.942,469.334h-9.876A4.938,4.938,0,0,1,278,474.272h9.876A4.937,4.937,0,0,0,282.942,469.334Z" transform="translate(-233.562 -404.737)" fill="#fa982f"/>
      <path id="Trazado_1176000" data-name="Trazado 1176000" d="M219.615,440.139H204.8l4.938-4.938h4.938Z" transform="translate(-175.173 -375.542)" fill="#f9b44d"/>
      <rect id="Rectángulo_420922" data-name="Rectángulo 420922" width="4.938" height="48.547" transform="translate(34.566 11.111)" fill="#91562f"/>
      <path id="Trazado_1176001" data-name="Trazado 1176001" d="M235.666,18.417h-4.938l-1.272-5.085a3.854,3.854,0,0,1,3.74-4.791h0a3.857,3.857,0,0,1,3.74,4.791Z" transform="translate(-196.161 -7.305)" fill="#f9b44d"/>
      <path id="Trazado_1176002" data-name="Trazado 1176002" d="M249.154,8.542a3.851,3.851,0,0,0-1.158.2,3.843,3.843,0,0,1,2.583,4.594l-1.27,5.085h2.315l1.272-5.085a3.854,3.854,0,0,0-3.74-4.791Z" transform="translate(-212.119 -7.306)" fill="#fa982f"/>
      <rect id="Rectángulo_420923" data-name="Rectángulo 420923" width="12.345" height="2.469" transform="translate(30.863 9.876)" fill="#f9b44d"/>
      <g id="Grupo_1222436" data-name="Grupo 1222436" transform="translate(0.515 13.68)">
        <path id="Trazado_1176003" data-name="Trazado 1176003" d="M29.8,132.66,17.861,106.6,5.918,132.66a1.235,1.235,0,0,1-1.637.607h0a1.235,1.235,0,0,1-.607-1.637h0l13.065-28.506a1.235,1.235,0,0,1,2.244,0l13.065,28.506a1.232,1.232,0,0,1-.607,1.636h0a1.234,1.234,0,0,1-1.637-.606Z" transform="translate(-3.562 -102.405)" fill="#f0e4d6"/>
        <path id="Trazado_1176004" data-name="Trazado 1176004" d="M337,132.66,325.055,106.6,313.112,132.66a1.235,1.235,0,0,1-1.637.607h0a1.235,1.235,0,0,1-.607-1.637h0l13.065-28.506a1.235,1.235,0,0,1,2.244,0l13.065,28.506a1.232,1.232,0,0,1-.607,1.636h0A1.234,1.234,0,0,1,337,132.66Z" transform="translate(-266.313 -102.405)" fill="#f0e4d6"/>
      </g>
      <path id="Trazado_1176005" data-name="Trazado 1176005" d="M315.732,315.736h27.159a7.407,7.407,0,0,1-7.407,7.407H323.139a7.408,7.408,0,0,1-7.407-7.407Z" transform="translate(-270.055 -272.321)" fill="#f9b44d"/>
      <path id="Trazado_1176006" data-name="Trazado 1176006" d="M408.471,315.736a7.407,7.407,0,0,1-7.407,7.407h7.407a7.407,7.407,0,0,0,7.407-7.407Z" transform="translate(-343.042 -272.321)" fill="#fa982f"/>
      <path id="Trazado_1176007" data-name="Trazado 1176007" d="M8.537,315.736H35.7a7.407,7.407,0,0,1-7.407,7.407H15.944a7.408,7.408,0,0,1-7.407-7.407Z" transform="translate(-7.302 -272.321)" fill="#f9b44d"/>
      <path id="Trazado_1176008" data-name="Trazado 1176008" d="M101.276,315.736a7.407,7.407,0,0,1-7.407,7.407h7.407a7.407,7.407,0,0,0,7.407-7.407Z" transform="translate(-80.289 -272.321)" fill="#fa982f"/>
      <path id="Trazado_1176009" data-name="Trazado 1176009" d="M73.962,43.15,61.8,17.8l2.949-1.4-1.1-2.111-2.875,1.368-.389-.81a1.259,1.259,0,0,0-1.637-.58,1.206,1.206,0,0,0-.607.58l-.347.724a16.5,16.5,0,0,0-6.679-1.412H40.743V11.8h2.469V9.437H41.09l.888-3.393a4.853,4.853,0,0,0-3.7-5.9A5.111,5.111,0,0,0,32.1,3.685a4.654,4.654,0,0,0,0,2.358l.888,3.393H30.866v2.359h2.469v2.359H22.972a16.492,16.492,0,0,0-6.685,1.415l-.347-.724a1.259,1.259,0,0,0-1.637-.58,1.206,1.206,0,0,0-.607.58l-.389.81-2.875-1.374-1.1,2.114L12.277,17.8.116,43.15h0A1.116,1.116,0,0,0,0,43.642,8.465,8.465,0,0,0,8.645,51.9H20.991a8.465,8.465,0,0,0,8.642-8.256,1.109,1.109,0,0,0-.123-.488h0L17.314,17.706a13.977,13.977,0,0,1,5.658-1.192H33.336V59.666l-4.215,4.027H24.694a6.047,6.047,0,0,0-6.173,5.9,1.208,1.208,0,0,0,1.234,1.179H54.322a1.208,1.208,0,0,0,1.234-1.179,6.047,6.047,0,0,0-6.173-5.9H44.957l-4.214-4.027V16.514h10.37a13.977,13.977,0,0,1,5.658,1.192L44.559,43.15h0a1.1,1.1,0,0,0-.112.492A8.465,8.465,0,0,0,53.088,51.9H65.433a8.465,8.465,0,0,0,8.642-8.256,1.109,1.109,0,0,0-.123-.488ZM20.991,49.539H8.646A6.121,6.121,0,0,1,2.6,44.821H27.04A6.121,6.121,0,0,1,20.991,49.539Zm5.484-7.077H3.162L14.5,18.824a1.274,1.274,0,0,0,.632,0Zm8.5-39.14a2.788,2.788,0,0,1,3.806-.31,2.631,2.631,0,0,1,.325.31,2.408,2.408,0,0,1,.478,2.149L38.544,9.437h-3.01L34.5,5.472A2.406,2.406,0,0,1,34.974,3.323ZM35.8,14.155V11.8h2.469v2.359H35.8Zm2.469,2.359V58.975H35.8V16.514ZM49.384,66.052a3.7,3.7,0,0,1,3.492,2.359H21.2a3.7,3.7,0,0,1,3.492-2.359Zm-7.918-2.359H32.612l2.469-2.359H39ZM58.942,18.828a.878.878,0,0,0,.625-.025l11.35,23.659H47.6Zm6.491,30.711H53.088a6.121,6.121,0,0,1-6.049-4.718H71.482A6.121,6.121,0,0,1,65.433,49.539Z" transform="translate(-0.004 0)"/>
    </g>
  </g>
</svg>
