<svg xmlns="http://www.w3.org/2000/svg" xmlns:xlink="http://www.w3.org/1999/xlink" width="93.934" height="93.934" viewBox="0 0 93.934 93.934">
  <defs>
    <filter id="Trazado_982547" x="0" y="0" width="93.934" height="93.934" filterUnits="userSpaceOnUse">
      <feOffset dy="3" input="SourceAlpha"/>
      <feGaussianBlur stdDeviation="3" result="blur"/>
      <feFlood flood-opacity="0.161"/>
      <feComposite operator="in" in2="blur"/>
      <feComposite in="SourceGraphic"/>
    </filter>
  </defs>
  <g id="Grupo_1223003" data-name="Grupo 1223003" transform="translate(-193.066 -931.68)">
    <g id="Grupo_1220382" data-name="Grupo 1220382" transform="translate(2 -111.168)">
      <g id="Grupo_1215981" data-name="Grupo 1215981" transform="translate(-0.229 -2679.151)">
        <g id="Grupo_1214594" data-name="Grupo 1214594" transform="translate(200.295 3728)">
          <g id="Grupo_1214432" data-name="Grupo 1214432" transform="translate(0)">
            <g id="Grupo_1183196" data-name="Grupo 1183196">
              <g id="Grupo_1179610" data-name="Grupo 1179610">
                <g id="Grupo_1175227" data-name="Grupo 1175227">
                  <g id="Grupo_1167337" data-name="Grupo 1167337">
                    <g id="Grupo_1166720" data-name="Grupo 1166720">
                      <g id="Grupo_1164305" data-name="Grupo 1164305">
                        <g id="Grupo_1163948" data-name="Grupo 1163948">
                          <g id="Grupo_1158168" data-name="Grupo 1158168">
                            <g id="Grupo_1152576" data-name="Grupo 1152576">
                              <g id="Grupo_1148633" data-name="Grupo 1148633">
                                <g id="Grupo_1148525" data-name="Grupo 1148525">
                                  <g transform="matrix(1, 0, 0, 1, -9, -6)" filter="url(#Trazado_982547)">
                                    <g id="Trazado_982547-2" data-name="Trazado 982547" transform="translate(9 6)" fill="#eae4dc">
                                      <path d="M 37.966796875 74.43359375 C 33.04315185546875 74.43359375 28.26757431030273 73.46962738037109 23.77274131774902 71.56847381591797 C 19.43047523498535 69.73184967041016 15.53040790557861 67.10224914550781 12.18087482452393 63.75271987915039 C 8.831341743469238 60.4031867980957 6.201741218566895 56.50312042236328 4.365118980407715 52.16086196899414 C 2.463963508605957 47.66601943969727 1.499996900558472 42.89044189453125 1.499996900558472 37.966796875 C 1.499996900558472 33.04315185546875 2.463963508605957 28.26757431030273 4.365118980407715 23.77274131774902 C 6.201741218566895 19.43047523498535 8.831341743469238 15.53040790557861 12.18087482452393 12.18087482452393 C 15.53040790557861 8.831341743469238 19.43047523498535 6.201741218566895 23.77274131774902 4.365118980407715 C 28.26757431030273 2.463963508605957 33.04315185546875 1.499996900558472 37.966796875 1.499996900558472 C 42.89044189453125 1.499996900558472 47.66601943969727 2.463963508605957 52.16086196899414 4.365118980407715 C 56.50312042236328 6.201741218566895 60.4031867980957 8.831341743469238 63.75271987915039 12.18087482452393 C 67.10224914550781 15.53040790557861 69.73184967041016 19.43047523498535 71.56847381591797 23.77274131774902 C 73.46962738037109 28.26757431030273 74.43359375 33.04315185546875 74.43359375 37.966796875 C 74.43359375 42.89044189453125 73.46962738037109 47.66601943969727 71.56847381591797 52.16086196899414 C 69.73184967041016 56.50313186645508 67.10224914550781 60.4031867980957 63.75271987915039 63.75271987915039 C 60.4031867980957 67.10224914550781 56.50313186645508 69.73184967041016 52.16086196899414 71.56847381591797 C 47.66601943969727 73.46962738037109 42.89044189453125 74.43359375 37.966796875 74.43359375 Z" stroke="none"/>
                                      <path d="M 37.966796875 3 C 33.2449836730957 3 28.66600799560547 3.924095153808594 24.35705947875977 5.746635437011719 C 20.19359588623047 7.507637023925781 16.45379638671875 10.02928161621094 13.24153518676758 13.24153518676758 C 10.02927398681641 16.45379638671875 7.507621765136719 20.19359588623047 5.746635437011719 24.35705947875977 C 3.924095153808594 28.66600799560547 3 33.2449836730957 3 37.966796875 C 3 42.6886100769043 3.924095153808594 47.26758575439453 5.746635437011719 51.57653427124023 C 7.507621765136719 55.73999786376953 10.02927398681641 59.47979736328125 13.24153518676758 62.69205856323242 C 16.45379638671875 65.90431976318359 20.19359588623047 68.42597198486328 24.35705947875977 70.18695831298828 C 28.66600799560547 72.00949859619141 33.2449836730957 72.93359375 37.966796875 72.93359375 C 42.6886100769043 72.93359375 47.26758575439453 72.00949859619141 51.57653427124023 70.18695831298828 C 55.73999786376953 68.42597198486328 59.47979736328125 65.90431976318359 62.69205856323242 62.69205856323242 C 65.90431976318359 59.47979736328125 68.42597198486328 55.73999786376953 70.18695831298828 51.57653427124023 C 72.00949859619141 47.26758575439453 72.93359375 42.6886100769043 72.93359375 37.966796875 C 72.93359375 33.2449836730957 72.00949859619141 28.66600799560547 70.18695831298828 24.35705947875977 C 68.42597198486328 20.19359588623047 65.90431976318359 16.45379638671875 62.69205856323242 13.24153518676758 C 59.47979736328125 10.02928161621094 55.73999786376953 7.507637023925781 51.57653427124023 5.746635437011719 C 47.26758575439453 3.924095153808594 42.6886100769043 3 37.966796875 3 M 37.966796875 0 C 58.93528366088867 0 75.93359375 16.99832153320312 75.93359375 37.966796875 C 75.93359375 58.93528366088867 58.93528366088867 75.93359375 37.966796875 75.93359375 C 16.99831008911133 75.93359375 0 58.93528366088867 0 37.966796875 C 0 16.99832153320312 16.99831008911133 0 37.966796875 0 Z" stroke="none" fill="#665b4e"/>
                                    </g>
                                  </g>
                                </g>
                              </g>
                            </g>
                          </g>
                        </g>
                      </g>
                    </g>
                  </g>
                </g>
              </g>
            </g>
          </g>
        </g>
      </g>
    </g>
    <g id="demanda-judicial" transform="translate(208 949)">
      <rect id="Rect치ngulo_421564" data-name="Rect치ngulo 421564" width="40" height="52" rx="3" transform="translate(14 10)" fill="#c8cded"/>
      <rect id="Rect치ngulo_421565" data-name="Rect치ngulo 421565" width="40" height="52" rx="3" transform="translate(10 6)" fill="#e2e7f6"/>
      <path id="Trazado_1176949" data-name="Trazado 1176949" d="M47,6H13a2.983,2.983,0,0,0-.86.14A2.983,2.983,0,0,0,12,7V53a3,3,0,0,0,3,3H49a2.983,2.983,0,0,0,.86-.14A2.983,2.983,0,0,0,50,55V9A3,3,0,0,0,47,6Z" fill="#f8f7fe"/>
      <path id="Trazado_1176950" data-name="Trazado 1176950" d="M38,48a4,4,0,0,1-4-4h8A4,4,0,0,1,38,48Z" fill="#f5b95b"/>
      <path id="Trazado_1176951" data-name="Trazado 1176951" d="M41.93,44.69l.019-.006-.014-.041C41.933,44.658,41.933,44.674,41.93,44.69Z"/>
      <path id="Trazado_1176952" data-name="Trazado 1176952" d="M34.065,44.643l-.014.041.019.006C34.067,44.674,34.067,44.658,34.065,44.643Z"/>
      <path id="Trazado_1176953" data-name="Trazado 1176953" d="M39,47.859A3.992,3.992,0,0,0,42,44H36A3.992,3.992,0,0,0,39,47.859Z" fill="#f9d18f"/>
      <circle id="Elipse_14485" data-name="Elipse 14485" cx="2" cy="2" r="2" transform="translate(28 32)" fill="#f5b95b"/>
      <ellipse id="Elipse_14486" data-name="Elipse 14486" cx="1" cy="1.723" rx="1" ry="1.723" transform="translate(30 32.277)" fill="#f9d18f"/>
      <path id="Trazado_1176954" data-name="Trazado 1176954" d="M22,48a4,4,0,0,1-4-4h8A4,4,0,0,1,22,48Z" fill="#f5b95b"/>
      <path id="Trazado_1176955" data-name="Trazado 1176955" d="M25.93,44.69l.019-.006-.014-.041C25.933,44.658,25.933,44.674,25.93,44.69Z"/>
      <path id="Trazado_1176956" data-name="Trazado 1176956" d="M23,47.859A3.992,3.992,0,0,0,26,44H20A3.992,3.992,0,0,0,23,47.859Z" fill="#f9d18f"/>
      <path id="Trazado_1176957" data-name="Trazado 1176957" d="M51,9a4,4,0,0,0-4-4H45.787A5.494,5.494,0,0,0,35.213,5H13A4,4,0,0,0,9,9V55a4,4,0,0,0,4,4,4,4,0,0,0,4,4H51a4,4,0,0,0,4-4V13A4,4,0,0,0,51,9ZM11,55V9a2,2,0,0,1,2-2H35v7h2V6.5a3.5,3.5,0,0,1,7,0V13a2,2,0,0,1-4,0V7.5a.5.5,0,0,1,1,0V13h2V7.5a2.5,2.5,0,0,0-5,0V13a4,4,0,0,0,8,0V7h1a2,2,0,0,1,2,2V55a2,2,0,0,1-2,2H13A2,2,0,0,1,11,55Zm42,4a2,2,0,0,1-2,2H17a2,2,0,0,1-2-2H47a4,4,0,0,0,4-4V11a2,2,0,0,1,2,2Z"/>
      <path id="Trazado_1176958" data-name="Trazado 1176958" d="M13,11H33v2H13Z"/>
      <path id="Trazado_1176959" data-name="Trazado 1176959" d="M13,15H33v2H13Z"/>
      <path id="Trazado_1176960" data-name="Trazado 1176960" d="M13,19H47v2H13Z"/>
      <path id="Trazado_1176961" data-name="Trazado 1176961" d="M13,23H47v2H13Z"/>
      <path id="Trazado_1176962" data-name="Trazado 1176962" d="M13,27H43v2H13Z"/>
      <path id="Trazado_1176963" data-name="Trazado 1176963" d="M45,27h2v2H45Z"/>
      <path id="Trazado_1176964" data-name="Trazado 1176964" d="M31,36.816a3,3,0,1,0-2,0V38H17v2h2.523l-1.2,3H18a1,1,0,0,0-1,1,5,5,0,0,0,10,0,1,1,0,0,0-1-1h-.323l-1.2-3H29V53H25v2H35V53H31V40h4.523l-1.2,3H34a1,1,0,0,0-1,1,5,5,0,0,0,10,0,1,1,0,0,0-1-1h-.323l-1.2-3H43V38H31ZM30,33a1,1,0,1,1-1,1A1,1,0,0,1,30,33ZM22,47a3.006,3.006,0,0,1-2.829-2h5.658A3.006,3.006,0,0,1,22,47Zm1.523-4H20.477l1.2-3h.646ZM38,47a3.006,3.006,0,0,1-2.829-2h5.658A3.006,3.006,0,0,1,38,47Zm1.523-4H36.477l1.2-3h.646Z"/>
    </g>
  </g>
</svg>
