<svg xmlns="http://www.w3.org/2000/svg" xmlns:xlink="http://www.w3.org/1999/xlink" width="93.934" height="93.934" viewBox="0 0 93.934 93.934">
  <defs>
    <filter id="Trazado_982547" x="0" y="0" width="93.934" height="93.934" filterUnits="userSpaceOnUse">
      <feOffset dy="3" input="SourceAlpha"/>
      <feGaussianBlur stdDeviation="3" result="blur"/>
      <feFlood flood-opacity="0.161"/>
      <feComposite operator="in" in2="blur"/>
      <feComposite in="SourceGraphic"/>
    </filter>
  </defs>
  <g id="Grupo_1223002" data-name="Grupo 1223002" transform="translate(-508.066 -933)">
    <g id="Grupo_1220383" data-name="Grupo 1220383" transform="translate(317 -109.849)">
      <g id="Grupo_1215981" data-name="Grupo 1215981" transform="translate(-0.229 -2679.151)">
        <g id="Grupo_1214594" data-name="Grupo 1214594" transform="translate(200.295 3728)">
          <g id="Grupo_1214432" data-name="Grupo 1214432" transform="translate(0)">
            <g id="Grupo_1183196" data-name="Grupo 1183196">
              <g id="Grupo_1179610" data-name="Grupo 1179610">
                <g id="Grupo_1175227" data-name="Grupo 1175227">
                  <g id="Grupo_1167337" data-name="Grupo 1167337">
                    <g id="Grupo_1166720" data-name="Grupo 1166720">
                      <g id="Grupo_1164305" data-name="Grupo 1164305">
                        <g id="Grupo_1163948" data-name="Grupo 1163948">
                          <g id="Grupo_1158168" data-name="Grupo 1158168">
                            <g id="Grupo_1152576" data-name="Grupo 1152576">
                              <g id="Grupo_1148633" data-name="Grupo 1148633">
                                <g id="Grupo_1148525" data-name="Grupo 1148525">
                                  <g transform="matrix(1, 0, 0, 1, -9, -6)" filter="url(#Trazado_982547)">
                                    <g id="Trazado_982547-2" data-name="Trazado 982547" transform="translate(9 6)" fill="#eae4dc">
                                      <path d="M 37.966796875 74.43359375 C 33.04315185546875 74.43359375 28.26757431030273 73.46962738037109 23.77274131774902 71.56847381591797 C 19.43047523498535 69.73184967041016 15.53040790557861 67.10224914550781 12.18087482452393 63.75271987915039 C 8.831341743469238 60.4031867980957 6.201741218566895 56.50312042236328 4.365118980407715 52.16086196899414 C 2.463963508605957 47.66601943969727 1.499996900558472 42.89044189453125 1.499996900558472 37.966796875 C 1.499996900558472 33.04315185546875 2.463963508605957 28.26757431030273 4.365118980407715 23.77274131774902 C 6.201741218566895 19.43047523498535 8.831341743469238 15.53040790557861 12.18087482452393 12.18087482452393 C 15.53040790557861 8.831341743469238 19.43047523498535 6.201741218566895 23.77274131774902 4.365118980407715 C 28.26757431030273 2.463963508605957 33.04315185546875 1.499996900558472 37.966796875 1.499996900558472 C 42.89044189453125 1.499996900558472 47.66601943969727 2.463963508605957 52.16086196899414 4.365118980407715 C 56.50312042236328 6.201741218566895 60.4031867980957 8.831341743469238 63.75271987915039 12.18087482452393 C 67.10224914550781 15.53040790557861 69.73184967041016 19.43047523498535 71.56847381591797 23.77274131774902 C 73.46962738037109 28.26757431030273 74.43359375 33.04315185546875 74.43359375 37.966796875 C 74.43359375 42.89044189453125 73.46962738037109 47.66601943969727 71.56847381591797 52.16086196899414 C 69.73184967041016 56.50313186645508 67.10224914550781 60.4031867980957 63.75271987915039 63.75271987915039 C 60.4031867980957 67.10224914550781 56.50313186645508 69.73184967041016 52.16086196899414 71.56847381591797 C 47.66601943969727 73.46962738037109 42.89044189453125 74.43359375 37.966796875 74.43359375 Z" stroke="none"/>
                                      <path d="M 37.966796875 3 C 33.2449836730957 3 28.66600799560547 3.924095153808594 24.35705947875977 5.746635437011719 C 20.19359588623047 7.507637023925781 16.45379638671875 10.02928161621094 13.24153518676758 13.24153518676758 C 10.02927398681641 16.45379638671875 7.507621765136719 20.19359588623047 5.746635437011719 24.35705947875977 C 3.924095153808594 28.66600799560547 3 33.2449836730957 3 37.966796875 C 3 42.6886100769043 3.924095153808594 47.26758575439453 5.746635437011719 51.57653427124023 C 7.507621765136719 55.73999786376953 10.02927398681641 59.47979736328125 13.24153518676758 62.69205856323242 C 16.45379638671875 65.90431976318359 20.19359588623047 68.42597198486328 24.35705947875977 70.18695831298828 C 28.66600799560547 72.00949859619141 33.2449836730957 72.93359375 37.966796875 72.93359375 C 42.6886100769043 72.93359375 47.26758575439453 72.00949859619141 51.57653427124023 70.18695831298828 C 55.73999786376953 68.42597198486328 59.47979736328125 65.90431976318359 62.69205856323242 62.69205856323242 C 65.90431976318359 59.47979736328125 68.42597198486328 55.73999786376953 70.18695831298828 51.57653427124023 C 72.00949859619141 47.26758575439453 72.93359375 42.6886100769043 72.93359375 37.966796875 C 72.93359375 33.2449836730957 72.00949859619141 28.66600799560547 70.18695831298828 24.35705947875977 C 68.42597198486328 20.19359588623047 65.90431976318359 16.45379638671875 62.69205856323242 13.24153518676758 C 59.47979736328125 10.02928161621094 55.73999786376953 7.507637023925781 51.57653427124023 5.746635437011719 C 47.26758575439453 3.924095153808594 42.6886100769043 3 37.966796875 3 M 37.966796875 0 C 58.93528366088867 0 75.93359375 16.99832153320312 75.93359375 37.966796875 C 75.93359375 58.93528366088867 58.93528366088867 75.93359375 37.966796875 75.93359375 C 16.99831008911133 75.93359375 0 58.93528366088867 0 37.966796875 C 0 16.99832153320312 16.99831008911133 0 37.966796875 0 Z" stroke="none" fill="#665b4e"/>
                                    </g>
                                  </g>
                                </g>
                              </g>
                            </g>
                          </g>
                        </g>
                      </g>
                    </g>
                  </g>
                </g>
              </g>
            </g>
          </g>
        </g>
      </g>
    </g>
    <g id="ley_22_" data-name="ley (22)" transform="translate(513.055 954)">
      <g id="Grupo_1223000" data-name="Grupo 1223000" transform="translate(9.802 0.564)">
        <g id="Grupo_1222999" data-name="Grupo 1222999" transform="translate(0)">
          <path id="Trazado_1176930" data-name="Trazado 1176930" d="M49.455,128.45v6.777H17.589a1.143,1.143,0,0,1-1.143-1.143v-4.492a1.143,1.143,0,0,1,1.143-1.143Z" transform="translate(-16.446 -114.338)" fill="#d98f7a"/>
          <path id="Trazado_1176931" data-name="Trazado 1176931" d="M206.326,391.857,178.4,390.715v-4.309a1.714,1.714,0,0,1,1.714-1.714h24.5a1.714,1.714,0,0,1,1.714,1.714Z" transform="translate(-159.893 -341.302)" fill="#be6b4f"/>
          <path id="Trazado_1176932" data-name="Trazado 1176932" d="M391.267,384.692h-3.428a1.714,1.714,0,0,1,1.714,1.714v5.451l3.428-1.143v-4.309A1.714,1.714,0,0,0,391.267,384.692Z" transform="translate(-345.404 -341.302)" fill="#98513a"/>
          <path id="Trazado_1176933" data-name="Trazado 1176933" d="M171.35,437.4H137a1.714,1.714,0,0,0-1.714,1.714v4.81a1.143,1.143,0,0,0,1.143,1.143h35.5a1.143,1.143,0,0,0,1.143-1.143v-4.81A1.714,1.714,0,0,0,171.35,437.4Z" transform="translate(-121.704 -387.99)" fill="#d98f7a"/>
          <path id="Trazado_1176934" data-name="Trazado 1176934" d="M238.377,54.941H221.145V46.115l1.143-6.967-1.143-5.938V24.384h17.232Z" transform="translate(-197.757 -22.162)" fill="#d98f7a"/>
          <path id="Trazado_1176935" data-name="Trazado 1176935" d="M360.09,24.384V54.941h3.428V46.115l-1.143-6.489,1.143-15.242Z" transform="translate(-320.826 -22.162)" fill="#be6b4f"/>
          <path id="Trazado_1176936" data-name="Trazado 1176936" d="M221.145,101.635h16.763v12.9H221.145Z" transform="translate(-197.757 -90.586)" fill="#be6b4f"/>
          <path id="Trazado_1176937" data-name="Trazado 1176937" d="M360.09,101.635h3.428v12.9H360.09Z" transform="translate(-320.826 -90.586)" fill="#98513a"/>
          <path id="Trazado_1176938" data-name="Trazado 1176938" d="M434.382,437.4h-3.428a1.714,1.714,0,0,1,1.714,1.714v4.81a1.143,1.143,0,0,1-1.143,1.143h3.428a1.143,1.143,0,0,0,1.143-1.143v-4.81A1.714,1.714,0,0,0,434.382,437.4Z" transform="translate(-383.593 -387.99)" fill="#be6b4f"/>
          <path id="Trazado_1176939" data-name="Trazado 1176939" d="M220.033,12.044H201.381a2.272,2.272,0,1,1,0-4.544h18.652a2.272,2.272,0,1,1,0,4.544Z" transform="translate(-178.238 -7.207)" fill="#be6b4f"/>
          <path id="Trazado_1176940" data-name="Trazado 1176940" d="M365.669,7.5h-3.428a2.272,2.272,0,1,1,0,4.544h3.428a2.272,2.272,0,1,0,0-4.544Z" transform="translate(-322.731 -7.207)" fill="#98513a"/>
          <path id="Trazado_1176941" data-name="Trazado 1176941" d="M309.858,20.021c0,6.574-4.187,11.789-10.761,11.789a12.152,12.152,0,0,1-1.638,0,11.905,11.905,0,0,1,0-23.583,12.152,12.152,0,0,1,1.638,0C305.671,8.232,309.858,13.447,309.858,20.021Z" transform="translate(-256.259 -7.824)" fill="#ffe270"/>
          <path id="Trazado_1176942" data-name="Trazado 1176942" d="M378.678,7.5a12.005,12.005,0,0,0-1.638.113,11.9,11.9,0,0,1,0,23.581A11.9,11.9,0,1,0,378.678,7.5Z" transform="translate(-335.839 -7.207)" fill="#ffc533"/>
          <circle id="Elipse_14484" data-name="Elipse 14484" cx="8.628" cy="8.628" r="8.628" transform="translate(30.633 12.2) rotate(-45)" fill="#ffac1a"/>
          <path id="Trazado_1176943" data-name="Trazado 1176943" d="M220.033,273.485H201.381a2.272,2.272,0,1,1,0-4.544h18.652a2.272,2.272,0,1,1,0,4.544Z" transform="translate(-178.238 -238.776)" fill="#be6b4f"/>
          <path id="Trazado_1176944" data-name="Trazado 1176944" d="M365.669,268.941h-3.428a2.272,2.272,0,1,1,0,4.544h3.428a2.272,2.272,0,1,0,0-4.544Z" transform="translate(-322.731 -238.776)" fill="#98513a"/>
        </g>
      </g>
      <g id="Grupo_1223001" data-name="Grupo 1223001" transform="translate(8.945 0)">
        <path id="Trazado_1176945" data-name="Trazado 1176945" d="M165.848,383.215h-2.355v-3.452a2.574,2.574,0,0,0-2.571-2.571H144.146a.857.857,0,0,0,0,1.714h16.776a.858.858,0,0,1,.857.857v3.452H134.421v-3.452a.858.858,0,0,1,.857-.857h5.134a.857.857,0,0,0,0-1.714h-5.134a2.574,2.574,0,0,0-2.571,2.571v3.452h-2.355a2.574,2.574,0,0,0-2.571,2.571v4.81a2,2,0,0,0,2,2H166.42a2,2,0,0,0,2-2v-4.81A2.574,2.574,0,0,0,165.848,383.215Zm.857,7.381a.286.286,0,0,1-.286.286H129.781a.286.286,0,0,1-.286-.286v-4.81a.858.858,0,0,1,.857-.857h35.5a.858.858,0,0,1,.857.857Z" transform="translate(-114.203 -334.095)"/>
        <path id="Trazado_1176946" data-name="Trazado 1176946" d="M367.48,67.417a2.351,2.351,0,0,1-1.691-.443.857.857,0,0,0-.938,1.434,3.774,3.774,0,0,0,1.778.688v.375a.857.857,0,0,0,1.714,0v-.459a3.169,3.169,0,0,0,2.227-2.5,2.8,2.8,0,0,0-1.9-3.163,8.185,8.185,0,0,1-2.079-.966.688.688,0,0,1-.156-.653.943.943,0,0,1,.621-.744,1.679,1.679,0,0,1,1.535.239.456.456,0,0,0,.053.044l.128.1a.857.857,0,1,0,1.047-1.357l-.1-.079a3.171,3.171,0,0,0-1.374-.661v-.333a.857.857,0,0,0-1.714,0v.391l-.066.017a2.639,2.639,0,0,0-1.811,2.068,2.355,2.355,0,0,0,.782,2.319,8.931,8.931,0,0,0,2.566,1.233,1.077,1.077,0,0,1,.78,1.263,1.411,1.411,0,0,1-1.4,1.19Z" transform="translate(-323.842 -51.443)"/>
        <path id="Trazado_1176947" data-name="Trazado 1176947" d="M313.381,30.774a9.523,9.523,0,0,0-3.29,5.277.857.857,0,1,0,1.672.378,7.8,7.8,0,0,1,2.7-4.322,7.683,7.683,0,0,1,4.883-1.725,7.771,7.771,0,1,1-7.6,9.413.857.857,0,0,0-1.675.36,9.486,9.486,0,1,0,3.312-9.381Z" transform="translate(-275.646 -25.392)"/>
        <path id="Trazado_1176948" data-name="Trazado 1176948" d="M32.334,29.932a3.129,3.129,0,0,0,.611,6.2H52.74a3.129,3.129,0,0,0,.611-6.2V25.5A12.76,12.76,0,0,0,52.773,0L52.74,0H32.945a3.129,3.129,0,0,0-.611,6.2v7.622H24.041a.857.857,0,0,0,0,1.714h8.293V20.6H10.945a.286.286,0,0,1-.286-.286V15.819a.286.286,0,0,1,.286-.286h9.361a.857.857,0,0,0,0-1.714H10.945a2,2,0,0,0-2,2v4.492a2,2,0,0,0,2,2H32.333v7.622ZM41.666,6.258a12.669,12.669,0,0,0-1.627,4.5H34.047v-4.5ZM34.047,29.872v-4.5H50.66l.033,0q.467.072.944.109v4.39Zm0-6.212V12.47h5.837c0,.1,0,.194,0,.291a12.765,12.765,0,0,0,6.132,10.9ZM54.155,33a1.417,1.417,0,0,1-1.415,1.415H32.945a1.415,1.415,0,0,1,0-2.83H52.74A1.417,1.417,0,0,1,54.155,33Zm9.532-20.24A11.047,11.047,0,1,1,52.641,1.714,11.059,11.059,0,0,1,63.687,12.76ZM31.53,3.129a1.417,1.417,0,0,1,1.415-1.415H46.259a12.853,12.853,0,0,0-3.373,2.83H32.945A1.417,1.417,0,0,1,31.53,3.129Z" transform="translate(-8.945 0)"/>
      </g>
    </g>
  </g>
</svg>
