<svg xmlns="http://www.w3.org/2000/svg" xmlns:xlink="http://www.w3.org/1999/xlink" width="93.934" height="93.934" viewBox="0 0 93.934 93.934">
  <defs>
    <filter id="Trazado_982547" x="0" y="0" width="93.934" height="93.934" filterUnits="userSpaceOnUse">
      <feOffset dy="3" input="SourceAlpha"/>
      <feGaussianBlur stdDeviation="3" result="blur"/>
      <feFlood flood-opacity="0.161"/>
      <feComposite operator="in" in2="blur"/>
      <feComposite in="SourceGraphic"/>
    </filter>
  </defs>
  <g id="Grupo_1222871" data-name="Grupo 1222871" transform="translate(-191.066 -1562.849)">
    <g id="Grupo_1220368" data-name="Grupo 1220368" transform="translate(0 383)">
      <g id="Grupo_1219857" data-name="Grupo 1219857" transform="translate(0 137)">
        <g id="Grupo_1215981" data-name="Grupo 1215981" transform="translate(-0.229 -2679.151)">
          <g id="Grupo_1214594" data-name="Grupo 1214594" transform="translate(0 -1406)">
            <g id="Grupo_1214432" data-name="Grupo 1214432" transform="translate(-0.771 -2738.674)">
              <g id="Grupo_1183196" data-name="Grupo 1183196" transform="translate(1 1016.674)">
                <g id="Grupo_1179610" data-name="Grupo 1179610" transform="translate(8 4723.467)">
                  <g id="Grupo_1175227" data-name="Grupo 1175227" transform="translate(-5.967 140.533)">
                    <g id="Grupo_1167337" data-name="Grupo 1167337" transform="translate(198.033 1992)">
                      <g id="Grupo_1166720" data-name="Grupo 1166720">
                        <g id="Grupo_1164305" data-name="Grupo 1164305">
                          <g id="Grupo_1163948" data-name="Grupo 1163948">
                            <g id="Grupo_1158168" data-name="Grupo 1158168">
                              <g id="Grupo_1152576" data-name="Grupo 1152576">
                                <g id="Grupo_1148633" data-name="Grupo 1148633">
                                  <g id="Grupo_1148525" data-name="Grupo 1148525">
                                    <g transform="matrix(1, 0, 0, 1, -9, -6)" filter="url(#Trazado_982547)">
                                      <g id="Trazado_982547-2" data-name="Trazado 982547" transform="translate(9 6)" fill="#eae4dc">
                                        <path d="M 37.966796875 74.43359375 C 33.04315185546875 74.43359375 28.26757431030273 73.46962738037109 23.77274131774902 71.56847381591797 C 19.43047523498535 69.73184967041016 15.53040790557861 67.10224914550781 12.18087482452393 63.75271987915039 C 8.831341743469238 60.4031867980957 6.201741218566895 56.50312042236328 4.365118980407715 52.16086196899414 C 2.463963508605957 47.66601943969727 1.499996900558472 42.89044189453125 1.499996900558472 37.966796875 C 1.499996900558472 33.04315185546875 2.463963508605957 28.26757431030273 4.365118980407715 23.77274131774902 C 6.201741218566895 19.43047523498535 8.831341743469238 15.53040790557861 12.18087482452393 12.18087482452393 C 15.53040790557861 8.831341743469238 19.43047523498535 6.201741218566895 23.77274131774902 4.365118980407715 C 28.26757431030273 2.463963508605957 33.04315185546875 1.499996900558472 37.966796875 1.499996900558472 C 42.89044189453125 1.499996900558472 47.66601943969727 2.463963508605957 52.16086196899414 4.365118980407715 C 56.50312042236328 6.201741218566895 60.4031867980957 8.831341743469238 63.75271987915039 12.18087482452393 C 67.10224914550781 15.53040790557861 69.73184967041016 19.43047523498535 71.56847381591797 23.77274131774902 C 73.46962738037109 28.26757431030273 74.43359375 33.04315185546875 74.43359375 37.966796875 C 74.43359375 42.89044189453125 73.46962738037109 47.66601943969727 71.56847381591797 52.16086196899414 C 69.73184967041016 56.50313186645508 67.10224914550781 60.4031867980957 63.75271987915039 63.75271987915039 C 60.4031867980957 67.10224914550781 56.50313186645508 69.73184967041016 52.16086196899414 71.56847381591797 C 47.66601943969727 73.46962738037109 42.89044189453125 74.43359375 37.966796875 74.43359375 Z" stroke="none"/>
                                        <path d="M 37.966796875 3 C 33.2449836730957 3 28.66600799560547 3.924095153808594 24.35705947875977 5.746635437011719 C 20.19359588623047 7.507637023925781 16.45379638671875 10.02928161621094 13.24153518676758 13.24153518676758 C 10.02927398681641 16.45379638671875 7.507621765136719 20.19359588623047 5.746635437011719 24.35705947875977 C 3.924095153808594 28.66600799560547 3 33.2449836730957 3 37.966796875 C 3 42.6886100769043 3.924095153808594 47.26758575439453 5.746635437011719 51.57653427124023 C 7.507621765136719 55.73999786376953 10.02927398681641 59.47979736328125 13.24153518676758 62.69205856323242 C 16.45379638671875 65.90431976318359 20.19359588623047 68.42597198486328 24.35705947875977 70.18695831298828 C 28.66600799560547 72.00949859619141 33.2449836730957 72.93359375 37.966796875 72.93359375 C 42.6886100769043 72.93359375 47.26758575439453 72.00949859619141 51.57653427124023 70.18695831298828 C 55.73999786376953 68.42597198486328 59.47979736328125 65.90431976318359 62.69205856323242 62.69205856323242 C 65.90431976318359 59.47979736328125 68.42597198486328 55.73999786376953 70.18695831298828 51.57653427124023 C 72.00949859619141 47.26758575439453 72.93359375 42.6886100769043 72.93359375 37.966796875 C 72.93359375 33.2449836730957 72.00949859619141 28.66600799560547 70.18695831298828 24.35705947875977 C 68.42597198486328 20.19359588623047 65.90431976318359 16.45379638671875 62.69205856323242 13.24153518676758 C 59.47979736328125 10.02928161621094 55.73999786376953 7.507637023925781 51.57653427124023 5.746635437011719 C 47.26758575439453 3.924095153808594 42.6886100769043 3 37.966796875 3 M 37.966796875 0 C 58.93528366088867 0 75.93359375 16.99832153320312 75.93359375 37.966796875 C 75.93359375 58.93528366088867 58.93528366088867 75.93359375 37.966796875 75.93359375 C 16.99831008911133 75.93359375 0 58.93528366088867 0 37.966796875 C 0 16.99832153320312 16.99831008911133 0 37.966796875 0 Z" stroke="none" fill="#665b4e"/>
                                      </g>
                                    </g>
                                  </g>
                                </g>
                              </g>
                            </g>
                          </g>
                        </g>
                      </g>
                    </g>
                  </g>
                </g>
              </g>
            </g>
          </g>
        </g>
      </g>
    </g>
    <g id="Filled_outline" data-name="Filled outline" transform="translate(214 1581)">
      <path id="Trazado_1176391" data-name="Trazado 1176391" d="M3,3H45V61H3Z" fill="#f4f4e6"/>
      <path id="Trazado_1176392" data-name="Trazado 1176392" d="M40,56h2v2H40Z" fill="#2d75bb"/>
      <path id="Trazado_1176393" data-name="Trazado 1176393" d="M36,56h2v2H36Z" fill="#2d75bb"/>
      <path id="Trazado_1176394" data-name="Trazado 1176394" d="M40,35,51,24l3,3-8,8Z" fill="#195c85"/>
      <path id="Trazado_1176395" data-name="Trazado 1176395" d="M37,39l-3,3,3,3,6-6Z" fill="#195c85"/>
      <path id="Trazado_1176396" data-name="Trazado 1176396" d="M34,42l-3,5,1,1,5-3Z" fill="#50b4f8"/>
      <path id="Trazado_1176397" data-name="Trazado 1176397" d="M51.879,21.879h4.243v4.243H51.879Z" transform="translate(-1.154 45.213) rotate(-45)" fill="#50b4f8"/>
      <path id="Trazado_1176398" data-name="Trazado 1176398" d="M47,28l-9,2-1,5h3Z" fill="#f9bb4b"/>
      <path id="Trazado_1176399" data-name="Trazado 1176399" d="M45,39h1l3,4v1a2,2,0,0,1-4,0Z" fill="#f4aa34"/>
      <path id="Trazado_1176400" data-name="Trazado 1176400" d="M45,39v5a2,2,0,0,1-4,0V41l2-2Z" fill="#f9bb4b"/>
      <path id="Trazado_1176401" data-name="Trazado 1176401" d="M58,36l-6-7-6,6H37a2,2,0,0,0,0,4h9l6,8h4l5,2V36Z" fill="#ffd782"/>
      <circle id="Elipse_14470" data-name="Elipse 14470" cx="6" cy="6" r="6" transform="translate(18 7)" fill="#f98c96"/>
      <g id="Grupo_1222870" data-name="Grupo 1222870">
        <path id="Trazado_1176402" data-name="Trazado 1176402" d="M11,22H41v2H11Z" fill="#394d5c"/>
        <path id="Trazado_1176403" data-name="Trazado 1176403" d="M7,26H25v2H7Z" fill="#394d5c"/>
        <path id="Trazado_1176404" data-name="Trazado 1176404" d="M27,26H41v2H27Z" fill="#394d5c"/>
        <path id="Trazado_1176405" data-name="Trazado 1176405" d="M7,30h8v2H7Z" fill="#394d5c"/>
        <path id="Trazado_1176406" data-name="Trazado 1176406" d="M17,30H35v2H17Z" fill="#394d5c"/>
        <path id="Trazado_1176407" data-name="Trazado 1176407" d="M7,34H21v2H7Z" fill="#394d5c"/>
        <path id="Trazado_1176408" data-name="Trazado 1176408" d="M23,34h9v2H23Z" fill="#394d5c"/>
      </g>
      <path id="Trazado_1176409" data-name="Trazado 1176409" d="M61,35H58.46l-5.1-5.948,4.345-4.345a1,1,0,0,0,0-1.414l-3-3a1,1,0,0,0-1.414,0L46.5,27.086,46,27.2V2H2V62H46V46.816a2.934,2.934,0,0,0,3.6-1.349L51.2,47.6a1,1,0,0,0,.8.4h3.808l4.82,1.929A1,1,0,0,0,62,49V36a1,1,0,0,0-1-1ZM54,22.414,55.586,24,54,25.586,52.414,24Zm-3,3L52.586,27l-7,7H42.414ZM39.586,34H38.22l.633-3.165,5.012-1.114ZM44,60H4V4H44V27.642l-6.217,1.381a1,1,0,0,0-.763.781l-.867,4.333a2.975,2.975,0,0,0-.952,5.248l-1.908,1.908a1.787,1.787,0,0,0-.15.192l-3,5a.993.993,0,0,0-.022.98l-.828.828a1.063,1.063,0,0,0-.125.152c-.216.325-.642.868-1.063.868-.486,0-1.064-.634-1.266-.937a1,1,0,0,0-.832-.455H26a1,1,0,0,0-.832.445c-.22.331-.655.886-1.091.888-.48,0-1.046-.6-1.242-.888a.994.994,0,0,0-1.148-.393,12.905,12.905,0,0,1-2.346.5,5.581,5.581,0,0,0,.884-1.524A4,4,0,0,0,19.86,43.4,4.25,4.25,0,0,0,15.7,41.017a5.3,5.3,0,0,0-4.25,3.483,3.811,3.811,0,0,0,.847,4.127,6.066,6.066,0,0,0,1.974,1.308,29.651,29.651,0,0,1-4.583,2.037l.632,1.9a28.616,28.616,0,0,0,6.748-3.318,15.228,15.228,0,0,0,4.582-.488,3.474,3.474,0,0,0,2.428,1.191,2.837,2.837,0,0,0,1.947-.813,3.219,3.219,0,0,0,2.068.872h.017a3.273,3.273,0,0,0,2.668-1.673l.768-.768A.984.984,0,0,0,32,49a1,1,0,0,0,.515-.143l5-3a1.786,1.786,0,0,0,.192-.15L40,43.414V44a3,3,0,0,0,3,3,2.966,2.966,0,0,0,1-.184ZM35.387,44.8l-2.971,1.784L34.2,43.613Zm-17.04,1.457a5.563,5.563,0,0,1-1.847,2.22,4.9,4.9,0,0,1-2.793-1.263,1.853,1.853,0,0,1-.377-2.039,3.333,3.333,0,0,1,2.56-2.165c.067-.006.133-.01.2-.01a2.455,2.455,0,0,1,2.054,1.436,1.984,1.984,0,0,1,.2,1.822ZM35.414,42l2-2h3.172L37,43.586ZM44,44a1,1,0,0,1-2,0V41.414L43.414,40H44Zm4,0a1,1,0,0,1-2,0V40.667l2,2.666Zm12,3.523-3.628-1.452A1.012,1.012,0,0,0,56,46H52.5l-5.7-7.6A1,1,0,0,0,46,38H37a1,1,0,0,1,0-2h9a1,1,0,0,0,.707-.293l5.236-5.236,5.3,6.179A1,1,0,0,0,58,37h2Z"/>
      <path id="Trazado_1176410" data-name="Trazado 1176410" d="M53.8,35.4l-1.6,1.2,3,4a1,1,0,0,0,.8.4h2V39H56.5Z"/>
      <path id="Trazado_1176411" data-name="Trazado 1176411" d="M40,56h2v2H40Z"/>
      <path id="Trazado_1176412" data-name="Trazado 1176412" d="M36,56h2v2H36Z"/>
      <path id="Trazado_1176413" data-name="Trazado 1176413" d="M24,20a7,7,0,1,0-7-7,7,7,0,0,0,7,7ZM24,8a5,5,0,1,1-5,5A5,5,0,0,1,24,8Z"/>
      <path id="Trazado_1176414" data-name="Trazado 1176414" d="M11,22H41v2H11Z"/>
      <path id="Trazado_1176415" data-name="Trazado 1176415" d="M7,26H25v2H7Z"/>
      <path id="Trazado_1176416" data-name="Trazado 1176416" d="M27,26H41v2H27Z"/>
      <path id="Trazado_1176417" data-name="Trazado 1176417" d="M7,30h8v2H7Z"/>
      <path id="Trazado_1176418" data-name="Trazado 1176418" d="M17,30H35v2H17Z"/>
      <path id="Trazado_1176419" data-name="Trazado 1176419" d="M7,34H21v2H7Z"/>
      <path id="Trazado_1176420" data-name="Trazado 1176420" d="M23,34h9v2H23Z"/>
    </g>
  </g>
</svg>
