<svg xmlns="http://www.w3.org/2000/svg" xmlns:xlink="http://www.w3.org/1999/xlink" width="93.934" height="93.934" viewBox="0 0 93.934 93.934">
  <defs>
    <filter id="Trazado_982547" x="0" y="0" width="93.934" height="93.934" filterUnits="userSpaceOnUse">
      <feOffset dy="3" input="SourceAlpha"/>
      <feGaussianBlur stdDeviation="3" result="blur"/>
      <feFlood flood-opacity="0.161"/>
      <feComposite operator="in" in2="blur"/>
      <feComposite in="SourceGraphic"/>
    </filter>
  </defs>
  <g id="Grupo_1222997" data-name="Grupo 1222997" transform="translate(-1136.066 -928.033)">
    <g id="Grupo_1220385" data-name="Grupo 1220385" transform="translate(945 -114.816)">
      <g id="Grupo_1215981" data-name="Grupo 1215981" transform="translate(-0.229 -2679.151)">
        <g id="Grupo_1214594" data-name="Grupo 1214594" transform="translate(200.295 3728)">
          <g id="Grupo_1214432" data-name="Grupo 1214432" transform="translate(0)">
            <g id="Grupo_1183196" data-name="Grupo 1183196">
              <g id="Grupo_1179610" data-name="Grupo 1179610">
                <g id="Grupo_1175227" data-name="Grupo 1175227">
                  <g id="Grupo_1167337" data-name="Grupo 1167337">
                    <g id="Grupo_1166720" data-name="Grupo 1166720">
                      <g id="Grupo_1164305" data-name="Grupo 1164305">
                        <g id="Grupo_1163948" data-name="Grupo 1163948">
                          <g id="Grupo_1158168" data-name="Grupo 1158168">
                            <g id="Grupo_1152576" data-name="Grupo 1152576">
                              <g id="Grupo_1148633" data-name="Grupo 1148633">
                                <g id="Grupo_1148525" data-name="Grupo 1148525">
                                  <g transform="matrix(1, 0, 0, 1, -9, -6)" filter="url(#Trazado_982547)">
                                    <g id="Trazado_982547-2" data-name="Trazado 982547" transform="translate(9 6)" fill="#eae4dc">
                                      <path d="M 37.966796875 74.43359375 C 33.04315185546875 74.43359375 28.26757431030273 73.46962738037109 23.77274131774902 71.56847381591797 C 19.43047523498535 69.73184967041016 15.53040790557861 67.10224914550781 12.18087482452393 63.75271987915039 C 8.831341743469238 60.4031867980957 6.201741218566895 56.50312042236328 4.365118980407715 52.16086196899414 C 2.463963508605957 47.66601943969727 1.499996900558472 42.89044189453125 1.499996900558472 37.966796875 C 1.499996900558472 33.04315185546875 2.463963508605957 28.26757431030273 4.365118980407715 23.77274131774902 C 6.201741218566895 19.43047523498535 8.831341743469238 15.53040790557861 12.18087482452393 12.18087482452393 C 15.53040790557861 8.831341743469238 19.43047523498535 6.201741218566895 23.77274131774902 4.365118980407715 C 28.26757431030273 2.463963508605957 33.04315185546875 1.499996900558472 37.966796875 1.499996900558472 C 42.89044189453125 1.499996900558472 47.66601943969727 2.463963508605957 52.16086196899414 4.365118980407715 C 56.50312042236328 6.201741218566895 60.4031867980957 8.831341743469238 63.75271987915039 12.18087482452393 C 67.10224914550781 15.53040790557861 69.73184967041016 19.43047523498535 71.56847381591797 23.77274131774902 C 73.46962738037109 28.26757431030273 74.43359375 33.04315185546875 74.43359375 37.966796875 C 74.43359375 42.89044189453125 73.46962738037109 47.66601943969727 71.56847381591797 52.16086196899414 C 69.73184967041016 56.50313186645508 67.10224914550781 60.4031867980957 63.75271987915039 63.75271987915039 C 60.4031867980957 67.10224914550781 56.50313186645508 69.73184967041016 52.16086196899414 71.56847381591797 C 47.66601943969727 73.46962738037109 42.89044189453125 74.43359375 37.966796875 74.43359375 Z" stroke="none"/>
                                      <path d="M 37.966796875 3 C 33.2449836730957 3 28.66600799560547 3.924095153808594 24.35705947875977 5.746635437011719 C 20.19359588623047 7.507637023925781 16.45379638671875 10.02928161621094 13.24153518676758 13.24153518676758 C 10.02927398681641 16.45379638671875 7.507621765136719 20.19359588623047 5.746635437011719 24.35705947875977 C 3.924095153808594 28.66600799560547 3 33.2449836730957 3 37.966796875 C 3 42.6886100769043 3.924095153808594 47.26758575439453 5.746635437011719 51.57653427124023 C 7.507621765136719 55.73999786376953 10.02927398681641 59.47979736328125 13.24153518676758 62.69205856323242 C 16.45379638671875 65.90431976318359 20.19359588623047 68.42597198486328 24.35705947875977 70.18695831298828 C 28.66600799560547 72.00949859619141 33.2449836730957 72.93359375 37.966796875 72.93359375 C 42.6886100769043 72.93359375 47.26758575439453 72.00949859619141 51.57653427124023 70.18695831298828 C 55.73999786376953 68.42597198486328 59.47979736328125 65.90431976318359 62.69205856323242 62.69205856323242 C 65.90431976318359 59.47979736328125 68.42597198486328 55.73999786376953 70.18695831298828 51.57653427124023 C 72.00949859619141 47.26758575439453 72.93359375 42.6886100769043 72.93359375 37.966796875 C 72.93359375 33.2449836730957 72.00949859619141 28.66600799560547 70.18695831298828 24.35705947875977 C 68.42597198486328 20.19359588623047 65.90431976318359 16.45379638671875 62.69205856323242 13.24153518676758 C 59.47979736328125 10.02928161621094 55.73999786376953 7.507637023925781 51.57653427124023 5.746635437011719 C 47.26758575439453 3.924095153808594 42.6886100769043 3 37.966796875 3 M 37.966796875 0 C 58.93528366088867 0 75.93359375 16.99832153320312 75.93359375 37.966796875 C 75.93359375 58.93528366088867 58.93528366088867 75.93359375 37.966796875 75.93359375 C 16.99831008911133 75.93359375 0 58.93528366088867 0 37.966796875 C 0 16.99832153320312 16.99831008911133 0 37.966796875 0 Z" stroke="none" fill="#665b4e"/>
                                    </g>
                                  </g>
                                </g>
                              </g>
                            </g>
                          </g>
                        </g>
                      </g>
                    </g>
                  </g>
                </g>
              </g>
            </g>
          </g>
        </g>
      </g>
    </g>
    <g id="ley_21_" data-name="ley (21)" transform="translate(1145.067 932.66)">
      <g id="Grupo_1222988" data-name="Grupo 1222988" transform="translate(14.852 53.74)">
        <g id="Grupo_1222983" data-name="Grupo 1222983" transform="translate(0 3.641)">
          <path id="Trazado_1176875" data-name="Trazado 1176875" d="M153.477,358.219a11.592,11.592,0,0,0,2.783,7.634H114.312a1.327,1.327,0,0,1-1.083-.554,13.513,13.513,0,0,1,0-14.16,1.327,1.327,0,0,1,1.083-.554h41.947A11.593,11.593,0,0,0,153.477,358.219Z" transform="translate(-111.226 -350.585)" fill="#fb3a82"/>
          <path id="Trazado_1176876" data-name="Trazado 1176876" d="M124.027,350.587,112.2,363.4a13.4,13.4,0,0,1-.968-5.179,12.115,12.115,0,0,1,2-7.08,1.325,1.325,0,0,1,1.083-.554Z" transform="translate(-111.229 -350.587)" fill="#fb1466"/>
          <path id="Trazado_1176877" data-name="Trazado 1176877" d="M188.042,358.219a11.592,11.592,0,0,0,2.783,7.634H148.239s-2.448-2.479-2.448-7.634,2.448-7.634,2.448-7.634h42.585A11.593,11.593,0,0,0,188.042,358.219Z" transform="translate(-141.175 -350.585)" fill="#e0d3ce"/>
          <g id="Grupo_1222982" data-name="Grupo 1222982" transform="translate(4.616 0)">
            <path id="Trazado_1176878" data-name="Trazado 1176878" d="M153.972,350.587l-8.138,8.815c-.028-.377-.044-.771-.044-1.18,0-5.156,2.448-7.634,2.448-7.634Z" transform="translate(-145.79 -350.587)" fill="#cdbfbb"/>
            <path id="Trazado_1176879" data-name="Trazado 1176879" d="M429.445,358.226a11.59,11.59,0,0,0,2.783,7.634h-5.046a11.861,11.861,0,0,1,0-15.267h5.046A11.587,11.587,0,0,0,429.445,358.226Z" transform="translate(-387.194 -350.591)" fill="#cdbfbb"/>
          </g>
        </g>
        <g id="Grupo_1222987" data-name="Grupo 1222987" transform="translate(5.746)">
          <g id="Grupo_1222985" data-name="Grupo 1222985" transform="translate(0)">
            <path id="Trazado_1176880" data-name="Trazado 1176880" d="M201.029,325.534a2.216,2.216,0,0,1-2.215,2.215H156.475a2.216,2.216,0,0,1,0-4.432h42.338a2.216,2.216,0,0,1,2.215,2.217Z" transform="translate(-154.26 -323.317)" fill="#fb3a82"/>
            <g id="Grupo_1222984" data-name="Grupo 1222984">
              <path id="Trazado_1176881" data-name="Trazado 1176881" d="M164.672,323.317l-4.09,4.432h-4.106a2.216,2.216,0,0,1,0-4.432Z" transform="translate(-154.26 -323.317)" fill="#fb1466"/>
              <path id="Trazado_1176882" data-name="Trazado 1176882" d="M462.228,325.536a2.218,2.218,0,0,1-2.217,2.217h-4.3a2.216,2.216,0,0,0,0-4.432h4.3A2.217,2.217,0,0,1,462.228,325.536Z" transform="translate(-415.457 -323.32)" fill="#fb1466"/>
            </g>
          </g>
          <g id="Grupo_1222986" data-name="Grupo 1222986" transform="translate(0 18.118)">
            <path id="Trazado_1176883" data-name="Trazado 1176883" d="M198.811,463.428H156.473a2.216,2.216,0,1,1,0-4.432h42.338a2.216,2.216,0,1,1,0,4.432Z" transform="translate(-154.257 -458.996)" fill="#fb3a82"/>
            <path id="Trazado_1176884" data-name="Trazado 1176884" d="M462.228,461.215a2.215,2.215,0,0,1-2.217,2.215h-4.3a2.215,2.215,0,1,0,0-4.431h4.3A2.217,2.217,0,0,1,462.228,461.215Z" transform="translate(-415.457 -458.999)" fill="#fb1466"/>
          </g>
        </g>
      </g>
      <g id="Grupo_1222996" data-name="Grupo 1222996" transform="translate(-0.001 12.193)">
        <g id="Grupo_1222991" data-name="Grupo 1222991" transform="translate(1.002 26.466)">
          <g id="Grupo_1222989" data-name="Grupo 1222989" transform="translate(0 8.476)">
            <path id="Trazado_1176885" data-name="Trazado 1176885" d="M36.671,277.434l-3.577-3.577L8.741,296.338a3.856,3.856,0,1,0,5.449,5.449Z" transform="translate(-7.5 -273.857)" fill="#873f30"/>
            <path id="Trazado_1176886" data-name="Trazado 1176886" d="M15.311,309.038a3.858,3.858,0,0,1-5.452,0,3.819,3.819,0,0,1-.941-1.537,3.851,3.851,0,0,0,3.913-.937c.037-.037.074-.076.11-.114L35.422,282.1l2.477,2.477L15.418,308.926C15.382,308.964,15.347,309,15.311,309.038Z" transform="translate(-8.729 -280.996)" fill="#6c3328"/>
          </g>
          <path id="Trazado_1176887" data-name="Trazado 1176887" d="M198.874,210.382l-8.238,9.826L194,223.573l9.826-8.238Z" transform="translate(-166.18 -210.382)" fill="#873f30"/>
          <path id="Trazado_1176888" data-name="Trazado 1176888" d="M207.474,210.382l-2.662,3.175.8.8a1.505,1.505,0,0,1,0,2.129l-5.049,5.049,2.04,2.04,9.826-8.238Z" transform="translate(-174.781 -210.382)" fill="#6c3328"/>
          <g id="Grupo_1222990" data-name="Grupo 1222990" transform="translate(21.73 7.814)">
            <path id="Trazado_1176889" data-name="Trazado 1176889" d="M174.2,276.294l-3.267-3.267a2.418,2.418,0,0,1,3.42-3.42l3.267,3.267a2.418,2.418,0,0,1-3.42,3.42Z" transform="translate(-170.222 -268.899)" fill="#ba5d4f"/>
            <path id="Trazado_1176890" data-name="Trazado 1176890" d="M187.337,286.019a2.418,2.418,0,0,1-3.42,0l-2.476-2.476a2.418,2.418,0,0,0,3.42-3.42l2.476,2.476a2.417,2.417,0,0,1,0,3.42Z" transform="translate(-179.943 -278.624)" fill="#a34f41"/>
          </g>
        </g>
        <g id="Grupo_1222992" data-name="Grupo 1222992" transform="translate(26.576 4.007)">
          <path id="Trazado_1176891" data-name="Trazado 1176891" d="M0,0H10.259V16.106H0Z" transform="translate(11.387 0) rotate(45)" fill="#ba5d4f"/>
          <path id="Trazado_1176892" data-name="Trazado 1176892" d="M0,0H10.259V16.106H0Z" transform="translate(23.141 34.538) rotate(-135)" fill="#a34f41"/>
        </g>
        <g id="Grupo_1222995" data-name="Grupo 1222995" transform="translate(0)">
          <path id="Trazado_1176893" data-name="Trazado 1176893" d="M177.448,36.586l-.252-.252a2.446,2.446,0,0,1,0-3.46L189.66,20.41a2.446,2.446,0,0,1,3.46,0l.252.252a2.446,2.446,0,0,1,0,3.46L180.908,36.586A2.447,2.447,0,0,1,177.448,36.586Z" transform="translate(-152.913 -18.692)" fill="#873f30"/>
          <path id="Trazado_1176894" data-name="Trazado 1176894" d="M348.96,208.1l.252.252a2.446,2.446,0,0,0,3.46,0l12.464-12.464a2.446,2.446,0,0,0,0-3.46l-.252-.252a2.446,2.446,0,0,0-3.46,0L348.96,204.637A2.447,2.447,0,0,0,348.96,208.1Z" transform="translate(-301.74 -167.518)" fill="#6c3328"/>
          <g id="Grupo_1222994" data-name="Grupo 1222994">
            <path id="Trazado_1176895" data-name="Trazado 1176895" d="M0,0H11.521V24.325H0Z" transform="translate(48.364 8.596) rotate(45)" fill="#fcc16d"/>
            <path id="Trazado_1176896" data-name="Trazado 1176896" d="M0,0H24.325V5.831H0Z" transform="translate(35.184 29.826) rotate(-45)" fill="#fca62f"/>
            <path id="Trazado_1176897" data-name="Trazado 1176897" d="M242.19,67.818l-2-.816a1.835,1.835,0,0,0-1.992.4L224.19,81.416a1.835,1.835,0,0,0-.4,1.992l.816,2a1.223,1.223,0,0,0,2,.4l15.99-15.99A1.223,1.223,0,0,0,242.19,67.818Z" transform="translate(-193.786 -59.565)" fill="#873f30"/>
            <path id="Trazado_1176898" data-name="Trazado 1176898" d="M306.766,132.4l.816,2a1.835,1.835,0,0,1-.4,1.992L293.168,150.4a1.835,1.835,0,0,1-1.992.4l-2-.816a1.223,1.223,0,0,1-.4-2l15.99-15.99A1.223,1.223,0,0,1,306.766,132.4Z" transform="translate(-249.905 -115.685)" fill="#6c3328"/>
            <g id="Grupo_1222993" data-name="Grupo 1222993">
              <path id="Trazado_1176899" data-name="Trazado 1176899" d="M65.153,70.857h-.745a10.358,10.358,0,0,1-.863-1.644,1,1,0,1,0-1.851.766c.124.3.262.591.408.878H22.815a3.2,3.2,0,0,0-.873.121,11.643,11.643,0,0,1-1.472-5.963c0-.437.019-.867.057-1.289H39.715a1,1,0,0,0,0-2H21.37l2.353-2.549H62.1a12.5,12.5,0,0,0-.964,2.549H47.968a1,1,0,0,0,0,2H60.782c-.039.407-.062.818-.064,1.232a1,1,0,0,0,1,1.006h0a1,1,0,0,0,1-1,10.717,10.717,0,0,1,1.684-5.793h.747a3.217,3.217,0,1,0,0-6.435H52.633L64.1,41.268a3.448,3.448,0,0,0,0-4.876l-.252-.252a3.446,3.446,0,0,0-4.7-.164L57.38,34.2l.6-.6a2.83,2.83,0,0,0,.62-3.079l-.816-2a2.22,2.22,0,0,0-1.611-1.337l-1.393-1.393a1,1,0,0,0-1.416,1.416l.685.685L38.268,43.68l-4.642-4.642L49.411,23.254l.614.614a1,1,0,1,0,1.416-1.416L50.119,21.13a2.22,2.22,0,0,0-1.337-1.611h0l-2-.816a2.83,2.83,0,0,0-3.079.62l-.6.6-1.773-1.773a3.446,3.446,0,0,0-.164-4.7l-.252-.252a3.448,3.448,0,0,0-4.876,0L23.575,25.667a3.448,3.448,0,0,0,0,4.876l.252.252a3.446,3.446,0,0,0,4.7.164L30.3,32.732l-.6.6a2.83,2.83,0,0,0-.62,3.079l.816,2a2.219,2.219,0,0,0,1.588,1.332l-5.022,5.99a3.422,3.422,0,0,0-4.52,4.338l-2.277,2.1a1,1,0,0,0,1.359,1.472l2.1-1.943L25.6,54.183l-18.65,20.2a2.855,2.855,0,1,1-4.034-4.034l14.629-13.5a1,1,0,0,0-1.359-1.472L1.562,68.88a4.858,4.858,0,0,0,3.292,8.427h.1a4.816,4.816,0,0,0,3.472-1.562l6-6.5a11.543,11.543,0,0,0,1.61,3.434,2.332,2.332,0,0,0,1.9.975h1.687a3.212,3.212,0,0,0,3.189,3.641H65.153a3.217,3.217,0,0,0,0-6.435Zm1.214-14.9a1.216,1.216,0,0,1-1.214,1.214H25.573l1.665-1.8a3.423,3.423,0,0,0,3.416-.625h34.5A1.216,1.216,0,0,1,66.367,55.956ZM36.152,44.4l-5.8,4.862-2.306-2.306,4.862-5.8Zm-4.369,8.341a3.439,3.439,0,0,0-.209-1.89l5.99-5.022A2.22,2.22,0,0,0,38.9,47.416l2,.816a2.831,2.831,0,0,0,3.079-.62l.6-.6,1.773,1.773a3.454,3.454,0,0,0-.4,3.958H31.783Zm29.63-15.606a1.436,1.436,0,0,1,1.022.423l.252.252a1.445,1.445,0,0,1,0,2.043L50.223,52.316a1.445,1.445,0,0,1-2.043,0l-.252-.252a1.446,1.446,0,0,1,0-2.043L60.392,37.556a1.435,1.435,0,0,1,1.022-.423Zm-3.684.253-9.972,9.972-1.766-1.766,9.972-9.973ZM39.582,45.2l15.99-15.99a.211.211,0,0,1,.153-.065.244.244,0,0,1,.047,0,.213.213,0,0,1,.161.134l.816,2a.831.831,0,0,1-.182.9L42.555,46.2a.831.831,0,0,1-.9.182l-2-.816a.222.222,0,0,1-.073-.362ZM26.265,29.8a1.435,1.435,0,0,1-1.022-.423l-.252-.252a1.445,1.445,0,0,1,0-2.043L37.455,14.62a1.445,1.445,0,0,1,2.043,0l.252.252a1.445,1.445,0,0,1,0,2.043L27.287,29.379a1.437,1.437,0,0,1-1.022.423Zm3.684-.253,9.973-9.972,1.766,1.766-9.973,9.973Zm1.163,5.2L45.124,20.739a.831.831,0,0,1,.9-.182l2,.816a.222.222,0,0,1,.073.362l-15.99,15.99a.222.222,0,0,1-.362-.073l-.816-2A.832.832,0,0,1,31.111,34.752ZM23.732,48.891a1.417,1.417,0,0,1,2.418-1l3.266,3.266a1.417,1.417,0,1,1-2,2l-3.266-3.266a1.407,1.407,0,0,1-.415-1Zm-6.06,22.623a10.1,10.1,0,0,1-1.6-4.047l2.4-2.6c0,.05,0,.1,0,.149a13.9,13.9,0,0,0,1.553,6.632H17.939A.326.326,0,0,1,17.672,71.515Zm47.481,3.774H22.815a1.214,1.214,0,1,1,0-2.429H65.153a1.214,1.214,0,0,1,0,2.429Z" transform="translate(0.001 -12.193)"/>
              <path id="Trazado_1176900" data-name="Trazado 1176900" d="M203.329,417.166a1,1,0,1,0,0,2h23.333a1,1,0,1,0,0-2Z" transform="translate(-175.309 -363.087)"/>
            </g>
          </g>
        </g>
      </g>
    </g>
  </g>
</svg>
