<svg xmlns="http://www.w3.org/2000/svg" xmlns:xlink="http://www.w3.org/1999/xlink" width="93.934" height="93.934" viewBox="0 0 93.934 93.934">
  <defs>
    <filter id="Trazado_982547" x="0" y="0" width="93.934" height="93.934" filterUnits="userSpaceOnUse">
      <feOffset dy="3" input="SourceAlpha"/>
      <feGaussianBlur stdDeviation="3" result="blur"/>
      <feFlood flood-opacity="0.161"/>
      <feComposite operator="in" in2="blur"/>
      <feComposite in="SourceGraphic"/>
    </filter>
  </defs>
  <g id="Grupo_1221965" data-name="Grupo 1221965" transform="translate(-823.066 -1258.533)">
    <g id="Grupo_1219859" data-name="Grupo 1219859" transform="translate(632 215.684)">
      <g id="Grupo_1215981" data-name="Grupo 1215981" transform="translate(-0.229 -2679.151)">
        <g id="Grupo_1214594" data-name="Grupo 1214594" transform="translate(200.295 3728)">
          <g id="Grupo_1214432" data-name="Grupo 1214432" transform="translate(0)">
            <g id="Grupo_1183196" data-name="Grupo 1183196">
              <g id="Grupo_1179610" data-name="Grupo 1179610">
                <g id="Grupo_1175227" data-name="Grupo 1175227">
                  <g id="Grupo_1167337" data-name="Grupo 1167337">
                    <g id="Grupo_1166720" data-name="Grupo 1166720">
                      <g id="Grupo_1164305" data-name="Grupo 1164305">
                        <g id="Grupo_1163948" data-name="Grupo 1163948">
                          <g id="Grupo_1158168" data-name="Grupo 1158168">
                            <g id="Grupo_1152576" data-name="Grupo 1152576">
                              <g id="Grupo_1148633" data-name="Grupo 1148633">
                                <g id="Grupo_1148525" data-name="Grupo 1148525">
                                  <g transform="matrix(1, 0, 0, 1, -9, -6)" filter="url(#Trazado_982547)">
                                    <g id="Trazado_982547-2" data-name="Trazado 982547" transform="translate(9 6)" fill="#eae4dc">
                                      <path d="M 37.966796875 74.43359375 C 33.04315185546875 74.43359375 28.26757431030273 73.46962738037109 23.77274131774902 71.56847381591797 C 19.43047523498535 69.73184967041016 15.53040790557861 67.10224914550781 12.18087482452393 63.75271987915039 C 8.831341743469238 60.4031867980957 6.201741218566895 56.50312042236328 4.365118980407715 52.16086196899414 C 2.463963508605957 47.66601943969727 1.499996900558472 42.89044189453125 1.499996900558472 37.966796875 C 1.499996900558472 33.04315185546875 2.463963508605957 28.26757431030273 4.365118980407715 23.77274131774902 C 6.201741218566895 19.43047523498535 8.831341743469238 15.53040790557861 12.18087482452393 12.18087482452393 C 15.53040790557861 8.831341743469238 19.43047523498535 6.201741218566895 23.77274131774902 4.365118980407715 C 28.26757431030273 2.463963508605957 33.04315185546875 1.499996900558472 37.966796875 1.499996900558472 C 42.89044189453125 1.499996900558472 47.66601943969727 2.463963508605957 52.16086196899414 4.365118980407715 C 56.50312042236328 6.201741218566895 60.4031867980957 8.831341743469238 63.75271987915039 12.18087482452393 C 67.10224914550781 15.53040790557861 69.73184967041016 19.43047523498535 71.56847381591797 23.77274131774902 C 73.46962738037109 28.26757431030273 74.43359375 33.04315185546875 74.43359375 37.966796875 C 74.43359375 42.89044189453125 73.46962738037109 47.66601943969727 71.56847381591797 52.16086196899414 C 69.73184967041016 56.50313186645508 67.10224914550781 60.4031867980957 63.75271987915039 63.75271987915039 C 60.4031867980957 67.10224914550781 56.50313186645508 69.73184967041016 52.16086196899414 71.56847381591797 C 47.66601943969727 73.46962738037109 42.89044189453125 74.43359375 37.966796875 74.43359375 Z" stroke="none"/>
                                      <path d="M 37.966796875 3 C 33.2449836730957 3 28.66600799560547 3.924095153808594 24.35705947875977 5.746635437011719 C 20.19359588623047 7.507637023925781 16.45379638671875 10.02928161621094 13.24153518676758 13.24153518676758 C 10.02927398681641 16.45379638671875 7.507621765136719 20.19359588623047 5.746635437011719 24.35705947875977 C 3.924095153808594 28.66600799560547 3 33.2449836730957 3 37.966796875 C 3 42.6886100769043 3.924095153808594 47.26758575439453 5.746635437011719 51.57653427124023 C 7.507621765136719 55.73999786376953 10.02927398681641 59.47979736328125 13.24153518676758 62.69205856323242 C 16.45379638671875 65.90431976318359 20.19359588623047 68.42597198486328 24.35705947875977 70.18695831298828 C 28.66600799560547 72.00949859619141 33.2449836730957 72.93359375 37.966796875 72.93359375 C 42.6886100769043 72.93359375 47.26758575439453 72.00949859619141 51.57653427124023 70.18695831298828 C 55.73999786376953 68.42597198486328 59.47979736328125 65.90431976318359 62.69205856323242 62.69205856323242 C 65.90431976318359 59.47979736328125 68.42597198486328 55.73999786376953 70.18695831298828 51.57653427124023 C 72.00949859619141 47.26758575439453 72.93359375 42.6886100769043 72.93359375 37.966796875 C 72.93359375 33.2449836730957 72.00949859619141 28.66600799560547 70.18695831298828 24.35705947875977 C 68.42597198486328 20.19359588623047 65.90431976318359 16.45379638671875 62.69205856323242 13.24153518676758 C 59.47979736328125 10.02928161621094 55.73999786376953 7.507637023925781 51.57653427124023 5.746635437011719 C 47.26758575439453 3.924095153808594 42.6886100769043 3 37.966796875 3 M 37.966796875 0 C 58.93528366088867 0 75.93359375 16.99832153320312 75.93359375 37.966796875 C 75.93359375 58.93528366088867 58.93528366088867 75.93359375 37.966796875 75.93359375 C 16.99831008911133 75.93359375 0 58.93528366088867 0 37.966796875 C 0 16.99832153320312 16.99831008911133 0 37.966796875 0 Z" stroke="none" fill="#665b4e"/>
                                    </g>
                                  </g>
                                </g>
                              </g>
                            </g>
                          </g>
                        </g>
                      </g>
                    </g>
                  </g>
                </g>
              </g>
            </g>
          </g>
        </g>
      </g>
    </g>
    <g id="acuerdo_2_" data-name="acuerdo (2)" transform="translate(832.73 1264.533)">
      <path id="Trazado_1175646" data-name="Trazado 1175646" d="M237.246,216v13.664l-2.484,1.242-2.484-1.242V216Zm0,0" transform="translate(-195.976 -182.461)" fill="#898890"/>
      <path id="Trazado_1175647" data-name="Trazado 1175647" d="M220.7,139.167v6.77a2.492,2.492,0,0,1-2.484,2.484h-7.453a2.492,2.492,0,0,1-2.484-2.484v-6.77a1.14,1.14,0,0,1,.186-.633,1.114,1.114,0,0,1,.41-.422A13.387,13.387,0,0,1,214.488,136a13.394,13.394,0,0,1,5.615,2.112,1.117,1.117,0,0,1,.409.422,1.146,1.146,0,0,1,.187.633Zm0,0" transform="translate(-175.703 -114.882)" fill="#57565c"/>
      <path id="Trazado_1175648" data-name="Trazado 1175648" d="M400.156,342.4l-6.794,18.67-7.006-2.546.845-2.335,5.105-14.012.845-2.335Zm0,0" transform="translate(-326.13 -287.071)" fill="#787680"/>
      <path id="Trazado_1175649" data-name="Trazado 1175649" d="M18.215,24.148v3.727H8.277V8h9.938Zm0,0" transform="translate(-6.758 -6.758)" fill="#1e81ce"/>
      <path id="Trazado_1175650" data-name="Trazado 1175650" d="M161.069,339.109a2.082,2.082,0,0,1,.149-.608,3.726,3.726,0,0,1,2.857-2.4l13.987-2.472,2.894-.509,9.279,3.378-5.105,14.012-2.323-.845-7.54,2.534-3.5-1.267-22.011-8.012a3.85,3.85,0,0,1-2.584-4.1,3.727,3.727,0,0,1,4.969-2.969Zm0,0" transform="translate(-124.061 -281.396)" fill="#ffc477"/>
      <path id="Trazado_1175651" data-name="Trazado 1175651" d="M111.891,20.285l-10.1-10.1A7.444,7.444,0,0,0,96.513,8H83.457l-8.7,3.727H72.278V24.148h2.484c0,2.745,3.727,4.969,7.453,4.969s7.453-2.224,7.453-4.969h8.7a3.727,3.727,0,0,0,3.727-3.727l4.969,4.969a3.3,3.3,0,0,0,1.018.7,3.346,3.346,0,0,0,1.466.323,3.5,3.5,0,0,0,2.968-1.615A3.667,3.667,0,0,0,111.891,20.285Zm0,0" transform="translate(-60.821 -6.758)" fill="#ffdaaa"/>
      <path id="Trazado_1175652" data-name="Trazado 1175652" d="M242.761,161.242A1.242,1.242,0,1,1,241.519,160,1.242,1.242,0,0,1,242.761,161.242Zm0,0" transform="translate(-202.734 -135.156)" fill="#c6c5ca"/>
      <path id="Trazado_1175653" data-name="Trazado 1175653" d="M232.277,216h4.969v2.484h-4.969Zm0,0" transform="translate(-195.976 -182.461)" fill="#787680"/>
      <path id="Trazado_1175654" data-name="Trazado 1175654" d="M191.761,328.824l-7-2.549a1.242,1.242,0,0,0-1.591.745l-.425,1.166-8.114-2.959a1.2,1.2,0,0,0-.639-.056l-16.881,2.981a4.98,4.98,0,0,0-3.556,2.626l-7.744-2.825a4.92,4.92,0,0,0-3.8.168,4.979,4.979,0,0,0-2.82,3.777,5.077,5.077,0,0,0,3.39,5.454l25.508,9.284a1.21,1.21,0,0,0,.425.076,1.246,1.246,0,0,0,.4-.065l7.124-2.4.758.275-.425,1.168a1.243,1.243,0,0,0,.745,1.592l7,2.549a1.2,1.2,0,0,0,.423.076,1.241,1.241,0,0,0,1.168-.817l6.8-18.678a1.242,1.242,0,0,0-.747-1.584Zm-16.108,12.93-7.124,2.4-25.1-9.136a2.625,2.625,0,0,1-1.784-2.743,2.484,2.484,0,0,1,3.312-1.987l8.06,2.933a5.378,5.378,0,0,0,.056.684,4.99,4.99,0,0,0,5.752,4.031l13.985-2.466-.432-2.447L158.4,335.494a2.5,2.5,0,0,1-2.878-2.006,2.3,2.3,0,0,1,.006-.857,1.243,1.243,0,0,0,.021-.124,1.37,1.37,0,0,1,.086-.309,2.5,2.5,0,0,1,1.9-1.6l16.551-2.919,7.8,2.838-4.249,11.676-1.168-.423a1.246,1.246,0,0,0-.822-.016Zm8.142,5.318-4.669-1.7,5.947-16.342,4.67,1.7Zm0,0" transform="translate(-117.309 -274.665)"/>
      <path id="Trazado_1175655" data-name="Trazado 1175655" d="M29.211,20.038a9.734,9.734,0,0,0,2.159,3.952,2.386,2.386,0,0,0-.038.3v6.765a3.726,3.726,0,0,0,3.727,3.727V47.2a1.241,1.241,0,0,0,.687,1.118l2.484,1.242a1.242,1.242,0,0,0,1.111,0l2.484-1.242a1.242,1.242,0,0,0,.687-1.118V34.781a3.727,3.727,0,0,0,3.727-3.727V24.29a2.519,2.519,0,0,0-.041-.323,9.625,9.625,0,0,0,1.9-3.134,4.537,4.537,0,0,0,4.633-2.125,4.9,4.9,0,0,0-.78-6.054L41.846,2.546A8.64,8.64,0,0,0,35.7,0H22.636a1.224,1.224,0,0,0-.489.1L13.692,3.727H12.7V1.242A1.242,1.242,0,0,0,11.457,0H1.519A1.242,1.242,0,0,0,.277,1.242V21.117a1.242,1.242,0,0,0,1.242,1.242h9.938A1.242,1.242,0,0,0,12.7,21.117V18.633h.181c.889,2.981,4.884,4.969,8.514,4.969a9.911,9.911,0,0,0,7.817-3.564Zm-19-.163H2.761V2.484h7.453Zm29.813,26.56-1.242.621-1.242-.621V34.781h2.484Zm3.727-15.381A1.242,1.242,0,0,1,42.511,32.3H35.058a1.242,1.242,0,0,1-1.242-1.242V25.984A9.773,9.773,0,0,0,36.5,27.052a2.5,2.5,0,1,0,.348-2.5,7.367,7.367,0,0,1-1.988-.849,9.753,9.753,0,0,1,3.929-1.348,11.644,11.644,0,0,1,4.969,1.931Zm.925-9.1a13.559,13.559,0,0,0-5.894-2.078A13.537,13.537,0,0,0,32.9,21.948a7.277,7.277,0,0,1-1.458-3.315h6.1a4.843,4.843,0,0,0,4.34-2.6l3.478,3.478a4.476,4.476,0,0,0,.44.361,7.126,7.126,0,0,1-1.122,2.078Zm-2.226-8.862a4.923,4.923,0,0,0-1.231-2.733,7.455,7.455,0,0,1,4.989,6.494Zm-14.847,4.3c0,1.881-3.077,3.727-6.211,3.727s-6.211-1.846-6.211-3.727a1.242,1.242,0,0,0-1.242-1.242H12.7V6.211h1.242a1.226,1.226,0,0,0,.489-.1l8.454-3.626H35.692a6.172,6.172,0,0,1,4.4,1.818L50.2,14.41a2.406,2.406,0,0,1,.443,2.957,2.236,2.236,0,0,1-1.917,1.042h-.059a9.678,9.678,0,0,0,.059-1.018,9.949,9.949,0,0,0-9.938-9.938A9.834,9.834,0,0,0,34.016,8.7H23.879V11.18H37.543a2.484,2.484,0,1,1,0,4.969h-8.7a1.242,1.242,0,0,0-1.242,1.242Zm0,0"/>
    </g>
  </g>
</svg>
