<svg xmlns="http://www.w3.org/2000/svg" xmlns:xlink="http://www.w3.org/1999/xlink" width="93.934" height="93.934" viewBox="0 0 93.934 93.934">
  <defs>
    <filter id="Trazado_982547" x="0" y="0" width="93.934" height="93.934" filterUnits="userSpaceOnUse">
      <feOffset dy="3" input="SourceAlpha"/>
      <feGaussianBlur stdDeviation="3" result="blur"/>
      <feFlood flood-opacity="0.161"/>
      <feComposite operator="in" in2="blur"/>
      <feComposite in="SourceGraphic"/>
    </filter>
  </defs>
  <g id="Grupo_1222882" data-name="Grupo 1222882" transform="translate(-1031.066 -1562.849)">
    <g id="Grupo_1220375" data-name="Grupo 1220375" transform="translate(0 383)">
      <g id="Grupo_1219858" data-name="Grupo 1219858" transform="translate(0 137)">
        <g id="Grupo_1215983" data-name="Grupo 1215983" transform="translate(-0.229 -2679.151)">
          <g id="Grupo_1214661" data-name="Grupo 1214661" transform="translate(0 -1406)">
            <g id="Grupo_1214434" data-name="Grupo 1214434" transform="translate(-0.771 -2738.522)">
              <g id="Grupo_1183184" data-name="Grupo 1183184" transform="translate(1 1016.523)">
                <g id="Grupo_1179612" data-name="Grupo 1179612" transform="translate(848 4723.467)">
                  <g id="Grupo_1175227" data-name="Grupo 1175227" transform="translate(-5.967 140.533)">
                    <g id="Grupo_1167337" data-name="Grupo 1167337" transform="translate(198.033 1992)">
                      <g id="Grupo_1166720" data-name="Grupo 1166720">
                        <g id="Grupo_1164305" data-name="Grupo 1164305">
                          <g id="Grupo_1163948" data-name="Grupo 1163948">
                            <g id="Grupo_1158168" data-name="Grupo 1158168">
                              <g id="Grupo_1152576" data-name="Grupo 1152576">
                                <g id="Grupo_1148633" data-name="Grupo 1148633">
                                  <g id="Grupo_1148525" data-name="Grupo 1148525">
                                    <g transform="matrix(1, 0, 0, 1, -9, -6)" filter="url(#Trazado_982547)">
                                      <g id="Trazado_982547-2" data-name="Trazado 982547" transform="translate(9 6)" fill="#eae4dc">
                                        <path d="M 37.966796875 74.43359375 C 33.04315185546875 74.43359375 28.26757431030273 73.46962738037109 23.77274131774902 71.56847381591797 C 19.43047523498535 69.73184967041016 15.53040790557861 67.10224914550781 12.18087482452393 63.75271987915039 C 8.831341743469238 60.4031867980957 6.201741218566895 56.50312042236328 4.365118980407715 52.16086196899414 C 2.463963508605957 47.66601943969727 1.499996900558472 42.89044189453125 1.499996900558472 37.966796875 C 1.499996900558472 33.04315185546875 2.463963508605957 28.26757431030273 4.365118980407715 23.77274131774902 C 6.201741218566895 19.43047523498535 8.831341743469238 15.53040790557861 12.18087482452393 12.18087482452393 C 15.53040790557861 8.831341743469238 19.43047523498535 6.201741218566895 23.77274131774902 4.365118980407715 C 28.26757431030273 2.463963508605957 33.04315185546875 1.499996900558472 37.966796875 1.499996900558472 C 42.89044189453125 1.499996900558472 47.66601943969727 2.463963508605957 52.16086196899414 4.365118980407715 C 56.50312042236328 6.201741218566895 60.4031867980957 8.831341743469238 63.75271987915039 12.18087482452393 C 67.10224914550781 15.53040790557861 69.73184967041016 19.43047523498535 71.56847381591797 23.77274131774902 C 73.46962738037109 28.26757431030273 74.43359375 33.04315185546875 74.43359375 37.966796875 C 74.43359375 42.89044189453125 73.46962738037109 47.66601943969727 71.56847381591797 52.16086196899414 C 69.73184967041016 56.50313186645508 67.10224914550781 60.4031867980957 63.75271987915039 63.75271987915039 C 60.4031867980957 67.10224914550781 56.50313186645508 69.73184967041016 52.16086196899414 71.56847381591797 C 47.66601943969727 73.46962738037109 42.89044189453125 74.43359375 37.966796875 74.43359375 Z" stroke="none"/>
                                        <path d="M 37.966796875 3 C 33.2449836730957 3 28.66600799560547 3.924095153808594 24.35705947875977 5.746635437011719 C 20.19359588623047 7.507637023925781 16.45379638671875 10.02928161621094 13.24153518676758 13.24153518676758 C 10.02927398681641 16.45379638671875 7.507621765136719 20.19359588623047 5.746635437011719 24.35705947875977 C 3.924095153808594 28.66600799560547 3 33.2449836730957 3 37.966796875 C 3 42.6886100769043 3.924095153808594 47.26758575439453 5.746635437011719 51.57653427124023 C 7.507621765136719 55.73999786376953 10.02927398681641 59.47979736328125 13.24153518676758 62.69205856323242 C 16.45379638671875 65.90431976318359 20.19359588623047 68.42597198486328 24.35705947875977 70.18695831298828 C 28.66600799560547 72.00949859619141 33.2449836730957 72.93359375 37.966796875 72.93359375 C 42.6886100769043 72.93359375 47.26758575439453 72.00949859619141 51.57653427124023 70.18695831298828 C 55.73999786376953 68.42597198486328 59.47979736328125 65.90431976318359 62.69205856323242 62.69205856323242 C 65.90431976318359 59.47979736328125 68.42597198486328 55.73999786376953 70.18695831298828 51.57653427124023 C 72.00949859619141 47.26758575439453 72.93359375 42.6886100769043 72.93359375 37.966796875 C 72.93359375 33.2449836730957 72.00949859619141 28.66600799560547 70.18695831298828 24.35705947875977 C 68.42597198486328 20.19359588623047 65.90431976318359 16.45379638671875 62.69205856323242 13.24153518676758 C 59.47979736328125 10.02928161621094 55.73999786376953 7.507637023925781 51.57653427124023 5.746635437011719 C 47.26758575439453 3.924095153808594 42.6886100769043 3 37.966796875 3 M 37.966796875 0 C 58.93528366088867 0 75.93359375 16.99832153320312 75.93359375 37.966796875 C 75.93359375 58.93528366088867 58.93528366088867 75.93359375 37.966796875 75.93359375 C 16.99831008911133 75.93359375 0 58.93528366088867 0 37.966796875 C 0 16.99832153320312 16.99831008911133 0 37.966796875 0 Z" stroke="none" fill="#665b4e"/>
                                      </g>
                                    </g>
                                  </g>
                                </g>
                              </g>
                            </g>
                          </g>
                        </g>
                      </g>
                    </g>
                  </g>
                </g>
              </g>
            </g>
          </g>
        </g>
      </g>
    </g>
    <g id="abogado_8_" data-name="abogado (8)" transform="translate(1039.196 1579.588)">
      <g id="Grupo_1222880" data-name="Grupo 1222880" transform="translate(7.657 0.955)">
        <path id="Trazado_1176436" data-name="Trazado 1176436" d="M143.427,11.046h-4.065l-5.73,5.536-2.4,4.648V48.861h18.53l.446-3.619,4.177-6.758V25.165a14.576,14.576,0,0,0-10.96-14.119Z" transform="translate(-116.332 -10.595)" fill="#e79380"/>
        <path id="Trazado_1176437" data-name="Trazado 1176437" d="M91.4,22.254a14.762,14.762,0,0,1,10.988-14.3,14.582,14.582,0,0,0-18.182,14.3V45.033l.47.734h7.194l-.47-.734Z" transform="translate(-75.291 -7.501)" fill="#df7e66"/>
        <path id="Trazado_1176438" data-name="Trazado 1176438" d="M58.763,311.258c.1-.329-3.128-16.849-3.128-16.849l.1-5.381-5.688,2.2-2.789,2.739-.659,2.473V315.1l.553,1.05.27.315H58.763l.469-.506v-4.614C58.922,311.323,58.752,311.3,58.763,311.258Z" transform="translate(-42.473 -253.182)" fill="#7b6c79"/>
        <path id="Trazado_1176439" data-name="Trazado 1176439" d="M18.7,328.393V311.425a8.751,8.751,0,0,1,3.751-7.143l-3.279,1.271a8.512,8.512,0,0,0-4.971,7.71V328.12a1.656,1.656,0,0,0,1.656,1.656h3.56a1.691,1.691,0,0,1-.718-1.383Z" transform="translate(-14.202 -266.492)" fill="#665e68"/>
        <path id="Trazado_1176440" data-name="Trazado 1176440" d="M263.589,319a1.188,1.188,0,0,1-1.188-1.188v-2.015a1.188,1.188,0,0,1,1.188-1.188h1.153a3.666,3.666,0,0,1,1.859-3.867,7.878,7.878,0,0,0-3.261-2.612l-1.173-.454a2.777,2.777,0,0,1-1.081.218h-4.513a2.774,2.774,0,0,1-1.8-.659v.1l1.8,3.947-4.557,15.864-.454.01v4.34l.454.856h14.633a1.657,1.657,0,0,0,1.656-1.656V319Z" transform="translate(-221.343 -269.066)" fill="#7b6c79"/>
        <path id="Trazado_1176441" data-name="Trazado 1176441" d="M200.309,320.69h-5.242v23.4h7.649V323.472Z" transform="translate(-172.037 -280.811)" fill="#b5dcff"/>
        <path id="Trazado_1176442" data-name="Trazado 1176442" d="M149.328,320.69h-4.973l-2.22,2.782v20.623h7.193Z" transform="translate(-125.845 -280.811)" fill="#8bcaff"/>
        <path id="Trazado_1176443" data-name="Trazado 1176443" d="M202.244,245.93l-1.053-.408a.919.919,0,0,1-.587-.855l0-3.079-.624-.4h-4.91v11.035h2.18l1.046-.424,4.244-4.895Z" transform="translate(-172.037 -211.435)" fill="#ffcebe"/>
        <path id="Trazado_1176444" data-name="Trazado 1176444" d="M152.545,241.19H148.09l-.632.415v3.056c0,.7-.627.873-.895.977l-.742.288.137,1.675,3.969,4.393.893.233h1.724V241.19Z" transform="translate(-129.062 -211.434)" fill="#ffb1a0"/>
        <path id="Trazado_1176445" data-name="Trazado 1176445" d="M104.39,279.8l-3.03,1.175-1.976,4.1a5.058,5.058,0,0,0-.193,3.936l5.2,14.195V279.8Z" transform="translate(-88.1 -245.131)" fill="#938493"/>
        <path id="Trazado_1176446" data-name="Trazado 1176446" d="M260.14,285.108l-.542-1.124-2.7-3.461-1.766-.684v23.4l5.2-14.195A5.057,5.057,0,0,0,260.14,285.108Z" transform="translate(-224.456 -245.162)" fill="#938493"/>
        <path id="Trazado_1176447" data-name="Trazado 1176447" d="M97.375,136.718v.618l1.552,1.486h2.759v-3.1l-.456-.579h0a4.41,4.41,0,0,0-3.416,1h0A3.5,3.5,0,0,0,97.375,136.718Z" transform="translate(-86.784 -118.849)" fill="#ffcebe"/>
        <path id="Trazado_1176448" data-name="Trazado 1176448" d="M268.743,138.792l1.149-.84.192-1.264a3.517,3.517,0,0,0-.436-.581,4.181,4.181,0,0,0-3.415-1h0v.006l-.495.637v3.041h3.008Z" transform="translate(-233.707 -118.82)" fill="#ffcebe"/>
        <path id="Trazado_1176449" data-name="Trazado 1176449" d="M94.124,147.836a3.289,3.289,0,0,0-.474,1.7,3.646,3.646,0,0,0,4.335,3.429l.451-.329v-3.4l-.451.329A3.79,3.79,0,0,1,94.124,147.836Z" transform="translate(-83.534 -129.967)" fill="#ffb1a0"/>
        <path id="Trazado_1176450" data-name="Trazado 1176450" d="M266.221,149.565l-.487-.364v3.4l.487.364a3.646,3.646,0,0,0,4.337-3.429,3.289,3.289,0,0,0-.474-1.7A3.791,3.791,0,0,1,266.221,149.565Z" transform="translate(-233.706 -129.966)" fill="#ffb1a0"/>
        <path id="Trazado_1176451" data-name="Trazado 1176451" d="M358.257,331.285a3.667,3.667,0,0,0-3.612,4.312l.481.287h6.112l.63-.287a3.666,3.666,0,0,0-3.612-4.312Z" transform="translate(-311.246 -290.057)" fill="#eab900"/>
        <path id="Trazado_1176452" data-name="Trazado 1176452" d="M379.221,365.146h-5.13l-.336.1-.488.414-.117.308v2.72l.318.569.644.278h5.107a1.188,1.188,0,0,0,1.188-1.188v-2.015A1.188,1.188,0,0,0,379.221,365.146Z" transform="translate(-327.445 -319.606)" fill="#ffe02f"/>
        <path id="Trazado_1176453" data-name="Trazado 1176453" d="M341.445,368.349v-2.015a1.188,1.188,0,0,1,1.188-1.188h-4.791a1.188,1.188,0,0,0-1.188,1.188v2.015a1.188,1.188,0,0,0,1.188,1.188h4.791A1.188,1.188,0,0,1,341.445,368.349Z" transform="translate(-295.596 -319.606)" fill="#fbc700"/>
        <path id="Trazado_1176454" data-name="Trazado 1176454" d="M461.643,279.6h-4.565c-.129.115-.26.235-.26.235v2.218l.631.976.759.5.866.25h.176a2.786,2.786,0,0,0,2.786-2.786v-1A.393.393,0,0,0,461.643,279.6Z" transform="translate(-400.459 -244.951)" fill="#ffe02f"/>
        <path id="Trazado_1176455" data-name="Trazado 1176455" d="M423.575,280.991v-1a.393.393,0,0,1,.393-.393h-4.975a.393.393,0,0,0-.393.393v1a2.786,2.786,0,0,0,2.786,2.786H425.9c.078,0,.155,0,.231-.01A2.785,2.785,0,0,1,423.575,280.991Z" transform="translate(-367.107 -244.952)" fill="#fbc700"/>
        <g id="Grupo_1222879" data-name="Grupo 1222879" transform="translate(32.445 34.647)">
          <path id="Trazado_1176456" data-name="Trazado 1176456" d="M312.049,279.6h-4.565c-.129.115-.26.235-.26.235v2.218l.631.976.759.5.866.25h.176a2.786,2.786,0,0,0,2.786-2.786v-1A.392.392,0,0,0,312.049,279.6Z" transform="translate(-302.358 -279.598)" fill="#ffe02f"/>
          <path id="Trazado_1176457" data-name="Trazado 1176457" d="M273.982,280.991v-1a.393.393,0,0,1,.393-.393H269.4a.393.393,0,0,0-.393.393v1a2.786,2.786,0,0,0,2.786,2.786h4.513c.078,0,.155,0,.231-.01A2.785,2.785,0,0,1,273.982,280.991Z" transform="translate(-269.007 -279.599)" fill="#fbc700"/>
        </g>
        <path id="Trazado_1176458" data-name="Trazado 1176458" d="M383.923,188.823h-.361l-1.051,1.426-.318,1.075a9.2,9.2,0,0,0,.154,1.471,6.194,6.194,0,0,1,.515.668l1.061.362a2.956,2.956,0,0,0,0-5Z" transform="translate(-335.336 -165.735)" fill="#ffe02f"/>
        <path id="Trazado_1176459" data-name="Trazado 1176459" d="M363.332,188.2a2.954,2.954,0,0,1,1.381-2.5,2.957,2.957,0,1,0,0,5A2.954,2.954,0,0,1,363.332,188.2Z" transform="translate(-316.127 -162.614)" fill="#fbc700"/>
        <path id="Trazado_1176460" data-name="Trazado 1176460" d="M142.134,286.545a6.587,6.587,0,0,0,5.144-1.219,1.041,1.041,0,0,0-.063-1.58,18.125,18.125,0,0,1-4.611-5.371l-.469.182v7.988Z" transform="translate(-125.844 -243.884)" fill="#dbedff"/>
        <path id="Trazado_1176461" data-name="Trazado 1176461" d="M217.6,278.588l-.472-.183a18.126,18.126,0,0,1-4.609,5.367,1.041,1.041,0,0,0-.063,1.58,6.587,6.587,0,0,0,5.144,1.219v-7.983Z" transform="translate(-186.926 -243.91)" fill="#dbedff"/>
        <path id="Trazado_1176462" data-name="Trazado 1176462" d="M178.383,106.448c-.283,0-.3-.007-1.874-.14a5.246,5.246,0,0,1-4.563-3.97.152.152,0,0,0-.3,0A5.3,5.3,0,0,1,168.435,106l-.553.7v8.446l1.7,3.565,1.7,1.868,2.953.964a9.049,9.049,0,0,0,6.6-8.684v-6.406Z" transform="translate(-148.314 -90.159)" fill="#ffdecf"/>
        <path id="Trazado_1176463" data-name="Trazado 1176463" d="M133.327,138.827v-6.944a4.913,4.913,0,0,1-1.4.319c.127-.01-1.606.131-1.914.131h-2.363v6.494a8.917,8.917,0,0,0,9.131,8.909,8.714,8.714,0,0,0,2.763-.44A8.851,8.851,0,0,1,133.327,138.827Z" transform="translate(-113.206 -116.045)" fill="#ffcebe"/>
      </g>
      <g id="Grupo_1222881" data-name="Grupo 1222881" transform="translate(6.702)">
        <path id="Trazado_1176464" data-name="Trazado 1176464" d="M192.081,352.021a.955.955,0,0,0-.955.955v13.837a.955.955,0,0,0,1.91,0V352.976A.955.955,0,0,0,192.081,352.021Z" transform="translate(-167.643 -307.198)"/>
        <path id="Trazado_1176465" data-name="Trazado 1176465" d="M68.841,34.647h-.019L66.14,29.892a.955.955,0,0,0-.579-1.785,12.706,12.706,0,0,1-1.641.107,13.416,13.416,0,0,1-5.376-1.154,3.912,3.912,0,1,0-7.754,0,13.68,13.68,0,0,1-4.124,1.091V15.526A15.515,15.515,0,0,0,31.142,0h-.117A15.658,15.658,0,0,0,15.616,15.708V37.834l-3.333,1.292-.018.007A9.413,9.413,0,0,0,6.7,47.726V62.582a2.614,2.614,0,0,0,2.611,2.611h19.6a.955.955,0,1,0,0-1.91H24.9V44.676c2.292.06,4.551-1.009,5.164-1.975h2.15c.595.937,2.828,2.037,5.164,1.975V63.284H33.37a.955.955,0,0,0,0,1.91h19.6a2.614,2.614,0,0,0,2.611-2.611v-3.55a.955.955,0,1,0-1.91,0v3.55a.7.7,0,0,1-.7.7H48.151V53.546a.955.955,0,1,0-1.91,0v9.738H39.29V59.2l5.141-14.036a6.048,6.048,0,0,0-.118-4.432H47.4a3.866,3.866,0,0,0,1.066-.154,7.142,7.142,0,0,1,3.059,1.879,4.627,4.627,0,0,0-1.471,3.08,2.153,2.153,0,0,0-2.294,2.142V49.7A2.145,2.145,0,0,0,49.9,51.84H53.67v2.735a.955.955,0,1,0,1.91,0V51.84h3.853A2.145,2.145,0,0,0,61.575,49.7V47.682a2.145,2.145,0,0,0-2.143-2.142H59.28a4.632,4.632,0,0,0-3.657-4.212V30.338a3.923,3.923,0,0,0,2.214-1.5,15.624,15.624,0,0,0,4.336,1.183l-2.611,4.629h-.019a1.349,1.349,0,0,0-1.348,1.348v1a3.745,3.745,0,0,0,3.741,3.741h4.513a3.745,3.745,0,0,0,3.741-3.741v-1a1.349,1.349,0,0,0-1.347-1.348Zm-21.26,0H42.707l2.437-4.322ZM17.526,15.708A13.743,13.743,0,0,1,31.039,1.91h.1A13.607,13.607,0,0,1,44.757,15.526v2.652a4.844,4.844,0,0,0-4.637-1.89,27.535,27.535,0,0,1-4.187-.137,4.271,4.271,0,0,1-3.716-3.243,1.107,1.107,0,0,0-2.152,0,4.271,4.271,0,0,1-3.783,3.254,37.559,37.559,0,0,1-4.225.116,4.949,4.949,0,0,0-4.532,1.9Zm26.028,4.815a2.617,2.617,0,0,1-2.42,2.5v-4.86A2.424,2.424,0,0,1,43.554,20.523ZM30.825,31.68a8,8,0,0,1-7.767-7.943V18.2c3.184,0,6.154.05,8.085-3a6.186,6.186,0,0,0,4.275,2.82,25.691,25.691,0,0,0,3.807.185v5.451a8.043,8.043,0,0,1-8.4,8.031Zm-9.677-13.5v4.852C18.072,22.643,17.768,18.569,21.148,18.176Zm1.844,45.108h-6.95V48.912a.955.955,0,1,0-1.91,0V63.284H9.313a.7.7,0,0,1-.7-.7V47.726A7.574,7.574,0,0,1,12.983,40.9l6.023-2.335-.925,1.919a6.046,6.046,0,0,0-.23,4.679L22.992,59.2v4.082Zm0-9.636-3.347-9.139a4.125,4.125,0,0,1,.157-3.193l1.812-3.759,1.378-.534ZM17.526,37.093V22.868a4.71,4.71,0,0,0,3.7,2.082A9.768,9.768,0,0,0,25.1,31.622v2.531C25.054,34.177,17.572,37.075,17.526,37.093Zm10.915,4.6a5.646,5.646,0,0,1-3.539,1.07V37.944a19.725,19.725,0,0,0,3.522,3.613.088.088,0,0,1,.017.14Zm4.221-1.628a2.089,2.089,0,0,0-.571.722h-1.9a2.067,2.067,0,0,0-.571-.722,17.5,17.5,0,0,1-3.8-4.148,1.837,1.837,0,0,0,1.191-1.739V32.73a10.24,10.24,0,0,0,8.259.007V34.19a1.866,1.866,0,0,0,1.191,1.74A17.581,17.581,0,0,1,32.662,40.069Zm4.719,2.7a5.653,5.653,0,0,1-3.539-1.07.088.088,0,0,1,.007-.132,19.744,19.744,0,0,0,3.532-3.621Zm-.2-8.607,0-2.564a10,10,0,0,0,3.872-6.646,4.706,4.706,0,0,0,3.709-2.083v5.328c-.329-.017-.659-.046-.985-.088a.954.954,0,0,0-.577,1.786l-2.681,4.754a1.35,1.35,0,0,0-1,.42l-2.34-.906Zm5.459,10.349L39.29,53.648V38.031a3.723,3.723,0,0,0,2.876,2.634l.314.651A4.124,4.124,0,0,1,42.637,44.509Zm6.594-7.515A1.833,1.833,0,0,1,47.4,38.824H42.888a1.834,1.834,0,0,1-1.831-1.831v-.437h8.174Zm1.125,2.289a3.721,3.721,0,0,0,.785-2.289v-1a1.349,1.349,0,0,0-1.348-1.348h-.019l-2.611-4.629A15.63,15.63,0,0,0,51.5,28.835a3.923,3.923,0,0,0,2.214,1.5v10.99a4.581,4.581,0,0,0-.508.139,8.683,8.683,0,0,0-2.849-2.184Zm9.077,8.167a.233.233,0,0,1,.233.233V49.7a.233.233,0,0,1-.233.233H49.9a.233.233,0,0,1-.233-.233V47.682a.233.233,0,0,1,.233-.233Zm-2.069-1.91H51.973a2.713,2.713,0,0,1,5.391,0Zm-2.7-16.993a2,2,0,1,1,2-2A2,2,0,0,1,54.668,28.546Zm9.524,1.778,2.437,4.322H61.755Zm4.087,6.669a1.833,1.833,0,0,1-1.831,1.831H61.935A1.833,1.833,0,0,1,60.1,36.994v-.437h8.174Z" transform="translate(-6.702)"/>
      </g>
    </g>
  </g>
</svg>
