<svg xmlns="http://www.w3.org/2000/svg" xmlns:xlink="http://www.w3.org/1999/xlink" width="93.934" height="93.934" viewBox="0 0 93.934 93.934">
  <defs>
    <filter id="Trazado_982547" x="0" y="0" width="93.934" height="93.934" filterUnits="userSpaceOnUse">
      <feOffset dy="3" input="SourceAlpha"/>
      <feGaussianBlur stdDeviation="3" result="blur"/>
      <feFlood flood-opacity="0.161"/>
      <feComposite operator="in" in2="blur"/>
      <feComposite in="SourceGraphic"/>
    </filter>
  </defs>
  <g id="Grupo_1221969" data-name="Grupo 1221969" transform="translate(-1136.066 -1258.533)">
    <g id="Grupo_1219860" data-name="Grupo 1219860" transform="translate(945 215.684)">
      <g id="Grupo_1215981" data-name="Grupo 1215981" transform="translate(-0.229 -2679.151)">
        <g id="Grupo_1214594" data-name="Grupo 1214594" transform="translate(200.295 3728)">
          <g id="Grupo_1214432" data-name="Grupo 1214432" transform="translate(0)">
            <g id="Grupo_1183196" data-name="Grupo 1183196">
              <g id="Grupo_1179610" data-name="Grupo 1179610">
                <g id="Grupo_1175227" data-name="Grupo 1175227">
                  <g id="Grupo_1167337" data-name="Grupo 1167337">
                    <g id="Grupo_1166720" data-name="Grupo 1166720">
                      <g id="Grupo_1164305" data-name="Grupo 1164305">
                        <g id="Grupo_1163948" data-name="Grupo 1163948">
                          <g id="Grupo_1158168" data-name="Grupo 1158168">
                            <g id="Grupo_1152576" data-name="Grupo 1152576">
                              <g id="Grupo_1148633" data-name="Grupo 1148633">
                                <g id="Grupo_1148525" data-name="Grupo 1148525">
                                  <g transform="matrix(1, 0, 0, 1, -9, -6)" filter="url(#Trazado_982547)">
                                    <g id="Trazado_982547-2" data-name="Trazado 982547" transform="translate(9 6)" fill="#eae4dc">
                                      <path d="M 37.966796875 74.43359375 C 33.04315185546875 74.43359375 28.26757431030273 73.46962738037109 23.77274131774902 71.56847381591797 C 19.43047523498535 69.73184967041016 15.53040790557861 67.10224914550781 12.18087482452393 63.75271987915039 C 8.831341743469238 60.4031867980957 6.201741218566895 56.50312042236328 4.365118980407715 52.16086196899414 C 2.463963508605957 47.66601943969727 1.499996900558472 42.89044189453125 1.499996900558472 37.966796875 C 1.499996900558472 33.04315185546875 2.463963508605957 28.26757431030273 4.365118980407715 23.77274131774902 C 6.201741218566895 19.43047523498535 8.831341743469238 15.53040790557861 12.18087482452393 12.18087482452393 C 15.53040790557861 8.831341743469238 19.43047523498535 6.201741218566895 23.77274131774902 4.365118980407715 C 28.26757431030273 2.463963508605957 33.04315185546875 1.499996900558472 37.966796875 1.499996900558472 C 42.89044189453125 1.499996900558472 47.66601943969727 2.463963508605957 52.16086196899414 4.365118980407715 C 56.50312042236328 6.201741218566895 60.4031867980957 8.831341743469238 63.75271987915039 12.18087482452393 C 67.10224914550781 15.53040790557861 69.73184967041016 19.43047523498535 71.56847381591797 23.77274131774902 C 73.46962738037109 28.26757431030273 74.43359375 33.04315185546875 74.43359375 37.966796875 C 74.43359375 42.89044189453125 73.46962738037109 47.66601943969727 71.56847381591797 52.16086196899414 C 69.73184967041016 56.50313186645508 67.10224914550781 60.4031867980957 63.75271987915039 63.75271987915039 C 60.4031867980957 67.10224914550781 56.50313186645508 69.73184967041016 52.16086196899414 71.56847381591797 C 47.66601943969727 73.46962738037109 42.89044189453125 74.43359375 37.966796875 74.43359375 Z" stroke="none"/>
                                      <path d="M 37.966796875 3 C 33.2449836730957 3 28.66600799560547 3.924095153808594 24.35705947875977 5.746635437011719 C 20.19359588623047 7.507637023925781 16.45379638671875 10.02928161621094 13.24153518676758 13.24153518676758 C 10.02927398681641 16.45379638671875 7.507621765136719 20.19359588623047 5.746635437011719 24.35705947875977 C 3.924095153808594 28.66600799560547 3 33.2449836730957 3 37.966796875 C 3 42.6886100769043 3.924095153808594 47.26758575439453 5.746635437011719 51.57653427124023 C 7.507621765136719 55.73999786376953 10.02927398681641 59.47979736328125 13.24153518676758 62.69205856323242 C 16.45379638671875 65.90431976318359 20.19359588623047 68.42597198486328 24.35705947875977 70.18695831298828 C 28.66600799560547 72.00949859619141 33.2449836730957 72.93359375 37.966796875 72.93359375 C 42.6886100769043 72.93359375 47.26758575439453 72.00949859619141 51.57653427124023 70.18695831298828 C 55.73999786376953 68.42597198486328 59.47979736328125 65.90431976318359 62.69205856323242 62.69205856323242 C 65.90431976318359 59.47979736328125 68.42597198486328 55.73999786376953 70.18695831298828 51.57653427124023 C 72.00949859619141 47.26758575439453 72.93359375 42.6886100769043 72.93359375 37.966796875 C 72.93359375 33.2449836730957 72.00949859619141 28.66600799560547 70.18695831298828 24.35705947875977 C 68.42597198486328 20.19359588623047 65.90431976318359 16.45379638671875 62.69205856323242 13.24153518676758 C 59.47979736328125 10.02928161621094 55.73999786376953 7.507637023925781 51.57653427124023 5.746635437011719 C 47.26758575439453 3.924095153808594 42.6886100769043 3 37.966796875 3 M 37.966796875 0 C 58.93528366088867 0 75.93359375 16.99832153320312 75.93359375 37.966796875 C 75.93359375 58.93528366088867 58.93528366088867 75.93359375 37.966796875 75.93359375 C 16.99831008911133 75.93359375 0 58.93528366088867 0 37.966796875 C 0 16.99832153320312 16.99831008911133 0 37.966796875 0 Z" stroke="none" fill="#665b4e"/>
                                    </g>
                                  </g>
                                </g>
                              </g>
                            </g>
                          </g>
                        </g>
                      </g>
                    </g>
                  </g>
                </g>
              </g>
            </g>
          </g>
        </g>
      </g>
    </g>
    <g id="trato" transform="translate(1148.238 1266.856)">
      <g id="Grupo_1221968" data-name="Grupo 1221968" transform="translate(1.085 -6.06)">
        <g id="Grupo_1221966" data-name="Grupo 1221966" transform="translate(0 23.708)">
          <path id="Trazado_1175656" data-name="Trazado 1175656" d="M86.243,241.489l1.776.977a3.074,3.074,0,0,0,2.963-5.387,3.064,3.064,0,0,0,4.238-4.028l.461-.192L74.866,216.291c-5.937-4-10.073,1.155-14.155-1.142L55.3,212.655a1.838,1.838,0,0,0-2.429.886l-5.806,12.354a1.835,1.835,0,0,0,.907,2.454c1.929.869,4.885,2.2,5.491,2.434,1.85.718,1.24,3.609,2.253,4.929,1.559,2.031,1.813,3.512,3.139,4.274L78.2,251.095a3.064,3.064,0,0,0,4.175-1.212,3.1,3.1,0,0,0-1.208-4.181l2.113,1.175a3.074,3.074,0,0,0,2.963-5.387Z" transform="translate(-41.603 -206.487)" fill="#f6dccd" fill-rule="evenodd"/>
          <path id="Trazado_1175657" data-name="Trazado 1175657" d="M105.377,216.784l-.62-.494c-5.937-4-10.073,1.155-14.155-1.142L85.2,212.654a1.838,1.838,0,0,0-2.429.886l-1.284,2.731c1.277-.641,2.8-.25,4.486.761,8.087,4.848,10.865-.4,17.208,1.838q.382-.361.748-.731c.462-.467.947-.923,1.453-1.356Z" transform="translate(-71.494 -206.486)" fill="#f1cbbc" fill-rule="evenodd"/>
          <path id="Trazado_1175658" data-name="Trazado 1175658" d="M257.223,362.338l2.515,1.445a3.062,3.062,0,0,0,4.114-1.106l-5.237-2.985Zm14.236-13.166,1.062.595a3.074,3.074,0,0,0,4.061-1.022l-9.946-5.654a1.461,1.461,0,0,0-1.434,2.546C267.315,346.846,271.515,349.2,271.46,349.172Zm-4.712,4.436-6.82-3.873a1.461,1.461,0,1,1,1.434-2.546l12.246,6.963a3.085,3.085,0,0,1-4.049,1Zm-9.458,1.571a1.461,1.461,0,0,1,1.876-2.162l9.726,5.51a3.079,3.079,0,0,1-4.072,1.039l-1.91-1.059-4.772-2.723A2.077,2.077,0,0,1,257.289,355.179Z" transform="translate(-223.143 -319.176)" fill="#f1cbbc" fill-rule="evenodd"/>
          <path id="Trazado_1175659" data-name="Trazado 1175659" d="M117.328,372.742a3.179,3.179,0,0,1,3.848-.677,3.135,3.135,0,0,1,1.05.908,3.183,3.183,0,0,1,.248,3.376l-1.872,3.5A3.165,3.165,0,0,1,114.7,377.8a3.165,3.165,0,0,1-5.7-2.318,3.166,3.166,0,1,1-5.591-2.973l.59-1.1a3.165,3.165,0,0,1-4.922-3.834l1.952-3.65a3.166,3.166,0,0,1,5.672,2.807,3.165,3.165,0,0,1,5.21,3.113,3.165,3.165,0,0,1,5.422,2.9Z" transform="translate(-86.371 -335.896)" fill="#d6b4a8" fill-rule="evenodd"/>
          <path id="Trazado_1175660" data-name="Trazado 1175660" d="M115.1,376.7a3.179,3.179,0,0,1-4.292,1.312,3.144,3.144,0,0,1-.437-.283,1.916,1.916,0,0,0,1.277-.742l4.387-8.5a1.785,1.785,0,0,0-.075-1.215,3.162,3.162,0,0,1,2.053,3.782Zm-5-4.076,2.7-4.677a3.162,3.162,0,0,0-1.79-4.285,1.807,1.807,0,0,1-.081,1.559l-3.317,5.834c-.442.778-.877,1.543-1.848,1.5a3.137,3.137,0,0,0,.71.519A3.179,3.179,0,0,0,110.1,372.623Zm10.7,6.395,2.632-5.059a3.162,3.162,0,0,0-2.063-3.787,1.314,1.314,0,0,1,.013,1.321l-3.641,7.051a2.63,2.63,0,0,1-1.3,1.241,3.164,3.164,0,0,0,4.364-.767Zm6.125-5.9a3.179,3.179,0,0,1,.356.162,3.134,3.134,0,0,1,1.05.908,3.183,3.183,0,0,1,.248,3.376l-1.872,3.5a3.175,3.175,0,0,1-4.285,1.3l-.051-.028a1.108,1.108,0,0,0,.63-.482l3.907-7.566A1.471,1.471,0,0,0,126.926,373.119Z" transform="translate(-92.476 -337.112)" fill="#cca393" fill-rule="evenodd"/>
          <path id="Trazado_1175661" data-name="Trazado 1175661" d="M192.825,235.86l10.633,6.06a3.143,3.143,0,0,1,1.275,1.36l6-2.5a1.836,1.836,0,0,0,1-2.357L206.729,225.5a1.835,1.835,0,0,0-2.577-.955l-3.589,1.921c-4.287,2.23-8.414-5.274-16.176.05a19.509,19.509,0,0,0-2.815,2.385,37.348,37.348,0,0,1-7.759,5.857.367.367,0,0,0-.1.543C179.865,243.228,187.36,232.745,192.825,235.86Z" transform="translate(-151.116 -216.716)" fill="#d6b4a8" fill-rule="evenodd"/>
          <path id="Trazado_1175662" data-name="Trazado 1175662" d="M206.863,300.353l2.386,1.36a3.143,3.143,0,0,1,1.275,1.36l6-2.5a1.836,1.836,0,0,0,1.005-2.355l-1.469-3.789a2.476,2.476,0,0,1-1.451,2.769Zm-26.531-4.3c5.991,6.059,13.064-3.375,18.285-.4C190.348,290.052,187.269,297.432,180.332,296.052Z" transform="translate(-156.907 -276.509)" fill="#cca393" fill-rule="evenodd"/>
          <path id="Trazado_1175663" data-name="Trazado 1175663" d="M17.172,169.517l-9,20.372a1.964,1.964,0,0,0,1,2.583l3.922,1.733a1.964,1.964,0,0,0,2.583-1l9-20.372a1.964,1.964,0,0,0-1-2.583l-3.922-1.733A1.964,1.964,0,0,0,17.172,169.517Z" transform="translate(-8.002 -168.352)" fill="#d1d1d6" fill-rule="evenodd"/>
          <path id="Trazado_1175664" data-name="Trazado 1175664" d="M36.263,205.157a1.964,1.964,0,0,1-2.574,1l1.6.705a1.964,1.964,0,0,0,2.583-1l9-20.372a1.965,1.965,0,0,0-.817-2.49l-9.791,22.153Z" transform="translate(-30.197 -181.012)" fill="#b1b1b5" fill-rule="evenodd"/>
          <path id="Trazado_1175665" data-name="Trazado 1175665" d="M394.344,179.623,402.4,200.39a1.964,1.964,0,0,1-1.118,2.533l-4,1.55a1.964,1.964,0,0,1-2.533-1.118L386.7,182.589a1.964,1.964,0,0,1,1.118-2.533l4-1.55A1.964,1.964,0,0,1,394.344,179.623Z" transform="translate(-335.106 -177.011)" fill="#d1d1d6" fill-rule="evenodd"/>
          <path id="Trazado_1175666" data-name="Trazado 1175666" d="M387.488,191.94a1.966,1.966,0,0,0-.792,2.371l8.051,20.767a1.964,1.964,0,0,0,2.533,1.118l1.482-.575.006,0a1.964,1.964,0,0,1-2.533-1.118Z" transform="translate(-335.106 -188.734)" fill="#b1b1b5" fill-rule="evenodd"/>
        </g>
        <g id="Grupo_1221967" data-name="Grupo 1221967" transform="translate(18.715 0)">
          <circle id="Elipse_14443" data-name="Elipse 14443" cx="11.894" cy="11.894" r="11.894" transform="translate(0 4.234) rotate(-10.254)" fill="#ffd064"/>
          <path id="Trazado_1175667" data-name="Trazado 1175667" d="M247.389,8.005a11.894,11.894,0,1,1,0,23.788Z" transform="translate(-233.564 -6.093)" fill="#ffc338" fill-rule="evenodd"/>
          <circle id="Elipse_14444" data-name="Elipse 14444" cx="9.719" cy="9.719" r="9.719" transform="translate(3.578 22.959) rotate(-86.849)" fill="#ffe177"/>
          <path id="Trazado_1175668" data-name="Trazado 1175668" d="M247.389,24a9.719,9.719,0,0,1,0,19.438Z" transform="translate(-233.564 -19.918)" fill="#ffd064" fill-rule="evenodd"/>
        </g>
      </g>
      <path id="Trazado_1175669" data-name="Trazado 1175669" d="M58.586,28.924a1.332,1.332,0,1,1-1.332-1.332A1.335,1.335,0,0,1,58.586,28.924Zm8.278,18.858a.872.872,0,0,0,.5-1.127L59.31,25.888a.871.871,0,0,0-1.127-.5l-4,1.55a.873.873,0,0,0-.5,1.127l8.051,20.766a.87.87,0,0,0,1.127.5ZM55.11,48.1a4.212,4.212,0,0,0-1.145-.957l-10.632-6.06c-2.737-1.56-5.716-.353-8.6.813-3.6,1.457-6.736,2.726-9.671-.465a37.646,37.646,0,0,0,7.249-5.594,18.38,18.38,0,0,1,2.658-2.254c4.124-2.829,6.983-1.661,9.749-.53,2.028.829,4.125,1.686,6.326.542l2.031-1.087,5.487,14.151Zm-1.423,3.639a1.988,1.988,0,0,1-1.2.955A1.944,1.944,0,0,1,51,52.526C48.278,51,46.014,49.734,43.686,48.4a1.088,1.088,0,1,0-1.08,1.888c2.335,1.338,4.6,2.61,7.325,4.133a2.008,2.008,0,0,1,.791,2.7,2,2,0,0,1-2.7.783L38.407,52.5a1.087,1.087,0,1,0-1.074,1.89l7.86,4.445a2.009,2.009,0,0,1,.791,2.7,1.974,1.974,0,0,1-1.2.952,1.952,1.952,0,0,1-1.5-.165l-5.549-3.1A4.244,4.244,0,0,0,33.073,57.8a4.256,4.256,0,0,0-5.421-2.9,4.252,4.252,0,0,0-4.9-3.03A4.251,4.251,0,0,0,15.5,49.42c-.237-1.207-.648-2.67-2.157-3.255-.253-.1-1.014-.431-2.266-.988l6.109-13.822L19.7,32.516c2.069,1.142,4.32.658,6.5.191s4.23-.907,6.25.06a22.572,22.572,0,0,0-1.68,1.54,36.369,36.369,0,0,1-7.535,5.683,1.454,1.454,0,0,0-.416,2.149c4.1,5.271,8.885,3.33,12.733,1.773,2.621-1.062,4.884-1.977,6.706-.939l10.632,6.06A2.02,2.02,0,0,1,53.686,51.738ZM40.9,65.754a2.007,2.007,0,0,0-.76-2.691l-1.51-.848a4.225,4.225,0,0,1-.485,1.635l-1.086,2.031,1.16.667a1.883,1.883,0,0,0,1.459.172,2.025,2.025,0,0,0,1.222-.966ZM33.127,67.33a2.063,2.063,0,0,0,1.232-1l1.872-3.5a2.089,2.089,0,0,0-.852-2.812,2.1,2.1,0,0,0-2.446.36L30.46,65.125a2.071,2.071,0,0,0,2.667,2.2Zm-7.271-2.553a2.083,2.083,0,0,0,2.633-.576l2.52-4.843a2.075,2.075,0,0,0-3.5-1.885l-2.748,5.32A2.088,2.088,0,0,0,25.856,64.777Zm-5.928-1.953a2.089,2.089,0,0,0,2.819-.865l2.84-5.5a2.075,2.075,0,0,0-3.329-2.038L19.076,60.01a2.088,2.088,0,0,0,.852,2.814ZM15.6,57.886a2.089,2.089,0,0,0,2.265-.2l2.572-4.452a2.078,2.078,0,0,0-3.737-1.81l-1.952,3.65a2.082,2.082,0,0,0,.852,2.812ZM7.76,47.3l9-20.373a.871.871,0,0,0-.444-1.148L12.4,24.044a.871.871,0,0,0-1.148.444l-9,20.371a.87.87,0,0,0-.013.666.858.858,0,0,0,.458.483l3.922,1.734A.88.88,0,0,0,7.76,47.3ZM69.388,45.87,61.336,25.1A3.047,3.047,0,0,0,57.4,23.364l-4,1.55a3.05,3.05,0,0,0-1.74,3.94l.626,1.61L50.03,31.671c-1.233.641-2.508.178-4.488-.632-2.711-1.108-6.382-2.6-11.156.333-3.017-2-6.12-1.334-8.645-.791-1.958.421-3.652.784-5.014.017-.026-.014-.051-.028-.078-.039l-2.585-1.193.689-1.56A3.049,3.049,0,0,0,17.2,23.788l-3.922-1.733A3.051,3.051,0,0,0,9.26,23.609l-9,20.372A3.05,3.05,0,0,0,1.811,48l3.922,1.734a3.05,3.05,0,0,0,4.016-1.555l.447-1.011c1.309.585,2.067.913,2.358,1.028.509.2.671.891.88,2.011a8.635,8.635,0,0,0,.477,1.816l-1.085,2.026A4.249,4.249,0,0,0,16.71,60.3a4.248,4.248,0,0,0,6.259,4.4,4.241,4.241,0,0,0,5.573,2.133,4.257,4.257,0,0,0,7.467.946l1.131.65a4.017,4.017,0,0,0,2,.537,4.137,4.137,0,0,0,1.125-.156A4.216,4.216,0,0,0,42.81,66.8a4.133,4.133,0,0,0,.506-2.163,4.18,4.18,0,0,0,4.573-2.055,4.1,4.1,0,0,0,.5-2.3,4.149,4.149,0,0,0,4.524-5.459c.058-.013.115-.028.172-.045a4.131,4.131,0,0,0,2.948-4.713l3.32-1.385.362.935a3.049,3.049,0,0,0,3.941,1.738l4-1.55a3.048,3.048,0,0,0,1.739-3.94ZM14.494,27.678a1.332,1.332,0,1,1-1.27-1.393A1.332,1.332,0,0,1,14.494,27.678ZM28.755,16.44a1.085,1.085,0,0,1,2.107-.519,2.167,2.167,0,0,0,.927,1.3,3.735,3.735,0,0,0,4.028-.1,1.5,1.5,0,0,0-.324-2.467,5.9,5.9,0,0,0-2.032-.644,7.018,7.018,0,0,1-2.682-.94,3.694,3.694,0,0,1-.25-5.955,4.784,4.784,0,0,1,2.008-.941V5.455a1.087,1.087,0,0,1,2.175,0v.7c.075.015.149.032.224.051a4.609,4.609,0,0,1,3.191,2.74,1.087,1.087,0,1,1-2.005.841A2.806,2.806,0,0,0,31.9,8.8a1.53,1.53,0,0,0,.063,2.456,4.974,4.974,0,0,0,1.85.617,7.944,7.944,0,0,1,2.806.924,3.672,3.672,0,0,1,.511,6.053,5.51,5.51,0,0,1-2.414.982v.681a1.087,1.087,0,1,1-2.175,0v-.7a5.3,5.3,0,0,1-1.947-.776,4.32,4.32,0,0,1-1.835-2.59ZM33.625,2.175A10.806,10.806,0,1,1,22.818,12.982,10.819,10.819,0,0,1,33.625,2.175Zm0,23.788A12.981,12.981,0,1,1,46.606,12.982,13,13,0,0,1,33.625,25.963Z" transform="translate(0 -5.237)" fill-rule="evenodd"/>
    </g>
  </g>
</svg>
