<svg xmlns="http://www.w3.org/2000/svg" xmlns:xlink="http://www.w3.org/1999/xlink" width="93.934" height="93.934" viewBox="0 0 93.934 93.934">
  <defs>
    <filter id="Trazado_982547" x="0" y="0" width="93.934" height="93.934" filterUnits="userSpaceOnUse">
      <feOffset dy="3" input="SourceAlpha"/>
      <feGaussianBlur stdDeviation="3" result="blur"/>
      <feFlood flood-opacity="0.161"/>
      <feComposite operator="in" in2="blur"/>
      <feComposite in="SourceGraphic"/>
    </filter>
  </defs>
  <g id="Grupo_1221971" data-name="Grupo 1221971" transform="translate(-193.066 -1385.533)">
    <g id="Grupo_1219861" data-name="Grupo 1219861" transform="translate(2 342.684)">
      <g id="Grupo_1215981" data-name="Grupo 1215981" transform="translate(-0.229 -2679.151)">
        <g id="Grupo_1214594" data-name="Grupo 1214594" transform="translate(200.295 3728)">
          <g id="Grupo_1214432" data-name="Grupo 1214432" transform="translate(0)">
            <g id="Grupo_1183196" data-name="Grupo 1183196">
              <g id="Grupo_1179610" data-name="Grupo 1179610">
                <g id="Grupo_1175227" data-name="Grupo 1175227">
                  <g id="Grupo_1167337" data-name="Grupo 1167337">
                    <g id="Grupo_1166720" data-name="Grupo 1166720">
                      <g id="Grupo_1164305" data-name="Grupo 1164305">
                        <g id="Grupo_1163948" data-name="Grupo 1163948">
                          <g id="Grupo_1158168" data-name="Grupo 1158168">
                            <g id="Grupo_1152576" data-name="Grupo 1152576">
                              <g id="Grupo_1148633" data-name="Grupo 1148633">
                                <g id="Grupo_1148525" data-name="Grupo 1148525">
                                  <g transform="matrix(1, 0, 0, 1, -9, -6)" filter="url(#Trazado_982547)">
                                    <g id="Trazado_982547-2" data-name="Trazado 982547" transform="translate(9 6)" fill="#eae4dc">
                                      <path d="M 37.966796875 74.43359375 C 33.04315185546875 74.43359375 28.26757431030273 73.46962738037109 23.77274131774902 71.56847381591797 C 19.43047523498535 69.73184967041016 15.53040790557861 67.10224914550781 12.18087482452393 63.75271987915039 C 8.831341743469238 60.4031867980957 6.201741218566895 56.50312042236328 4.365118980407715 52.16086196899414 C 2.463963508605957 47.66601943969727 1.499996900558472 42.89044189453125 1.499996900558472 37.966796875 C 1.499996900558472 33.04315185546875 2.463963508605957 28.26757431030273 4.365118980407715 23.77274131774902 C 6.201741218566895 19.43047523498535 8.831341743469238 15.53040790557861 12.18087482452393 12.18087482452393 C 15.53040790557861 8.831341743469238 19.43047523498535 6.201741218566895 23.77274131774902 4.365118980407715 C 28.26757431030273 2.463963508605957 33.04315185546875 1.499996900558472 37.966796875 1.499996900558472 C 42.89044189453125 1.499996900558472 47.66601943969727 2.463963508605957 52.16086196899414 4.365118980407715 C 56.50312042236328 6.201741218566895 60.4031867980957 8.831341743469238 63.75271987915039 12.18087482452393 C 67.10224914550781 15.53040790557861 69.73184967041016 19.43047523498535 71.56847381591797 23.77274131774902 C 73.46962738037109 28.26757431030273 74.43359375 33.04315185546875 74.43359375 37.966796875 C 74.43359375 42.89044189453125 73.46962738037109 47.66601943969727 71.56847381591797 52.16086196899414 C 69.73184967041016 56.50313186645508 67.10224914550781 60.4031867980957 63.75271987915039 63.75271987915039 C 60.4031867980957 67.10224914550781 56.50313186645508 69.73184967041016 52.16086196899414 71.56847381591797 C 47.66601943969727 73.46962738037109 42.89044189453125 74.43359375 37.966796875 74.43359375 Z" stroke="none"/>
                                      <path d="M 37.966796875 3 C 33.2449836730957 3 28.66600799560547 3.924095153808594 24.35705947875977 5.746635437011719 C 20.19359588623047 7.507637023925781 16.45379638671875 10.02928161621094 13.24153518676758 13.24153518676758 C 10.02927398681641 16.45379638671875 7.507621765136719 20.19359588623047 5.746635437011719 24.35705947875977 C 3.924095153808594 28.66600799560547 3 33.2449836730957 3 37.966796875 C 3 42.6886100769043 3.924095153808594 47.26758575439453 5.746635437011719 51.57653427124023 C 7.507621765136719 55.73999786376953 10.02927398681641 59.47979736328125 13.24153518676758 62.69205856323242 C 16.45379638671875 65.90431976318359 20.19359588623047 68.42597198486328 24.35705947875977 70.18695831298828 C 28.66600799560547 72.00949859619141 33.2449836730957 72.93359375 37.966796875 72.93359375 C 42.6886100769043 72.93359375 47.26758575439453 72.00949859619141 51.57653427124023 70.18695831298828 C 55.73999786376953 68.42597198486328 59.47979736328125 65.90431976318359 62.69205856323242 62.69205856323242 C 65.90431976318359 59.47979736328125 68.42597198486328 55.73999786376953 70.18695831298828 51.57653427124023 C 72.00949859619141 47.26758575439453 72.93359375 42.6886100769043 72.93359375 37.966796875 C 72.93359375 33.2449836730957 72.00949859619141 28.66600799560547 70.18695831298828 24.35705947875977 C 68.42597198486328 20.19359588623047 65.90431976318359 16.45379638671875 62.69205856323242 13.24153518676758 C 59.47979736328125 10.02928161621094 55.73999786376953 7.507637023925781 51.57653427124023 5.746635437011719 C 47.26758575439453 3.924095153808594 42.6886100769043 3 37.966796875 3 M 37.966796875 0 C 58.93528366088867 0 75.93359375 16.99832153320312 75.93359375 37.966796875 C 75.93359375 58.93528366088867 58.93528366088867 75.93359375 37.966796875 75.93359375 C 16.99831008911133 75.93359375 0 58.93528366088867 0 37.966796875 C 0 16.99832153320312 16.99831008911133 0 37.966796875 0 Z" stroke="none" fill="#665b4e"/>
                                    </g>
                                  </g>
                                </g>
                              </g>
                            </g>
                          </g>
                        </g>
                      </g>
                    </g>
                  </g>
                </g>
              </g>
            </g>
          </g>
        </g>
      </g>
    </g>
    <g id="contrato_13_" data-name="contrato (13)" transform="translate(216.252 1405.738)">
      <path id="Trazado_1175670" data-name="Trazado 1175670" d="M45.79,1H5.853A2.853,2.853,0,0,0,3,3.853v56.1H42.937V16.214Z" transform="translate(-0.037 -0.037)" fill="#f5fafa"/>
      <path id="Trazado_1175671" data-name="Trazado 1175671" d="M47.853,1a2.853,2.853,0,0,1,2.853,2.853V16.214H45V3.853A2.853,2.853,0,0,1,47.853,1Z" transform="translate(-2.099 -0.037)" fill="#ebf0f0"/>
      <path id="Trazado_1175672" data-name="Trazado 1175672" d="M23.312,7A13.312,13.312,0,0,1,36.625,20.312v2.853H10V20.312A13.312,13.312,0,0,1,23.312,7Z" transform="translate(-0.381 -0.331)" fill="#ffe350"/>
      <path id="Trazado_1175673" data-name="Trazado 1175673" d="M27.13,6H20.322a1.9,1.9,0,0,0-1.868,2.259l2.3,12H26.7l2.3-12A1.9,1.9,0,0,0,27.13,6Z" transform="translate(-0.794 -0.282)" fill="#ffcd2a"/>
      <path id="Trazado_1175674" data-name="Trazado 1175674" d="M22.338,12.656h2.853l3.132-6.264A1.884,1.884,0,0,0,27.169,6H20.36a1.884,1.884,0,0,0-1.154.393Z" transform="translate(-0.833 -0.282)" fill="#ffb914"/>
      <path id="Trazado_1175675" data-name="Trazado 1175675" d="M22.436,12.607,21.221,6.126A.951.951,0,0,1,22.156,5h3.418a.951.951,0,0,1,.935,1.126l-1.22,6.481" transform="translate(-0.931 -0.233)" fill="#ffcd2a"/>
      <path id="Trazado_1175676" data-name="Trazado 1175676" d="M37.527,26.656H9V23.8L23.263,20l14.263,3.8Z" transform="translate(-0.331 -0.97)" fill="#ffb914"/>
      <g id="Grupo_1221970" data-name="Grupo 1221970" transform="translate(6.767 33.293)">
        <circle id="Elipse_14445" data-name="Elipse 14445" cx="1.902" cy="1.902" r="1.902" fill="#f04669"/>
        <circle id="Elipse_14446" data-name="Elipse 14446" cx="1.902" cy="1.902" r="1.902" transform="translate(0 7.607)" fill="#f04669"/>
        <circle id="Elipse_14447" data-name="Elipse 14447" cx="1.902" cy="1.902" r="1.902" transform="translate(0 15.214)" fill="#f04669"/>
      </g>
      <path id="Trazado_1175677" data-name="Trazado 1175677" d="M26.765,55.222,22.73,61.946l.673.672,6.724-4.035Z" transform="translate(-1.006 -2.7)" fill="#86889e"/>
      <path id="Trazado_1175678" data-name="Trazado 1175678" d="M30.162,58.653l-2.018-2.017-4.706,6.051Z" transform="translate(-1.041 -2.769)" fill="#787b92"/>
      <path id="Trazado_1175679" data-name="Trazado 1175679" d="M0,0H4.754V38.036H0Z" transform="translate(52.653 25.62) rotate(45)" fill="#f36b87"/>
      <path id="Trazado_1175680" data-name="Trazado 1175680" d="M0,0H2.853V38.036H0Z" transform="translate(53.997 26.965) rotate(45)" fill="#f04669"/>
      <path id="Trazado_1175681" data-name="Trazado 1175681" d="M1.426,0A1.426,1.426,0,0,1,2.853,1.426V4.754H0V1.426A1.426,1.426,0,0,1,1.426,0Z" transform="translate(56.685 22.929) rotate(45)" fill="#787b92"/>
      <path id="Trazado_1175682" data-name="Trazado 1175682" d="M0,0H8.558V2.853H0Z" transform="translate(49.29 27.636) rotate(45)" fill="#ffe350"/>
      <path id="Trazado_1175683" data-name="Trazado 1175683" d="M0,0H6.656V2.853H0Z" transform="translate(50.635 28.98) rotate(45)" fill="#ffcd2a"/>
      <path id="Trazado_1175684" data-name="Trazado 1175684" d="M0,0H4.754V11.411H0Z" transform="translate(38.535 39.739) rotate(45)" fill="#86889e"/>
      <path id="Trazado_1175685" data-name="Trazado 1175685" d="M0,0H2.853V11.411H0Z" transform="translate(39.879 41.083) rotate(45)" fill="#787b92"/>
      <path id="Trazado_1175686" data-name="Trazado 1175686" d="M8.865,34.25a2.615,2.615,0,1,0,2.615,2.615A2.615,2.615,0,0,0,8.865,34.25Zm0,3.8a1.189,1.189,0,1,1,1.189-1.189,1.189,1.189,0,0,1-1.189,1.189Z" transform="translate(-0.196 -1.67)"/>
      <path id="Trazado_1175687" data-name="Trazado 1175687" d="M34.981,35.25H15.963a.713.713,0,1,0,0,1.426H34.981a.713.713,0,1,0,0-1.426Z" transform="translate(-0.638 -1.719)"/>
      <path id="Trazado_1175688" data-name="Trazado 1175688" d="M15.963,39.676h9.509a.713.713,0,1,0,0-1.426H15.963a.713.713,0,1,0,0,1.426Z" transform="translate(-0.638 -1.866)"/>
      <path id="Trazado_1175689" data-name="Trazado 1175689" d="M8.865,42.25a2.615,2.615,0,1,0,2.615,2.615A2.615,2.615,0,0,0,8.865,42.25Zm0,3.8a1.189,1.189,0,1,1,1.189-1.189,1.189,1.189,0,0,1-1.189,1.189Z" transform="translate(-0.196 -2.063)"/>
      <path id="Trazado_1175690" data-name="Trazado 1175690" d="M32.128,43.25H15.963a.713.713,0,1,0,0,1.426H32.128a.713.713,0,1,0,0-1.426Z" transform="translate(-0.638 -2.112)"/>
      <path id="Trazado_1175691" data-name="Trazado 1175691" d="M25.472,46.25H15.963a.713.713,0,1,0,0,1.426h9.509a.713.713,0,1,0,0-1.426Z" transform="translate(-0.638 -2.259)"/>
      <path id="Trazado_1175692" data-name="Trazado 1175692" d="M8.865,50.25a2.615,2.615,0,1,0,2.615,2.615A2.615,2.615,0,0,0,8.865,50.25Zm0,3.8a1.189,1.189,0,1,1,1.189-1.189,1.189,1.189,0,0,1-1.189,1.189Z" transform="translate(-0.196 -2.456)"/>
      <path id="Trazado_1175693" data-name="Trazado 1175693" d="M21.669,55.676a.713.713,0,0,0,0-1.426H15.963a.713.713,0,1,0,0,1.426Z" transform="translate(-0.638 -2.652)"/>
      <path id="Trazado_1175694" data-name="Trazado 1175694" d="M8.963,26.6H37.49a.713.713,0,0,0,.713-.713V23.03a.714.714,0,0,0-.53-.689l-.421-.112V20.177A14.014,14.014,0,0,0,29.217,7.507,2.606,2.606,0,0,0,26.631,5.2h-.2a1.657,1.657,0,0,0-1.5-.951H21.52a1.657,1.657,0,0,0-1.5.951h-.2a2.606,2.606,0,0,0-2.586,2.306A14.014,14.014,0,0,0,9.2,20.177v2.051l-.421.112a.714.714,0,0,0-.53.689v2.853a.713.713,0,0,0,.713.713Zm20.1-17.581a12.52,12.52,0,0,1,1.8,1.153l-.736,5.154a.714.714,0,0,0,1.413.2l.6-4.234a12.58,12.58,0,0,1,3.682,8.888v1.671l-8.774-2.336ZM19.822,6.627h.138L21.1,12.7a.713.713,0,1,0,1.4-.263L21.286,5.958a.238.238,0,0,1,.234-.285h3.418a.238.238,0,0,1,.234.285l-1.215,6.481a.713.713,0,1,0,1.4.263L26.5,6.627h.138a1.189,1.189,0,0,1,1.168,1.412l-2.134,11.1-2.261-.6a.707.707,0,0,0-.367,0l-2.261.6-2.127-11.1a1.189,1.189,0,0,1,1.168-1.412Zm-9.2,13.55a12.58,12.58,0,0,1,3.682-8.888l.6,4.234a.714.714,0,0,0,1.413-.2l-.736-5.154a12.521,12.521,0,0,1,1.8-1.153l2.011,10.5-8.774,2.339Zm-.951,3.4,13.55-3.613,13.55,3.613V25.17H9.676Z" transform="translate(-0.295 -0.196)"/>
      <path id="Trazado_1175695" data-name="Trazado 1175695" d="M58.2,23.461a2.141,2.141,0,0,0-3.025,0l-1.849,1.849-.168-.168a.712.712,0,0,0-1.008,0l-2.187,2.187-.167-.168a.715.715,0,0,0-1.009,0l-2.017,2.018a.713.713,0,0,0,0,1.009l.167.167L43.61,33.683V16.891h5a.713.713,0,0,0,.713-.713V3.816A3.57,3.57,0,0,0,45.753.25H5.816A3.57,3.57,0,0,0,2.25,3.816v56.1a.713.713,0,0,0,.713.713H42.9a.713.713,0,0,0,.713-.713v-17.5l7.7-7.7,1.008,1.009L46.1,41.948a.713.713,0,1,0,1.008,1.009l8.741-8.742a.715.715,0,0,0,0-1.009l-1.513-1.513,2.187-2.187a.712.712,0,0,0,0-1.008l-.168-.168L58.2,26.481a2.14,2.14,0,0,0,0-3.02ZM43.614,3.816a2.14,2.14,0,0,1,4.279,0V15.464H43.614Zm-39.937,0a2.141,2.141,0,0,1,2.14-2.14h37.1a3.533,3.533,0,0,0-.731,2.139v31.29l-13.64,13.64H15.325a.713.713,0,1,0,0,1.426h11.8l-1.867,1.866a.761.761,0,0,0-.107.138L21.114,58.9a.7.7,0,0,0-.1.306H3.676ZM26.768,52.542l3.7-3.7L32.821,51.2l-3.7,3.7Zm1.2,3.22L22.8,58.872,25.9,53.7Zm3.5-7.927,7.06-7.06,2.353,2.353-7.06,7.06Zm10.713,11.37H25.006l4.487-2.689a.719.719,0,0,0,.137-.107l12.557-12.56ZM41.9,42.121l-2.353-2.353,8.4-8.4L50.3,33.716Zm11.431-7.4-5.04-5.04L49.3,28.672l5.04,5.04Zm0-4.034-2.353-2.35,1.681-1.681,2.353,2.353Zm3.866-5.211-1.849,1.849-1.008-1.008,1.849-1.849a.713.713,0,1,1,1.009,1.009Z"/>
    </g>
  </g>
</svg>
