<svg xmlns="http://www.w3.org/2000/svg" xmlns:xlink="http://www.w3.org/1999/xlink" width="103" height="103" viewBox="0 0 103 103">
  <defs>
    <filter id="Trazado_978624" x="0" y="0" width="103" height="103" filterUnits="userSpaceOnUse">
      <feOffset dy="3" input="SourceAlpha"/>
      <feGaussianBlur stdDeviation="3" result="blur"/>
      <feFlood flood-opacity="0.161"/>
      <feComposite operator="in" in2="blur"/>
      <feComposite in="SourceGraphic"/>
    </filter>
  </defs>
  <g id="Grupo_1222020" data-name="Grupo 1222020" transform="translate(-171 -2483.171)">
    <g id="Grupo_1219925" data-name="Grupo 1219925" transform="translate(180 2489.171)">
      <g id="Grupo_1216021" data-name="Grupo 1216021" transform="translate(0 0)">
        <g id="Grupo_1210476" data-name="Grupo 1210476" transform="translate(0 0)">
          <g id="Grupo_1210475" data-name="Grupo 1210475" transform="translate(0 0)">
            <g id="Grupo_1209741" data-name="Grupo 1209741" transform="translate(0 0)">
              <g id="Grupo_1178144" data-name="Grupo 1178144">
                <g id="Grupo_1177896" data-name="Grupo 1177896">
                  <g id="Grupo_1176881" data-name="Grupo 1176881">
                    <g id="Grupo_1175148" data-name="Grupo 1175148">
                      <g id="Grupo_1173798" data-name="Grupo 1173798">
                        <g id="Grupo_1171925" data-name="Grupo 1171925">
                          <g id="Grupo_1164524" data-name="Grupo 1164524">
                            <g id="Grupo_1144123" data-name="Grupo 1144123">
                              <g transform="matrix(1, 0, 0, 1, -9, -6)" filter="url(#Trazado_978624)">
                                <g id="Trazado_978624-2" data-name="Trazado 978624" transform="translate(9 6)" fill="#e7f2f8">
                                  <path d="M 42.4999885559082 83.49997711181641 C 36.9643669128418 83.49997711181641 31.59511756896973 82.41615295410156 26.54140090942383 80.27861022949219 C 21.65933036804199 78.21366882324219 17.27447128295898 75.25720977783203 13.50862407684326 71.49135589599609 C 9.742765426635742 67.72550964355469 6.786306381225586 63.34064865112305 4.721364974975586 58.45857620239258 C 2.583823919296265 53.40485763549805 1.500000357627869 48.03561019897461 1.500000357627869 42.4999885559082 C 1.500000357627869 36.9643669128418 2.583823919296265 31.59511756896973 4.721364974975586 26.54140090942383 C 6.786306381225586 21.65933036804199 9.742765426635742 17.27447128295898 13.50862407684326 13.50862407684326 C 17.27447128295898 9.742765426635742 21.65933036804199 6.786306381225586 26.54140090942383 4.721364974975586 C 31.59511756896973 2.583823919296265 36.9643669128418 1.500000357627869 42.4999885559082 1.500000357627869 C 48.03561019897461 1.500000357627869 53.40485763549805 2.583823919296265 58.45857620239258 4.721364974975586 C 63.34064865112305 6.786306381225586 67.72550964355469 9.742765426635742 71.49135589599609 13.50862407684326 C 75.25720977783203 17.27447128295898 78.21366882324219 21.65933036804199 80.27861022949219 26.54140090942383 C 82.41615295410156 31.59511756896973 83.49997711181641 36.9643669128418 83.49997711181641 42.4999885559082 C 83.49997711181641 48.03561019897461 82.41615295410156 53.40485763549805 80.27861022949219 58.45857620239258 C 78.21366882324219 63.34064865112305 75.25720977783203 67.72550964355469 71.49135589599609 71.49135589599609 C 67.72550964355469 75.25720977783203 63.34064865112305 78.21366882324219 58.45857620239258 80.27861022949219 C 53.40485763549805 82.41615295410156 48.03561019897461 83.49997711181641 42.4999885559082 83.49997711181641 Z" stroke="none"/>
                                  <path d="M 42.4999885559082 3 C 37.16620254516602 3 31.99356079101562 4.043960571289062 27.12573623657227 6.102867126464844 C 22.42245483398438 8.092185974121094 18.19785308837891 10.94071197509766 14.56928253173828 14.56928253173828 C 10.94071197509766 18.19785308837891 8.092185974121094 22.42245483398438 6.102867126464844 27.12573623657227 C 4.043960571289062 31.99356079101562 3 37.16620254516602 3 42.4999885559082 C 3 47.83377456665039 4.043960571289062 53.00641632080078 6.102867126464844 57.87424468994141 C 8.092185974121094 62.57752227783203 10.94071197509766 66.8021240234375 14.56928253173828 70.43069458007812 C 18.19785308837891 74.05926513671875 22.42245483398438 76.90779113769531 27.12573623657227 78.89710998535156 C 31.99356079101562 80.95601654052734 37.16620254516602 81.99997711181641 42.4999885559082 81.99997711181641 C 47.83377456665039 81.99997711181641 53.00641632080078 80.95601654052734 57.87424468994141 78.89710998535156 C 62.57752227783203 76.90779113769531 66.8021240234375 74.05926513671875 70.43069458007812 70.43069458007812 C 74.05926513671875 66.8021240234375 76.90779113769531 62.57752227783203 78.89710998535156 57.87424468994141 C 80.95601654052734 53.00641632080078 81.99997711181641 47.83377456665039 81.99997711181641 42.4999885559082 C 81.99997711181641 37.16620254516602 80.95601654052734 31.99356079101562 78.89710998535156 27.12573623657227 C 76.90779113769531 22.42245483398438 74.05926513671875 18.19785308837891 70.43069458007812 14.56928253173828 C 66.8021240234375 10.94071197509766 62.57752227783203 8.092185974121094 57.87424468994141 6.102867126464844 C 53.00641632080078 4.043960571289062 47.83377456665039 3 42.4999885559082 3 M 42.4999885559082 0 C 65.97208404541016 0 84.99997711181641 19.02789306640625 84.99997711181641 42.4999885559082 C 84.99997711181641 65.97208404541016 65.97208404541016 84.99997711181641 42.4999885559082 84.99997711181641 C 19.02789306640625 84.99997711181641 0 65.97208404541016 0 42.4999885559082 C 0 19.02789306640625 19.02789306640625 0 42.4999885559082 0 Z" stroke="none" fill="#248abf"/>
                                </g>
                              </g>
                            </g>
                          </g>
                        </g>
                      </g>
                    </g>
                  </g>
                </g>
              </g>
            </g>
          </g>
        </g>
      </g>
    </g>
    <g id="documento" transform="translate(193.235 2507.864)">
      <path id="Trazado_1175799" data-name="Trazado 1175799" d="M360.422,99.172h-6.308L352,97.058,352.031,40l2.082.375,15.85,2.795Z" transform="translate(-307.621 -36.83)" fill="#fdbf44"/>
      <path id="Trazado_1175800" data-name="Trazado 1175800" d="M395.138,182.382H392v-2.113h2.247l7.771-45.613,2.083.355L396.18,181.5A1.057,1.057,0,0,1,395.138,182.382Z" transform="translate(-342.338 -118.984)"/>
      <path id="Trazado_1175801" data-name="Trazado 1175801" d="M403.255,50.044l-2.083-.355,1.084-6.36-11.645-2.054.367-2.081,12.68,2.236a1.057,1.057,0,0,1,.858,1.218Z" transform="translate(-341.133 -36.131)"/>
      <g id="Grupo_1222019" data-name="Grupo 1222019" transform="translate(0 0)">
        <path id="Trazado_1175802" data-name="Trazado 1175802" d="M24,24H69.435V85.285H24Z" transform="translate(-22.943 -22.943)" fill="#25b1fa"/>
        <rect id="Rect치ngulo_420885" data-name="Rect치ngulo 420885" width="10.388" height="10.388" rx="5.194" transform="translate(6.233 32.203)" fill="#fcfeff"/>
        <rect id="Rect치ngulo_420886" data-name="Rect치ngulo 420886" width="10.388" height="10.388" rx="5.194" transform="translate(6.233 47.785)" fill="#fcfeff"/>
        <path id="Trazado_1175803" data-name="Trazado 1175803" d="M62.492,79.4H17.057A1.057,1.057,0,0,1,16,78.341V62.492h2.113V77.285H61.435V18.113H18.113V60.379H16V17.057A1.057,1.057,0,0,1,17.057,16H62.492a1.057,1.057,0,0,1,1.057,1.057V78.341A1.057,1.057,0,0,1,62.492,79.4Z" transform="translate(-16 -16)"/>
        <g id="Grupo_1222018" data-name="Grupo 1222018" transform="translate(5.283 30.642)">
          <g id="Grupo_1222016" data-name="Grupo 1222016">
            <path id="Trazado_1175804" data-name="Trazado 1175804" d="M86.26,259.934a1.057,1.057,0,0,1-.747-.309l-3.17-3.17,1.494-1.494,2.363,2.363,5.6-6.53,1.6,1.375-6.34,7.4a1.057,1.057,0,0,1-.762.368Z" transform="translate(-78.864 -250.424)"/>
            <path id="Trazado_1175805" data-name="Trazado 1175805" d="M64.981,260.68H59.7a3.7,3.7,0,0,1-3.7-3.7V251.7a3.7,3.7,0,0,1,3.7-3.7h4.755v2.113H59.7a1.587,1.587,0,0,0-1.585,1.585v5.283a1.587,1.587,0,0,0,1.585,1.585h5.283a1.587,1.587,0,0,0,1.585-1.585v-.528H68.68v.528A3.7,3.7,0,0,1,64.981,260.68Z" transform="translate(-56 -248)"/>
          </g>
          <g id="Grupo_1222017" data-name="Grupo 1222017" transform="translate(0 15.85)">
            <path id="Trazado_1175806" data-name="Trazado 1175806" d="M86.26,379.934a1.057,1.057,0,0,1-.747-.31l-3.17-3.17,1.494-1.494,2.363,2.363,5.6-6.53,1.6,1.375-6.34,7.4a1.057,1.057,0,0,1-.762.368Z" transform="translate(-78.864 -370.424)"/>
            <path id="Trazado_1175807" data-name="Trazado 1175807" d="M64.981,380.68H59.7a3.7,3.7,0,0,1-3.7-3.7V371.7a3.7,3.7,0,0,1,3.7-3.7h4.755v2.113H59.7a1.587,1.587,0,0,0-1.585,1.585v5.283a1.587,1.587,0,0,0,1.585,1.585h5.283a1.587,1.587,0,0,0,1.585-1.585v-.528H68.68v.528A3.7,3.7,0,0,1,64.981,380.68Z" transform="translate(-56 -368)"/>
          </g>
          <path id="Trazado_1175808" data-name="Trazado 1175808" d="M184,368h15.85v2.113H184Z" transform="translate(-167.094 -352.151)"/>
          <path id="Trazado_1175809" data-name="Trazado 1175809" d="M184,408h5.283v2.113H184Z" transform="translate(-167.094 -386.867)"/>
        </g>
        <path id="Trazado_1175810" data-name="Trazado 1175810" d="M240,408h8.453v2.113H240Z" transform="translate(-210.414 -356.225)"/>
        <path id="Trazado_1175811" data-name="Trazado 1175811" d="M184,248h15.85v2.113H184Z" transform="translate(-161.811 -217.358)"/>
        <path id="Trazado_1175812" data-name="Trazado 1175812" d="M184,288h5.283v2.113H184Z" transform="translate(-161.811 -252.074)"/>
        <path id="Trazado_1175813" data-name="Trazado 1175813" d="M240,288h8.453v2.113H240Z" transform="translate(-210.414 -252.074)"/>
        <path id="Trazado_1175814" data-name="Trazado 1175814" d="M135.2,75.444a16.242,16.242,0,0,1-6.41-10.184L128,60.235,137.5,56l9.5,4.235-.8,5.067A16.237,16.237,0,0,1,139.7,75.546l-2.195,1.6Z" transform="translate(-113.207 -50.717)" fill="#fcfeff"/>
        <path id="Trazado_1175815" data-name="Trazado 1175815" d="M130.564,71.254a1.055,1.055,0,0,1-.627-.206l-2.3-1.7a17.3,17.3,0,0,1-6.823-10.846c0-.008,0-.017,0-.025l-.791-5.026a1.057,1.057,0,0,1,.613-1.129l9.5-4.235a1.057,1.057,0,0,1,.861,0l9.5,4.235a1.057,1.057,0,0,1,.613,1.13l-.8,5.067,0,.025a17.29,17.29,0,0,1-6.912,10.91l-2.195,1.6a1.055,1.055,0,0,1-.622.2ZM122.892,58.14a15.191,15.191,0,0,0,5.995,9.51l1.681,1.239,1.569-1.141a15.186,15.186,0,0,0,6.073-9.567l.671-4.255-8.327-3.713-8.327,3.713Z" transform="translate(-106.266 -43.773)"/>
        <path id="Trazado_1175816" data-name="Trazado 1175816" d="M166.07,106.544a1.053,1.053,0,0,1-.747-.31l-3.17-3.17,1.494-1.495,2.423,2.423,5.593-5.593,1.494,1.494-6.34,6.34a1.053,1.053,0,0,1-.747.31Z" transform="translate(-142.849 -87.517)"/>
        <path id="Trazado_1175817" data-name="Trazado 1175817" d="M56,48h6.34v2.113H56Z" transform="translate(-50.717 -43.773)"/>
        <path id="Trazado_1175818" data-name="Trazado 1175818" d="M56,80h4.227v2.113H56Z" transform="translate(-50.717 -71.547)"/>
        <path id="Trazado_1175819" data-name="Trazado 1175819" d="M296,48h2.113v2.113H296Z" transform="translate(-259.018 -43.773)"/>
        <path id="Trazado_1175820" data-name="Trazado 1175820" d="M328,48h2.113v2.113H328Z" transform="translate(-286.791 -43.773)"/>
      </g>
    </g>
  </g>
</svg>
