<svg xmlns="http://www.w3.org/2000/svg" xmlns:xlink="http://www.w3.org/1999/xlink" width="93.934" height="93.934" viewBox="0 0 93.934 93.934">
  <defs>
    <filter id="Trazado_982547" x="0" y="0" width="93.934" height="93.934" filterUnits="userSpaceOnUse">
      <feOffset dy="3" input="SourceAlpha"/>
      <feGaussianBlur stdDeviation="3" result="blur"/>
      <feFlood flood-opacity="0.161"/>
      <feComposite operator="in" in2="blur"/>
      <feComposite in="SourceGraphic"/>
    </filter>
  </defs>
  <g id="Grupo_1221973" data-name="Grupo 1221973" transform="translate(-508.066 -1385.533)">
    <g id="Grupo_1219862" data-name="Grupo 1219862" transform="translate(317 342.684)">
      <g id="Grupo_1215981" data-name="Grupo 1215981" transform="translate(-0.229 -2679.151)">
        <g id="Grupo_1214594" data-name="Grupo 1214594" transform="translate(200.295 3728)">
          <g id="Grupo_1214432" data-name="Grupo 1214432" transform="translate(0)">
            <g id="Grupo_1183196" data-name="Grupo 1183196">
              <g id="Grupo_1179610" data-name="Grupo 1179610">
                <g id="Grupo_1175227" data-name="Grupo 1175227">
                  <g id="Grupo_1167337" data-name="Grupo 1167337">
                    <g id="Grupo_1166720" data-name="Grupo 1166720">
                      <g id="Grupo_1164305" data-name="Grupo 1164305">
                        <g id="Grupo_1163948" data-name="Grupo 1163948">
                          <g id="Grupo_1158168" data-name="Grupo 1158168">
                            <g id="Grupo_1152576" data-name="Grupo 1152576">
                              <g id="Grupo_1148633" data-name="Grupo 1148633">
                                <g id="Grupo_1148525" data-name="Grupo 1148525">
                                  <g transform="matrix(1, 0, 0, 1, -9, -6)" filter="url(#Trazado_982547)">
                                    <g id="Trazado_982547-2" data-name="Trazado 982547" transform="translate(9 6)" fill="#eae4dc">
                                      <path d="M 37.966796875 74.43359375 C 33.04315185546875 74.43359375 28.26757431030273 73.46962738037109 23.77274131774902 71.56847381591797 C 19.43047523498535 69.73184967041016 15.53040790557861 67.10224914550781 12.18087482452393 63.75271987915039 C 8.831341743469238 60.4031867980957 6.201741218566895 56.50312042236328 4.365118980407715 52.16086196899414 C 2.463963508605957 47.66601943969727 1.499996900558472 42.89044189453125 1.499996900558472 37.966796875 C 1.499996900558472 33.04315185546875 2.463963508605957 28.26757431030273 4.365118980407715 23.77274131774902 C 6.201741218566895 19.43047523498535 8.831341743469238 15.53040790557861 12.18087482452393 12.18087482452393 C 15.53040790557861 8.831341743469238 19.43047523498535 6.201741218566895 23.77274131774902 4.365118980407715 C 28.26757431030273 2.463963508605957 33.04315185546875 1.499996900558472 37.966796875 1.499996900558472 C 42.89044189453125 1.499996900558472 47.66601943969727 2.463963508605957 52.16086196899414 4.365118980407715 C 56.50312042236328 6.201741218566895 60.4031867980957 8.831341743469238 63.75271987915039 12.18087482452393 C 67.10224914550781 15.53040790557861 69.73184967041016 19.43047523498535 71.56847381591797 23.77274131774902 C 73.46962738037109 28.26757431030273 74.43359375 33.04315185546875 74.43359375 37.966796875 C 74.43359375 42.89044189453125 73.46962738037109 47.66601943969727 71.56847381591797 52.16086196899414 C 69.73184967041016 56.50313186645508 67.10224914550781 60.4031867980957 63.75271987915039 63.75271987915039 C 60.4031867980957 67.10224914550781 56.50313186645508 69.73184967041016 52.16086196899414 71.56847381591797 C 47.66601943969727 73.46962738037109 42.89044189453125 74.43359375 37.966796875 74.43359375 Z" stroke="none"/>
                                      <path d="M 37.966796875 3 C 33.2449836730957 3 28.66600799560547 3.924095153808594 24.35705947875977 5.746635437011719 C 20.19359588623047 7.507637023925781 16.45379638671875 10.02928161621094 13.24153518676758 13.24153518676758 C 10.02927398681641 16.45379638671875 7.507621765136719 20.19359588623047 5.746635437011719 24.35705947875977 C 3.924095153808594 28.66600799560547 3 33.2449836730957 3 37.966796875 C 3 42.6886100769043 3.924095153808594 47.26758575439453 5.746635437011719 51.57653427124023 C 7.507621765136719 55.73999786376953 10.02927398681641 59.47979736328125 13.24153518676758 62.69205856323242 C 16.45379638671875 65.90431976318359 20.19359588623047 68.42597198486328 24.35705947875977 70.18695831298828 C 28.66600799560547 72.00949859619141 33.2449836730957 72.93359375 37.966796875 72.93359375 C 42.6886100769043 72.93359375 47.26758575439453 72.00949859619141 51.57653427124023 70.18695831298828 C 55.73999786376953 68.42597198486328 59.47979736328125 65.90431976318359 62.69205856323242 62.69205856323242 C 65.90431976318359 59.47979736328125 68.42597198486328 55.73999786376953 70.18695831298828 51.57653427124023 C 72.00949859619141 47.26758575439453 72.93359375 42.6886100769043 72.93359375 37.966796875 C 72.93359375 33.2449836730957 72.00949859619141 28.66600799560547 70.18695831298828 24.35705947875977 C 68.42597198486328 20.19359588623047 65.90431976318359 16.45379638671875 62.69205856323242 13.24153518676758 C 59.47979736328125 10.02928161621094 55.73999786376953 7.507637023925781 51.57653427124023 5.746635437011719 C 47.26758575439453 3.924095153808594 42.6886100769043 3 37.966796875 3 M 37.966796875 0 C 58.93528366088867 0 75.93359375 16.99832153320312 75.93359375 37.966796875 C 75.93359375 58.93528366088867 58.93528366088867 75.93359375 37.966796875 75.93359375 C 16.99831008911133 75.93359375 0 58.93528366088867 0 37.966796875 C 0 16.99832153320312 16.99831008911133 0 37.966796875 0 Z" stroke="none" fill="#665b4e"/>
                                    </g>
                                  </g>
                                </g>
                              </g>
                            </g>
                          </g>
                        </g>
                      </g>
                    </g>
                  </g>
                </g>
              </g>
            </g>
          </g>
        </g>
      </g>
    </g>
    <g id="globo" transform="translate(527.033 1401.748)">
      <g id="Colour">
        <path id="Trazado_1175696" data-name="Trazado 1175696" d="M26,54.92A26.983,26.983,0,1,1,51,42.15Z" fill="#4982c8"/>
        <g id="Grupo_1221972" data-name="Grupo 1221972">
          <path id="Trazado_1175697" data-name="Trazado 1175697" d="M22,42.87v2.3a4.51,4.51,0,0,1-.99,2.96A4.712,4.712,0,0,0,20,51.11v2.68A27.016,27.016,0,0,1,3.3,38.91l1.93-3.08a6.013,6.013,0,0,1,8.2-1.97l5.25,3.15A6.827,6.827,0,0,1,22,42.87Z" fill="#83de92"/>
          <path id="Trazado_1175698" data-name="Trazado 1175698" d="M15.59,15.61l-3.07,4.62a3.015,3.015,0,0,0-.52,1.7A3.064,3.064,0,0,1,8.93,25H1.17A26.79,26.79,0,0,1,6.25,12h7.41a2.32,2.32,0,0,1,1.93,3.61Z" fill="#83de92"/>
          <path id="Trazado_1175699" data-name="Trazado 1175699" d="M52.57,16.8c-.53,1.65-1.06,3.16-1.57,4.52L37.5,19a2.5,2.5,0,0,0,0-5H31.68a2.207,2.207,0,0,1-1.94-3.25l4.82-8.94A27.026,27.026,0,0,1,52.57,16.8Z" fill="#83de92"/>
        </g>
        <path id="Trazado_1175700" data-name="Trazado 1175700" d="M30.01,59c-.13,0-.27-.01-.4-.02A4.116,4.116,0,0,1,26,54.83V21a2.006,2.006,0,0,1,2-2H49a2.006,2.006,0,0,1,2,2V53L33,59Z" fill="#e4f0f7"/>
        <path id="Trazado_1175701" data-name="Trazado 1175701" d="M59,54v1a4,4,0,0,1-4,4H30.01A4,4,0,0,0,34,55V54a1,1,0,0,1,1-1H58A1,1,0,0,1,59,54Z" fill="#b5cddd"/>
      </g>
      <g id="Icons">
        <path id="Trazado_1175702" data-name="Trazado 1175702" d="M58,52H57a1,1,0,0,0,0,2h1v1a3,3,0,0,1-3,3H34a4.985,4.985,0,0,0,1-3V54H53a1,1,0,0,0,0-2H52V42.414A27.989,27.989,0,0,0,34.628.8L34.12.525l-.075.14A27.992,27.992,0,1,0,25.1,55.837a5.1,5.1,0,0,0,4.434,4.141c.154.011.32.022.475.022H55a5.006,5.006,0,0,0,5-5V54a2,2,0,0,0-2-2ZM52,37.982V21.5c.217-.583.43-1.177.64-1.775A25.9,25.9,0,0,1,52,37.982ZM51.492,16.87c-.2.609-.4,1.216-.606,1.816A2.972,2.972,0,0,0,49,18H40.649A3.464,3.464,0,0,0,41,16.5,3.5,3.5,0,0,0,37.5,13H31.683a1.2,1.2,0,0,1-1.059-1.771l4.443-8.245A26.112,26.112,0,0,1,51.492,16.87ZM6.783,13H13.66a1.32,1.32,0,0,1,1.1,2.057L11.7,19.668A4.009,4.009,0,0,0,11,21.93,2.073,2.073,0,0,1,8.93,24H2.308A25.851,25.851,0,0,1,6.783,13ZM4.446,38.964l1.632-2.6a4.962,4.962,0,0,1,1.828-1.726,5.065,5.065,0,0,1,5.009.084l5.252,3.15a5.852,5.852,0,0,1,2.833,5v2.3a3.525,3.525,0,0,1-.768,2.331A5.74,5.74,0,0,0,19,51.11v1.277A26.19,26.19,0,0,1,4.446,38.964ZM25,21V53.819a25.748,25.748,0,0,1-4-.782V51.11a3.726,3.726,0,0,1,.777-2.339A5.491,5.491,0,0,0,23,45.17v-2.3a7.86,7.86,0,0,0-3.806-6.718L13.942,33a7.112,7.112,0,0,0-7-.12A6.957,6.957,0,0,0,4.383,35.3l-.874,1.393A25.775,25.775,0,0,1,2,28c0-.674.034-1.339.085-2H8.93A4.075,4.075,0,0,0,13,21.93a2.02,2.02,0,0,1,.353-1.146l3.068-4.618A3.32,3.32,0,0,0,13.66,11H8.352A25.943,25.943,0,0,1,33.057,2.5l-4.194,7.78A3.2,3.2,0,0,0,31.683,15H37.5a1.5,1.5,0,0,1,0,3H28A3,3,0,0,0,25,21Zm8,33v1a3,3,0,0,1-2.99,3c-.106,0-.219-.009-.3-.015A3.12,3.12,0,0,1,27,54.83V21a1,1,0,0,1,1-1H49a1,1,0,0,1,1,1V52H35A2,2,0,0,0,33,54Z" fill="#373737"/>
        <path id="Trazado_1175703" data-name="Trazado 1175703" d="M47,50a1,1,0,0,0,0-2c-9.1,0-11.1-3.43-11.1-3.447a1,1,0,0,0-1.865.205A4.265,4.265,0,0,1,30,48a1,1,0,1,0,0,2,6.32,6.32,0,0,0,5.336-3.133C36.906,48.2,40.269,50,47,50Z" fill="#373737"/>
        <path id="Trazado_1175704" data-name="Trazado 1175704" d="M31,41H46a1,1,0,0,0,0-2H31a1,1,0,0,0,0,2Z" fill="#373737"/>
        <path id="Trazado_1175705" data-name="Trazado 1175705" d="M31,36H46a1,1,0,0,0,0-2H31a1,1,0,0,0,0,2Z" fill="#373737"/>
        <path id="Trazado_1175706" data-name="Trazado 1175706" d="M31,31h9a1,1,0,0,0,0-2H31a1,1,0,0,0,0,2Z" fill="#373737"/>
      </g>
    </g>
  </g>
</svg>
