<svg xmlns="http://www.w3.org/2000/svg" xmlns:xlink="http://www.w3.org/1999/xlink" width="105.658" height="105.658" viewBox="0 0 105.658 105.658">
  <defs>
    <filter id="Trazado_978624" x="0" y="0" width="105.658" height="105.658" filterUnits="userSpaceOnUse">
      <feOffset dy="3" input="SourceAlpha"/>
      <feGaussianBlur stdDeviation="3" result="blur"/>
      <feFlood flood-opacity="0.161"/>
      <feComposite operator="in" in2="blur"/>
      <feComposite in="SourceGraphic"/>
    </filter>
  </defs>
  <g id="Grupo_1222440" data-name="Grupo 1222440" transform="translate(-171 -1743.171)">
    <g id="Grupo_1220049" data-name="Grupo 1220049" transform="translate(11.036 -88.171)">
      <g id="Grupo_1216021" data-name="Grupo 1216021" transform="translate(168.964 1837.342)">
        <g id="Grupo_1210476" data-name="Grupo 1210476" transform="translate(0 0)">
          <g id="Grupo_1210475" data-name="Grupo 1210475" transform="translate(0 0)">
            <g id="Grupo_1209741" data-name="Grupo 1209741" transform="translate(0 0)">
              <g id="Grupo_1178144" data-name="Grupo 1178144">
                <g id="Grupo_1177896" data-name="Grupo 1177896">
                  <g id="Grupo_1176881" data-name="Grupo 1176881">
                    <g id="Grupo_1175148" data-name="Grupo 1175148">
                      <g id="Grupo_1173798" data-name="Grupo 1173798">
                        <g id="Grupo_1171925" data-name="Grupo 1171925">
                          <g id="Grupo_1164524" data-name="Grupo 1164524">
                            <g id="Grupo_1144123" data-name="Grupo 1144123">
                              <g transform="matrix(1, 0, 0, 1, -9, -6)" filter="url(#Trazado_978624)">
                                <g id="Trazado_978624-2" data-name="Trazado 978624" transform="translate(9 6)" fill="#f2f4f0">
                                  <path d="M 43.82918167114258 86.15837097167969 C 38.11412048339844 86.15837097167969 32.57080841064453 85.03940582275391 27.35321998596191 82.83254241943359 C 22.31287002563477 80.70065307617188 17.78585624694824 77.64835357666016 13.8979320526123 73.76042938232422 C 10.01000690460205 69.87250518798828 6.957719326019287 65.34550476074219 4.825831890106201 60.30514526367188 C 2.618969202041626 55.08755493164062 1.500006675720215 49.54424285888672 1.500006675720215 43.82918167114258 C 1.500006675720215 38.11412048339844 2.618969202041626 32.57080841064453 4.825831890106201 27.35321998596191 C 6.957719326019287 22.31287002563477 10.01000690460205 17.78585624694824 13.8979320526123 13.8979320526123 C 17.78585624694824 10.01000690460205 22.31287002563477 6.957719326019287 27.35321998596191 4.825831890106201 C 32.57080841064453 2.618969202041626 38.11412048339844 1.500006675720215 43.82918167114258 1.500006675720215 C 49.54424285888672 1.500006675720215 55.08755493164062 2.618969202041626 60.30514526367188 4.825831890106201 C 65.34550476074219 6.957719326019287 69.87250518798828 10.01000690460205 73.76042938232422 13.8979320526123 C 77.64835357666016 17.78585624694824 80.70065307617188 22.31287002563477 82.83254241943359 27.35321998596191 C 85.03940582275391 32.57080841064453 86.15837097167969 38.11412048339844 86.15837097167969 43.82918167114258 C 86.15837097167969 49.54424285888672 85.03940582275391 55.08755493164062 82.83254241943359 60.30514526367188 C 80.70065307617188 65.34549713134766 77.64835357666016 69.87250518798828 73.76042938232422 73.76042938232422 C 69.87250518798828 77.64835357666016 65.34549713134766 80.70065307617188 60.30514526367188 82.83254241943359 C 55.08755493164062 85.03940582275391 49.54424285888672 86.15837097167969 43.82918167114258 86.15837097167969 Z" stroke="none"/>
                                  <path d="M 43.82918167114258 2.999992370605469 C 38.31595230102539 2.999992370605469 32.96923828125 4.079093933105469 27.93753814697266 6.207321166992188 C 23.07599639892578 8.263580322265625 18.70923614501953 11.20793914794922 14.95859527587891 14.95859527587891 C 11.20793914794922 18.70923614501953 8.263580322265625 23.07599639892578 6.207321166992188 27.93753814697266 C 4.079093933105469 32.96923828125 2.999992370605469 38.31595230102539 2.999992370605469 43.82918167114258 C 2.999992370605469 49.34241104125977 4.079093933105469 54.68912506103516 6.207321166992188 59.7208251953125 C 8.263580322265625 64.58236694335938 11.20793914794922 68.94912719726562 14.95859527587891 72.69976806640625 C 18.70923614501953 76.45042419433594 23.07599639892578 79.39478302001953 27.93753814697266 81.45104217529297 C 32.96923828125 83.57926940917969 38.31595230102539 84.65837097167969 43.82918167114258 84.65837097167969 C 49.34241104125977 84.65837097167969 54.68912506103516 83.57926940917969 59.7208251953125 81.45104217529297 C 64.58236694335938 79.39478302001953 68.94912719726562 76.45042419433594 72.69976806640625 72.69976806640625 C 76.45042419433594 68.94912719726562 79.39478302001953 64.58236694335938 81.45104217529297 59.7208251953125 C 83.57926940917969 54.68912506103516 84.65837097167969 49.34241104125977 84.65837097167969 43.82918167114258 C 84.65837097167969 38.31595230102539 83.57926940917969 32.96923828125 81.45104217529297 27.93753814697266 C 79.39478302001953 23.07599639892578 76.45042419433594 18.70923614501953 72.69976806640625 14.95859527587891 C 68.94912719726562 11.20793914794922 64.58236694335938 8.263580322265625 59.7208251953125 6.207321166992188 C 54.68912506103516 4.079093933105469 49.34241104125977 2.999992370605469 43.82918167114258 2.999992370605469 M 43.82918167114258 -7.62939453125e-06 C 68.03536987304688 -7.62939453125e-06 87.65837097167969 19.62299346923828 87.65837097167969 43.82918167114258 C 87.65837097167969 68.03536987304688 68.03536987304688 87.65837097167969 43.82918167114258 87.65837097167969 C 19.62299346923828 87.65837097167969 -7.62939453125e-06 68.03536987304688 -7.62939453125e-06 43.82918167114258 C -7.62939453125e-06 19.62299346923828 19.62299346923828 -7.62939453125e-06 43.82918167114258 -7.62939453125e-06 Z" stroke="none" fill="#899e78"/>
                                </g>
                              </g>
                            </g>
                          </g>
                        </g>
                      </g>
                    </g>
                  </g>
                </g>
              </g>
            </g>
          </g>
        </g>
      </g>
    </g>
    <g id="licencias_1_" data-name="licencias (1)" transform="translate(189.423 1767.992)">
      <path id="Trazado_1176011" data-name="Trazado 1176011" d="M96.016,40.008v61.946H141.9V40.008Zm0,0" transform="translate(-82.256 -34.264)" fill="#348fd9"/>
      <path id="Trazado_1176012" data-name="Trazado 1176012" d="M139.608,48.038l-8.03-8.03H96.016V99.66h43.592Zm0,0" transform="translate(-82.257 -34.264)" fill="#3086cd"/>
      <path id="Trazado_1176013" data-name="Trazado 1176013" d="M64.016,69.954H109.9V18.332L99.577,8.008H64.016Zm0,0" transform="translate(-54.845 -6.853)" fill="#60d1e0"/>
      <path id="Trazado_1176014" data-name="Trazado 1176014" d="M322.34,18.332H312.016V8.008Zm0,0" transform="translate(-267.284 -6.853)" fill="#9fe4ed"/>
      <path id="Trazado_1176015" data-name="Trazado 1176015" d="M157.872,176.008l-37.856,37.856h37.856Zm0,0" transform="translate(-102.815 -150.763)" fill="#5ac6d4"/>
      <path id="Trazado_1176016" data-name="Trazado 1176016" d="M208.106,339.479H185.163a1.147,1.147,0,0,1-1.147-1.147v-9.177a1.147,1.147,0,0,1,1.147-1.147h22.943a1.147,1.147,0,0,1,1.147,1.147v9.177A1.147,1.147,0,0,1,208.106,339.479Zm-21.8-2.294h20.649V330.3H186.31Zm0,0" transform="translate(-157.638 -280.967)" fill="#348fd9"/>
      <path id="Trazado_1176017" data-name="Trazado 1176017" d="M216.016,360.008H220.6V362.3h-4.589Zm0,0" transform="translate(-185.05 -308.378)" fill="#348fd9"/>
      <path id="Trazado_1176018" data-name="Trazado 1176018" d="M264.016,360.008h9.177V362.3h-9.177Zm0,0" transform="translate(-226.167 -308.378)" fill="#348fd9"/>
      <path id="Trazado_1176019" data-name="Trazado 1176019" d="M248.016,222.894l6.882-6.882,16.06,16.06-6.882,6.882Zm0,0" transform="translate(-212.461 -185.03)" fill="#e0e0de"/>
      <path id="Trazado_1176020" data-name="Trazado 1176020" d="M321.223,144.008a6.883,6.883,0,0,0-6.883,6.883v.574l-10.324,10.9,5.736,5.736,10.9-10.324h.574a6.883,6.883,0,1,0,0-13.766Zm0,0" transform="translate(-260.431 -123.351)" fill="#95573a"/>
      <path id="Trazado_1176021" data-name="Trazado 1176021" d="M224.02,267.445,227.461,264l16.06,16.06-3.441,3.441Zm0,0" transform="translate(-191.906 -226.141)" fill="#ebebe9"/>
      <path id="Trazado_1176022" data-name="Trazado 1176022" d="M341.252,148.246C336.5,160.265,329.074,166,324.106,168.873l2.855,2.855,10.9-10.324h.574a6.883,6.883,0,0,0,2.82-13.158Zm0,0" transform="translate(-277.64 -126.982)" fill="#8f4d2e"/>
      <path id="Trazado_1176023" data-name="Trazado 1176023" d="M194.17,59.888a1.95,1.95,0,0,0-2.6-2.6,1.95,1.95,0,0,0-3.678,0,1.95,1.95,0,0,0-2.6,2.6,1.95,1.95,0,0,0,0,3.678,1.95,1.95,0,0,0,2.6,2.6,1.95,1.95,0,0,0,3.678,0,1.95,1.95,0,0,0,2.6-2.6,1.95,1.95,0,0,0,0-3.671Zm0,0" transform="translate(-157.618 -47.95)" fill="#ffb531"/>
      <path id="Trazado_1176024" data-name="Trazado 1176024" d="M83.518,68.626a12.609,12.609,0,0,0-19.5-10.569V79.194a12.609,12.609,0,0,0,19.5-10.569Zm0,0" transform="translate(-54.845 -47.969)" fill="#5ac6d4"/>
      <path id="Trazado_1176025" data-name="Trazado 1176025" d="M328.016,80.008h8.03V82.3h-8.03Zm0,0" transform="translate(-280.989 -68.528)" fill="#5ac6d4"/>
      <g id="Grupo_1222439" data-name="Grupo 1222439" transform="translate(14.906 22.951)">
        <path id="Trazado_1176026" data-name="Trazado 1176026" d="M152.016,232.008h11.472V234.3H152.016Zm0,0" transform="translate(-145.133 -221.684)" fill="#3fb7c7"/>
        <path id="Trazado_1176027" data-name="Trazado 1176027" d="M104.016,264.008h13.766V266.3H104.016Zm0,0" transform="translate(-104.016 -249.095)" fill="#3fb7c7"/>
        <path id="Trazado_1176028" data-name="Trazado 1176028" d="M104.016,200.008h24.09V202.3h-24.09Zm0,0" transform="translate(-104.016 -194.272)" fill="#3fb7c7"/>
        <path id="Trazado_1176029" data-name="Trazado 1176029" d="M104.016,296.008H110.9V298.3h-6.883Zm0,0" transform="translate(-104.016 -276.506)" fill="#3fb7c7"/>
        <path id="Trazado_1176030" data-name="Trazado 1176030" d="M104.016,328.008h9.177V330.3h-9.177Zm0,0" transform="translate(-104.016 -303.918)" fill="#3fb7c7"/>
        <path id="Trazado_1176031" data-name="Trazado 1176031" d="M104.016,360.008h9.177V362.3h-9.177Zm0,0" transform="translate(-104.016 -331.329)" fill="#3fb7c7"/>
        <path id="Trazado_1176032" data-name="Trazado 1176032" d="M104.016,392.008h9.177V394.3h-9.177Zm0,0" transform="translate(-104.016 -358.741)" fill="#3fb7c7"/>
        <path id="Trazado_1176033" data-name="Trazado 1176033" d="M104.016,232.008H108.6V234.3h-4.589Zm0,0" transform="translate(-104.016 -221.684)" fill="#3fb7c7"/>
        <path id="Trazado_1176034" data-name="Trazado 1176034" d="M168.016,296.008H172.6V298.3h-4.589Zm0,0" transform="translate(-158.839 -276.506)" fill="#3fb7c7"/>
        <path id="Trazado_1176035" data-name="Trazado 1176035" d="M168.016,160.008H172.6V162.3h-4.589Zm0,0" transform="translate(-158.839 -160.008)" fill="#3fb7c7"/>
        <path id="Trazado_1176036" data-name="Trazado 1176036" d="M216.016,160.008h9.177V162.3h-9.177Zm0,0" transform="translate(-199.956 -160.008)" fill="#3fb7c7"/>
      </g>
      <path id="Trazado_1176037" data-name="Trazado 1176037" d="M33.253,52.627A12.619,12.619,0,1,1,20.635,40.008,12.619,12.619,0,0,1,33.253,52.627Zm0,0" transform="translate(-6.875 -34.264)" fill="#7eb457"/>
      <path id="Trazado_1176038" data-name="Trazado 1176038" d="M38.612,95.781a1.147,1.147,0,0,1-.811-.336L34.359,92l1.622-1.622,2.63,2.63,10.66-10.66,1.622,1.622L39.423,95.445a1.147,1.147,0,0,1-.811.336Zm0,0" transform="translate(-29.441 -70.536)" fill="#ffb531"/>
      <path id="Trazado_1176039" data-name="Trazado 1176039" d="M192.7,111.745a12.468,12.468,0,0,0-.757-2.409A1.921,1.921,0,0,0,192.7,111.745Zm0,0" transform="translate(-164.292 -93.651)" fill="#f98500"/>
      <path id="Trazado_1176040" data-name="Trazado 1176040" d="M185.33,96.006a12.673,12.673,0,0,0-1.175-2.1A1.909,1.909,0,0,0,185.33,96.006Zm0,0" transform="translate(-157.734 -80.437)" fill="#f98500"/>
      <path id="Trazado_1176041" data-name="Trazado 1176041" d="M389.752,44.627V33.155a1.147,1.147,0,0,0-1.147-1.147h-4.589V34.3h3.441V44.627Zm0,0" transform="translate(-328.959 -27.412)"/>
      <path id="Trazado_1176042" data-name="Trazado 1176042" d="M56.016,240.008v28.679a1.147,1.147,0,0,0,1.147,1.147h45.886a1.147,1.147,0,0,0,1.147-1.147v-8.03H101.9v6.883H58.31V240.008Zm0,0" transform="translate(-47.992 -205.586)"/>
      <path id="Trazado_1176043" data-name="Trazado 1176043" d="M93.2.123c-.036-.016-.07-.025-.107-.038a1.14,1.14,0,0,0-.3-.059.438.438,0,0,0-.071-.017H57.163a1.147,1.147,0,0,0-1.147,1.147V3.449H58.31V2.3H91.577v9.177a1.147,1.147,0,0,0,1.147,1.147H101.9v5.736H104.2V11.479c0-.024-.012-.046-.014-.071a1.118,1.118,0,0,0-.059-.3c-.013-.037-.022-.071-.038-.107a1.14,1.14,0,0,0-.229-.336L93.531.344A1.149,1.149,0,0,0,93.2.123Zm7.08,10.21H93.871V3.924Zm0,0" transform="translate(-47.992)"/>
      <path id="Trazado_1176044" data-name="Trazado 1176044" d="M184.016,329.155v9.177a1.147,1.147,0,0,0,1.147,1.147h14.913v-2.294H186.31V330.3h5.736v-2.294h-6.883A1.147,1.147,0,0,0,184.016,329.155Zm0,0" transform="translate(-157.638 -280.967)"/>
      <path id="Trazado_1176045" data-name="Trazado 1176045" d="M216.016,360.008H222.9V362.3h-6.883Zm0,0" transform="translate(-185.05 -308.378)"/>
      <path id="Trazado_1176046" data-name="Trazado 1176046" d="M143.049,136.008a8.041,8.041,0,0,0-8.03,8.03v.115l-5.851,6.176-3.663-3.663a1.147,1.147,0,0,0-1.622,0l-10.324,10.324a1.148,1.148,0,0,0,0,1.622l16.06,16.06a1.148,1.148,0,0,0,1.622,0l3.441-3.441,6.072-6.07v17.88H96.016v2.294H141.9a1.147,1.147,0,0,0,1.147-1.147V156.657h-2.294v5.261l-4-4,6.178-5.851h.115a8.03,8.03,0,1,0,0-16.06Zm-12.619,36.234L115.992,157.8l1.819-1.819,14.438,14.438Zm8.7-8.7-5.261,5.261-14.438-14.438,5.261-5.261,2.9,2.9-2.581,2.723a1.147,1.147,0,0,0,.022,1.606l5.736,5.736a1.147,1.147,0,0,0,1.6.022l2.724-2.581Zm3.916-13.766h-.574a1.149,1.149,0,0,0-.789.314L131.6,159.639l-4.152-4.152L137,145.4a1.147,1.147,0,0,0,.31-.789v-.574a5.736,5.736,0,1,1,5.736,5.736Zm0,0" transform="translate(-82.257 -116.499)"/>
      <path id="Trazado_1176047" data-name="Trazado 1176047" d="M152.016,232.008h11.472V234.3H152.016Zm0,0" transform="translate(-130.227 -198.733)"/>
      <path id="Trazado_1176048" data-name="Trazado 1176048" d="M104.016,264.008h13.766V266.3H104.016Zm0,0" transform="translate(-89.11 -226.144)"/>
      <path id="Trazado_1176049" data-name="Trazado 1176049" d="M176.016,200.008h13.766V202.3H176.016Zm0,0" transform="translate(-150.785 -171.321)"/>
      <path id="Trazado_1176050" data-name="Trazado 1176050" d="M104.016,296.008H110.9V298.3h-6.883Zm0,0" transform="translate(-89.11 -253.556)"/>
      <path id="Trazado_1176051" data-name="Trazado 1176051" d="M104.016,328.008h9.177V330.3h-9.177Zm0,0" transform="translate(-89.11 -280.967)"/>
      <path id="Trazado_1176052" data-name="Trazado 1176052" d="M104.016,360.008h9.177V362.3h-9.177Zm0,0" transform="translate(-89.11 -308.378)"/>
      <path id="Trazado_1176053" data-name="Trazado 1176053" d="M104.016,392.008h9.177V394.3h-9.177Zm0,0" transform="translate(-89.11 -335.79)"/>
      <path id="Trazado_1176054" data-name="Trazado 1176054" d="M104.016,232.008H108.6V234.3h-4.589Zm0,0" transform="translate(-89.11 -198.733)"/>
      <path id="Trazado_1176055" data-name="Trazado 1176055" d="M168.016,296.008H172.6V298.3h-4.589Zm0,0" transform="translate(-143.932 -253.556)"/>
      <path id="Trazado_1176056" data-name="Trazado 1176056" d="M200.016,160.008h11.472V162.3H200.016Zm0,0" transform="translate(-171.344 -137.057)"/>
      <path id="Trazado_1176057" data-name="Trazado 1176057" d="M13.759,59.528A13.766,13.766,0,0,0,27.5,46.243a3.032,3.032,0,0,0,2.224.7,3.111,3.111,0,0,0,4.777,0,3.112,3.112,0,0,0,3.377-3.377,3.111,3.111,0,0,0,0-4.777A3.112,3.112,0,0,0,34.5,35.408a3.111,3.111,0,0,0-4.777,0,3.112,3.112,0,0,0-3.377,3.377,2.978,2.978,0,0,0-.459.473,13.766,13.766,0,1,0-12.13,20.27Zm14.3-19.112a1.146,1.146,0,0,0,.652-1.572.8.8,0,0,1,1.073-1.073,1.146,1.146,0,0,0,1.572-.652.8.8,0,0,1,1.515,0,1.147,1.147,0,0,0,1.573.652.8.8,0,0,1,1.072,1.073,1.146,1.146,0,0,0,.652,1.572.8.8,0,0,1,0,1.515,1.147,1.147,0,0,0-.652,1.573.772.772,0,0,1-.158.917.781.781,0,0,1-.918.159,1.147,1.147,0,0,0-1.572.651.8.8,0,0,1-1.515,0,1.144,1.144,0,0,0-.642-.676,1.17,1.17,0,0,0-.439-.087,1.123,1.123,0,0,0-.491.115.8.8,0,0,1-1.072-1.073,1.147,1.147,0,0,0-.652-1.573.8.8,0,0,1,0-1.514Zm-14.3-6.126A11.472,11.472,0,1,1,2.288,45.762,11.471,11.471,0,0,1,13.759,34.29Zm0,0" transform="translate(0 -27.4)"/>
      <path id="Trazado_1176058" data-name="Trazado 1176058" d="M37.8,95.445a1.148,1.148,0,0,0,1.622,0L50.894,83.974l-1.622-1.622-10.66,10.66-2.63-2.63L34.359,92Zm0,0" transform="translate(-29.441 -70.536)"/>
    </g>
  </g>
</svg>
